<svg width="178" height="56" viewBox="0 0 178 56" fill="none" xmlns="http://www.w3.org/2000/svg">
<path d="M88.0695 0.489122C88.652 0.182903 89.348 0.182903 89.9305 0.489122L99.9539 5.75771C100.405 5.99494 100.93 6.05084 101.421 5.91398L116.814 1.62492C117.632 1.39676 118.506 1.7111 118.992 2.40869L122.227 7.05485C122.66 7.67723 123.408 8.00096 124.159 7.89081L141.426 5.35594C142.93 5.13515 144.121 6.60674 143.592 8.03164L143.256 8.93472C142.755 10.2824 143.797 11.7027 145.233 11.629L160.159 10.8628C161.894 10.7737 162.638 13.0325 161.188 13.9915C159.802 14.9088 160.411 17.0651 162.072 17.1216L171.799 17.4523C173.676 17.5161 174.056 20.1394 172.275 20.7338C170.574 21.3011 170.819 23.7791 172.597 24.0031L175.549 24.3747C177.684 24.6435 177.765 27.7065 175.648 28.089L175.074 28.1928C173.212 28.5292 173.128 31.1692 174.965 31.6232C176.899 32.1011 176.667 34.9213 174.681 35.0764L168.21 35.5814C166.497 35.7151 166.084 38.0402 167.646 38.7552C169.279 39.5025 168.735 41.9491 166.939 41.9339L154.433 41.8279C152.806 41.8141 151.946 43.7491 153.048 44.9473C154.203 46.2037 153.198 48.2222 151.499 48.0581L134.93 46.4573C133.878 46.3557 132.928 47.0905 132.762 48.1347L132.282 51.1602C132.104 52.2862 131.021 53.0354 129.905 52.8059L112.964 49.3246C112.386 49.2058 111.786 49.3483 111.322 49.7138L104.643 54.9867C104.092 55.4214 103.354 55.5358 102.697 55.2881L89.706 50.3864C89.251 50.2147 88.749 50.2147 88.294 50.3864L75.3026 55.2881C74.6462 55.5358 73.9081 55.4214 73.3574 54.9867L66.6776 49.7138C66.2145 49.3483 65.6136 49.2058 65.0358 49.3246L48.0955 52.8059C46.9787 53.0354 45.8962 52.2863 45.7176 51.1602L45.2376 48.1347C45.0719 47.0905 44.1222 46.3557 43.07 46.4573L26.5006 48.0581C24.802 48.2222 23.7972 46.2037 24.9521 44.9473C26.0535 43.7491 25.1941 41.8141 23.5667 41.8279L11.0607 41.9339C9.26487 41.9491 8.72074 39.5025 10.3538 38.7552C11.916 38.0402 11.5033 35.7151 9.7905 35.5814L3.31915 35.0764C1.33285 34.9213 1.10058 32.1011 3.03476 31.6232C4.8722 31.1692 4.78836 28.5292 2.92582 28.1928L2.35163 28.089C0.23454 27.7065 0.316469 24.6435 2.45098 24.3747L5.40256 24.0031C7.18107 23.7791 7.42568 21.3011 5.72527 20.7338C3.94379 20.1394 4.32423 17.5161 6.20116 17.4523L15.9279 17.1216C17.5893 17.0651 18.1983 14.9088 16.8119 13.9915C15.3624 13.0325 16.1057 10.7737 17.8414 10.8628L32.7669 11.629C34.2029 11.7027 35.2451 10.2824 34.7441 8.93472L34.4084 8.03165C33.8787 6.60675 35.0695 5.13515 36.5735 5.35594L53.8414 7.89081C54.5917 8.00096 55.3398 7.67723 55.7732 7.05485L59.0082 2.4087C59.494 1.7111 60.3676 1.39676 61.1864 1.62493L76.5787 5.91398C77.0699 6.05084 77.5948 5.99494 78.0461 5.75771L88.0695 0.489122Z" fill="#FBB03B"/>
</svg>
