<svg width="1920" height="817" viewBox="0 0 1920 817" fill="none" xmlns="http://www.w3.org/2000/svg">
<mask id="mask0_2390_308" style="mask-type:alpha" maskUnits="userSpaceOnUse" x="0" y="0" width="1920" height="817">
<rect width="1920" height="817" fill="#D9D9D9"/>
</mask>
<g mask="url(#mask0_2390_308)">
<g opacity="0.05">
<path d="M1578.68 418.614L1588.37 422.948L1599.51 418.975L1601.65 414.337L1600.21 411.087L1591.26 416.476L1570.79 413.948L1564.35 465.64L1570.79 463.835L1571.51 443.391L1577.26 447.696L1583.74 462.751L1587.93 460.446L1588.01 460.613L1587.96 460.446L1579.76 437.28L1588.01 430.475L1574.04 432.614L1570.07 426.892L1571.18 419.698L1578.68 418.614Z" fill="url(#paint0_linear_2390_308)"/>
<path d="M1607.73 374.116L1596.98 335.757L1572.23 316.369L1574.73 300.592L1568.62 288.398L1563.96 290.176L1562.18 305.981L1559.32 308.48L1561.46 318.174L1566.12 321.396L1565.07 326.757L1569.73 333.257L1572.23 333.951L1573.32 326.035L1591.62 340.757L1586.57 342.923L1579.04 338.979L1579.4 350.09L1582.98 351.145L1584.07 356.201L1589.09 357.256L1593.76 354.756L1589.45 345.784L1593.76 342.923L1598.76 358.367L1593.87 362.284L1591.23 361.95L1581.93 366.589L1580.82 375.95L1588.01 369.811L1590.9 369.478L1592.68 371.255L1593.37 377.394L1601.65 385.255L1603.79 375.2L1607.73 374.116Z" fill="url(#paint1_linear_2390_308)"/>
<path d="M1543.93 451.058L1544.6 450.53L1543.93 451.058Z" fill="url(#paint2_linear_2390_308)"/>
<path d="M1413.63 306.675L1419.19 302.342L1431.22 347.034L1428.69 347.923L1429.77 369.089L1434.27 367.645L1445.91 388.449L1444.69 391.838L1470.69 419.142L1435.55 346.451L1439.33 329.257L1442.19 327.257L1444.52 330.48L1444.19 335.702L1450.63 334.424L1464.1 351.09L1467.33 350.007L1471.46 352.895L1470.74 363.117L1497.13 340.507L1494.8 318.98L1472.19 292.787L1469.99 280.787L1484.55 269.288L1491.19 270.371L1492.44 278.26L1494.8 279.51L1504.49 268.205L1509.49 270.01L1532.27 258.705L1554.68 205.068L1546.43 207.763L1545.35 198.624L1547.13 194.874L1524.38 173.153L1536.04 158.07L1539.99 158.432L1526.02 153.432L1516.88 157.376L1516.32 153.237L1505.91 148.932L1506.1 145.154L1522.04 131.877L1525.66 134.933L1523.49 139.932L1524.77 147.321L1540.54 139.766L1546.65 141.738L1547.74 152.515L1560.46 159.154L1566.21 171.014L1564.6 175.847L1568.54 179.625L1578.76 175.681L1578.4 155.932L1558.82 141.793L1567.07 133.738L1566.35 126.738L1573.88 116.322L1579.6 120.294L1588.21 114.906L1593.24 74.9074L1575.65 44.5754L1558.4 39.0201L1555.18 44.381L1547.13 32.0204L1544.6 36.4924L1535.27 33.7981L1547.65 5.99374L1591.07 4.04936L1592.35 7.46589L1611.15 5.46597L1604.87 -8.17231L1616.9 -12.2832L1627.12 -2.617L1633.71 -10.0334L1630.04 -14.4498L1634.68 -16.0886L1639.87 -6.58905L1632.51 21.2153L1671.65 60.8802L1673.79 60.3525L1674.87 51.9084L1671.65 48.7141L1677.2 46.5197L1671.82 39.7145L1673.59 35.9646L1677.73 37.2146L1669.29 25.5484L1672.54 26.7984L1657.46 12.9934L1653.84 13.5212L1651.87 9.60468L1652.96 6.54926L1649.21 1.35505L1657.57 -1.53371L1661.37 -0.47821L1663.34 2.41055L1667.12 -1.17263L1682.32 1.52171L1682.54 -3.53363L1691.37 -13.5888L1708.95 -15.172L1687.98 -26.3104L1688.15 -29.3658L1691.76 -33.1157L1689.79 -36.1711L1729.95 -27.227L1729.42 -36.3655L1601.68 -64.0032L1611.57 -55.7536L1555.04 -60.42L1550.04 -65.8365L1442.05 -77.1138L1450.08 -71.0029L1418.52 -74.0583L1418.72 -66.6975L1367.94 -84.8079L1362.58 -79.6136L1347.33 -80.1414L1344.61 -83.0024L1324.53 -82.8357L1316.8 -88.4188L1311.08 -87.1411L1306.78 -82.4746L1294.58 -81.5858L1312.36 -92.002L1308.42 -97.5851L1197.5 -89.3077L1202.92 -84.8356L1179.2 -83.0579L1195.2 -73.1973L1170.25 -76.7804L1167.92 -73.725L1171 -70.3085L1171.17 -67.6142L1154.67 -80.7247L1170.25 -54.7258L1174.2 -57.4202L1173.7 -55.2814L1172.78 -54.9203L1171.89 -41.4486L1166.87 -40.3654L1162.2 -41.9764L1167.59 -46.0873L1168.31 -51.6704L1151.98 -70.3085L1151.09 -78.7526L1139.4 -83.0579L1135.48 -81.2802L1132.98 -74.6416L1133.7 -71.9473L1128.67 -68.5308L1144.62 -50.4205L1097.42 -65.3087L1093.65 -63.3366L1102.62 -52.9204L1044.95 -42.8375L1041.01 -45.6707L1045.48 -49.2539L1040.45 -54.087L1028.48 -54.0592L1033.65 -44.0319L1037.04 -42.4486L1036.48 -39.3932L1017.48 -34.3656L1019.98 -30.9769L1016.93 -29.1714L1006.9 -32.5879L1002.04 -31.1435L1003.82 -28.0881L1009.93 -26.6437L995.068 -29.3381L987.179 -40.6431L1021.09 -42.2542L1022.71 -45.8651L1021.62 -48.9205L966.903 -60.7534L970.514 -65.2532L891.211 -52.1426L898.739 -51.4204L875.962 -21.2829L859.268 -20.394L852.102 -13.561L852.435 9.41024L857.463 12.799L880.24 5.82708L886.323 18.1876L885.601 26.7984L877.351 28.9649L879.684 25.3818L876.99 19.7987L877.545 15.8544L869.129 18.1876L867.879 36.6868L869.323 39.0201L866.629 42.4366L845.991 47.2697L844.38 55.7138L818.02 72.9075L809.048 68.6021L810.826 78.2961L796.466 75.9629L792.882 80.4627L807.243 88.7123L812.27 99.823L805.993 114.545L776.578 112.739L775.3 111.322H772.078L769.383 114.35L765.439 114.545L764.384 155.071L777.133 159.404L779.827 165.126L781.438 166.209L781.966 167.653L760.606 189.347L756.106 209.624L742.662 222.373L735.496 223.984L722.747 241.039V247.122L708.747 268.093L712.33 281.926L709.83 284.426L708.219 314.23L703.914 317.619L704.081 319.786L707.858 322.813L710.025 340.062L764.189 392.977L795.049 387.616L800.049 389.949L836.131 378.283L842.964 380.95L850.491 393.866L867.018 392.616L874.351 399.449L868.074 430.503L896.072 483.584L893.211 487.528L924.599 650.799L921.932 657.799L926.932 669.298L932.654 672.52L977.347 664.271L1011.26 628.189L1014.48 609.551L1030.46 597.162L1030.09 564.497L1065.81 535.832L1060.95 454.169L1133.45 338.618L1091.12 349.007L1083.95 341.479L1085.04 336.09L1019.01 224.484L1026.37 223.762L1078.76 307.203L1072.45 301.453L1071.2 305.258L1087.01 333.063L1097.06 331.091L1098.84 327.119L1156.98 301.453L1158.59 295.37L1164.31 295.009L1165.92 290.898L1171.48 287.481L1172.17 278.51L1176.31 279.76L1177.59 276.704L1176.14 274.76L1182.42 265.621L1182.59 262.371L1159.45 242.622L1159.09 235.456L1134.7 251.955L1131.28 250.539L1130.76 241.733L1126.45 236.178L1123.2 242.456L1107.06 213.374L1120.15 209.624L1144.7 234.206L1153.84 233.65L1158.87 229.873L1163.87 232.373L1164.59 238.317L1222 244.039L1243.53 260.76L1245.86 260.566L1240.14 263.094L1252.14 275.843L1259.5 271.343L1259.86 266.149L1262.22 266.316L1294.17 363.923L1300.08 366.422L1305.8 358.367L1309.94 357.645L1313.89 360.145L1319.8 380.783L1325.19 375.95L1327.53 367.672L1313.53 353.534L1314.28 356.034L1313.53 356.951L1309.42 355.34L1313.75 311.564L1358.77 267.788L1359.14 270.482L1376.19 264.232L1376.52 262.066L1390 283.259L1393.94 282.704L1392.69 288.648L1400.58 296.703L1400.02 309.619L1407.38 312.147L1413.63 306.675ZM887.628 35.048L888.906 30.1871L900.905 33.6037L902.516 32.1593L900.017 30.7149L908.266 25.8817L911.322 18.8821L909.683 16.7155L912.21 10.2713L919.738 5.93816L921.349 -22.2273L948.237 -35.6711L948.959 -33.1712L930.849 -19.5329L933.71 -0.867081L936.737 1.27171L968.68 -2.31145L970.847 -0.700432L964.764 4.68823L943.237 6.29928L942.515 8.8825L947.376 12.1046L947.737 18.7432L940.57 16.4099L931.932 26.4373L933.737 32.187L898.044 40.7978L895.517 39.7145L893.545 35.9646L881.712 40.4367V40.0756H881.684L887.628 35.048ZM1030.34 172.931L1023.07 192.041L991.04 201.18L949.598 188.541L949.042 186.93L939.098 190.402L929.96 207.624L910.599 200.902L905.489 194.985L885.545 188.264L878.018 159.459L871.046 156.515L790.549 173.209L784.911 168.626L786.244 165.431L811.798 154.932L813.937 149.293L817.715 147.654L816.381 143.071L824.159 130.96L835.186 125.572L836.797 116.156L844.88 113.739L854.046 116.711L867.768 107.295L873.962 108.628L910.016 143.877L902.489 152.765L888.767 152.237L902.239 160.598L906.266 157.904L907.6 153.071L915.683 147.432L915.405 145.543L917.849 143.627L914.044 137.182L918.932 135.044L924.016 138.016L924.849 134.766L908.961 126.433L908.433 123.739L888.517 102.74L893.628 96.0176L931.015 133.405L929.96 137.432L947.181 160.848L953.264 161.487L955.014 155.459L960.375 151.432L952.292 140.96L953.375 135.821L959.042 138.516L964.653 133.405L979.485 160.32L991.874 165.153L998.596 161.654L1015.82 165.709L1023.07 162.209L1030.34 172.931ZM1057.23 125.572L1051.32 131.488L1017.43 123.128L995.374 130.655L976.263 121.766H979.235L978.708 114.517L981.374 112.878L983.263 105.073L986.513 103.739L987.318 99.7119L994.318 91.8789L1006.43 95.6565L1002.12 99.6841L1012.62 106.934L1014.23 104.239L1024.46 100.99L1016.93 97.4897L1020.96 91.2956L1036.84 87.5457L1026.87 99.6841L1027.4 102.906L1057.23 125.572ZM1118.84 161.876L1102.7 147.626L1106.2 143.849L1107.01 137.682L1108.62 137.405L1088.7 115.35L1090.31 110.239L1085.48 109.156L1084.4 104.851L1107.26 88.7123L1115.04 92.2122L1114.76 101.906L1109.4 100.823L1122.03 128.794L1130.15 129.072L1122.59 132.822L1121.78 136.321L1129.06 143.349L1133.37 159.737L1118.84 161.876Z" fill="url(#paint3_linear_2390_308)"/>
<path d="M731.326 -62.5586L738.354 -81.9467L750.714 -88.9186L747.492 -90.0297L748.548 -98.0849L756.103 -100.779L750.714 -110.473L788.407 -126.611L758.797 -123.389L757.714 -127.139L578.499 -118.001L577.944 -114.223L542.945 -109.918L540.807 -106.14L577.416 -95.9183L584.944 -74.3915L596.804 -69.0306L583.86 -66.864L583.333 -60.9198L594.11 -63.0864L592.999 -59.3088L585.471 -57.6977L577.944 -48.5592L583.333 -4.97781L609.193 0.410843L634.469 -30.81L731.326 -62.5586Z" fill="url(#paint4_linear_2390_308)"/>
<path d="M1728.64 460.614L1726.89 454.142L1681.67 433.337L1662.62 445.17L1649.01 427.587L1633.92 429.782L1647.56 441.587L1650.45 452.364L1677.37 459.53L1686.34 481.085L1709.64 488.585L1715 482.502L1731.17 484.668L1738.72 493.64L1754.86 498.307L1736.2 472.474L1742.64 470.669L1728.64 460.614Z" fill="url(#paint5_linear_2390_308)"/>
<path d="M1562.54 386.339L1546.4 375.923L1510.88 413.227L1500.82 411.088L1501.52 414.338L1499.04 420.421L1507.99 448.059L1543.93 451.058L1560.38 418.254L1553.93 407.144L1562.54 386.339Z" fill="url(#paint6_linear_2390_308)"/>
<path d="M1740.87 581.885L1716.84 525.193L1710.37 525.915L1705.34 500.805L1703.56 500.083L1687.04 549.248L1673.4 543.859L1662.62 521.971L1664.06 517.694L1669.81 512.999V510.138L1657.59 510.499L1640.01 500.805L1642.01 509.25L1632.12 511.194L1622.43 525.554L1623.51 528.054L1613.09 530.582L1609.51 524.138L1598.76 524.499L1597.32 531.999L1591.93 530.582L1587.26 538.47L1582.65 540.276L1580.1 545.637L1578.68 539.915L1573.29 544.942L1571.49 553.164L1518.77 582.246L1517.68 579.385L1513.71 583.691V592.663L1509.77 598.023L1511.93 606.273L1505.82 609.523L1503.68 664.771L1500.46 665.132L1509.41 674.492L1607.37 650.771L1621.73 663.354L1621.01 670.159L1625.32 672.326L1640.73 658.687L1632.84 669.437L1633.18 672.687L1637.54 669.076L1639.32 670.52L1627.82 682.381L1640.73 681.659L1638.59 686.658L1656.18 700.325L1667.68 695.63L1671.95 703.908L1685.23 693.492L1695.65 692.408L1751.98 603.801L1740.87 581.885Z" fill="url(#paint7_linear_2390_308)"/>
<path d="M1661.2 715.741L1655.45 711.436V710.353L1648.65 733.324L1655.81 734.407L1675.2 713.575L1661.2 715.741Z" fill="url(#paint8_linear_2390_308)"/>
<path d="M1855.7 694.935L1848.5 686.658L1850.31 674.075L1843.84 670.159L1837.75 700.324L1828.42 703.907L1832.72 712.157L1826.61 717.546L1814.78 713.935L1754.87 751.988L1764.2 757.016L1821.98 718.99L1826.98 720.379L1846.36 709.99L1848.5 703.518L1852.47 703.907L1865 689.908L1855.7 694.935Z" fill="url(#paint9_linear_2390_308)"/>
<path d="M1558.6 267.205L1560.74 242.095L1557.16 243.511L1553.21 259.288L1558.6 267.205Z" fill="url(#paint10_linear_2390_308)"/>
<path d="M1512.29 482.835L1600.2 483.918L1587.29 493.973L1586.93 498.612L1610.98 481.751L1524.12 477.474L1528.1 472.113L1507.29 467.78L1505.13 472.446L1478.93 466.363L1474.63 471.363L1512.29 482.835Z" fill="url(#paint11_linear_2390_308)"/>
<path d="M1500.49 281.566H1500.46L1496.52 280.844L1492.94 282.26L1491.13 281.566L1487.19 286.955L1489.32 293.038H1494.35L1498.32 290.177L1500.49 281.566Z" fill="url(#paint12_linear_2390_308)"/>
<path d="M1479.29 459.891L1481.43 441.947L1477.13 442.669L1464.24 428.309L1467.43 424.003L1412.91 384.172L1473.88 466.362L1479.29 459.891Z" fill="url(#paint13_linear_2390_308)"/>
<path d="M1120.84 511.916L1089.59 539.915L1082.45 602.357L1096.42 606.662L1105.36 599.496L1121.53 537.054L1126.56 534.526L1123.31 510.5L1120.84 511.916Z" fill="url(#paint14_linear_2390_308)"/>
<path d="M354.538 277.87L319.595 260.677L291.318 266.315L292.402 271.704L305.04 262.01L350.26 281.398L354.538 277.87Z" fill="url(#paint15_linear_2390_308)"/>
<path d="M765.6 52.076L764.711 55.5203L771.711 58.0202L787.321 53.326L789.488 40.2432L792.904 38.2711L791.793 33.2713L779.266 32.188L775.488 36.8267L777.127 37.1878L775.294 38.9932H773.183L771.35 37.91L768.683 38.2711L767.766 39.8821L768.877 42.4098L767.044 44.1875L771.35 46.5207L771.016 49.0484L768.655 50.1039L765.6 52.076Z" fill="url(#paint16_linear_2390_308)"/>
<path d="M1682.32 1.52246L1682.4 1.68892L1682.32 1.52246Z" fill="url(#paint17_linear_2390_308)"/>
<path d="M789.99 28.9378H790.017L794.323 31.6321L796.656 31.1043L795.045 33.6042L802.933 37.2152L804.572 39.7151L804.183 45.0759L800.045 45.4648L796.85 49.048H799.517L799.878 51.5479L793.073 54.2422L793.239 56.9365L801.156 57.8254L801.878 59.0753L789.656 67.325L791.962 68.4083L793.406 66.6028L827.155 61.9641L830.377 48.5202L823.238 48.1314L823.377 44.5482L810.655 22.8269L814.044 18.9104L806.35 16.0217L811.739 6.88317L811.183 5.10547L808.683 6.1332L806.35 9.5775L799.878 9.38306L791.267 17.6327L790.906 24.438L793.073 25.549L791.101 26.6045L789.99 28.9378Z" fill="url(#paint18_linear_2390_308)"/>
<path d="M589.444 462.752L558.195 442.309L534.53 441.198L530.586 443.364V434.781L512.642 427.226L506.531 432.615V425.782L497.226 420.06L498.309 412.504L493.976 408.921L490.032 394.227L444.811 374.089L441.589 366.59L429.757 360.84L429.423 356.923L418.368 348.646L407.869 348.09L406.258 351.313L373.148 336.535L363.204 348.368L363.732 357.007L359.149 352.118L362.398 347.563V341.119L366.426 338.424L364.815 334.924L342.205 344.591L337.372 355.923L301.568 360.479L288.124 346.229L293.235 315.814L285.152 309.87H260.125L276.263 271.149L254.736 273.566L250.181 287.038L227.293 293.204L221.655 288.899L221.405 289.982L210.877 266.039L220.044 229.429L248.848 210.596L259.875 212.208L262.542 214.902L269.291 213.791L276.013 207.069L292.957 206.541L298.068 212.208L305.595 209.263L312.067 216.235L310.178 225.124L317.456 242.373L320.956 243.706L322.567 205.486L369.12 164.598L368.565 154.349L372.898 153.571L377.176 144.405L381.481 144.933L389.842 134.433L412.452 127.989L415.146 125.045L411.924 122.35L418.646 112.379L452.839 100.268L442.312 106.99L444.478 112.101L472.727 102.435L475.699 97.8514L483.227 96.4904L481.615 93.2683L482.171 88.9629L471.366 97.5736L460.894 97.0737L456.061 89.7684L464.922 74.9913L457.672 72.8247L431.284 84.6575L445.006 73.658L450.672 72.8247L457.144 66.9083L512.559 57.2143L513.67 58.5753L489.948 83.852L510.42 84.3798L511.753 88.1574L516.336 84.9353L518.753 91.1017L526.836 84.9353L524.419 77.9356L526.586 71.4637L517.142 71.7414L516.058 58.0198L522.53 49.909L518.225 36.2152L503.142 25.1879L506.114 18.1882L502.087 -3.08866L479.477 11.744L473.532 6.60537L474.088 -0.11657L479.199 -4.97747L470.838 -7.64401L470.31 -9.81059L462.255 -16.8103L459.811 -14.3659L442.062 -16.0048L423.618 10.9107L428.868 15.2161L424.812 24.8823L401.952 34.8541L397.647 52.6311L386.897 59.8808L382.12 48.3258L387.675 49.3813L388.508 45.6037L384.203 45.8814L390.119 32.9931L376.12 31.9098L372.926 28.1322L365.898 27.0489L365.343 24.0768L354.565 18.4382L348.121 19.2437L349.455 8.2164L343.01 7.1609L419.424 -37.5316L420.507 -36.9761L404.369 -24.0877L410.035 -23.2822L409.202 -20.0324L421.59 -26.2265L428.618 -22.1989L435.34 -22.4767L435.062 -27.5876L422.118 -37.5316L421.062 -40.2259L425.618 -39.6704L429.423 -36.4483L449.589 -47.2256L449.061 -50.7255L455.255 -56.6419L451.2 -60.9195L484.56 -55.2808L481.893 -52.8643L470.838 -51.5032L468.144 -46.1423L476.227 -45.059L482.421 -51.5032L489.143 -52.0587L490.226 -45.6146L475.949 -38.6149L475.699 -33.754L457.394 -34.0318L451.728 -29.4486L456.311 -25.421L474.866 -24.8655L478.671 -17.588L499.67 -15.1715L493.976 -21.9212L508.253 -15.1715L510.392 -21.1156L515.253 -24.06L507.725 -34.0318L507.975 -38.0594L524.391 -31.3374L526.836 -35.365L540.28 -40.7537L526.558 -51.0032L522.78 -49.9199L519.308 -53.9476L524.697 -62.2805L520.364 -66.5859L513.642 -67.9469L512.003 -71.4468L481.338 -82.4741L478.643 -81.6686L475.171 -84.3629L453.894 -75.1966L454.172 -84.3629L430.201 -70.6413L430.479 -64.1693L443.117 -62.0305L419.451 -44.8091L418.368 -49.1144L423.757 -52.3365L415.674 -57.9752L414.341 -73.0578L442.867 -85.6962L420.507 -84.8906L394.425 -64.4193L393.869 -58.2529L383.675 -60.1417L372.926 -55.8364V-49.9199L326.067 -51.781L325.539 -48.0311L294.04 -48.3089L303.734 -52.6143L266.597 -59.0584L265.542 -63.086L256.903 -59.5862L254.486 -65.2526L132.325 -69.0302L132.853 -70.4468L133.103 -70.6135L62.356 -52.892L65.0225 -41.0592L54.523 -39.9759L57.2173 -43.7258L29.7463 -36.1983L30.3018 -33.254L28.413 -29.7542L44.3012 -28.1431L46.19 -22.7545L3.10857 -10.0884L-2.25231 2.54999L7.16394 0.938942L1.7753 8.2164L15.7747 9.02193L-55 38.8817L56.1063 0.411194L55.6063 5.79984L117.215 3.3555L122.603 11.4385L120.992 35.1319L130.686 34.0486L129.325 62.8529L121.798 61.2419L121.52 68.2138L131.242 77.9078L95.1601 135.239L98.6599 176.154L112.937 188.514L119.381 220.54L114.02 224.318L120.187 232.901L122.631 233.207L127.492 238.845L125.575 246.373L136.353 261.705L140.936 257.15L122.076 209.235L123.964 198.208L131.77 199.819L145.241 232.901L143.63 240.179L163.268 263.594L162.99 273.01L160.018 277.594L161.629 284.066L178.073 296.148L180.74 295.621L212.238 311.509L222.738 308.287L290.846 366.423L293.263 364.812L305.068 372.617L309.651 369.895L308.345 364.812L312.623 360.507H316.4L320.428 363.729L320.15 367.479L325.011 375.284L325.261 397.088L315.039 408.143L314.789 414.588L308.595 417.004L303.207 439.614L308.595 444.447L300.234 454.697L375.592 556.054L393.869 730.796L398.536 730.463L395.675 722.574L399.258 722.935L402.119 740.49L399.258 737.962L394.953 742.657L398.536 745.879L396.036 757.35L401.063 758.073L404.647 760.934L401.063 767.044L441.951 810.82L466.005 816.903L476.393 809.376L447.339 789.988L444.811 782.822L448.756 779.961L453.783 763.1L442.312 753.767L443.006 745.49L447.339 743.018L449.117 730.435L453.061 725.768L445.2 724.713L441.589 718.991V714.658L453.45 715.352L456.672 710.714L457.033 700.658L476.755 697.797L477.838 678.409L471.366 667.993L467.783 668.715L471.033 665.493L488.948 672.687L505.475 639.994H510.836L518.725 619.912L516.947 608.051L556.807 582.941L589.444 462.752Z" fill="url(#paint19_linear_2390_308)"/>
<path d="M354.04 295.898L387.649 288.371L380.372 282.705L361.817 283.26L361.012 291.065H352.123L351.873 291.871L354.04 295.898Z" fill="url(#paint20_linear_2390_308)"/>
<path d="M1630 410.5C1631.2 392.5 1672.83 274.333 1693.5 217.5L1920.5 206.5L1932 395.5L1976 790.5L1774.5 809L1404.5 756.5C1405.67 687 1408 544.4 1408 530C1408 512 1465.5 508 1497.5 519.5C1529.5 531 1611.5 510 1626.5 500C1641.5 490 1643 478 1635.5 468C1628 458 1628.5 433 1630 410.5Z" fill="white"/>
</g>
</g>
<defs>
<linearGradient id="paint0_linear_2390_308" x1="1583" y1="411.087" x2="1583" y2="465.64" gradientUnits="userSpaceOnUse">
<stop stop-color="#63AB45"/>
<stop offset="1" stop-color="#63AB45" stop-opacity="0"/>
</linearGradient>
<linearGradient id="paint1_linear_2390_308" x1="1583.52" y1="288.398" x2="1583.52" y2="385.255" gradientUnits="userSpaceOnUse">
<stop stop-color="#63AB45"/>
<stop offset="1" stop-color="#63AB45" stop-opacity="0"/>
</linearGradient>
<linearGradient id="paint2_linear_2390_308" x1="1544.26" y1="450.53" x2="1544.26" y2="451.058" gradientUnits="userSpaceOnUse">
<stop stop-color="#63AB45"/>
<stop offset="1" stop-color="#63AB45" stop-opacity="0"/>
</linearGradient>
<linearGradient id="paint3_linear_2390_308" x1="1216.93" y1="-97.5851" x2="1216.93" y2="672.52" gradientUnits="userSpaceOnUse">
<stop stop-color="#63AB45"/>
<stop offset="1" stop-color="#63AB45" stop-opacity="0"/>
</linearGradient>
<linearGradient id="paint4_linear_2390_308" x1="664.607" y1="-127.139" x2="664.607" y2="0.410843" gradientUnits="userSpaceOnUse">
<stop stop-color="#63AB45"/>
<stop offset="1" stop-color="#63AB45" stop-opacity="0"/>
</linearGradient>
<linearGradient id="paint5_linear_2390_308" x1="1694.39" y1="427.587" x2="1694.39" y2="498.307" gradientUnits="userSpaceOnUse">
<stop stop-color="#63AB45"/>
<stop offset="1" stop-color="#63AB45" stop-opacity="0"/>
</linearGradient>
<linearGradient id="paint6_linear_2390_308" x1="1530.79" y1="375.923" x2="1530.79" y2="451.058" gradientUnits="userSpaceOnUse">
<stop stop-color="#63AB45"/>
<stop offset="1" stop-color="#63AB45" stop-opacity="0"/>
</linearGradient>
<linearGradient id="paint7_linear_2390_308" x1="1626.22" y1="500.083" x2="1626.22" y2="703.908" gradientUnits="userSpaceOnUse">
<stop stop-color="#63AB45"/>
<stop offset="1" stop-color="#63AB45" stop-opacity="0"/>
</linearGradient>
<linearGradient id="paint8_linear_2390_308" x1="1661.92" y1="710.353" x2="1661.92" y2="734.407" gradientUnits="userSpaceOnUse">
<stop stop-color="#63AB45"/>
<stop offset="1" stop-color="#63AB45" stop-opacity="0"/>
</linearGradient>
<linearGradient id="paint9_linear_2390_308" x1="1809.93" y1="670.159" x2="1809.93" y2="757.016" gradientUnits="userSpaceOnUse">
<stop stop-color="#63AB45"/>
<stop offset="1" stop-color="#63AB45" stop-opacity="0"/>
</linearGradient>
<linearGradient id="paint10_linear_2390_308" x1="1556.97" y1="242.095" x2="1556.97" y2="267.205" gradientUnits="userSpaceOnUse">
<stop stop-color="#63AB45"/>
<stop offset="1" stop-color="#63AB45" stop-opacity="0"/>
</linearGradient>
<linearGradient id="paint11_linear_2390_308" x1="1542.8" y1="466.363" x2="1542.8" y2="498.612" gradientUnits="userSpaceOnUse">
<stop stop-color="#63AB45"/>
<stop offset="1" stop-color="#63AB45" stop-opacity="0"/>
</linearGradient>
<linearGradient id="paint12_linear_2390_308" x1="1493.84" y1="280.844" x2="1493.84" y2="293.038" gradientUnits="userSpaceOnUse">
<stop stop-color="#63AB45"/>
<stop offset="1" stop-color="#63AB45" stop-opacity="0"/>
</linearGradient>
<linearGradient id="paint13_linear_2390_308" x1="1447.17" y1="384.172" x2="1447.17" y2="466.362" gradientUnits="userSpaceOnUse">
<stop stop-color="#63AB45"/>
<stop offset="1" stop-color="#63AB45" stop-opacity="0"/>
</linearGradient>
<linearGradient id="paint14_linear_2390_308" x1="1104.5" y1="510.5" x2="1104.5" y2="606.662" gradientUnits="userSpaceOnUse">
<stop stop-color="#63AB45"/>
<stop offset="1" stop-color="#63AB45" stop-opacity="0"/>
</linearGradient>
<linearGradient id="paint15_linear_2390_308" x1="322.928" y1="260.677" x2="322.928" y2="281.398" gradientUnits="userSpaceOnUse">
<stop stop-color="#63AB45"/>
<stop offset="1" stop-color="#63AB45" stop-opacity="0"/>
</linearGradient>
<linearGradient id="paint16_linear_2390_308" x1="778.808" y1="32.188" x2="778.808" y2="58.0202" gradientUnits="userSpaceOnUse">
<stop stop-color="#63AB45"/>
<stop offset="1" stop-color="#63AB45" stop-opacity="0"/>
</linearGradient>
<linearGradient id="paint17_linear_2390_308" x1="1682.36" y1="1.52246" x2="1682.36" y2="1.68892" gradientUnits="userSpaceOnUse">
<stop stop-color="#63AB45"/>
<stop offset="1" stop-color="#63AB45" stop-opacity="0"/>
</linearGradient>
<linearGradient id="paint18_linear_2390_308" x1="810.016" y1="5.10547" x2="810.016" y2="68.4083" gradientUnits="userSpaceOnUse">
<stop stop-color="#63AB45"/>
<stop offset="1" stop-color="#63AB45" stop-opacity="0"/>
</linearGradient>
<linearGradient id="paint19_linear_2390_308" x1="267.222" y1="-85.6962" x2="267.222" y2="816.903" gradientUnits="userSpaceOnUse">
<stop stop-color="#63AB45"/>
<stop offset="1" stop-color="#63AB45" stop-opacity="0"/>
</linearGradient>
<linearGradient id="paint20_linear_2390_308" x1="369.761" y1="282.705" x2="369.761" y2="295.898" gradientUnits="userSpaceOnUse">
<stop stop-color="#63AB45"/>
<stop offset="1" stop-color="#63AB45" stop-opacity="0"/>
</linearGradient>
</defs>
</svg>
