<svg width="119" height="28" viewBox="0 0 119 28" fill="none" xmlns="http://www.w3.org/2000/svg">
<path d="M117.547 13.3716C118.004 13.3716 118.403 13.3716 118.974 13.3716C118.004 12.9003 117.091 13.293 116.235 13.2145C115.779 12.9789 115.379 12.6647 114.695 12.8218C114.296 12.7432 113.896 12.7432 113.497 12.8218C113.383 12.6647 113.269 12.5862 113.155 12.4291C113.098 12.3505 112.926 12.272 112.869 12.1934C112.584 12.0364 112.299 11.9578 112.014 11.8007C112.185 11.7222 112.299 11.6437 112.47 11.5651C112.812 11.5651 113.155 11.4866 113.44 11.2509C113.725 11.0939 114.067 10.9368 114.01 10.7012L114.01 10.6226L114.01 10.5441C114.467 10.5441 114.98 10.5441 115.094 10.1514C115.037 9.99429 114.98 9.91575 114.923 9.75866C115.265 9.75866 115.608 9.91575 115.836 9.60158C116.064 9.28742 116.349 9.05179 116.635 8.81617C116.92 8.65908 117.205 8.58054 117.547 8.42346C117.547 8.03075 117.776 7.71659 118.232 7.48096C118.46 7.48096 118.802 7.55951 118.974 7.40242C119.088 7.08826 118.802 7.08826 118.688 7.08826C118.346 7.00972 117.947 7.00972 117.604 6.93117C117.604 6.77409 117.604 6.61701 117.604 6.53847C117.661 6.45993 117.776 6.38138 117.833 6.2243C117.833 6.14576 117.833 6.14576 117.833 6.06722C118.061 5.98868 118.289 6.2243 118.574 6.14576C118.46 5.98868 118.289 5.91014 118.061 5.8316C117.947 5.67451 117.718 5.51743 117.433 5.43889C117.547 5.12472 116.806 5.04618 116.977 4.73202C117.319 4.81056 117.376 5.04618 117.833 5.04618C117.718 4.81056 117.49 4.73202 117.205 4.57493C117.034 4.41785 116.977 4.26077 116.635 4.26077C116.692 4.33931 116.749 4.49639 116.749 4.57493C116.463 4.57493 116.178 4.57493 115.893 4.57493C115.665 4.49639 115.437 4.41785 115.208 4.26077C115.208 4.18223 115.151 4.18223 115.094 4.10368C115.265 4.02514 115.494 4.02514 115.665 3.9466C116.178 3.86806 115.665 3.63244 115.836 3.5539C116.235 3.5539 116.463 3.31827 116.749 3.16119C117.148 3.08265 117.661 3.23973 118.118 2.92556C117.547 2.92556 117.091 3.00411 116.692 3.00411C116.635 2.92556 116.635 2.84702 116.578 2.76848C116.806 2.6114 117.262 2.6114 117.319 2.37577C117.262 2.37577 117.205 2.37577 117.148 2.37577C116.578 2.14015 115.95 2.29723 115.322 2.29723C114.638 2.29723 114.01 2.29723 113.326 2.29723C112.869 2.21869 112.413 2.21869 112.014 2.14015C111.957 2.14015 111.9 2.14015 111.842 2.14015C111.614 1.98307 110.759 2.14015 111.158 1.59036C110.188 1.04057 108.99 0.96203 107.792 0.883489C107.507 0.883489 107.221 0.883489 106.993 0.883489C105.909 0.804947 104.94 0.41224 103.856 0.647864C103.342 0.647864 102.886 0.333699 102.315 0.490782C101.973 0.490782 101.631 0.41224 101.402 0.569323C101.345 0.569323 101.288 0.569323 101.174 0.569323C100.775 0.333699 100.319 0.41224 99.8622 0.41224C99.7481 0.41224 99.5769 0.41224 99.4628 0.41224C98.55 0.176616 97.5232 0.333699 96.5533 0.176616C96.0969 0.0980747 95.6976 0.0980747 95.2412 0.176616C94.7278 0.176616 94.2143 0.176616 93.7009 0.176616C93.6438 0.176616 93.5868 0.176616 93.4727 0.176616C92.9592 0.176616 92.5028 0.255157 91.9894 0.255157C90.5061 0.255157 89.0229 0.176616 87.5396 0.176616C87.4825 0.176616 87.3684 0.176616 87.3114 0.176616C86.855 0.176616 86.3986 0.176616 85.9422 0.176616C85.8852 0.255157 85.9422 0.255157 85.9993 0.333699L85.9422 0.333699C85.9422 0.255157 85.9422 0.255157 85.9422 0.176616C85.8281 0.176616 85.7711 0.176616 85.657 0.176616C85.3147 0.0195331 84.9724 0.0195331 84.6301 0.0195331C82.8045 0.0195331 80.9219 0.019533 79.0963 0.019533C78.9822 0.0980743 78.9822 0.0980743 79.0963 0.176616C80.9219 0.176616 82.8045 0.176616 84.6301 0.176616C82.0629 0.0980744 79.4386 0.0980744 76.8714 0.176616C76.8144 0.255157 76.8714 0.255157 76.9285 0.255157L76.8714 0.255157C76.8714 0.333698 76.8714 0.333698 76.8714 0.41224C76.9285 0.333698 76.9285 0.333698 76.8714 0.255157L76.8714 0.176616C76.6432 0.176616 76.415 0.176616 76.1868 0.176616C75.217 0.176616 74.1901 0.0980742 73.2203 0.255157C73.1632 0.255157 73.1632 0.255157 73.1632 0.255157C73.1062 0.255157 73.0491 0.255157 72.9921 0.255157C72.5357 0.176616 72.1364 0.176616 71.68 0.255157C69.341 0.255157 67.0019 0.176615 64.6629 0.41224C63.9783 0.41224 63.2367 0.412239 62.5521 0.412239C62.381 0.412239 62.2669 0.412239 62.0957 0.412239C62.3239 0.333698 62.5521 0.255157 62.7803 0.255157C62.438 0.176615 62.0957 0.098074 61.8675 0.333698C61.4111 0.333698 61.0118 0.333698 60.5554 0.333698C60.2702 0.333698 60.042 0.333698 59.8708 0.490781C58.8439 0.490781 57.8171 0.333698 56.8472 0.569322C56.7902 0.569322 56.7902 0.569322 56.7331 0.569322C54.5653 0.569322 52.3404 0.569322 50.1725 0.647863C50.0013 0.647863 49.8872 0.647863 49.7161 0.647863C47.7194 0.647863 45.7227 0.647863 43.726 0.647863C42.4138 0.647863 41.1588 0.726405 39.9607 0.726404C39.7896 0.726404 39.6755 0.726404 39.5043 0.726404C38.8197 0.726404 38.1922 0.726404 37.5076 0.726404C36.7089 0.726404 35.8532 0.726404 35.0545 0.726404C34.7122 0.726404 34.3129 0.726404 33.9706 0.726404C33.5142 0.726404 33.0578 0.726404 32.6585 0.726404C32.4873 0.726404 32.3732 0.726404 32.2021 0.726404C31.5745 0.726404 30.947 0.726404 30.2624 0.726404C29.5208 0.569322 28.7791 0.569321 27.9804 0.569321C27.4099 0.569321 26.8395 0.569321 26.269 0.49078C25.7555 0.412239 25.185 0.412239 24.6716 0.49078C24.4434 0.49078 24.2723 0.49078 24.0441 0.49078C23.0172 0.255156 21.9903 0.333697 20.9064 0.255156C20.3359 0.0195317 19.6513 0.176614 18.9667 0.098073C18.6244 0.0195317 18.3392 -0.0590097 18.2821 0.255156C17.8828 0.569321 17.9398 1.04057 17.4834 1.35473C16.97 1.6689 16.97 2.06161 17.3123 2.37577C17.3123 2.45431 17.3693 2.45431 17.4264 2.45431C17.5975 2.76848 17.8257 2.92556 18.0539 3.16119C17.3123 3.16119 16.8559 3.47535 16.3995 3.71098C16.2283 3.78952 16.0572 3.86806 16.0002 4.02514C15.829 4.02514 15.6579 4.10368 15.6008 4.18222C15.2585 4.26077 14.688 4.02514 14.5169 4.41785L14.4598 4.41785C14.1175 4.41785 13.7752 4.41785 13.4329 4.41785C13.0907 4.26077 12.8054 4.26077 12.292 4.26077C12.6913 4.49639 13.0336 4.57493 13.4329 4.57493C13.547 4.65347 13.6611 4.65347 13.7752 4.73201C13.7182 5.12472 13.6611 5.43889 13.6041 5.83159C13.6611 5.83159 13.7182 5.91013 13.7752 5.91013L13.7182 5.91013C13.6041 5.91013 13.547 5.91013 13.4329 5.91013C13.2048 5.91013 12.9766 5.91013 12.8054 5.91013C12.5202 5.98868 12.2349 5.98868 11.8926 6.06722C10.9798 6.2243 9.95296 6.30284 9.21132 6.77409C8.58378 6.85263 8.18444 7.24534 7.5569 7.40242C8.01329 7.5595 8.24149 7.32388 8.58378 7.32388C8.64083 7.40242 8.75493 7.40242 8.81198 7.48096C8.64083 7.63804 8.46969 7.71659 8.35559 7.87367C7.671 7.95221 7.38575 8.26638 6.98641 8.58054C6.75822 8.65908 6.53002 8.81616 6.58707 8.97325C6.75822 9.52304 5.67429 9.68012 5.61724 10.2299C5.90248 10.0728 6.13068 9.99429 6.35887 9.91574C6.35887 9.99429 6.35887 9.99429 6.35887 10.0728C6.18773 10.2299 6.07363 10.387 5.90248 10.4655C6.13068 10.7012 6.01658 10.9368 5.67429 11.1724C5.44609 11.2509 5.21789 11.408 5.04675 11.4866C4.8756 11.4866 4.70445 11.4866 4.59035 11.6437C3.62052 11.9578 3.62052 12.0364 4.70445 12.4291C4.70445 12.5076 4.7615 12.5862 4.7615 12.6647C3.90577 12.6647 3.16413 12.9003 2.42249 13.1359C2.02315 13.293 2.1943 13.3716 2.53659 13.3716C2.36544 13.7643 1.79495 13.7643 1.39561 13.9214C1.16742 14.0784 0.93922 14.157 0.653975 14.3141C1.05332 14.3141 1.39561 14.3141 1.73791 14.3926C1.90905 14.5497 1.852 14.6282 1.50971 14.6282C1.05332 14.6282 0.653975 14.6282 0.0834849 14.6282C1.05332 15.0995 1.9661 14.7068 2.82184 14.7853C3.27823 15.0209 3.67757 15.3351 4.36216 15.178C4.7615 15.2566 5.16084 15.2566 5.56019 15.178C5.56019 15.3351 5.73133 15.4922 5.78838 15.6493C5.84543 15.7278 6.01658 15.8063 6.13068 15.8849C6.41592 16.042 6.70117 16.1205 6.98641 16.2776C6.81526 16.3561 6.70117 16.4347 6.53002 16.5918C6.18773 16.5918 5.84543 16.6703 5.56019 16.9059C5.27494 17.063 4.93265 17.2201 4.9897 17.4557L4.9897 17.5343L4.9897 17.6128C4.53331 17.6128 4.01986 17.6128 3.90577 18.0055C3.96282 18.084 4.01986 18.2411 4.07691 18.3197C3.73462 18.3197 3.39233 18.1626 3.16413 18.4768C2.93593 18.7909 2.65069 19.0265 2.36544 19.2622C2.0802 19.4978 1.73791 19.5763 1.45266 19.7334C1.45266 20.1261 1.22446 20.4403 0.768073 20.6759C0.539877 20.6759 0.197583 20.5974 0.0264358 20.7545C-0.0876622 20.9115 0.197583 20.9115 0.311681 20.9115C0.653975 20.9901 1.05332 20.9901 1.39561 21.0686C1.39561 21.2257 1.39561 21.3828 1.39561 21.4613C1.39561 21.6184 1.33856 21.6969 1.22446 21.7755C1.22446 21.854 1.22446 21.854 1.22446 21.9326C0.996268 22.0111 0.768073 21.7755 0.482828 21.9326C0.596926 22.0897 0.825122 22.1682 0.996268 22.2467C1.16742 22.4038 1.39561 22.5609 1.68086 22.6394C1.56676 22.9536 2.3084 23.0322 2.13725 23.3463C1.79495 23.2678 1.73791 23.0322 1.28151 23.0322C1.39561 23.2678 1.62381 23.3463 1.90905 23.5034C2.0802 23.5819 2.13725 23.739 2.47954 23.739C2.42249 23.6605 2.42249 23.5819 2.36544 23.4249C2.65069 23.4249 2.93593 23.4249 3.22118 23.4249C3.44937 23.5819 3.67757 23.6605 3.90577 23.739C3.90577 23.8176 3.96282 23.8176 4.01986 23.8961C3.84872 23.9746 3.62052 23.9746 3.44937 24.0532C2.93593 24.1317 3.44937 24.3674 3.27823 24.4459C2.87888 24.4459 2.65069 24.6815 2.36544 24.8386C1.90905 24.9171 1.45266 24.7601 0.939219 24.9957C1.50971 24.9957 1.9661 24.9171 2.36544 24.9171C2.42249 25.0742 2.42249 25.1528 2.47954 25.2313C2.59364 25.3099 2.65069 25.3099 2.76479 25.3884C2.76479 25.2313 2.70774 25.1528 2.47954 25.2313C2.3084 25.3884 1.79495 25.3884 1.73791 25.624C1.79495 25.624 1.852 25.624 1.90905 25.624C2.47954 25.8596 3.10708 25.7026 3.73462 25.7026C4.41921 25.7026 5.04675 25.7026 5.73133 25.7026C6.13068 25.8596 6.58707 25.8596 7.04346 25.9382C7.10051 25.9382 7.15756 25.9382 7.21461 25.9382C7.4428 26.1738 8.29854 26.0167 7.8992 26.488C8.86903 27.0378 10.0671 27.1163 11.2651 27.1948C11.5503 27.1948 11.8356 27.1948 12.0638 27.1948C13.1477 27.2734 14.1175 27.6661 15.2015 27.4305C15.7149 27.4305 16.1713 27.7446 16.7418 27.5876C17.0841 27.5876 17.4264 27.6661 17.6546 27.509C17.7116 27.509 17.7687 27.509 17.8828 27.509C18.2821 27.7446 18.7385 27.7446 19.1949 27.6661C19.309 27.6661 19.4801 27.6661 19.5942 27.6661C20.507 27.9017 21.5339 27.7446 22.5037 27.9017C22.9601 27.9803 23.3595 27.9803 23.8159 27.9017C24.3293 27.9017 24.8427 27.9017 25.3562 27.9017C25.4132 27.9017 25.5273 27.9017 25.5844 27.9017C26.0978 27.9017 26.5542 27.8232 27.0677 27.8232C28.5509 27.8232 30.0342 27.9017 31.5175 27.9017C31.5745 27.9017 31.6886 27.9017 31.7457 27.9017C32.2021 27.9017 32.6585 27.9017 33.1148 27.9017C33.1719 27.8232 33.1148 27.8232 33.0578 27.7446L33.1148 27.7446C33.1148 27.8232 33.1148 27.8232 33.1148 27.9017C33.2289 27.9017 33.286 27.9017 33.4001 27.9017C33.6853 27.9803 34.0276 27.9803 34.427 27.9803C36.2525 27.9803 38.1352 27.9803 39.9607 27.9803C40.0748 27.9017 40.0748 27.9017 39.9607 27.8232C38.1352 27.8232 36.2525 27.8232 34.427 27.8232C36.9942 27.9017 39.6184 27.9017 42.1856 27.8232C42.2427 27.7446 42.1856 27.7446 42.1286 27.7446L42.1856 27.7446C42.1856 27.6661 42.1856 27.6661 42.1856 27.5876C42.1286 27.6661 42.1286 27.6661 42.1856 27.7446L42.1856 27.8232C42.4138 27.8232 42.642 27.8232 42.8702 27.8232C43.8401 27.8232 44.8669 27.9017 45.8368 27.7446L45.8938 27.7446C45.9509 27.7446 46.0079 27.7446 46.065 27.7446C46.5214 27.8232 46.9207 27.8232 47.3771 27.7446C49.7161 27.7446 52.0551 27.8232 54.3941 27.5876C55.0787 27.5876 55.8203 27.5876 56.5049 27.5876C56.6761 27.5876 56.7902 27.5876 56.9613 27.5876C56.7331 27.6661 56.5049 27.7446 56.2767 27.8232C56.619 27.9017 56.9613 27.9803 57.1895 27.7446C57.6459 27.7446 58.0453 27.7446 58.5016 27.7446C58.5587 27.6661 58.5587 27.6661 58.5016 27.5876C58.5016 27.6661 58.5016 27.6661 58.5016 27.7446C58.7869 27.7446 59.0151 27.7446 59.1862 27.5876C60.2131 27.509 61.297 27.7446 62.3239 27.509C64.4918 27.509 66.7167 27.509 68.8846 27.4305C69.0557 27.4305 69.1698 27.4305 69.3409 27.4305C71.3377 27.4305 73.3344 27.4305 75.3311 27.4305C76.5862 27.3519 77.7842 27.3519 79.0393 27.2734C79.2104 27.2734 79.3245 27.2734 79.4957 27.2734C80.1803 27.2734 80.8078 27.2734 81.4924 27.2734C82.2911 27.2734 83.1468 27.2734 83.9455 27.2734C84.2878 27.2734 84.6871 27.2734 85.0294 27.2734C85.4858 27.2734 85.8852 27.2734 86.3415 27.2734C86.5127 27.2734 86.6268 27.2734 86.7979 27.2734C87.4255 27.2734 88.053 27.2734 88.7376 27.2734C88.7376 27.2734 88.7376 27.2734 88.7947 27.2734C89.5363 27.4305 90.2779 27.4305 91.0196 27.3519C91.5901 27.3519 92.1605 27.3519 92.731 27.4305C93.2445 27.5876 93.815 27.509 94.3284 27.509C94.5566 27.509 94.7278 27.509 94.9559 27.509C95.9828 27.7446 97.0097 27.5876 98.0366 27.6661C98.6641 27.9017 99.3487 27.7446 99.9763 27.8232C100.319 27.9803 100.604 28.0588 100.718 27.6661C101.117 27.3519 101.06 26.8807 101.517 26.5665C101.973 26.2524 101.973 25.9382 101.688 25.5455C101.688 25.4669 101.631 25.4669 101.574 25.4669C101.345 25.2313 101.117 24.9957 100.946 24.7601C101.688 24.8386 102.087 24.5244 102.543 24.2103C102.772 24.1317 102.886 24.0532 102.943 23.8961C103.114 23.8961 103.285 23.8176 103.342 23.739C103.684 23.6605 104.255 23.8961 104.426 23.5034L104.483 23.5034C104.825 23.5034 105.168 23.5034 105.51 23.5034C105.852 23.6605 106.138 23.6605 106.651 23.6605C106.252 23.4249 105.909 23.3463 105.51 23.3463C105.396 23.2678 105.225 23.2678 105.111 23.1892C105.168 22.7965 105.225 22.4824 105.282 22.0897C105.225 22.0111 105.168 22.0111 105.111 22.0111L105.168 22.0111C105.282 22.0111 105.339 22.0111 105.453 22.0111C105.681 22.0111 105.909 22.0111 106.081 22.0111C106.366 21.9326 106.651 21.9326 106.993 21.854C107.906 21.697 108.933 21.6184 109.675 21.1472C110.302 21.0686 110.701 20.6759 111.329 20.5188C110.873 20.3617 110.644 20.5974 110.302 20.5974C110.245 20.5188 110.131 20.5188 110.074 20.4403C110.245 20.2832 110.416 20.2047 110.53 20.0476C111.158 19.969 111.5 19.6549 111.9 19.3407C112.128 19.2622 112.299 19.1051 112.299 18.948C112.185 18.3982 113.212 18.2411 113.269 17.6913C112.983 17.8484 112.755 17.927 112.527 18.0055C112.527 17.927 112.527 17.927 112.527 17.8484C112.698 17.6913 112.812 17.6128 112.983 17.4557C112.755 17.2201 112.869 16.9845 113.212 16.7488C113.44 16.6703 113.668 16.5132 113.839 16.4347C114.01 16.4347 114.181 16.4347 114.296 16.2776C115.265 15.8849 115.265 15.8849 114.124 15.4136C114.124 15.3351 114.067 15.2566 114.067 15.178C114.923 15.178 115.665 14.9424 116.406 14.7068C116.806 14.5497 116.635 14.4711 116.292 14.4711C116.463 14.0784 117.034 14.0784 117.433 13.9214C117.661 13.7643 117.947 13.6857 118.232 13.5286C117.833 13.5286 117.49 13.5286 117.148 13.4501C117.148 13.4501 117.205 13.3716 117.547 13.3716ZM2.82184 25.5455C2.76479 25.5455 2.76479 25.5455 2.70774 25.5455C2.70774 25.5455 2.76479 25.5455 2.82184 25.5455ZM43.9542 0.962029L43.8971 0.962029C43.9542 0.962029 43.9542 0.962029 43.9542 0.962029ZM18.5674 4.49639C18.6244 4.57493 18.5674 4.57493 18.5674 4.49639ZM44.2964 15.4922C44.2394 15.4922 44.2394 15.4922 44.2964 15.4922ZM94.2714 24.3674C94.3284 24.3674 94.3855 24.3674 94.4425 24.4459C94.3855 24.4459 94.3284 24.4459 94.2714 24.3674ZM33.7424 2.53286C33.7994 2.53286 33.8565 2.53286 33.9135 2.53286L33.8565 2.53286C33.7994 2.53286 33.7424 2.53286 33.7424 2.53286ZM34.9404 2.37577C35.0545 2.37577 34.8834 2.29723 34.9404 2.37577ZM25.8696 2.45431C25.8126 2.45431 25.7555 2.45431 25.7555 2.45431C25.8126 2.45431 25.8696 2.45431 25.8696 2.45431ZM8.12739 12.9789C8.07034 12.9789 8.07034 12.9789 8.01329 12.9789C8.01329 12.9789 8.01329 12.9789 8.07034 12.9789C8.07034 12.9789 8.07034 12.9789 8.12739 12.9789ZM85.2576 25.5455C85.2006 25.5455 85.1435 25.5455 85.0865 25.5455L85.1435 25.5455C85.2006 25.5455 85.2576 25.4669 85.2576 25.5455ZM84.0596 25.624C84.1166 25.7811 83.9455 25.624 84.0596 25.624ZM93.1304 25.5455C93.1874 25.5455 93.1874 25.5455 93.2445 25.5455C93.1874 25.5455 93.1874 25.624 93.1304 25.5455ZM110.93 15.0209C110.987 15.0209 110.987 15.0209 111.044 15.0209C111.044 15.0209 111.044 15.0209 110.987 15.0209C110.93 15.0209 110.93 15.0209 110.93 15.0209ZM112.299 6.93117C112.242 6.93117 112.242 6.93117 112.299 6.93117ZM6.81527 12.7432C6.81527 12.6647 6.81527 12.6647 6.81527 12.7432ZM6.70117 21.0686C6.75822 21.1472 6.75822 21.0686 6.70117 21.0686C6.75822 21.1472 6.75822 21.1472 6.70117 21.0686C6.75822 21.1472 6.70117 21.1472 6.70117 21.0686ZM109.56 16.6703C109.618 16.6703 109.618 16.6703 109.56 16.6703C109.618 16.7488 109.618 16.7488 109.56 16.6703C109.618 16.7488 109.56 16.7488 109.56 16.6703ZM28.8932 1.82598C28.9503 1.74744 28.9503 1.74744 29.0073 1.74744C28.9503 1.82598 28.8932 1.82598 28.8932 1.82598ZM90.1638 26.1738C90.1068 26.2524 90.1068 26.2523 90.0497 26.2523C90.0497 26.1738 90.1068 26.1738 90.1638 26.1738ZM109.675 10.9368L109.618 10.9368C109.618 10.8582 109.618 10.8582 109.675 10.9368ZM99.1776 1.35474C99.0635 1.2762 98.9494 1.35474 98.8923 1.35474C98.9494 1.35474 99.0635 1.35474 99.1776 1.35474ZM23.5877 1.74744C23.5877 1.82598 23.5306 1.82598 23.5877 1.74744C23.5306 1.82598 23.5306 1.74744 23.5877 1.74744ZM9.32542 17.1416L9.38247 17.1416C9.43952 17.1416 9.38247 17.1416 9.32542 17.1416C9.38247 17.1416 9.38247 17.1416 9.32542 17.1416ZM19.8224 26.6451C19.9365 26.7236 20.0506 26.6451 20.1077 26.6451C20.0506 26.6451 19.9936 26.6451 19.8224 26.6451ZM24.5575 27.1163C24.5005 27.0378 24.4434 27.0378 24.3293 27.0378C24.4434 27.0378 24.5005 27.1163 24.5575 27.1163ZM109.96 12.1934L110.017 12.1934C110.017 12.1934 110.017 12.1934 109.96 12.1934ZM83.9455 0.883488C83.9455 0.804947 83.9455 0.804947 83.9455 0.883488C84.0025 0.883488 84.0596 0.883488 84.0596 0.883488C84.0025 0.883488 83.9455 0.883488 83.9455 0.883488ZM17.7687 5.51743C17.7116 5.51743 17.5975 5.51743 17.5405 5.51743C17.6546 5.51743 17.7116 5.51743 17.7687 5.51743ZM35.1116 27.1948C35.0545 27.1948 35.0545 27.1948 35.1116 27.1948ZM65.918 0.726405C65.9751 0.726405 65.9751 0.726405 65.918 0.726405ZM7.4428 11.5651C7.4428 11.6437 7.4428 11.6437 7.4428 11.5651ZM76.1298 26.8021C76.1298 26.7236 76.1298 26.7236 76.1298 26.8021L76.1868 26.8021C76.1868 26.8021 76.1868 26.7236 76.1298 26.8021ZM90.9625 27.2734C91.0196 27.2734 91.0196 27.2734 90.9625 27.2734C91.0196 27.3519 90.9625 27.3519 90.9625 27.2734ZM116.178 13.293L116.178 13.3716C116.178 13.3716 116.178 13.3716 116.178 13.293L116.178 13.3716C116.121 13.293 116.121 13.293 116.178 13.293C116.121 13.293 116.121 13.293 116.178 13.293ZM114.866 2.53286C114.809 2.45432 114.809 2.45432 114.866 2.53286ZM57.1895 0.883488C57.1895 0.804946 57.1895 0.804946 57.1895 0.726405C57.1325 0.726405 57.1325 0.804946 57.1895 0.883488ZM53.3672 0.726405C53.4243 0.726405 53.4243 0.726405 53.3672 0.726405ZM42.5279 0.883487L42.4709 0.883487L42.4138 0.883487C42.4138 0.883487 42.4709 0.883487 42.5279 0.883487ZM41.8433 0.883487C41.9004 0.804946 41.9004 0.804946 41.9574 0.804946C41.9004 0.883487 41.8433 0.883487 41.8433 0.883487ZM23.3595 0.49078C23.3024 0.49078 23.3024 0.49078 23.3024 0.49078C23.3595 0.49078 23.3595 0.49078 23.3595 0.49078ZM2.87889 14.7853L2.87889 14.7068C2.87889 14.7068 2.87889 14.7068 2.87889 14.7853L2.87889 14.7068C2.87889 14.7068 2.93593 14.7068 2.87889 14.7853ZM4.13396 25.5455C4.19101 25.5455 4.19101 25.5455 4.13396 25.5455ZM61.8675 27.3519C61.9246 27.2734 61.8675 27.2734 61.8675 27.1948C61.8675 27.1948 61.8675 27.2734 61.8675 27.3519ZM65.6328 27.2734C65.6328 27.3519 65.6328 27.3519 65.6328 27.2734ZM76.6432 27.1948C76.5862 27.1948 76.5862 27.1948 76.5291 27.1948L76.5862 27.1948L76.6432 27.1948C76.8144 27.1948 76.9285 27.1948 77.0996 27.1948C77.0996 27.1948 77.1567 27.1948 77.2137 27.1163C77.2137 27.1163 77.1567 27.1163 77.1567 27.1948L77.0996 27.1948C76.9285 27.1163 76.8144 27.1163 76.6432 27.1948ZM95.6405 27.509C95.6976 27.509 95.6976 27.509 95.6976 27.509C95.6976 27.509 95.6405 27.509 95.6405 27.509Z" fill="#FBB03B"/>
<path d="M114.525 17.8486C113.955 18.0057 113.441 18.2413 113.213 18.5555C113.612 18.3984 114.069 18.1628 114.525 17.8486Z" fill="#FBB03B"/>
<path d="M116.407 11.5651C116.407 11.5651 116.521 11.4866 116.521 11.4081C116.578 11.3295 116.464 11.251 116.293 11.251C116.179 11.251 116.065 11.3295 116.008 11.4081C116.008 11.4866 116.122 11.5651 116.407 11.5651Z" fill="#FBB03B"/>
<path d="M45.7246 27.98C46.181 27.98 46.4662 28.0586 46.9226 27.9015C46.5233 27.9015 46.181 27.8229 45.7246 27.98Z" fill="#FBB03B"/>
<path d="M39.9045 27.9803C40.3609 27.9803 40.8173 27.9803 41.2167 27.9803C41.6731 27.9803 42.0724 27.9803 42.5288 27.9803C42.5288 27.9018 42.5288 27.9018 42.5288 27.8232C42.0724 27.8232 41.6731 27.8232 41.2167 27.8232C40.7603 27.8232 40.3039 27.8232 39.9045 27.8232L39.9045 27.9803Z" fill="#FBB03B"/>
<path d="M117.718 2.13965C117.432 2.13965 117.375 2.21819 117.318 2.37527C117.49 2.37527 117.775 2.45381 117.889 2.29673C117.889 2.21819 117.775 2.13965 117.718 2.13965Z" fill="#FBB03B"/>
<path d="M4.5332 10.1512C5.10369 9.99412 5.61713 9.7585 5.84533 9.44434C5.38894 9.67996 4.98959 9.91558 4.5332 10.1512Z" fill="#FBB03B"/>
<path d="M2.59412 16.4355C2.59412 16.4355 2.48002 16.5141 2.48002 16.5926C2.42297 16.7497 2.53707 16.8283 2.65116 16.7497C2.76526 16.7497 2.87936 16.6712 2.93641 16.5926C2.99346 16.5141 2.87936 16.5141 2.59412 16.4355Z" fill="#FBB03B"/>
<path d="M77.7262 0.176614C78.1826 0.176614 78.639 0.176614 79.0383 0.176614L79.0383 0.0980727L79.0383 0.0195313C78.5819 0.0195313 78.1255 0.0195313 77.7262 0.0195313C77.2698 0.0195313 76.8705 0.0195313 76.4141 0.0195312C76.4141 0.0980726 76.4141 0.0980726 76.4141 0.176614C76.8705 0.176614 77.3268 0.176614 77.7262 0.176614Z" fill="#FBB03B"/>
<path d="M73.2801 0.0196354C72.8237 0.0196354 72.5384 -0.058906 72.082 0.0981767C72.5384 0.0981767 72.8237 0.176718 73.2801 0.0196354Z" fill="#FBB03B"/>
<path d="M1.33671 25.8598C1.62196 25.8598 1.67901 25.7812 1.73605 25.6241C1.56491 25.6241 1.27966 25.5456 1.16556 25.7027C1.10852 25.7812 1.22261 25.8598 1.33671 25.8598Z" fill="#FBB03B"/>
</svg>
