<svg width="409" height="203" viewBox="0 0 409 203" fill="none" xmlns="http://www.w3.org/2000/svg">
<g opacity="0.3">
<g clip-path="url(#clip0_1236_694)">
<path fill-rule="evenodd" clip-rule="evenodd" d="M346.568 28.9476C341.814 20.662 327.218 29.2515 317.503 35.4674C317.459 35.3895 317.411 35.3096 317.331 35.2423C311.175 29.9479 303.994 25.3667 299.081 18.7574C298.934 18.557 298.655 18.3663 298.391 18.4792C298.105 18.5998 297.818 18.7204 297.536 18.8457C297.374 18.9168 297.294 19.1208 297.289 19.2836C297.276 19.6097 297.259 19.7915 297.273 19.9282C297.05 19.9171 296.809 20.0962 296.903 20.3521C298.318 24.2657 300.15 28.0106 302.03 31.7174C303.538 34.6816 305.147 38.4784 307.658 40.8189C305.656 41.4077 303.71 42.6608 301.913 43.6126C299.765 44.7487 297.721 46.0755 295.954 47.7577C295.698 48.0032 295.809 48.5569 296.191 48.6124C297.773 48.8477 299.022 48.0879 300.461 47.4421C302.979 46.3151 305.519 45.2381 307.959 43.9445C307.84 46.5436 308.443 49.5042 310.582 50.5402C294.092 57.6727 276.796 62.4479 259.752 68.4145C259.635 68.4538 259.682 68.6272 259.804 68.6003C281.996 63.7223 305.423 55.6216 325.377 44.5702C326.005 44.221 325.433 43.2563 324.803 43.6062C320.422 46.031 315.956 48.1871 311.43 50.1728C310.661 48.9693 309.679 48.1307 309.165 46.7012C308.581 45.0735 308.693 43.2076 308.87 41.4917C309.14 41.4186 309.348 41.1892 309.224 40.8467C308.099 37.801 305.786 35.0744 304.131 32.2713C301.868 28.435 299.94 24.4126 297.786 20.5166C298.449 18.8664 299.578 21.3962 300.353 22.2559C302.125 24.222 304.078 26.0332 306.016 27.8342C309.173 30.7722 312.373 34.016 315.943 36.4711C313.331 38.1587 311.18 39.5667 309.845 40.2415C309.82 40.2524 309.842 40.2888 309.866 40.2778C311.94 39.3336 314.133 38.0917 316.402 36.7593C316.925 36.9729 317.448 36.5672 317.575 36.068C325.384 31.4334 334.053 26.0177 342.184 27.2139C347.209 27.9542 348.639 36.8346 345.343 40.04C343.325 42.0049 340.338 43.3477 337.929 44.7357C332.365 47.9417 326.65 50.7973 320.721 53.248C320.311 52.7328 319.825 52.2835 319.299 51.9336C319.912 51.6754 320.512 51.335 321.114 51.09C321.855 50.7928 322.59 50.4746 323.199 49.9488C323.309 49.8534 323.187 49.6856 323.061 49.7162C322.196 49.9203 321.37 50.2747 320.557 50.6263C319.943 50.8903 319.247 51.1532 318.731 51.6065C317.984 51.2422 317.19 51.0991 316.434 51.3012C316.334 51.3287 316.273 51.408 316.241 51.4973C313.619 51.0771 311.118 52.3539 309.701 54.5483C309.655 54.5502 309.61 54.5437 309.556 54.5583C293.578 58.9009 277.999 64.9066 261.778 68.3327C261.737 68.3418 261.756 68.4034 261.795 68.3948C270.454 66.9542 278.868 64.7974 287.228 62.4087C286.852 62.9135 286.626 63.4838 286.868 64.0005C286.963 64.2071 287.229 64.1813 287.374 64.0616C287.669 63.8186 287.704 63.4821 287.814 63.1265C287.924 62.7734 288.081 62.4348 288.26 62.1104C292.307 60.9426 296.345 59.7329 300.389 58.5164C300.255 58.7596 300.136 59.0105 300.067 59.2778C299.824 60.2026 301.217 60.5699 301.487 59.6583C301.642 59.1365 301.762 58.6033 301.884 58.0695C304.241 57.3615 306.601 56.6582 308.971 55.9694C307.822 59.0966 311.17 61.0636 313.853 60.7936C315.679 60.6079 317.478 59.9624 319.176 59.2873C320.109 58.9147 321.414 58.5615 321.816 57.5305C322.163 56.6432 322.013 55.5912 321.56 54.6003C329.134 51.9162 336.521 47.2594 343.234 43.0114C348.141 39.9033 349.656 34.3311 346.568 28.9476ZM302.379 46.768C301.33 47.2518 299.994 48.0194 298.717 48.144C300.163 46.8501 301.68 45.7222 303.269 44.6747C304.995 43.5399 307.07 42.8052 308.684 41.3998C308.609 42.0642 308.562 42.7971 308.561 43.577C306.556 44.7768 304.475 45.8009 302.379 46.768ZM320.667 58.2913C318.933 59.4743 316.829 60.2035 314.84 60.6577C312.17 61.2684 308.932 59.2178 310.289 55.6365C311.184 53.2695 313.754 51.5035 316.028 51.2722C315.826 51.362 315.628 51.4803 315.434 51.6202C314.701 51.7265 314.184 52.275 313.845 53.0209C313.396 53.4862 313.046 54.0921 312.903 54.769C312.753 55.4963 312.904 56.196 313.224 56.8003C313.455 57.7905 314.109 58.5872 315.283 58.7634C315.408 58.7811 315.545 58.764 315.675 58.7677C316.414 59.017 317.18 59.0721 317.86 58.7245C318.594 58.352 318.928 57.3996 318.945 56.4683C318.951 56.3988 318.96 56.3288 318.961 56.2604C319.209 55.9397 319.369 55.5349 319.35 55.0071C319.326 54.3603 319.229 53.7331 319.032 53.157C319.232 53.3204 319.433 53.4837 319.629 53.6871C319.662 53.7252 319.704 53.7809 319.74 53.8216C319.276 54.4006 319.676 55.6066 320.481 55.3322C320.553 55.3065 320.624 55.2714 320.697 55.2457C321.266 56.3562 321.576 57.6696 320.667 58.2913ZM382.727 9.26317C382.58 9.45811 382.421 9.63409 382.27 9.82185C371.799 18.1646 360.955 25.9899 350.115 33.8391C350.082 33.8626 350.113 33.9155 350.149 33.894C357.447 29.148 364.618 24.2076 371.673 19.1084C367.215 22.7874 363.216 27.0428 358.86 30.8537C358.691 30.8258 358.523 30.8005 358.354 30.7835C358.164 30.7684 358.029 30.9091 357.977 31.0753C355.324 30.9356 353.23 33.9014 352.294 36.3657C351.15 37.0295 350.414 38.2977 349.495 39.2157C349.377 39.3338 349.531 39.4923 349.666 39.43C350.402 39.0919 351.18 38.6034 351.847 38.0173C351.374 40.9624 353.45 42.7988 356.403 42.3329C359.27 41.8807 362.054 39.4677 363.111 36.8115C364.297 33.8231 361.857 31.4869 359.109 30.9045C364.322 27.0325 368.886 22.4059 374.131 18.608C377.743 15.9911 381.395 13.6933 383.99 9.97997C384.531 9.20208 383.275 8.52722 382.727 9.26317ZM361.332 32.5092C362.187 33.3029 362.069 34.4586 361.666 35.4487C360.811 37.5433 358.424 39.2612 356.181 40.0537C355.147 40.4164 354.061 40.5257 353.028 40.2519C351.326 39.8006 351.413 37.9477 351.734 36.6641C351.805 36.3756 351.905 36.0966 352.008 35.8193C352.041 35.7705 352.09 35.7284 352.117 35.6783C352.149 35.622 352.147 35.5601 352.133 35.4982C353.088 33.2594 355.076 31.4685 357.565 30.6374C357.6 30.6894 357.632 30.7421 357.702 30.7682C358.004 30.8757 358.289 30.9714 358.573 31.0647C358.161 31.0697 357.745 31.1329 357.34 31.2531C357.145 31.2856 356.956 31.343 356.771 31.4096C356.462 31.4983 356.18 31.6279 355.932 31.8022C355.726 31.9177 355.524 32.04 355.345 32.1834C354.94 32.5036 354.693 32.9087 354.556 33.3413C354.106 34.1703 353.981 35.1719 354.422 35.9526C354.826 36.6664 355.558 36.9572 356.36 37.0091C358.12 37.4684 360.283 36.5117 360.986 35.0113C361.519 34.2238 361.677 33.2644 361.293 32.4788C361.304 32.4894 361.321 32.4962 361.332 32.5092ZM314.524 46.2581C315.121 46.8795 316.424 46.4153 316.312 45.4458C316.293 45.2755 316.251 45.1336 316.214 44.9878C316.929 46.4842 319.073 45.8465 318.778 44.1208C318.818 44.1527 318.862 44.178 318.904 44.2037C319.516 44.7695 320.419 44.5183 320.663 43.7233C320.677 43.7377 320.687 43.7559 320.703 43.7697C321.563 44.5396 323.08 43.8394 322.675 42.5595C322.451 41.853 321.944 41.3048 321.299 41.1503L321.296 41.1481C320.869 40.8525 320.19 41.1126 320.067 41.6367C319.319 41.2142 318.099 41.7444 318.228 42.7509C318.227 42.7626 318.229 42.7709 318.232 42.782C317.344 41.8845 315.513 42.6393 315.936 44.1885C315.952 44.2461 315.97 44.306 315.986 44.3636C315.955 44.2977 315.939 44.2373 315.902 44.1698C315.595 43.5951 314.732 43.4478 314.323 43.9535C314.112 44.2123 313.807 44.3318 313.484 44.4348C313.31 44.3278 313.123 44.2353 312.912 44.1625C311.948 43.8255 311.498 45.093 312.053 45.7819C312.159 45.9155 312.187 46.1797 312.24 46.3454C312.659 47.654 314.403 47.3515 314.524 46.2581ZM322.437 41.4055C322.387 40.9702 322.448 40.7029 322.517 40.2894C322.597 39.7987 323.069 39.5665 323.47 39.7082C323.491 39.682 323.524 39.6641 323.54 39.6338C323.891 38.9552 324.69 38.8328 325.231 39.414C325.32 39.5092 325.382 39.6213 325.449 39.7269C325.43 39.6641 325.395 39.6077 325.38 39.5389C325.151 38.4586 326.012 37.9002 326.701 38.1949C326.75 38.1147 326.793 38.0329 326.817 37.9528C326.951 37.4877 327.355 37.1153 327.824 37.3062C327.864 37.3214 327.904 37.3392 327.945 37.3544C329.171 37.8515 328.44 39.7311 327.385 39.1161C327.418 39.2558 327.451 39.393 327.454 39.5339C327.484 40.6366 326.271 41.0265 325.677 40.2005C325.707 40.2848 325.747 40.3641 325.769 40.4554C326.003 41.4305 325.171 42.183 324.463 42.0233C324.355 42.3118 324.155 42.5509 323.834 42.643C323.119 42.8458 322.526 42.1932 322.437 41.4055ZM325.742 47.9077C326.4 47.6552 327.061 47.3951 327.661 47.0454C328.148 46.7618 328.589 47.4044 328.088 47.6707C326.793 48.3566 325.511 48.5083 324.082 48.7244C324.028 48.7317 324.009 48.658 324.058 48.6403C324.633 48.4153 325.165 48.1333 325.742 47.9077ZM334.873 35.3634C335.069 35.2472 335.253 35.1029 335.448 34.9838C334.913 34.8881 334.387 34.0497 334.643 33.35C334.88 32.7064 335.224 32.1796 335.694 31.8353C336.351 31.0565 337.206 30.4536 337.925 29.8013C339.024 28.8094 340.107 27.821 341.45 27.3211C341.684 27.236 341.903 27.2822 342.105 27.3812C342.236 27.3402 342.371 27.2952 342.504 27.2536C342.972 27.1018 343.386 27.3856 343.647 27.8099C343.92 27.9784 344.113 28.2622 344.199 28.5998C344.63 28.3678 345.18 29.1368 344.782 29.5293C343.134 31.1635 341.286 32.4849 339.382 33.6695C337.937 34.5668 336.621 35.5669 334.902 35.4729C334.855 35.4711 334.829 35.3883 334.873 35.3634ZM259.297 128.863C238.917 143.555 219.895 154.057 189.665 163.799C188.948 164.03 188.632 162.912 189.35 162.659C236.642 145.947 285.777 118.345 310.962 72.9833C310.995 72.9203 311.088 72.975 311.054 73.0379C299.261 95.6485 279.799 114.081 259.297 128.863ZM112.792 166.424C117.524 160.949 121.133 154.116 123.417 147.316C125.421 141.352 126.753 132.608 122.328 127.333C118.396 122.645 112.32 120.976 106.986 124.253C102.871 126.783 100.756 131.627 101.712 136.117C97.3931 131.87 91.4323 132.692 88.0418 138.813C83.7836 146.497 88.9168 153.952 95.1075 158.402C99.9577 161.888 105.316 164.702 110.982 166.891C107.531 170.608 103.596 173.821 99.3777 176.293C76.0281 189.969 44.7082 184.381 20.5594 176.121C20.2896 176.028 20.1868 176.448 20.447 176.545C48.9112 187.231 89.3217 192.261 112.036 167.297C130.349 174.072 151.746 174.332 169.834 169.105C169.877 169.092 169.859 169.029 169.816 169.038C151.119 173.6 130.941 172.86 112.792 166.424ZM104.843 163.394C98.4573 160.351 90.4333 155.84 87.6636 148.795C83.8143 139.001 95.0692 127.023 102.129 138.331C102.46 138.863 103.234 138.391 102.944 137.836C99.0494 130.415 106.223 121 114.212 122.923C123.091 125.06 124.2 134.899 122.885 142.464C121.382 151.118 117.126 159.41 111.303 166.147C109.119 165.309 106.961 164.405 104.843 163.394Z" fill="#63AB45"/>
</g>
</g>
<defs>
<clipPath id="clip0_1236_694">
<rect width="391.443" height="120.788" fill="white" transform="translate(0 84.1697) rotate(-12.4169)"/>
</clipPath>
</defs>
</svg>
