<svg width="132" height="40" viewBox="0 0 132 40" fill="none" xmlns="http://www.w3.org/2000/svg">
<path opacity="0.3" d="M65.1023 0.450908C65.6671 0.167192 66.3329 0.167192 66.8977 0.450908L74.0345 4.03564C74.4716 4.25522 74.9741 4.30696 75.4468 4.18109L86.4878 1.24112C87.2858 1.02862 88.1325 1.32851 88.6188 1.99599L90.6585 4.79524C91.0933 5.39199 91.8215 5.70063 92.5527 5.59806L104.927 3.86221C106.162 3.68891 107.128 4.90878 106.676 6.07138C106.247 7.17386 107.096 8.35238 108.278 8.29442L119.255 7.75588C120.5 7.69483 121.016 9.32568 119.963 9.99159C118.953 10.6299 119.377 12.1893 120.571 12.2281L127.923 12.467C129.27 12.5108 129.532 14.3996 128.249 14.809C127.02 15.2005 127.19 16.989 128.47 17.143L130.699 17.4113C132.233 17.5958 132.29 19.8008 130.767 20.0636L130.333 20.1386C128.991 20.3702 128.933 22.2755 130.259 22.5884C131.65 22.917 131.49 24.9467 130.064 25.0531L125.176 25.4176C123.944 25.5095 123.658 27.1889 124.79 27.6838C125.97 28.2 125.594 29.9636 124.305 29.9532L114.838 29.8765C113.671 29.8671 113.068 31.2675 113.878 32.1088C114.724 32.9889 114.022 34.4477 112.806 34.3355L100.784 33.2256C99.7399 33.1292 98.7987 33.8553 98.627 34.8895L98.4447 35.9875C98.26 37.0999 97.1928 37.8398 96.0863 37.6225L84.108 35.2702C83.5502 35.1606 82.972 35.2937 82.5182 35.636L77.8934 39.1246C77.3542 39.5314 76.6461 39.6385 76.0107 39.4094L66.6784 36.0446C66.2399 35.8865 65.7601 35.8865 65.3216 36.0446L55.9893 39.4094C55.3539 39.6385 54.6458 39.5314 54.1066 39.1246L49.4818 35.636C49.028 35.2937 48.4498 35.1606 47.892 35.2702L35.9137 37.6225C34.8072 37.8398 33.7399 37.0999 33.5553 35.9875L33.373 34.8895C33.2013 33.8553 32.2601 33.1292 31.2161 33.2256L19.1937 34.3355C17.9776 34.4477 17.2757 32.9889 18.1224 32.1088C18.9317 31.2675 18.3289 29.8671 17.1616 29.8765L7.69462 29.9532C6.40627 29.9636 6.03004 28.2 7.21048 27.6838C8.34201 27.1889 8.0556 25.5095 6.82402 25.4176L1.93585 25.0531C0.509781 24.9467 0.349693 22.917 1.74146 22.5884C3.06663 22.2755 3.00859 20.3702 1.66683 20.1386L1.23263 20.0636C-0.289886 19.8008 -0.233411 17.5958 1.30056 17.4113L3.53034 17.143C4.8101 16.989 4.97952 15.2005 3.75144 14.809C2.46754 14.3996 2.73002 12.5108 4.0769 12.467L11.4289 12.2281C12.6227 12.1893 13.047 10.6299 12.0375 9.99159C10.9842 9.32568 11.5002 7.69483 12.7448 7.75588L23.7224 8.29442C24.904 8.35238 25.7532 7.17387 25.3243 6.07138C24.872 4.90878 25.8376 3.68891 27.073 3.86221L39.4473 5.59806C40.1785 5.70063 40.9067 5.39199 41.3415 4.79524L43.3812 1.99599C43.8675 1.32851 44.7142 1.02862 45.5122 1.24112L56.5532 4.18109C57.0259 4.30696 57.5284 4.25522 57.9655 4.03564L65.1023 0.450908Z" fill="#FBB03B"/>
</svg>
