<svg width="74" height="51" viewBox="0 0 74 51" fill="none" xmlns="http://www.w3.org/2000/svg">
<g opacity="0.03">
<path d="M34.6075 16.7875C34.5735 16.4389 34.5054 16.0817 34.4202 15.733C33.6625 6.92252 26.2643 0 17.2484 0C7.72178 0 0 7.71343 0 17.2298C0 26.474 7.28758 33.9918 16.4311 34.417C14.2261 37.8953 10.676 40.7102 6.34258 42.0369L6.19785 42.0794C4.18866 42.6917 2.80095 44.6477 2.98825 46.8248C3.20109 49.3336 5.40609 51.1961 7.9261 50.9835C15.3414 50.3541 22.7567 46.5697 27.7967 40.4211C30.3252 37.3595 32.2833 33.7537 33.4752 29.8247C34.6756 25.9042 35.0843 21.669 34.6756 17.4934L34.6075 16.7875Z" fill="#100C08"/>
<path d="M73.1681 16.7875C73.134 16.4389 73.0659 16.0817 72.9808 15.733C72.2231 6.92252 64.8248 0 55.809 0C46.2823 0 38.5605 7.71343 38.5605 17.2298C38.5605 26.474 45.8481 33.9918 54.9917 34.417C52.7867 37.8953 49.2365 40.7102 44.9031 42.0369L44.7584 42.0794C42.7492 42.6917 41.3615 44.6477 41.5488 46.8248C41.7616 49.3336 43.9666 51.1961 46.4866 50.9835C53.9019 50.3541 61.3172 46.5697 66.3572 40.4211C68.8858 37.3595 70.8439 33.7537 72.0358 29.8247C73.2362 25.9042 73.6448 21.669 73.2362 17.4934L73.1681 16.7875Z" fill="#100C08"/>
</g>
</svg>
