<svg width="741" height="260" viewBox="0 0 741 260" fill="none" xmlns="http://www.w3.org/2000/svg">
<mask id="mask0_2219_529" style="mask-type:alpha" maskUnits="userSpaceOnUse" x="0" y="0" width="741" height="260">
<rect opacity="0.3" width="741" height="260" rx="10" fill="#D9D9D9"/>
</mask>
<g mask="url(#mask0_2219_529)">
<rect opacity="0.3" width="741" height="260" rx="10" fill="#FFFCEA"/>
<g opacity="0.2">
<path d="M581.168 138.686L585.067 140.429L589.548 138.831L590.408 136.965L589.827 135.658L586.229 137.826L577.995 136.809L575.402 157.603L577.995 156.877L578.285 148.653L580.598 150.385L583.201 156.441L584.889 155.513L584.922 155.58L584.9 155.513L581.604 146.195L584.922 143.457L579.302 144.318L577.704 142.016L578.151 139.122L581.168 138.686Z" fill="url(#paint0_linear_2219_529)"/>
<path d="M592.854 120.787L588.53 105.356L578.575 97.5573L579.58 91.2108L577.122 86.3057L575.245 87.0208L574.53 93.3785L573.379 94.3841L574.239 98.2836L576.116 99.5797L575.692 101.736L577.569 104.351L578.575 104.63L579.01 101.446L586.374 107.368L584.34 108.239L581.312 106.653L581.457 111.122L582.899 111.547L583.334 113.58L585.357 114.005L587.234 112.999L585.502 109.39L587.234 108.239L589.245 114.452L587.279 116.027L586.217 115.893L582.474 117.759L582.027 121.524L584.921 119.055L586.083 118.921L586.798 119.636L587.078 122.105L590.407 125.268L591.268 121.223L592.854 120.787Z" fill="url(#paint1_linear_2219_529)"/>
<path d="M567.189 151.738L567.458 151.525L567.189 151.738Z" fill="url(#paint2_linear_2219_529)"/>
<path d="M514.774 93.6576L517.009 91.9146L521.847 109.893L520.83 110.25L521.266 118.764L523.076 118.183L527.758 126.552L527.266 127.915L537.725 138.899L523.59 109.658L525.11 102.742L526.261 101.937L527.199 103.233L527.065 105.334L529.657 104.82L535.077 111.524L536.373 111.088L538.037 112.25L537.747 116.362L548.362 107.267L547.423 98.6075L538.328 88.0709L537.445 83.244L543.3 78.6181L545.971 79.0539L546.473 82.2272L547.423 82.73L551.323 78.1824L553.334 78.9087L562.496 74.3611L571.513 52.7851L568.195 53.8689L567.759 50.1929L568.474 48.6844L559.323 39.9468L564.016 33.8796L565.602 34.0249L559.982 32.0136L556.306 33.6003L556.083 31.9354L551.893 30.2035L551.971 28.6839L558.384 23.343L559.837 24.5721L558.965 26.5833L559.479 29.5555L565.826 26.5163L568.284 27.3096L568.72 31.6449L573.837 34.3154L576.15 39.0864L575.502 41.0306L577.089 42.5502L581.201 40.9636L581.055 33.0193L573.178 27.332L576.497 24.0916L576.206 21.2759L579.234 17.0859L581.536 18.6837L585 16.516L587.022 0.426258L579.949 -11.7752L573.01 -14.0099L571.714 -11.8534L568.474 -16.8256L567.457 -15.0266L563.703 -16.1105L568.686 -27.2951L586.15 -28.0772L586.664 -26.7029L594.229 -27.5074L591.704 -32.9936L596.542 -34.6472L600.654 -30.7589L603.302 -33.7422L601.827 -35.5188L603.693 -36.178L605.782 -32.3567L602.821 -21.172L618.565 -5.21634L619.425 -5.42863L619.861 -8.82537L618.565 -10.1103L620.799 -10.993L618.632 -13.7305L619.347 -15.2389L621.012 -14.7361L617.615 -19.429L618.922 -18.9262L612.855 -24.4794L611.402 -24.2671L610.609 -25.8426L611.045 -27.0716L609.536 -29.1611L612.9 -30.3231L614.43 -29.8985L615.224 -28.7365L616.743 -30.1779L622.855 -29.094L622.945 -31.1276L626.498 -35.1724L633.571 -35.8093L625.135 -40.2898L625.202 -41.5189L626.654 -43.0273L625.861 -44.2564L642.018 -40.6586L641.805 -44.3346L590.419 -55.4522L594.396 -52.1337L571.658 -54.0108L569.647 -56.1897L526.205 -60.7261L529.434 -58.2679L516.741 -59.497L516.819 -56.536L496.394 -63.8211L494.238 -61.7317L488.103 -61.944L487.008 -63.0949L478.93 -63.0278L475.824 -65.2737L473.522 -64.7597L471.79 -62.8826L466.885 -62.525L474.036 -66.7151L472.449 -68.9609L427.834 -65.6312L430.012 -63.8323L420.47 -63.1172L426.906 -59.1506L416.872 -60.592L415.934 -59.3629L417.174 -57.9886L417.241 -56.9048L410.604 -62.1786L416.872 -51.7203L418.459 -52.8041L418.258 -51.9438L417.889 -51.7985L417.532 -46.3794L415.509 -45.9436L413.632 -46.5917L415.8 -48.2453L416.09 -50.4912L409.52 -57.9886L409.163 -61.3853L404.459 -63.1172L402.883 -62.4021L401.878 -59.7317L402.168 -58.6478L400.146 -57.2735L406.559 -49.9884L387.576 -55.9774L386.056 -55.1841L389.665 -50.994L366.469 -46.938L364.882 -48.0777L366.681 -49.5191L364.659 -51.4633L359.843 -51.4521L361.921 -47.4185L363.285 -46.7816L363.061 -45.5525L355.418 -43.5301L356.424 -42.167L355.195 -41.4407L351.161 -42.815L349.206 -42.234L349.921 -41.0049L352.379 -40.4239L346.401 -41.5077L343.228 -46.0553L356.871 -46.7034L357.519 -48.156L357.083 -49.385L335.072 -54.1449L336.524 -55.955L304.624 -50.6812L307.652 -50.3906L298.49 -38.2674L291.774 -37.9099L288.892 -35.1612L289.026 -25.9208L291.048 -24.5576L300.21 -27.3621L302.657 -22.3899L302.367 -18.9262L299.048 -18.0546L299.987 -19.496L298.903 -21.7419L299.127 -23.3285L295.741 -22.3899L295.238 -14.9484L295.819 -14.0099L294.735 -12.6355L286.433 -10.6913L285.785 -7.2946L275.182 -0.378224L271.573 -2.11011L272.288 1.78942L266.511 0.850855L265.07 2.66095L270.847 5.97947L272.869 10.4489L270.344 16.3708L258.511 15.6445L257.997 15.0747H256.701L255.617 16.2926L254.03 16.3708L253.606 32.6729L258.734 34.4159L259.818 36.7177L260.466 37.1534L260.679 37.7345L252.086 46.4609L250.276 54.6175L244.868 59.7462L241.985 60.3942L236.857 67.2547V69.7017L231.225 78.1377L232.667 83.7021L231.661 84.7077L231.013 96.6968L229.281 98.06L229.348 98.9315L230.868 100.149L231.739 107.088L253.528 128.374L265.941 126.217L267.953 127.156L282.467 122.463L285.216 123.535L288.244 128.731L294.892 128.228L297.842 130.977L295.316 143.469L306.579 164.821L305.428 166.408L318.054 232.086L316.982 234.901L318.993 239.527L321.295 240.823L339.273 237.505L352.916 222.99L354.212 215.493L360.636 210.51L360.491 197.37L374.86 185.839L372.905 152.989L402.068 106.507L385.039 110.686L382.157 107.658L382.592 105.49L356.033 60.5954L358.994 60.3048L380.067 93.8699L377.531 91.557L377.028 93.0878L383.386 104.272L387.43 103.479L388.146 101.881L411.532 91.557L412.18 89.11L414.481 88.9648L415.129 87.3111L417.364 85.9368L417.643 82.3277L419.308 82.8305L419.822 81.6015L419.241 80.8193L421.766 77.1432L421.833 75.8359L412.526 67.8916L412.381 65.0089L402.57 71.6459L401.196 71.0761L400.984 67.5341L399.252 65.2994L397.945 67.8246L391.453 56.126L396.716 54.6175L406.593 64.5061L410.269 64.2826L412.291 62.763L414.303 63.7686L414.593 66.1597L437.689 68.4615L446.348 75.1879L447.287 75.1097L444.985 76.1265L449.812 81.2551L452.773 79.445L452.918 77.3555L453.868 77.4226L466.717 116.686L469.097 117.692L471.399 114.451L473.064 114.161L474.65 115.167L477.03 123.468L479.198 121.524L480.137 118.195L474.505 112.507L474.807 113.513L474.505 113.882L472.852 113.234L474.595 95.6242L492.707 78.0148L492.852 79.0986L499.713 76.5846L499.847 75.713L505.266 84.2384L506.852 84.0149L506.35 86.4061L509.523 89.6463L509.299 94.842L512.26 95.8588L514.774 93.6576ZM303.182 -15.6077L303.697 -17.563L308.523 -16.1887L309.171 -16.7697L308.166 -17.3507L311.484 -19.2949L312.713 -22.1106L312.054 -22.9821L313.071 -25.5744L316.099 -27.3174L316.747 -38.6473L327.563 -44.0553L327.854 -43.0497L320.568 -37.5635L321.719 -30.0549L322.937 -29.1946L335.787 -30.636L336.658 -29.9879L334.211 -27.8203L325.552 -27.1722L325.261 -26.1331L327.217 -24.8369L327.362 -22.1665L324.479 -23.105L321.004 -19.0714L321.73 -16.7585L307.373 -13.2948L306.356 -13.7305L305.562 -15.2389L300.803 -13.44V-13.5853H300.791L303.182 -15.6077ZM360.592 39.8574L357.664 47.5448L344.781 51.2208L328.111 46.1369L327.887 45.4888L323.887 46.8855L320.211 53.8131L312.423 51.1091L310.367 48.7291L302.344 46.0252L299.316 34.4383L296.512 33.2539L264.131 39.9691L261.863 38.1255L262.399 36.8406L272.679 32.617L273.539 30.3488L275.059 29.6896L274.523 27.8459L277.651 22.9743L282.087 20.8067L282.735 17.0189L285.987 16.0468L289.674 17.2423L295.193 13.4545L297.685 13.9908L312.188 28.17L309.16 31.7455L303.641 31.5332L309.06 34.8964L310.68 33.8126L311.216 31.8684L314.468 29.6002L314.356 28.8404L315.339 28.0694L313.808 25.4772L315.775 24.6168L317.82 25.8124L318.155 24.5051L311.764 21.153L311.551 20.0692L303.54 11.6221L305.596 8.9181L320.635 23.9576L320.211 25.5777L327.138 34.997L329.585 35.2539L330.289 32.8293L332.446 31.2091L329.194 26.9968L329.63 24.9297L331.909 26.0135L334.167 23.9576L340.133 34.7847L345.117 36.7288L347.82 35.321L354.748 36.9523L357.664 35.5444L360.592 39.8574ZM371.408 20.8067L369.028 23.1866L355.396 19.8234L346.524 22.8514L338.837 19.2759H340.033L339.82 16.3596L340.893 15.7004L341.653 12.5606L342.96 12.0243L343.284 10.4042L346.1 7.25324L350.971 8.77284L349.24 10.393L353.463 13.3093L354.111 12.2254L358.223 10.9181L355.195 9.51029L356.815 7.0186L363.206 5.51019L359.195 10.393L359.407 11.6891L371.408 20.8067ZM396.19 35.4104L389.699 29.6784L391.106 28.1588L391.431 25.6783L392.079 25.5665L384.067 16.6948L384.715 14.6389L382.771 14.2031L382.335 12.4713L391.531 5.97947L394.66 7.38733L394.548 11.2869L392.391 10.8511L397.475 22.1028L400.738 22.2145L397.699 23.7229L397.375 25.1308L400.302 27.9577L402.034 34.55L396.19 35.4104Z" fill="url(#paint3_linear_2219_529)"/>
<path d="M641.492 155.582L640.788 152.979L622.598 144.61L614.933 149.37L609.458 142.297L603.391 143.18L608.877 147.928L610.039 152.264L620.866 155.146L624.475 163.817L633.849 166.834L636.006 164.387L642.509 165.258L645.548 168.867L652.04 170.744L644.531 160.353L647.124 159.627L641.492 155.582Z" fill="url(#paint4_linear_2219_529)"/>
<path d="M574.675 125.704L568.184 121.514L553.893 136.52L549.848 135.659L550.127 136.967L549.133 139.414L552.731 150.531L567.189 151.738L573.804 138.542L571.212 134.073L574.675 125.704Z" fill="url(#paint5_linear_2219_529)"/>
<path d="M646.409 204.365L636.744 181.56L634.141 181.85L632.119 171.75L631.403 171.459L624.755 191.236L619.269 189.068L614.934 180.264L615.515 178.543L617.828 176.655V175.504L612.911 175.649L605.839 171.75L606.643 175.146L602.665 175.928L598.766 181.705L599.202 182.711L595.011 183.727L593.57 181.135L589.246 181.28L588.665 184.297L586.497 183.727L584.62 186.901L582.765 187.627L581.737 189.783L581.168 187.482L579 189.504L578.274 192.811L557.066 204.51L556.631 203.359L555.033 205.091V208.7L553.446 210.857L554.318 214.175L551.86 215.482L550.999 237.706L549.703 237.852L553.301 241.617L592.71 232.075L598.486 237.137L598.196 239.874L599.928 240.746L606.129 235.259L602.956 239.584L603.09 240.891L604.844 239.438L605.559 240.019L600.933 244.79L606.129 244.5L605.269 246.511L612.342 252.008L616.967 250.12L618.688 253.45L624.029 249.26L628.219 248.824L650.879 213.181L646.409 204.365Z" fill="url(#paint6_linear_2219_529)"/>
<path d="M614.363 258.21L612.05 256.478V256.042L609.312 265.282L612.195 265.718L619.994 257.338L614.363 258.21Z" fill="url(#paint7_linear_2219_529)"/>
<path d="M692.603 249.84L689.709 246.51L690.435 241.449L687.832 239.873L685.385 252.007L681.63 253.449L683.362 256.767L680.904 258.935L676.144 257.482L652.043 272.79L655.797 274.812L679.038 259.516L681.049 260.075L688.848 255.896L689.709 253.292L691.306 253.449L696.346 247.817L692.603 249.84Z" fill="url(#paint8_linear_2219_529)"/>
<path d="M573.09 77.7805L573.95 67.6797L572.509 68.2495L570.922 74.596L573.09 77.7805Z" fill="url(#paint9_linear_2219_529)"/>
<path d="M554.464 164.52L589.828 164.956L584.632 169.001L584.487 170.867L594.163 164.085L559.224 162.364L560.821 160.207L552.453 158.464L551.581 160.342L541.044 157.895L539.312 159.906L554.464 164.52Z" fill="url(#paint10_linear_2219_529)"/>
<path d="M549.715 83.5581H549.704L548.118 83.2676L546.676 83.8374L545.95 83.5581L544.363 85.7257L545.224 88.1727H547.246L548.844 87.0219L549.715 83.5581Z" fill="url(#paint11_linear_2219_529)"/>
<path d="M541.189 155.291L542.049 148.073L540.317 148.363L535.133 142.587L536.418 140.855L514.484 124.832L539.01 157.894L541.189 155.291Z" fill="url(#paint12_linear_2219_529)"/>
<path d="M396.994 176.218L384.424 187.481L381.553 212.599L387.173 214.331L390.771 211.448L397.274 186.33L399.296 185.313L397.989 175.648L396.994 176.218Z" fill="url(#paint13_linear_2219_529)"/>
<path d="M88.7413 82.0707L74.6851 75.1543L63.3105 77.4225L63.7463 79.5902L68.8302 75.6906L87.0206 83.4897L88.7413 82.0707Z" fill="url(#paint14_linear_2219_529)"/>
<path d="M183.235 156.441L170.665 148.218L161.146 147.771L159.559 148.642V145.19L152.341 142.15L149.883 144.318V141.569L146.14 139.268L146.575 136.228L144.832 134.787L143.246 128.876L125.055 120.776L123.759 117.759L118.999 115.446L118.865 113.87L114.418 110.541L110.195 110.317L109.546 111.613L96.2277 105.669L92.2276 110.429L92.4399 113.904L90.5963 111.937L91.9036 110.105V107.513L93.5237 106.429L92.8757 105.021L83.7805 108.909L81.8363 113.468L67.4337 115.301L62.0257 109.569L64.0817 97.3337L60.8302 94.9426H50.7629L57.2547 79.3668L48.5952 80.3388L46.7628 85.758L37.5559 88.2385L35.2877 86.5066L35.1871 86.9424L30.9524 77.3108L34.6396 62.5842L46.2265 55.0086L50.6623 55.6567L51.735 56.7405L54.4501 56.2936L57.1541 53.5896L63.9699 53.3773L66.0258 55.6567L69.0539 54.4723L71.6573 57.2768L70.8975 60.8523L73.8249 67.791L75.2328 68.3274L75.8808 52.9527L94.6076 36.5054L94.3841 32.3824L96.1271 32.0695L97.8478 28.3823L99.5797 28.5945L102.943 24.371L112.038 21.7787L113.122 20.5943L111.826 19.5105L114.53 15.4993L128.284 10.6276L124.05 13.3316L124.921 15.3875L136.285 11.4991L137.48 9.65553L140.508 9.10803L139.86 7.8119L140.084 6.08002L135.737 9.54379L131.525 9.34267L129.58 6.40405L133.145 0.459767L130.229 -0.41177L119.614 4.34813L125.133 -0.0765625L127.413 -0.41177L130.016 -2.79171L152.307 -6.69125L152.754 -6.14375L143.212 4.0241L151.447 4.23639L151.983 5.75599L153.827 4.45986L154.799 6.94037L158.05 4.45986L157.078 1.64415L157.95 -0.959267L154.151 -0.847534L153.715 -6.36722L156.319 -9.62988L154.587 -15.1384L148.519 -19.5743L149.715 -22.39L148.095 -30.9488L139 -24.9822L136.609 -27.0493L136.832 -29.7533L138.888 -31.7086L135.525 -32.7813L135.312 -33.6528L132.072 -36.4685L131.089 -35.4853L123.949 -36.1445L116.53 -25.3174L118.642 -23.5855L117.01 -19.6972L107.815 -15.6859L106.083 -8.53487L101.759 -5.6186L99.8367 -10.2668L102.071 -9.84217L102.407 -11.3618L100.675 -11.25L103.055 -16.4345L97.4233 -16.8703L96.1383 -18.3899L93.3114 -18.8256L93.088 -20.0212L88.7527 -22.2894L86.1604 -21.9654L86.6967 -26.4012L84.1045 -26.8258L114.843 -44.8039L115.278 -44.5805L108.787 -39.396L111.066 -39.0719L110.731 -37.7646L115.714 -40.2563L118.541 -38.6362L121.245 -38.7479L121.133 -40.8038L115.927 -44.8039L115.502 -45.8878L117.334 -45.6643L118.865 -44.3682L126.977 -48.7035L126.765 -50.1113L129.256 -52.4913L127.625 -54.212L141.044 -51.9438L139.972 -50.9717L135.525 -50.4242L134.441 -48.2677L137.692 -47.8319L140.184 -50.4242L142.888 -50.6476L143.324 -48.0554L137.581 -45.2397L137.48 -43.2843L130.117 -43.3961L127.837 -41.5525L129.681 -39.9323L137.145 -39.7088L138.676 -36.7814L147.123 -35.8093L144.832 -38.5244L150.575 -35.8093L151.436 -38.2004L153.391 -39.3848L150.363 -43.3961L150.464 -45.0162L157.067 -42.3122L158.05 -43.9324L163.458 -46.1L157.939 -50.2231L156.419 -49.7873L155.022 -51.4074L157.19 -54.7595L155.447 -56.4914L152.743 -57.0389L152.084 -58.4467L139.748 -62.8826L138.664 -62.5586L137.268 -63.6424L128.709 -59.9551L128.821 -63.6424L119.178 -58.1227L119.29 -55.5193L124.374 -54.6589L114.854 -47.7314L114.418 -49.4633L116.586 -50.7594L113.334 -53.0276L112.798 -59.0948L124.273 -64.1787L115.278 -63.8547L104.787 -55.6198L104.563 -53.1393L100.462 -53.8991L96.1383 -52.1672V-49.7873L77.2887 -50.5359L77.0764 -49.0275L64.4057 -49.1392L68.3052 -50.8711L53.3663 -53.4634L52.9417 -55.0835L49.4668 -53.6757L48.4947 -55.955L-0.646188 -57.4746L-0.433898 -58.0445L-0.333332 -58.1115L-28.7921 -50.9829L-27.7195 -46.223L-31.943 -45.7872L-30.8592 -47.2956L-41.9098 -44.2676L-41.6863 -43.0832L-42.4461 -41.6754L-36.0549 -41.0273L-35.2951 -38.8596L-52.6251 -33.7646L-54.7816 -28.6806L-50.9938 -29.3287L-53.1614 -26.4012L-47.53 -26.0772L-76 -14.0657L-31.3062 -29.541L-31.5073 -27.3733L-6.72455 -28.3566L-4.5569 -25.1051L-5.20496 -15.5742L-1.30543 -16.0099L-1.85292 -4.42304L-4.88093 -5.0711L-4.99267 -2.26656L-1.08195 1.63298L-15.5963 24.695L-14.1884 41.1535L-8.44527 46.1257L-5.85302 59.0087L-8.0095 60.5283L-5.52899 63.9809L-4.54573 64.1038L-2.59038 66.372L-3.36134 69.4L0.97396 75.5678L2.81758 73.7353L-4.7692 54.4611L-4.0094 50.0252L-0.869662 50.6733L4.54946 63.9809L3.90141 66.9083L11.801 76.3276L11.6893 80.1154L10.4938 81.959L11.1418 84.5624L17.7565 89.4229L18.8292 89.2106L31.4999 95.6018L35.7234 94.3057L63.1207 117.692L64.0928 117.044L68.8416 120.183L70.6852 119.088L70.16 117.044L71.8807 115.312H73.4003L75.0205 116.608L74.9087 118.116L76.8641 121.256L76.9647 130.027L72.8528 134.474L72.7523 137.067L70.2606 138.039L68.0929 147.134L70.2606 149.078L66.8974 153.201L97.211 193.973L104.563 264.265L106.44 264.131L105.289 260.958L106.731 261.103L107.882 268.165L106.731 267.148L104.999 269.036L106.44 270.332L105.435 274.947L107.457 275.238L108.898 276.388L107.457 278.847L123.904 296.456L133.581 298.903L137.759 295.875L126.072 288.076L125.055 285.193L126.642 284.042L128.664 277.26L124.05 273.506L124.329 270.176L126.072 269.181L126.787 264.12L128.374 262.243L125.212 261.818L123.759 259.516V257.773L128.53 258.053L129.826 256.187L129.972 252.142L137.905 250.991L138.34 243.192L135.737 239.002L134.296 239.292L135.603 237.996L142.81 240.89L149.458 227.739H151.615L154.788 219.661L154.073 214.89L170.107 204.789L183.235 156.441Z" fill="url(#paint15_linear_2219_529)"/>
<path d="M88.5415 89.323L102.061 86.295L99.1339 84.0156L91.67 84.2391L91.346 87.3788H87.7705L87.6699 87.7029L88.5415 89.323Z" fill="url(#paint16_linear_2219_529)"/>
<path d="M601.812 135.423C602.294 128.182 619.042 80.6481 627.355 57.7862L718.669 53.3613L723.295 129.389L740.994 288.282L659.939 295.724L511.102 274.606C511.571 246.648 512.509 189.286 512.509 183.493C512.509 176.252 535.64 174.643 548.512 179.269C561.384 183.895 594.37 175.448 600.404 171.425C606.438 167.403 607.041 162.576 604.024 158.553C601.007 154.53 601.208 144.474 601.812 135.423Z" fill="white"/>
</g>
</g>
<defs>
<linearGradient id="paint0_linear_2219_529" x1="582.905" y1="135.658" x2="582.905" y2="157.603" gradientUnits="userSpaceOnUse">
<stop stop-color="#100C08"/>
<stop offset="1" stop-color="#100C08" stop-opacity="0"/>
</linearGradient>
<linearGradient id="paint1_linear_2219_529" x1="583.117" y1="86.3057" x2="583.117" y2="125.268" gradientUnits="userSpaceOnUse">
<stop stop-color="#100C08"/>
<stop offset="1" stop-color="#100C08" stop-opacity="0"/>
</linearGradient>
<linearGradient id="paint2_linear_2219_529" x1="567.324" y1="151.525" x2="567.324" y2="151.738" gradientUnits="userSpaceOnUse">
<stop stop-color="#100C08"/>
<stop offset="1" stop-color="#100C08" stop-opacity="0"/>
</linearGradient>
<linearGradient id="paint3_linear_2219_529" x1="435.649" y1="-68.9609" x2="435.649" y2="240.823" gradientUnits="userSpaceOnUse">
<stop stop-color="#100C08"/>
<stop offset="1" stop-color="#100C08" stop-opacity="0"/>
</linearGradient>
<linearGradient id="paint4_linear_2219_529" x1="627.715" y1="142.297" x2="627.715" y2="170.744" gradientUnits="userSpaceOnUse">
<stop stop-color="#100C08"/>
<stop offset="1" stop-color="#100C08" stop-opacity="0"/>
</linearGradient>
<linearGradient id="paint5_linear_2219_529" x1="561.904" y1="121.514" x2="561.904" y2="151.738" gradientUnits="userSpaceOnUse">
<stop stop-color="#100C08"/>
<stop offset="1" stop-color="#100C08" stop-opacity="0"/>
</linearGradient>
<linearGradient id="paint6_linear_2219_529" x1="600.291" y1="171.459" x2="600.291" y2="253.45" gradientUnits="userSpaceOnUse">
<stop stop-color="#100C08"/>
<stop offset="1" stop-color="#100C08" stop-opacity="0"/>
</linearGradient>
<linearGradient id="paint7_linear_2219_529" x1="614.653" y1="256.042" x2="614.653" y2="265.718" gradientUnits="userSpaceOnUse">
<stop stop-color="#100C08"/>
<stop offset="1" stop-color="#100C08" stop-opacity="0"/>
</linearGradient>
<linearGradient id="paint8_linear_2219_529" x1="674.194" y1="239.873" x2="674.194" y2="274.812" gradientUnits="userSpaceOnUse">
<stop stop-color="#100C08"/>
<stop offset="1" stop-color="#100C08" stop-opacity="0"/>
</linearGradient>
<linearGradient id="paint9_linear_2219_529" x1="572.436" y1="67.6797" x2="572.436" y2="77.7805" gradientUnits="userSpaceOnUse">
<stop stop-color="#100C08"/>
<stop offset="1" stop-color="#100C08" stop-opacity="0"/>
</linearGradient>
<linearGradient id="paint10_linear_2219_529" x1="566.738" y1="157.895" x2="566.738" y2="170.867" gradientUnits="userSpaceOnUse">
<stop stop-color="#100C08"/>
<stop offset="1" stop-color="#100C08" stop-opacity="0"/>
</linearGradient>
<linearGradient id="paint11_linear_2219_529" x1="547.039" y1="83.2676" x2="547.039" y2="88.1727" gradientUnits="userSpaceOnUse">
<stop stop-color="#100C08"/>
<stop offset="1" stop-color="#100C08" stop-opacity="0"/>
</linearGradient>
<linearGradient id="paint12_linear_2219_529" x1="528.267" y1="124.832" x2="528.267" y2="157.894" gradientUnits="userSpaceOnUse">
<stop stop-color="#100C08"/>
<stop offset="1" stop-color="#100C08" stop-opacity="0"/>
</linearGradient>
<linearGradient id="paint13_linear_2219_529" x1="390.424" y1="175.648" x2="390.424" y2="214.331" gradientUnits="userSpaceOnUse">
<stop stop-color="#100C08"/>
<stop offset="1" stop-color="#100C08" stop-opacity="0"/>
</linearGradient>
<linearGradient id="paint14_linear_2219_529" x1="76.0259" y1="75.1543" x2="76.0259" y2="83.4897" gradientUnits="userSpaceOnUse">
<stop stop-color="#100C08"/>
<stop offset="1" stop-color="#100C08" stop-opacity="0"/>
</linearGradient>
<linearGradient id="paint15_linear_2219_529" x1="53.6177" y1="-64.1787" x2="53.6177" y2="298.903" gradientUnits="userSpaceOnUse">
<stop stop-color="#100C08"/>
<stop offset="1" stop-color="#100C08" stop-opacity="0"/>
</linearGradient>
<linearGradient id="paint16_linear_2219_529" x1="94.8656" y1="84.0156" x2="94.8656" y2="89.323" gradientUnits="userSpaceOnUse">
<stop stop-color="#100C08"/>
<stop offset="1" stop-color="#100C08" stop-opacity="0"/>
</linearGradient>
</defs>
</svg>
