<svg width="150" height="40" viewBox="0 0 150 40" fill="none" xmlns="http://www.w3.org/2000/svg">
<path d="M67.7616 6.05411C68.4649 6.05411 69.1798 5.99613 69.9065 5.88016C70.6332 5.74099 71.2779 5.55543 71.8405 5.32349C71.817 6.80793 71.4303 7.92127 70.6801 8.66349C69.9534 9.38252 68.8751 9.74203 67.4452 9.74203C66.7653 9.74203 66.0035 9.68405 65.1596 9.56807C64.3391 9.4521 63.2842 9.25495 61.9949 8.97662L57.1425 31.3129H52.0791L57.0722 8.28078H56.6502C54.3764 8.28078 52.7003 8.86064 51.622 10.0204C50.5671 11.1569 50.0397 12.9197 50.0397 15.3087C50.0397 15.7494 50.0631 16.1321 50.11 16.4568C50.1803 16.7816 50.2858 17.0947 50.4264 17.3962C50.4733 17.489 50.4968 17.5586 50.4968 17.605C50.5202 17.6281 50.5319 17.6513 50.5319 17.6745C49.2192 17.6745 48.2581 17.4078 47.6486 16.8743C47.0626 16.3177 46.7695 15.4595 46.7695 14.2997C46.7695 11.5396 47.8127 9.34773 49.899 7.72412C52.0088 6.07731 54.9624 5.25391 58.76 5.25391C59.5336 5.25391 60.272 5.2887 60.9752 5.35828C61.7019 5.40467 62.6279 5.50904 63.7531 5.67141C64.7376 5.83377 65.4995 5.93814 66.0386 5.98453C66.6012 6.03092 67.1756 6.05411 67.7616 6.05411Z" fill="white"/>
<path d="M62.9961 25.9546C62.9961 24.6325 63.2071 23.2292 63.629 21.7448C64.0744 20.2603 64.6722 18.9382 65.4223 17.7785C66.2897 16.41 67.3328 15.3779 68.5518 14.6821C69.7708 13.963 71.1304 13.6035 72.6306 13.6035C74.1309 13.6035 75.2561 14.0674 76.0063 14.9952C76.7564 15.923 77.1315 17.3146 77.1315 19.1702C77.1783 19.1934 77.2252 19.2166 77.2721 19.2398C77.3424 19.2398 77.4245 19.2398 77.5183 19.2398C78.245 19.2398 79.1123 19.0426 80.1203 18.6483C81.1283 18.254 82.066 17.7553 82.9333 17.1523L83.2498 18.0916C82.5934 18.7875 81.7143 19.3905 80.6126 19.9008C79.5342 20.4111 78.3387 20.7706 77.026 20.9794C76.7447 24.1106 75.8304 26.6388 74.2833 28.5639C72.7361 30.4891 70.8491 31.4516 68.6221 31.4516C66.7937 31.4516 65.3989 30.9878 64.4378 30.06C63.4766 29.1322 62.9961 27.7637 62.9961 25.9546ZM72.912 15.7258C71.7867 15.7258 70.7201 16.8507 69.7122 19.1006C68.7276 21.3505 68.2353 23.4844 68.2353 25.5023C68.2353 26.5924 68.3525 27.3346 68.5869 27.7289C68.8448 28.1232 69.3254 28.3204 70.0286 28.3204C70.896 28.3204 71.7164 27.6246 72.49 26.2329C73.287 24.8412 73.8262 23.1248 74.1075 21.0837C73.7793 21.0141 73.5332 20.8634 73.3691 20.6314C73.2284 20.3763 73.1581 20.04 73.1581 19.6225C73.1581 19.1818 73.2519 18.7991 73.4394 18.4744C73.6269 18.1496 73.8965 17.9061 74.2481 17.7437C74.2012 17.0015 74.0723 16.4796 73.8613 16.1781C73.6738 15.8766 73.3573 15.7258 72.912 15.7258Z" fill="white"/>
<path d="M84.8097 28.1468C85.4192 28.1468 85.9584 27.8917 86.4272 27.3814C86.9195 26.8479 87.318 26.0825 87.6227 25.0851L90.0138 13.917H95.0772L92.5455 25.7462C92.4986 25.9549 92.4634 26.1521 92.44 26.3376C92.4166 26.5 92.4048 26.6739 92.4048 26.8595C92.4048 27.3234 92.5103 27.6597 92.7213 27.8685C92.9557 28.054 93.3308 28.1468 93.8465 28.1468C94.456 28.1468 95.0069 27.8801 95.4991 27.3466C95.9914 26.8131 96.3899 26.0593 96.6947 25.0851H98.1715C97.4214 27.219 96.4485 28.831 95.253 29.9212C94.0575 30.9881 92.6744 31.5216 91.1038 31.5216C90.0958 31.5216 89.2871 31.2432 88.6776 30.6866C88.0681 30.1067 87.7165 29.2833 87.6227 28.2164C86.9429 29.3297 86.1693 30.1647 85.302 30.7214C84.4581 31.2548 83.497 31.5216 82.4186 31.5216C81.2466 31.5216 80.3206 31.1621 79.6408 30.443C78.9844 29.7008 78.6562 28.6687 78.6562 27.3466C78.6562 27.0451 78.6797 26.7087 78.7266 26.3376C78.7735 25.9433 78.8438 25.5258 78.9375 25.0851L81.3286 13.917H86.392L83.8603 25.7462C83.8134 25.9317 83.7783 26.1057 83.7548 26.268C83.7548 26.4072 83.7548 26.558 83.7548 26.7203C83.7548 27.1842 83.8369 27.5437 84.001 27.7989C84.1885 28.0308 84.4581 28.1468 84.8097 28.1468Z" fill="white"/>
<path d="M100.421 31.3128H95.3574L99.0847 13.917H104.148L103.691 16.0741C104.722 15.2159 105.531 14.6476 106.117 14.3693C106.727 14.0678 107.336 13.917 107.946 13.917C108.672 13.917 109.258 14.1721 109.704 14.6824C110.149 15.1695 110.372 15.7841 110.372 16.5264C110.372 17.2454 110.137 17.8485 109.669 18.3355C109.2 18.8226 108.59 19.0662 107.84 19.0662C107.442 19.0662 107.125 18.9734 106.891 18.7878C106.68 18.6023 106.527 18.2196 106.434 17.6397C106.363 17.2686 106.281 17.0366 106.188 16.9439C106.094 16.8279 105.965 16.7699 105.801 16.7699C105.402 16.7699 105.027 16.8511 104.676 17.0135C104.324 17.1758 103.843 17.5353 103.234 18.092L100.421 31.3128Z" fill="white"/>
<path d="M120.078 24.6325C120.781 24.6325 121.367 24.5281 121.836 24.3194C122.305 24.1106 122.715 23.7859 123.067 23.3452L124.579 16.7348L129.115 16.7696L126.231 29.8513C125.552 33.0057 124.508 35.2324 123.102 36.5313C121.695 37.8534 119.738 38.5144 117.23 38.5144C115.753 38.5144 114.569 38.0621 113.678 37.1575C112.788 36.2529 112.342 35.1048 112.342 33.7131C112.342 32.3679 112.741 31.2429 113.538 30.3383C114.335 29.4106 115.366 28.9467 116.632 28.9467C117.898 28.9467 118.789 29.1438 119.304 29.5381C119.82 29.9092 120.078 30.4891 120.078 31.2777C120.078 31.4633 120.054 31.672 120.008 31.904C119.984 32.1591 119.937 32.4142 119.867 32.6694C119.468 32.3447 119.117 32.1127 118.812 31.9736C118.507 31.8344 118.156 31.7648 117.757 31.7648C117.03 31.7648 116.433 32.0199 115.964 32.5302C115.518 33.0405 115.296 33.6667 115.296 34.409C115.296 35.1048 115.495 35.6731 115.894 36.1138C116.292 36.5545 116.831 36.7748 117.511 36.7748C118.472 36.7748 119.211 36.4385 119.726 35.7658C120.242 35.1164 120.676 34.0263 121.027 32.4954L122.434 26.2677C121.707 26.662 120.934 26.9751 120.113 27.2071C119.293 27.4158 118.636 27.5202 118.144 27.5202C115.659 27.5202 113.772 26.7664 112.483 25.2588C111.217 23.7279 110.584 21.5129 110.584 18.6135C110.584 16.8972 110.877 15.2272 111.463 13.6035C112.073 11.9567 112.916 10.5187 113.995 9.28938C115.143 7.96729 116.48 6.95833 118.003 6.2625C119.55 5.56667 121.227 5.21875 123.032 5.21875C125.001 5.21875 126.583 5.63625 127.779 6.47125C128.974 7.28306 129.572 8.41959 129.572 9.88084C129.572 10.9246 129.361 11.7248 128.939 12.2815C128.517 12.8149 127.907 13.0817 127.11 13.0817C126.618 13.0817 126.149 13.0005 125.704 12.8381C125.282 12.6758 124.942 12.4554 124.684 12.1771C125.083 12.0611 125.434 11.69 125.739 11.0638C126.067 10.4375 126.231 9.85764 126.231 9.32417C126.231 8.58195 126.02 7.99049 125.598 7.54979C125.176 7.0859 124.579 6.85396 123.805 6.85396C122.797 6.85396 121.777 7.27146 120.746 8.10646C119.738 8.91827 118.835 10.0548 118.038 11.516C117.382 12.6526 116.878 13.8703 116.526 15.1692C116.175 16.4449 115.999 17.6858 115.999 18.8919C115.999 20.6779 116.351 22.0811 117.054 23.1017C117.775 24.1222 118.783 24.6325 120.078 24.6325Z" fill="white"/>
<path d="M129.748 25.9546C129.748 24.6325 129.959 23.2292 130.381 21.7448C130.826 20.2603 131.424 18.9382 132.174 17.7785C133.042 16.41 134.085 15.3779 135.304 14.6821C136.523 13.963 137.882 13.6035 139.383 13.6035C140.883 13.6035 142.008 14.0674 142.758 14.9952C143.508 15.923 143.883 17.3146 143.883 19.1702C143.93 19.1934 143.977 19.2166 144.024 19.2398C144.094 19.2398 144.176 19.2398 144.27 19.2398C144.997 19.2398 145.864 19.0426 146.872 18.6483C147.88 18.254 148.818 17.7553 149.685 17.1523L150.002 18.0916C149.345 18.7875 148.466 19.3905 147.365 19.9008C146.286 20.4111 145.091 20.7706 143.778 20.9794C143.497 24.1106 142.582 26.6388 141.035 28.5639C139.488 30.4891 137.601 31.4516 135.374 31.4516C133.546 31.4516 132.151 30.9878 131.19 30.06C130.229 29.1322 129.748 27.7637 129.748 25.9546ZM139.664 15.7258C138.539 15.7258 137.472 16.8507 136.464 19.1006C135.48 21.3505 134.987 23.4844 134.987 25.5023C134.987 26.5924 135.104 27.3346 135.339 27.7289C135.597 28.1232 136.077 28.3204 136.781 28.3204C137.648 28.3204 138.468 27.6246 139.242 26.2329C140.039 24.8412 140.578 23.1248 140.859 21.0837C140.531 21.0141 140.285 20.8634 140.121 20.6314C139.98 20.3763 139.91 20.04 139.91 19.6225C139.91 19.1818 140.004 18.7991 140.191 18.4744C140.379 18.1496 140.648 17.9061 141 17.7437C140.953 17.0015 140.824 16.4796 140.613 16.1781C140.426 15.8766 140.109 15.7258 139.664 15.7258Z" fill="white"/>
<path d="M30.5464 16.3169L31.0481 16.1052L31.2081 15.4279L31.3751 14.7536L32.7734 14.158C33.7216 13.7579 34.1852 13.5799 34.1998 13.6141C34.2191 13.6582 34.6891 18.0588 34.6962 18.2652C34.6974 18.3226 34.8228 18.2872 35.2945 18.0883L35.8905 17.8367L36.3248 15.1681L36.7614 12.5043L38.3549 11.8032C40.0772 11.0476 40.1048 11.0297 40.2349 10.6499C40.3251 10.3971 40.3193 10.2196 40.2114 9.96853C40.0778 9.65889 39.7801 9.43041 39.4461 9.39156C39.1917 9.35967 39.1917 9.35968 37.6024 10.03L36.0183 10.6986L33.7316 9.13759L31.4501 7.57428L30.864 7.82129C30.3278 8.04744 30.2821 8.07817 30.3389 8.14138C30.3753 8.18429 31.0703 8.99434 31.8849 9.94532C32.6995 10.8963 33.3758 11.7029 33.3887 11.7325C33.4098 11.7818 33.1033 11.9284 32.0309 12.3807L30.6454 12.9652L29.9955 12.6005L29.3503 12.234L28.8639 12.4393C28.422 12.626 28.3816 12.6544 28.4378 12.7176C28.4742 12.7605 28.7906 13.1554 29.1487 13.5909L29.7939 14.3929L29.917 15.3862C29.9826 15.9335 30.0377 16.4154 30.0424 16.4537C30.0436 16.5117 30.159 16.4804 30.5464 16.3169Z" fill="#63AB45"/>
<path d="M29.0293 15.302L27.9803 15.8645C24.13 17.9636 21.2818 19.9409 20.0101 21.4254C19.8695 21.5936 19.7464 21.7501 19.6409 21.9009C19.4358 21.6168 19.1721 21.4022 18.8029 21.4892C18.5216 21.553 18.3223 21.7269 18.1582 21.9473C19.1838 20.3584 21.8737 18.2362 25.853 15.8935C26.5914 15.4586 28.4433 14.4149 28.5956 14.3511C28.6308 14.3511 28.7304 14.5308 28.8359 14.815L29.0293 15.302Z" fill="#63AB45"/>
<path d="M18.8026 0.0116242C17.8357 0.139194 16.9507 0.301555 16.0658 0.730652C15.3977 1.05537 14.7414 1.49607 14.2374 2.04694C13.8271 2.49343 13.4462 2.96892 13.1708 3.51399C12.7312 4.38378 12.5613 5.28836 12.5613 6.25093C12.5613 6.55826 12.5378 6.86559 12.5964 7.16711C12.7547 8.03111 13.1122 8.85451 13.4638 9.64892C13.9854 10.8318 14.6007 11.9684 15.2219 13.0991C16.0072 14.5256 16.857 15.9172 17.7067 17.3089C17.9763 17.7496 18.2928 18.5904 18.9433 18.5266C19.5528 18.4628 19.7403 17.9119 20.045 17.4712C20.7835 16.3985 21.4691 15.2678 22.1431 14.1486C22.9577 12.7918 23.7664 11.4291 24.4462 10.0026C24.8447 9.16763 25.2726 8.28045 25.4249 7.35847C25.466 7.10333 25.4484 6.84239 25.4601 6.58145C25.507 5.5377 25.2784 4.48815 24.7803 3.56038C24.4814 3.00951 24.1063 2.51663 23.6668 2.06433C23.1276 1.51347 22.4771 1.06117 21.7797 0.724854C21.0882 0.394333 20.3674 0.162388 19.6055 0.0522145C19.3418 0.02902 19.0664 -0.0231675 18.8026 0.0116242Z" fill="#63AB45"/>
<path d="M6.32706 6.4714C5.82307 6.53518 5.33079 6.54098 4.83851 6.68015C3.36754 7.09185 2.08411 7.95584 1.14644 9.15036C0.595555 9.85779 0.284952 10.7334 0.13258 11.6032C-0.26593 13.853 0.361137 16.2711 2.17201 17.7903C2.71703 18.2484 3.39684 18.6891 4.07665 18.921C5.18428 19.2979 6.39153 19.3617 7.54603 19.4429C9.28658 19.5589 11.0447 19.5705 12.7911 19.5125C13.6819 19.4835 14.5727 19.4951 15.4635 19.4429C15.7624 19.4255 16.0788 19.4777 16.3777 19.4197C16.8876 19.3153 17.1982 18.8108 17.0224 18.318C16.9052 17.9874 16.6707 17.6743 16.5066 17.3612C16.1023 16.6074 15.692 15.8536 15.276 15.1055C14.2914 13.337 13.2717 11.5452 12.0644 9.91578C11.3963 9.01699 10.7341 8.04862 9.7437 7.46876C8.89394 6.97008 8.03245 6.60477 7.04204 6.51199C6.80176 6.483 6.55562 6.43661 6.32706 6.4714Z" fill="#63AB45"/>
<path d="M10.13 20.4744C9.84866 20.5092 9.54978 20.4802 9.26848 20.486C8.85239 20.4918 8.4363 20.515 8.02021 20.5324C7.28179 20.5672 6.54338 20.631 5.81082 20.7353C5.21892 20.8165 4.61529 20.8919 4.05269 21.1007C3.40218 21.3384 2.78684 21.7385 2.24768 22.1618C1.83745 22.4807 1.47996 22.875 1.17522 23.2983C0.132058 24.7654 -0.213708 26.6499 0.126197 28.4011C0.255127 29.0679 0.448521 29.7638 0.788427 30.361C1.04043 30.7959 1.40377 31.1902 1.76126 31.544C3.15018 32.9298 5.16031 33.7416 7.14114 33.5039C8.2136 33.3763 9.33294 32.924 10.1768 32.2572C11.1204 31.515 11.8295 30.4422 12.4917 29.4565C13.5232 27.9198 14.4784 26.331 15.3692 24.7132C15.8204 23.8898 16.2658 23.0606 16.723 22.2372C16.9515 21.8197 17.2211 21.4138 16.9222 20.9557C16.5823 20.428 15.715 20.5614 15.1641 20.5614C14.4022 20.5614 13.6404 20.4918 12.8785 20.486C12.5445 20.4802 12.2046 20.4976 11.8705 20.4802C11.4837 20.4628 11.0911 20.4628 10.7043 20.4686C10.5168 20.4744 10.3234 20.4512 10.13 20.4744Z" fill="#63AB45"/>
<path d="M37.515 29.5038C36.3136 32.7801 32.0062 34.5486 28.8592 32.9134C28.0797 32.5075 27.4175 32.0436 26.8549 31.3594C26.7201 31.197 26.4095 30.9361 26.3802 30.7216C26.2571 30.6636 26.1809 30.5128 26.1048 30.4084C25.9114 30.1475 25.718 29.8866 25.5421 29.614C24.9151 28.663 24.3115 27.7063 23.7254 26.7379C23.4793 26.332 23.239 25.9203 23.0046 25.5144C22.8522 25.2593 22.7057 25.0041 22.565 24.7548C22.1783 24.0705 21.8032 23.3805 21.4516 22.6847C21.2113 22.2092 20.7014 21.6409 20.9417 21.0843C21.2171 20.4348 21.9204 20.6262 22.4771 20.574C23.2156 20.5044 23.9657 20.5334 24.7041 20.516C25.5421 20.4928 26.3861 20.458 27.23 20.4754C28.7302 20.5102 30.2305 20.5102 31.7249 20.6842C32.4516 20.7711 33.19 20.8581 33.8816 21.0959C34.2742 21.235 34.6375 21.4496 34.9892 21.6699C35.5635 22.0236 36.0851 22.4469 36.5129 22.9746C36.9641 23.5197 37.304 24.1401 37.5385 24.8012L37.6967 25.3114L37.7143 25.3636L37.7201 25.3868C38.0659 26.7379 37.9956 28.1992 37.515 29.5038Z" fill="#63AB45"/>
<path d="M25.4547 33.4113C25.4782 34.339 25.3258 35.2088 24.9625 36.0728C24.7456 36.5831 24.4233 37.047 24.0775 37.4819C23.638 38.0269 23.093 38.4966 22.4952 38.8735C21.7509 39.3432 20.9422 39.6738 20.0807 39.8709C17.5431 40.4508 14.6598 39.0069 13.3588 36.8324C12.6907 35.7133 12.4446 34.368 12.5676 33.0807C12.6555 32.1414 13.0892 31.2136 13.4643 30.3612C14.1617 28.7956 14.9763 27.2763 15.8495 25.8093C16.4765 24.7539 17.0978 23.6986 17.7307 22.649C17.8596 22.4345 17.9768 22.2025 18.1292 21.9938C18.1351 21.9764 18.1468 21.9648 18.1585 21.9474C18.3226 21.727 18.5218 21.5531 18.8031 21.4893C19.1724 21.4023 19.4361 21.6169 19.6412 21.901C19.8053 22.1156 19.9342 22.3707 20.0573 22.5563C20.5085 23.2231 20.9363 23.9073 21.3583 24.5974C21.5341 24.8757 21.7041 25.154 21.874 25.4382C22.1026 25.8093 22.3253 26.1804 22.5538 26.5457C23.2864 27.7344 23.9662 28.9811 24.5581 30.2452C24.9156 31.0106 25.2848 31.8166 25.4196 32.6516C25.4606 32.9068 25.4489 33.1561 25.4547 33.4113Z" fill="#63AB45"/>
</svg>
