<svg width="41" height="40" viewBox="0 0 41 40" fill="none" xmlns="http://www.w3.org/2000/svg">
<path d="M30.5464 16.3169L31.0481 16.1052L31.2081 15.4279L31.3751 14.7536L32.7734 14.158C33.7216 13.7579 34.1852 13.5799 34.1998 13.6141C34.2191 13.6582 34.6891 18.0588 34.6962 18.2652C34.6974 18.3226 34.8228 18.2872 35.2945 18.0883L35.8905 17.8367L36.3248 15.1681L36.7614 12.5043L38.3549 11.8032C40.0772 11.0476 40.1048 11.0297 40.2349 10.6499C40.3251 10.3971 40.3193 10.2196 40.2114 9.96853C40.0778 9.65889 39.7801 9.43041 39.4461 9.39156C39.1917 9.35967 39.1917 9.35968 37.6024 10.03L36.0183 10.6986L33.7316 9.13759L31.4501 7.57428L30.864 7.82129C30.3278 8.04744 30.2821 8.07817 30.3389 8.14138C30.3753 8.18429 31.0703 8.99434 31.8849 9.94532C32.6995 10.8963 33.3758 11.7029 33.3887 11.7325C33.4098 11.7818 33.1033 11.9284 32.0309 12.3807L30.6454 12.9652L29.9955 12.6005L29.3503 12.234L28.8639 12.4393C28.422 12.626 28.3816 12.6544 28.4378 12.7176C28.4742 12.7605 28.7906 13.1554 29.1487 13.5909L29.7939 14.3929L29.917 15.3862C29.9826 15.9335 30.0377 16.4154 30.0424 16.4537C30.0436 16.5117 30.159 16.4804 30.5464 16.3169Z" fill="#63AB45"/>
<path d="M29.0293 15.302L27.9803 15.8645C24.13 17.9636 21.2818 19.9409 20.0101 21.4254C19.8695 21.5936 19.7464 21.7501 19.6409 21.9009C19.4358 21.6168 19.1721 21.4022 18.8029 21.4892C18.5216 21.553 18.3223 21.7269 18.1582 21.9473C19.1838 20.3584 21.8737 18.2362 25.853 15.8935C26.5914 15.4586 28.4433 14.4149 28.5956 14.3511C28.6308 14.3511 28.7304 14.5308 28.8359 14.815L29.0293 15.302Z" fill="#63AB45"/>
<path d="M18.8026 0.0116242C17.8357 0.139194 16.9507 0.301555 16.0658 0.730652C15.3977 1.05537 14.7414 1.49607 14.2374 2.04694C13.8271 2.49343 13.4462 2.96892 13.1708 3.51399C12.7312 4.38378 12.5613 5.28836 12.5613 6.25093C12.5613 6.55826 12.5378 6.86559 12.5964 7.16711C12.7547 8.03111 13.1122 8.85451 13.4638 9.64892C13.9854 10.8318 14.6007 11.9684 15.2219 13.0991C16.0072 14.5256 16.857 15.9172 17.7067 17.3089C17.9763 17.7496 18.2928 18.5904 18.9433 18.5266C19.5528 18.4628 19.7403 17.9119 20.045 17.4712C20.7835 16.3985 21.4691 15.2678 22.1431 14.1486C22.9577 12.7918 23.7664 11.4291 24.4462 10.0026C24.8447 9.16763 25.2726 8.28045 25.4249 7.35847C25.466 7.10333 25.4484 6.84239 25.4601 6.58145C25.507 5.5377 25.2784 4.48815 24.7803 3.56038C24.4814 3.00951 24.1063 2.51663 23.6668 2.06433C23.1276 1.51347 22.4771 1.06117 21.7797 0.724854C21.0882 0.394333 20.3674 0.162388 19.6055 0.0522145C19.3418 0.02902 19.0664 -0.0231675 18.8026 0.0116242Z" fill="#63AB45"/>
<path d="M6.32706 6.4714C5.82307 6.53518 5.33079 6.54098 4.83851 6.68015C3.36754 7.09185 2.08411 7.95584 1.14644 9.15036C0.595555 9.85779 0.284952 10.7334 0.13258 11.6032C-0.26593 13.853 0.361137 16.2711 2.17201 17.7903C2.71703 18.2484 3.39684 18.6891 4.07665 18.921C5.18428 19.2979 6.39153 19.3617 7.54603 19.4429C9.28658 19.5589 11.0447 19.5705 12.7911 19.5125C13.6819 19.4835 14.5727 19.4951 15.4635 19.4429C15.7624 19.4255 16.0788 19.4777 16.3777 19.4197C16.8876 19.3153 17.1982 18.8108 17.0224 18.318C16.9052 17.9874 16.6707 17.6743 16.5066 17.3612C16.1023 16.6074 15.692 15.8536 15.276 15.1055C14.2914 13.337 13.2717 11.5452 12.0644 9.91578C11.3963 9.01699 10.7341 8.04862 9.7437 7.46876C8.89393 6.97008 8.03245 6.60477 7.04204 6.51199C6.80176 6.483 6.55562 6.43661 6.32706 6.4714Z" fill="#63AB45"/>
<path d="M10.13 20.4744C9.84866 20.5092 9.54978 20.4802 9.26848 20.486C8.85239 20.4918 8.4363 20.515 8.02021 20.5324C7.28179 20.5672 6.54338 20.631 5.81082 20.7353C5.21892 20.8165 4.61529 20.8919 4.05269 21.1007C3.40218 21.3384 2.78684 21.7385 2.24768 22.1618C1.83744 22.4807 1.47996 22.875 1.17522 23.2983C0.132058 24.7654 -0.213708 26.6499 0.126197 28.4011C0.255127 29.0679 0.448521 29.7638 0.788427 30.361C1.04043 30.7959 1.40377 31.1902 1.76126 31.544C3.15018 32.9298 5.16031 33.7416 7.14114 33.5039C8.2136 33.3763 9.33294 32.924 10.1768 32.2572C11.1204 31.515 11.8295 30.4422 12.4917 29.4565C13.5232 27.9198 14.4784 26.331 15.3692 24.7132C15.8204 23.8898 16.2658 23.0606 16.723 22.2372C16.9515 21.8197 17.2211 21.4138 16.9222 20.9557C16.5823 20.428 15.715 20.5614 15.1641 20.5614C14.4022 20.5614 13.6404 20.4918 12.8785 20.486C12.5445 20.4802 12.2046 20.4976 11.8705 20.4802C11.4837 20.4628 11.0911 20.4628 10.7043 20.4686C10.5168 20.4744 10.3234 20.4512 10.13 20.4744Z" fill="#63AB45"/>
<path d="M37.515 29.5038C36.3136 32.7801 32.0062 34.5486 28.8592 32.9134C28.0797 32.5075 27.4175 32.0436 26.8549 31.3594C26.7201 31.197 26.4095 30.9361 26.3802 30.7216C26.2571 30.6636 26.1809 30.5128 26.1048 30.4084C25.9114 30.1475 25.718 29.8866 25.5421 29.614C24.9151 28.663 24.3115 27.7063 23.7254 26.7379C23.4793 26.332 23.239 25.9203 23.0046 25.5144C22.8522 25.2593 22.7057 25.0041 22.565 24.7548C22.1783 24.0705 21.8032 23.3805 21.4516 22.6847C21.2113 22.2092 20.7014 21.6409 20.9417 21.0843C21.2171 20.4348 21.9204 20.6262 22.4771 20.574C23.2156 20.5044 23.9657 20.5334 24.7041 20.516C25.5421 20.4928 26.3861 20.458 27.23 20.4754C28.7302 20.5102 30.2305 20.5102 31.7249 20.6842C32.4516 20.7711 33.19 20.8581 33.8816 21.0959C34.2742 21.235 34.6375 21.4496 34.9892 21.6699C35.5635 22.0236 36.0851 22.4469 36.5129 22.9746C36.9641 23.5197 37.304 24.1401 37.5385 24.8012L37.6967 25.3114L37.7143 25.3636L37.7201 25.3868C38.0659 26.7379 37.9956 28.1992 37.515 29.5038Z" fill="#63AB45"/>
<path d="M25.4547 33.4113C25.4782 34.339 25.3258 35.2088 24.9625 36.0728C24.7456 36.5831 24.4233 37.047 24.0775 37.4819C23.638 38.0269 23.093 38.4966 22.4952 38.8735C21.7509 39.3432 20.9422 39.6738 20.0807 39.8709C17.5431 40.4508 14.6598 39.0069 13.3588 36.8324C12.6907 35.7133 12.4446 34.368 12.5676 33.0807C12.6555 32.1414 13.0892 31.2136 13.4643 30.3612C14.1617 28.7956 14.9763 27.2763 15.8495 25.8093C16.4765 24.7539 17.0978 23.6986 17.7307 22.649C17.8596 22.4345 17.9768 22.2025 18.1292 21.9938C18.1351 21.9764 18.1468 21.9648 18.1585 21.9474C18.3226 21.727 18.5218 21.5531 18.8031 21.4893C19.1724 21.4023 19.4361 21.6169 19.6412 21.901C19.8053 22.1156 19.9342 22.3707 20.0573 22.5563C20.5085 23.2231 20.9363 23.9073 21.3583 24.5974C21.5341 24.8757 21.7041 25.154 21.874 25.4382C22.1026 25.8093 22.3253 26.1804 22.5538 26.5457C23.2864 27.7344 23.9662 28.9811 24.5581 30.2452C24.9156 31.0106 25.2848 31.8166 25.4196 32.6516C25.4606 32.9068 25.4489 33.1561 25.4547 33.4113Z" fill="#63AB45"/>
</svg>
