<svg width="26" height="26" viewBox="0 0 26 26" fill="none" xmlns="http://www.w3.org/2000/svg">
<path d="M25.2488 20.0407C25.7194 20.6329 26 21.3828 26 22.1992C26 24.1183 24.4482 25.6701 22.5291 25.6701C21.2263 25.6701 20.0932 24.955 19.4997 23.8954C19.4876 23.8447 19.4629 23.7991 19.4287 23.7617C19.1912 23.2924 19.0582 22.7616 19.0582 22.1992C19.0582 20.2801 20.6227 18.7283 22.5291 18.7283C23.6071 18.7283 24.5698 19.2179 25.2064 19.9881C25.2178 20.0071 25.2324 20.0248 25.2488 20.0407ZM24.6256 21.1035C24.7459 20.9831 24.7459 20.7868 24.6256 20.6664C24.5052 20.5461 24.3089 20.5461 24.1886 20.6664L21.7944 23.0606L20.8697 22.1422C20.7493 22.0219 20.553 22.0219 20.4326 22.1422C20.3123 22.2625 20.3123 22.4589 20.4326 22.5792L21.5791 23.7193C21.6361 23.7763 21.7184 23.808 21.7944 23.808C21.8767 23.808 21.9527 23.7763 22.0224 23.7193L24.6256 21.1035ZM25.1576 3.45767V6.16217H0V3.445C0 3.15365 0.234348 2.91296 0.532034 2.91296H3.46456V3.71102C3.46456 4.34439 3.97759 4.85742 4.61096 4.85742C5.238 4.85742 5.75103 4.33806 5.75737 3.69835V2.92563H8.77223V3.71102C8.77223 4.34439 9.28526 4.85742 9.91864 4.85742C10.552 4.85742 11.065 4.33806 11.065 3.69835V2.92563H14.0862V3.71102C14.0862 4.34439 14.5993 4.85742 15.2326 4.85742C15.8597 4.85742 16.3727 4.33806 16.379 3.69835V2.92563H19.3939V3.71102C19.3939 4.34439 19.9069 4.85742 20.5403 4.85742C21.1674 4.85742 21.6804 4.33806 21.6867 3.69835V2.92563H24.6256C24.9169 2.92563 25.1576 3.15998 25.1576 3.45767ZM19.7549 14.1807H21.8514V16.2772H19.7549V14.1807ZM19.7549 9.04402H21.8514V11.1405H19.7549V9.04402Z" fill="#63AB45"/>
<path d="M21.0669 2.62144V3.69817C21.0669 3.98952 20.8326 4.23021 20.5412 4.23021C20.2499 4.23021 20.0155 3.99586 20.0155 3.70451V1.5257C20.0155 1.23435 20.2499 1 20.5412 1C20.8262 1 21.0606 1.23435 21.0669 1.53203V2.62144ZM14.2708 19.3045H16.3673V21.401H14.2708V19.3045ZM14.2708 14.1805H16.3673V16.277H14.2708V14.1805ZM14.2708 9.04385H16.3673V11.1403H14.2708V9.04385ZM15.7592 2.62144V3.69184C15.7592 3.98952 15.5249 4.23021 15.2335 4.23021C14.9422 4.23021 14.7078 3.99586 14.7078 3.70451V1.5257C14.7078 1.23435 14.9422 1 15.2335 1C15.5186 1 15.7592 1.23435 15.7592 1.53203V2.62144ZM8.77947 19.3045H10.8759V21.401H8.77947V19.3045ZM8.77947 14.1805H10.8759V16.277H8.77947V14.1805ZM8.77947 9.04385H10.8759V11.1403H8.77947V9.04385ZM10.4452 2.62144V3.69817C10.4452 3.98952 10.2109 4.23021 9.91954 4.23021C9.62819 4.23021 9.39384 3.99586 9.39384 3.70451V1.5257C9.39384 1.23435 9.62819 1 9.91954 1C10.2109 1 10.4452 1.23435 10.4452 1.53203V2.62144ZM3.30078 19.3045H5.39725V21.401H3.30078V19.3045ZM3.30078 14.1805H5.39725V16.277H3.30078V14.1805ZM3.30078 9.04385H5.39725V11.1403H3.30078V9.04385ZM5.13757 2.62144V3.69184C5.13757 3.98952 4.90322 4.23021 4.61187 4.23021C4.32051 4.23021 4.08617 3.99586 4.08617 3.70451V1.5257C4.08617 1.23435 4.32051 1 4.61187 1C4.90322 1 5.1439 1.23435 5.13757 1.5257V2.62144Z" fill="#63AB45"/>
<path d="M25.1576 6.77014V19.0665C24.447 18.4679 23.5298 18.1075 22.5291 18.1075C20.2743 18.1075 18.4438 19.938 18.4438 22.1928C18.4438 22.7109 18.5401 23.2062 18.7168 23.6622H0.532034C0.240682 23.6622 0 23.4279 0 23.1302V6.77014H25.1576ZM22.1554 11.7611C22.3328 11.7611 22.4721 11.6218 22.4594 11.4571V8.73993C22.4594 8.57526 22.3264 8.43591 22.1554 8.43591H19.4382C19.2736 8.43591 19.1342 8.56892 19.1342 8.73993V11.4571C19.1342 11.6218 19.2672 11.7611 19.4382 11.7611H22.1554ZM22.1554 16.8915C22.3328 16.8915 22.4721 16.7584 22.4594 16.5874V13.8703C22.4594 13.7056 22.3264 13.5662 22.1554 13.5662H19.4382C19.2736 13.5662 19.1342 13.6993 19.1342 13.8703V16.5874C19.1342 16.7521 19.2672 16.8915 19.4382 16.8915H22.1554ZM16.6767 22.0218C16.8477 22.0218 16.9871 21.8824 16.9808 21.7178V19.0006C16.9808 18.8359 16.8477 18.6966 16.6767 18.6966H13.9596C13.7949 18.6966 13.6555 18.8296 13.6555 19.0006V21.7178C13.6555 21.8824 13.7886 22.0218 13.9596 22.0218H16.6767ZM16.6767 16.8915C16.8477 16.8915 16.9871 16.7584 16.9808 16.5874V13.8703C16.9808 13.7056 16.8477 13.5662 16.6767 13.5662H13.9596C13.7949 13.5662 13.6555 13.6993 13.6555 13.8703V16.5874C13.6555 16.7521 13.7886 16.8915 13.9596 16.8915H16.6767ZM16.6767 11.7611C16.8477 11.7611 16.9871 11.6218 16.9808 11.4571V8.73993C16.9808 8.57526 16.8477 8.43591 16.6767 8.43591H13.9596C13.7949 8.43591 13.6555 8.56892 13.6555 8.73993V11.4571C13.6555 11.6218 13.7886 11.7611 13.9596 11.7611H16.6767ZM11.4957 21.7178V19.0006C11.4957 18.8359 11.3627 18.6966 11.1917 18.6966H8.47454C8.30987 18.6966 8.17052 18.8296 8.17052 19.0006V21.7178C8.17052 21.8824 8.30353 22.0218 8.47454 22.0218H11.1917C11.3564 22.0218 11.4957 21.8824 11.4957 21.7178ZM11.4957 16.5874V13.8703C11.4957 13.7056 11.3627 13.5662 11.1917 13.5662H8.47454C8.30987 13.5662 8.17052 13.6993 8.17052 13.8703V16.5874C8.17052 16.7521 8.30353 16.8915 8.47454 16.8915H11.1917C11.3564 16.8915 11.4957 16.7584 11.4957 16.5874ZM11.4957 11.4571V8.73993C11.4957 8.57526 11.3627 8.43591 11.1917 8.43591H8.47454C8.30987 8.43591 8.17052 8.56892 8.17052 8.73993V11.4571C8.17052 11.6218 8.30353 11.7611 8.47454 11.7611H11.1917C11.3564 11.7611 11.4957 11.6218 11.4957 11.4571ZM6.01705 21.7178V19.0006C6.01705 18.8359 5.88404 18.6966 5.71303 18.6966H2.99586C2.83118 18.6966 2.69184 18.8296 2.69184 19.0006V21.7178C2.69184 21.8824 2.82485 22.0218 2.99586 22.0218H5.7067C5.87771 22.0218 6.01705 21.8824 6.01705 21.7178ZM6.01705 16.5874V13.8703C6.01705 13.7056 5.88404 13.5662 5.71303 13.5662H2.99586C2.83118 13.5662 2.69184 13.6993 2.69184 13.8703V16.5874C2.69184 16.7521 2.82485 16.8915 2.99586 16.8915H5.7067C5.87771 16.8915 6.01705 16.7584 6.01705 16.5874ZM6.01705 11.4571V8.73993C6.01705 8.57526 5.88404 8.43591 5.71303 8.43591H2.99586C2.83118 8.43591 2.69184 8.56892 2.69184 8.73993V11.4571C2.69184 11.6218 2.82485 11.7611 2.99586 11.7611H5.7067C5.87771 11.7611 6.01705 11.6218 6.01705 11.4571Z" fill="#63AB45"/>
</svg>
