<svg width="60" height="9" viewBox="0 0 60 9" fill="none" xmlns="http://www.w3.org/2000/svg">
<path d="M4.69585 0C2.23543 0 0.230469 2.0205 0.230469 4.5C0.230469 6.9795 2.23543 9 4.69585 9C7.15628 9 9.16124 6.9825 9.16124 4.5C9.16124 2.0205 7.15926 0 4.69585 0Z" fill="#00AA6C"/>
<path d="M17.3482 0C14.8878 0 12.8828 2.0205 12.8828 4.5C12.8828 6.9795 14.8878 9 17.3482 9C19.8086 9 21.8136 6.9825 21.8136 4.5C21.8136 2.0205 19.8116 0 17.3482 0Z" fill="#00AA6C"/>
<path d="M30.0005 0C27.5401 0 25.5352 2.0205 25.5352 4.5C25.5352 6.9795 27.5401 9 30.0005 9C32.461 9 34.4659 6.9825 34.4659 4.5C34.4659 2.0205 32.4639 0 30.0005 0Z" fill="#00AA6C"/>
<path d="M42.6509 0C40.1905 0 38.1855 2.0205 38.1855 4.5C38.1855 6.9795 40.1905 9 42.6509 9C45.1114 9 47.1163 6.9825 47.1163 4.5C47.1163 2.0205 45.1143 0 42.6509 0Z" fill="#00AA6C"/>
<path d="M55.3033 0C52.8432 0 50.8379 2.02087 50.8379 4.5C50.8379 6.9825 52.8432 9 55.3033 9C57.7667 9 59.7687 6.98287 59.7687 4.5C59.7687 2.01713 57.7671 0 55.3033 0ZM55.3033 0.75C55.7922 0.74921 56.2764 0.845667 56.7282 1.03384C57.1801 1.22202 57.5906 1.49821 57.9363 1.84659C58.282 2.19496 58.556 2.60868 58.7428 3.064C58.9295 3.51933 59.0252 4.00732 59.0244 4.5C59.0256 4.99279 58.9302 5.48096 58.7436 5.93647C58.557 6.39197 58.2829 6.80584 57.9372 7.1543C57.5914 7.50275 57.1807 7.77893 56.7287 7.96697C56.2767 8.155 55.7923 8.25119 55.3033 8.25V0.75Z" fill="#00AA6C"/>
</svg>
