<svg width="86" height="13" viewBox="0 0 86 13" fill="none" xmlns="http://www.w3.org/2000/svg">
<path d="M6.45 0C2.89605 0 0 2.9185 0 6.5C0 10.0815 2.89605 13 6.45 13C10.0039 13 12.9 10.0858 12.9 6.5C12.9 2.9185 10.0082 0 6.45 0Z" fill="#00AA6C"/>
<path d="M24.7254 0C21.1714 0 18.2754 2.9185 18.2754 6.5C18.2754 10.0815 21.1714 13 24.7254 13C28.2793 13 31.1754 10.0858 31.1754 6.5C31.1754 2.9185 28.2836 0 24.7254 0Z" fill="#00AA6C"/>
<path d="M43.0008 0C39.4468 0 36.5508 2.9185 36.5508 6.5C36.5508 10.0815 39.4468 13 43.0008 13C46.5547 13 49.4508 10.0858 49.4508 6.5C49.4508 2.9185 46.559 0 43.0008 0Z" fill="#00AA6C"/>
<path d="M61.2742 0C57.7203 0 54.8242 2.9185 54.8242 6.5C54.8242 10.0815 57.7203 13 61.2742 13C64.8282 13 67.7242 10.0858 67.7242 6.5C67.7242 2.9185 64.8325 0 61.2742 0Z" fill="#00AA6C"/>
<path d="M79.5496 0C75.9962 0 73.0996 2.91904 73.0996 6.5C73.0996 10.0858 75.9962 13 79.5496 13C83.1079 13 85.9996 10.0864 85.9996 6.5C85.9996 2.91363 83.1084 0 79.5496 0ZM79.5496 1.08333C80.2558 1.08219 80.9552 1.22152 81.6079 1.49333C82.2605 1.76514 82.8535 2.16408 83.3528 2.66729C83.8522 3.1705 84.2481 3.76809 84.5178 4.42578C84.7875 5.08348 84.9257 5.78835 84.9246 6.5C84.9263 7.21181 84.7884 7.91694 84.5189 8.5749C84.2494 9.23285 83.8536 9.83066 83.3541 10.334C82.8546 10.8373 82.2614 11.2362 81.6085 11.5078C80.9557 11.7794 80.2559 11.9184 79.5496 11.9167V1.08333Z" fill="#00AA6C"/>
</svg>
