<svg width="114" height="24" viewBox="0 0 114 24" fill="none" xmlns="http://www.w3.org/2000/svg">
<g clip-path="url(#clip0_1284_47)">
<path d="M113.359 16.0372C113.005 16.0372 112.718 16.3214 112.718 16.6714C112.718 17.0213 113.005 17.3055 113.359 17.3055C113.712 17.3055 114 17.0213 114 16.6714C114 16.3214 113.712 16.0372 113.359 16.0372ZM113.359 17.205C113.061 17.205 112.82 16.9649 112.82 16.6714C112.82 16.3764 113.062 16.1377 113.359 16.1377C113.657 16.1377 113.899 16.3777 113.899 16.6714C113.899 16.965 113.657 17.205 113.359 17.205ZM113.568 16.5627C113.568 16.4474 113.485 16.379 113.363 16.379H113.158V16.9569H113.259V16.7478H113.368L113.474 16.9569H113.582L113.466 16.7264C113.528 16.6982 113.568 16.6418 113.568 16.5627ZM113.359 16.6579H113.26V16.4662H113.359C113.427 16.4662 113.467 16.4997 113.467 16.5614C113.467 16.6244 113.425 16.6579 113.359 16.6579ZM36.1464 9.61881V8.08496H33.7701V17.2103H36.1464V11.7386C36.1464 10.7478 36.7885 10.261 37.7897 10.261H39.0903V8.08499H37.9794C37.1096 8.08496 36.3537 8.53411 36.1464 9.61881ZM41.3162 4.47559C40.5033 4.47559 39.8801 5.11113 39.8801 5.91559C39.8801 6.70129 40.5033 7.33683 41.3162 7.33683C42.1291 7.33683 42.7523 6.70129 42.7523 5.91559C42.7522 5.11109 42.1291 4.47559 41.3162 4.47559ZM40.1308 17.2104H42.5016V8.08496H40.1308V17.2104ZM53.795 12.6476C53.795 15.2528 51.6612 17.3645 49.0289 17.3645C47.9667 17.3645 47.0035 17.02 46.2313 16.438V19.8893H43.8604V8.08496H46.2313V8.85723C47.0035 8.27534 47.9667 7.93076 49.0289 7.93076C51.6612 7.93076 53.795 10.0425 53.795 12.6476ZM51.4092 12.6476C51.4092 11.2331 50.2496 10.0854 48.8203 10.0854C47.391 10.0854 46.2313 11.2331 46.2313 12.6476C46.2313 14.0622 47.391 15.2099 48.8203 15.2099C50.2496 15.2099 51.4092 14.0635 51.4092 12.6476ZM95.0017 11.8472L93.6185 11.4718C92.7081 11.2371 92.3545 10.9609 92.3545 10.485C92.3545 10.021 92.8531 9.69658 93.5657 9.69658C94.2445 9.69658 94.7769 10.1364 94.7769 10.6995V10.7517H96.9621V10.6995C96.9621 9.04358 95.5979 7.93073 93.5657 7.93073C91.5539 7.93073 90.0921 9.04224 90.0921 10.5747C90.0921 11.7667 90.89 12.665 92.2827 13.0378L93.6077 13.3958C94.6143 13.672 94.9882 13.9777 94.9882 14.5261C94.9882 15.104 94.4477 15.4928 93.6429 15.4928C92.8043 15.4928 92.2393 14.9672 92.2393 14.1868V14.1345H89.92V14.1868C89.92 16.0586 91.4428 17.3672 93.624 17.3672C95.7252 17.3672 97.2507 16.0894 97.2507 14.3303C97.2507 13.4668 96.8605 12.3379 95.0017 11.8472ZM62.2054 8.08496H64.5763V17.2103H62.2054V16.438C61.4332 17.0199 60.4699 17.3645 59.4078 17.3645C56.7755 17.3645 54.6418 15.2528 54.6418 12.6476C54.6418 10.0424 56.7755 7.93073 59.4078 7.93073C60.4699 7.93073 61.4332 8.27531 62.2054 8.8572V8.08496ZM62.2054 12.6476C62.2054 11.2318 61.0457 10.0854 59.6164 10.0854C58.1871 10.0854 57.0275 11.2331 57.0275 12.6476C57.0275 14.0622 58.1871 15.2099 59.6164 15.2099C61.0471 15.2099 62.2054 14.0635 62.2054 12.6476ZM73.1371 4.83759H75.508V17.2117H73.1371V16.4394C72.3648 17.0213 71.4016 17.3659 70.3395 17.3659C67.7071 17.3659 65.5734 15.2541 65.5734 12.649C65.5734 10.0438 67.7071 7.93208 70.3395 7.93208C71.4016 7.93208 72.3648 8.27666 73.1371 8.85855V4.83759ZM73.1371 12.6476C73.1371 11.2331 71.9774 10.0854 70.5481 10.0854C69.1188 10.0854 67.9591 11.2331 67.9591 12.6476C67.9591 14.0622 69.1174 15.2099 70.5481 15.2099C71.9774 15.2099 73.1371 14.0635 73.1371 12.6476ZM86.5155 17.2104H88.8863V8.08496H86.5155V17.2104ZM87.7009 4.47559C86.888 4.47559 86.2648 5.11113 86.2648 5.91559C86.2648 6.70129 86.888 7.33683 87.7009 7.33683C88.5137 7.33683 89.1369 6.70129 89.1369 5.91559C89.1369 5.11109 88.5137 4.47559 87.7009 4.47559ZM107.498 12.6476C107.498 15.2528 105.364 17.3645 102.732 17.3645C100.1 17.3645 97.966 15.2528 97.966 12.6476C97.966 10.0425 100.1 7.93076 102.732 7.93076C105.364 7.93076 107.498 10.0425 107.498 12.6476ZM105.321 12.6476C105.321 11.2331 104.161 10.0854 102.732 10.0854C101.303 10.0854 100.143 11.2331 100.143 12.6476C100.143 14.0622 101.301 15.2099 102.732 15.2099C104.161 15.2099 105.321 14.0635 105.321 12.6476ZM34.9325 4.83759H25.8379V6.93056H29.2045V17.2103H31.5672V6.93056H34.9339V4.83759H34.9325ZM80.9257 14.7111L78.8163 8.08499H76.3262L79.4896 17.2104H82.3427L85.5251 8.08499H83.035L80.9257 14.7111ZM110.972 9.61881V8.08496H108.596V17.2103H110.972V11.7386C110.972 10.7478 111.614 10.261 112.615 10.261H113.916V8.08499H112.805C111.935 8.08496 111.18 8.53411 110.972 9.61881Z" fill="black"/>
<path d="M12.1252 24C18.8218 24 24.2504 18.6274 24.2504 12C24.2504 5.37258 18.8218 0 12.1252 0C5.42864 0 0 5.37258 0 12C0 18.6274 5.42864 24 12.1252 24Z" fill="#34E0A1"/>
<path d="M19.6146 9.65904L21.0777 8.08361H17.8331C16.2087 6.98549 14.247 6.34595 12.1254 6.34595C10.0065 6.34595 8.05026 6.98687 6.42858 8.08361H3.17578L4.63894 9.65904C3.74209 10.4689 3.17986 11.6354 3.17986 12.9306C3.17986 15.3748 5.18224 17.3565 7.65199 17.3565C8.82522 17.3565 9.89411 16.9087 10.6921 16.1766L12.1254 17.7212L13.5588 16.1779C14.3568 16.91 15.4243 17.3565 16.5975 17.3565C19.0673 17.3565 21.0723 15.3748 21.0723 12.9306C21.0737 11.634 20.5115 10.4675 19.6146 9.65904ZM7.65331 15.9259C5.9815 15.9259 4.62677 14.5851 4.62677 12.9306C4.62677 11.276 5.98154 9.93524 7.65331 9.93524C9.32509 9.93524 10.6799 11.276 10.6799 12.9306C10.6799 14.5851 9.32509 15.9259 7.65331 15.9259ZM12.1268 12.8434C12.1268 10.8724 10.6785 9.18038 8.76693 8.45769C9.80061 8.02996 10.9346 7.79265 12.1254 7.79265C13.3162 7.79265 14.4515 8.02996 15.4852 8.45769C13.575 9.18173 12.1268 10.8725 12.1268 12.8434ZM16.5989 15.9259C14.9271 15.9259 13.5723 14.5851 13.5723 12.9306C13.5723 11.276 14.9271 9.93524 16.5989 9.93524C18.2707 9.93524 19.6254 11.276 19.6254 12.9306C19.6254 14.5851 18.2707 15.9259 16.5989 15.9259ZM16.5989 11.3591C15.7223 11.3591 15.0124 12.0617 15.0124 12.9292C15.0124 13.7967 15.7223 14.4993 16.5989 14.4993C17.4754 14.4993 18.1853 13.7967 18.1853 12.9292C18.1853 12.0631 17.4754 11.3591 16.5989 11.3591ZM9.23974 12.9306C9.23974 13.798 8.52983 14.5006 7.65331 14.5006C6.77679 14.5006 6.06688 13.798 6.06688 12.9306C6.06688 12.0631 6.77679 11.3605 7.65331 11.3605C8.52983 11.3591 9.23974 12.0631 9.23974 12.9306Z" fill="black"/>
</g>
<defs>
<clipPath id="clip0_1284_47">
<rect width="114" height="24" fill="white"/>
</clipPath>
</defs>
</svg>
