<svg width="114" height="24" viewBox="0 0 114 24" fill="none" xmlns="http://www.w3.org/2000/svg">
<path d="M95.4912 15.001C95.2104 15.001 94.9824 15.2223 94.9824 15.4948C94.9824 15.7672 95.2104 15.9885 95.4912 15.9885C95.7719 15.9885 96 15.7672 96 15.4948C96 15.2223 95.7719 15.001 95.4912 15.001ZM95.4912 15.9102C95.2545 15.9102 95.0631 15.7233 95.0631 15.4948C95.0631 15.2651 95.2556 15.0793 95.4912 15.0793C95.7279 15.0793 95.9204 15.2662 95.9204 15.4948C95.9204 15.7234 95.7278 15.9102 95.4912 15.9102ZM95.6568 15.4102C95.6568 15.3204 95.5912 15.2672 95.4944 15.2672H95.3319V15.7171H95.4115V15.5543H95.4986L95.5826 15.7171H95.6686L95.5761 15.5376C95.6256 15.5156 95.6568 15.4718 95.6568 15.4102ZM95.4912 15.4843H95.4127V15.3351H95.4912C95.545 15.3351 95.5772 15.3612 95.5772 15.4092C95.5772 15.4582 95.5439 15.4843 95.4912 15.4843ZM34.1849 10.0042V8.81H32.2981V15.9144H34.1849V11.6545C34.1849 10.8831 34.6947 10.5042 35.4897 10.5042H36.5223V8.81003H35.6403C34.9497 8.81 34.3495 9.15968 34.1849 10.0042ZM38.2897 6C37.6443 6 37.1495 6.49479 37.1495 7.12109C37.1495 7.73278 37.6443 8.22757 38.2897 8.22757C38.9351 8.22757 39.4299 7.73278 39.4299 7.12109C39.4299 6.49476 38.9351 6 38.2897 6ZM37.3485 15.9144H39.2309V8.81H37.3485V15.9144ZM48.1978 12.3622C48.1978 14.3904 46.5036 16.0344 44.4135 16.0344C43.5702 16.0344 42.8054 15.7662 42.1922 15.3131V18H40.3098V8.81H42.1922V9.41124C42.8054 8.95822 43.5702 8.68996 44.4135 8.68996C46.5036 8.68996 48.1978 10.334 48.1978 12.3622ZM46.3035 12.3622C46.3035 11.2609 45.3827 10.3674 44.2479 10.3674C43.113 10.3674 42.1922 11.2609 42.1922 12.3622C42.1922 13.4635 43.113 14.357 44.2479 14.357C45.3827 14.357 46.3035 13.4645 46.3035 12.3622ZM80.9157 11.739L79.8174 11.4467C79.0946 11.2641 78.8138 11.049 78.8138 10.6785C78.8138 10.3173 79.2097 10.0647 79.7755 10.0647C80.3144 10.0647 80.7371 10.4071 80.7371 10.8455V10.8862H82.4722V10.8455C82.4722 9.55632 81.389 8.68993 79.7755 8.68993C78.1781 8.68993 77.0174 9.55527 77.0174 10.7484C77.0174 11.6764 77.651 12.3757 78.7568 12.6659L79.8088 12.9446C80.608 13.1596 80.9049 13.3977 80.9049 13.8246C80.9049 14.2745 80.4758 14.5772 79.8368 14.5772C79.1709 14.5772 78.7224 14.168 78.7224 13.5605V13.5198H76.8808V13.5605C76.8808 15.0177 78.0899 16.0365 79.8218 16.0365C81.4901 16.0365 82.7014 15.0417 82.7014 13.6722C82.7013 13 82.3915 12.1211 80.9157 11.739ZM54.8756 8.81H56.758V15.9144H54.8756V15.3131C54.2625 15.7661 53.4976 16.0344 52.6543 16.0344C50.5643 16.0344 48.8701 14.3904 48.8701 12.3622C48.8701 10.334 50.5643 8.68993 52.6543 8.68993C53.4976 8.68993 54.2625 8.9582 54.8756 9.41122V8.81ZM54.8756 12.3622C54.8756 11.2599 53.9548 10.3674 52.82 10.3674C51.6851 10.3674 50.7644 11.2609 50.7644 12.3622C50.7644 13.4635 51.6851 14.357 52.82 14.357C53.9559 14.357 54.8756 13.4645 54.8756 12.3622ZM63.5553 6.28183H65.4378V15.9154H63.5553V15.3142C62.9421 15.7672 62.1773 16.0355 61.334 16.0355C59.2439 16.0355 57.5497 14.3914 57.5497 12.3632C57.5497 10.335 59.2439 8.69098 61.334 8.69098C62.1773 8.69098 62.9421 8.95925 63.5553 9.41226V6.28183ZM63.5553 12.3622C63.5553 11.2609 62.6345 10.3674 61.4996 10.3674C60.3648 10.3674 59.444 11.2609 59.444 12.3622C59.444 13.4635 60.3637 14.357 61.4996 14.357C62.6345 14.357 63.5553 13.4645 63.5553 12.3622ZM74.1776 15.9144H76.0601V8.81H74.1776V15.9144ZM75.1188 6C74.4734 6 73.9786 6.49479 73.9786 7.12109C73.9786 7.73278 74.4734 8.22757 75.1188 8.22757C75.7643 8.22757 76.2591 7.73278 76.2591 7.12109C76.2591 6.49476 75.7643 6 75.1188 6ZM90.8378 12.3622C90.8378 14.3904 89.1436 16.0344 87.0535 16.0344C84.9635 16.0344 83.2693 14.3904 83.2693 12.3622C83.2693 10.334 84.9635 8.68996 87.0535 8.68996C89.1436 8.68996 90.8378 10.334 90.8378 12.3622ZM89.1092 12.3622C89.1092 11.2609 88.1884 10.3674 87.0535 10.3674C85.9187 10.3674 84.9979 11.2609 84.9979 12.3622C84.9979 13.4635 85.9176 14.357 87.0535 14.357C88.1884 14.357 89.1092 13.4645 89.1092 12.3622ZM33.221 6.28183H26V7.91127H28.6731V15.9144H30.5491V7.91127H33.2222V6.28183H33.221ZM69.7394 13.9687L68.0646 8.81003H66.0874L68.5992 15.9144H70.8645L73.3913 8.81003H71.4142L69.7394 13.9687ZM93.5958 10.0042V8.81H91.7091V15.9144H93.5958V11.6545C93.5958 10.8831 94.1057 10.5042 94.9006 10.5042H95.9333V8.81003H95.0512C94.3606 8.81 93.7615 9.15968 93.5958 10.0042Z" fill="white"/>
<path d="M12.1252 24C18.8218 24 24.2504 18.6274 24.2504 12C24.2504 5.37258 18.8218 0 12.1252 0C5.42864 0 0 5.37258 0 12C0 18.6274 5.42864 24 12.1252 24Z" fill="#34E0A1"/>
<path d="M19.6146 9.6588L21.0777 8.08337H17.8331C16.2087 6.98525 14.247 6.3457 12.1254 6.3457C10.0065 6.3457 8.05026 6.98663 6.42858 8.08337H3.17578L4.63894 9.6588C3.74209 10.4686 3.17986 11.6351 3.17986 12.9303C3.17986 15.3746 5.18224 17.3562 7.65199 17.3562C8.82522 17.3562 9.89411 16.9084 10.6921 16.1763L12.1254 17.7209L13.5588 16.1777C14.3568 16.9098 15.4243 17.3562 16.5975 17.3562C19.0673 17.3562 21.0723 15.3746 21.0723 12.9303C21.0737 11.6338 20.5115 10.4673 19.6146 9.6588ZM7.65331 15.9256C5.9815 15.9256 4.62677 14.5849 4.62677 12.9303C4.62677 11.2758 5.98154 9.93499 7.65331 9.93499C9.32509 9.93499 10.6799 11.2758 10.6799 12.9303C10.6799 14.5849 9.32509 15.9256 7.65331 15.9256ZM12.1268 12.8432C12.1268 10.8722 10.6785 9.18014 8.76693 8.45745C9.80061 8.02972 10.9346 7.79241 12.1254 7.79241C13.3162 7.79241 14.4515 8.02972 15.4852 8.45745C13.575 9.18149 12.1268 10.8722 12.1268 12.8432ZM16.5989 15.9256C14.9271 15.9256 13.5723 14.5849 13.5723 12.9303C13.5723 11.2758 14.9271 9.93499 16.5989 9.93499C18.2707 9.93499 19.6254 11.2758 19.6254 12.9303C19.6254 14.5849 18.2707 15.9256 16.5989 15.9256ZM16.5989 11.3589C15.7223 11.3589 15.0124 12.0615 15.0124 12.929C15.0124 13.7964 15.7223 14.499 16.5989 14.499C17.4754 14.499 18.1853 13.7964 18.1853 12.929C18.1853 12.0628 17.4754 11.3589 16.5989 11.3589ZM9.23974 12.9303C9.23974 13.7978 8.52983 14.5004 7.65331 14.5004C6.77679 14.5004 6.06688 13.7978 6.06688 12.9303C6.06688 12.0628 6.77679 11.3602 7.65331 11.3602C8.52983 11.3589 9.23974 12.0628 9.23974 12.9303Z" fill="black"/>
</svg>
