<svg width="99" height="25" viewBox="0 0 99 25" fill="none" xmlns="http://www.w3.org/2000/svg">
<path d="M26.0204 8.79346L36.0354 8.79346V10.697L32.0921 10.697V21.4275H29.9307V10.697H26.0039L26.0204 8.79346ZM35.6064 12.2804H37.4543V14.0492H37.4873C37.5533 13.7965 37.6688 13.5607 37.8338 13.3248C37.9988 13.089 38.1968 12.87 38.4443 12.6847C38.6753 12.4826 38.9392 12.331 39.2362 12.2131C39.5167 12.0951 39.8137 12.0278 40.1107 12.0278C40.3417 12.0278 40.5067 12.0446 40.5892 12.0446C40.6717 12.0614 40.7707 12.0783 40.8532 12.0783V14.0155C40.7212 13.9818 40.5727 13.965 40.4242 13.9481C40.2757 13.9313 40.1437 13.9144 39.9952 13.9144C39.6652 13.9144 39.3517 13.9818 39.0547 14.1166C38.7578 14.2513 38.5103 14.4535 38.2793 14.7062C38.0648 14.9757 37.8833 15.2958 37.7513 15.6832C37.6193 16.0706 37.5533 16.5255 37.5533 17.0308V21.3769H35.5734L35.6064 12.2804ZM49.9277 21.4275H47.9808V20.1472H47.9478C47.7003 20.6189 47.3373 20.9726 46.8588 21.259C46.3804 21.5454 45.8854 21.6801 45.3904 21.6801C44.219 21.6801 43.361 21.3938 42.8331 20.7873C42.3051 20.1977 42.0411 19.2881 42.0411 18.0921V12.2804H44.021V17.8899C44.021 18.6985 44.1695 19.2712 44.483 19.5913C44.78 19.9282 45.2089 20.0967 45.7534 20.0967C46.1659 20.0967 46.5124 20.0293 46.7929 19.8945C47.0733 19.7598 47.3043 19.5913 47.4693 19.3723C47.6508 19.1533 47.7663 18.8838 47.8488 18.5806C47.9313 18.2774 47.9643 17.9405 47.9643 17.5867V12.2804H49.9442V21.4275H49.9277ZM53.2935 18.4964C53.3595 19.0859 53.574 19.4902 53.9535 19.7429C54.333 19.9788 54.7949 20.0967 55.3229 20.0967C55.5044 20.0967 55.7189 20.0798 55.9499 20.0461C56.1809 20.0124 56.4119 19.9619 56.6099 19.8777C56.8243 19.7935 56.9893 19.6755 57.1213 19.5071C57.2533 19.3386 57.3193 19.1365 57.3028 18.8838C57.2863 18.6311 57.2038 18.4121 57.0223 18.2437C56.8408 18.0752 56.6264 17.9573 56.3624 17.8394C56.0984 17.7383 55.7849 17.6541 55.4384 17.5867C55.0919 17.5193 54.7454 17.4351 54.3825 17.3509C54.0195 17.2667 53.6565 17.1656 53.31 17.0477C52.9635 16.9298 52.6666 16.7781 52.3861 16.5591C52.1221 16.357 51.8911 16.1043 51.7426 15.7843C51.5776 15.4642 51.4951 15.0936 51.4951 14.6219C51.4951 14.1166 51.6106 13.7123 51.8581 13.3754C52.0891 13.0385 52.4026 12.769 52.7655 12.5668C53.1285 12.3647 53.541 12.2131 53.9865 12.1288C54.432 12.0446 54.8609 12.0109 55.2569 12.0109C55.7189 12.0109 56.1644 12.0615 56.5769 12.1625C56.9893 12.2636 57.3853 12.4152 57.7153 12.651C58.0618 12.87 58.3423 13.1732 58.5568 13.527C58.7877 13.8807 58.9197 14.3187 58.9857 14.8241H56.9233C56.8243 14.3356 56.6099 14.0155 56.2799 13.8471C55.9334 13.6786 55.5539 13.5944 55.1084 13.5944C54.9764 13.5944 54.7949 13.6112 54.6135 13.6281C54.4155 13.6618 54.2505 13.6954 54.069 13.7628C53.904 13.8302 53.7555 13.9313 53.64 14.0492C53.5245 14.1671 53.4585 14.3356 53.4585 14.5377C53.4585 14.7904 53.541 14.9757 53.706 15.1273C53.871 15.2789 54.0855 15.3968 54.366 15.5147C54.63 15.6158 54.9434 15.7 55.2899 15.7674C55.6364 15.8348 55.9994 15.919 56.3624 16.0033C56.7253 16.0875 57.0718 16.1886 57.4183 16.3065C57.7648 16.4244 58.0783 16.576 58.3423 16.795C58.6063 16.9971 58.8372 17.2498 59.0022 17.553C59.1672 17.8562 59.2497 18.2437 59.2497 18.6817C59.2497 19.2207 59.1342 19.6755 58.8867 20.063C58.6392 20.4336 58.3258 20.7536 57.9463 20.9895C57.5668 21.2253 57.1213 21.3938 56.6593 21.5117C56.1809 21.6128 55.7189 21.6801 55.2569 21.6801C54.6959 21.6801 54.168 21.6128 53.6895 21.478C53.211 21.3432 52.782 21.1411 52.4356 20.8884C52.0891 20.6189 51.8086 20.2988 51.6106 19.8945C51.4126 19.5071 51.2971 19.0354 51.2806 18.4795H53.277V18.4964H53.2935ZM59.8107 12.2804H61.3121V9.5178L63.292 9.5178V12.2636L65.0739 12.2636V13.7628H63.292V18.648C63.292 18.867 63.3085 19.0354 63.325 19.2039C63.3415 19.3555 63.391 19.4902 63.4405 19.5913C63.5065 19.6924 63.6055 19.7766 63.721 19.8271C63.853 19.8777 64.018 19.9114 64.249 19.9114C64.381 19.9114 64.5294 19.9114 64.6614 19.8945C64.7934 19.8777 64.9419 19.8608 65.0739 19.8271V21.3938C64.8594 21.4275 64.6449 21.4443 64.4305 21.4611C64.216 21.4948 64.018 21.4948 63.787 21.4948C63.259 21.4948 62.8465 21.4443 62.5331 21.3432C62.2196 21.2422 61.9721 21.0905 61.7906 20.9052C61.6091 20.7031 61.4936 20.4673 61.4276 20.1809C61.3616 19.8945 61.3286 19.5408 61.3121 19.1702V13.7797H59.8107V12.2467V12.2804ZM66.4599 12.2804H68.3243V13.527H68.3573C68.6377 12.9879 69.0172 12.6173 69.5122 12.3815C70.0072 12.1457 70.5351 12.0278 71.1291 12.0278C71.8386 12.0278 72.449 12.1457 72.977 12.4152C73.505 12.6679 73.934 13.0048 74.2805 13.4596C74.6269 13.8976 74.8909 14.4198 75.0559 15.0094C75.2209 15.599 75.3199 16.2391 75.3199 16.8961C75.3199 17.5193 75.2374 18.1089 75.0889 18.6817C74.9239 19.2544 74.6929 19.7766 74.3794 20.2146C74.066 20.6526 73.67 21.0063 73.175 21.2758C72.68 21.5454 72.1191 21.6801 71.4591 21.6801C71.1786 21.6801 70.8816 21.6464 70.6011 21.5959C70.3207 21.5454 70.0402 21.4611 69.7762 21.3432C69.5122 21.2253 69.2647 21.0737 69.0502 20.8884C68.8192 20.7031 68.6377 20.4841 68.4893 20.2483H68.4563V24.8134H66.4764V12.2804H66.4599ZM73.373 16.8624C73.373 16.4581 73.3235 16.0538 73.208 15.6663C73.109 15.2789 72.944 14.942 72.7295 14.6388C72.515 14.3356 72.2511 14.0997 71.9541 13.9144C71.6406 13.7291 71.2776 13.6449 70.8816 13.6449C70.0567 13.6449 69.4297 13.9313 69.0007 14.5209C68.5882 15.1105 68.3738 15.9022 68.3738 16.8792C68.3738 17.3509 68.4233 17.772 68.5387 18.1595C68.6542 18.5469 68.8027 18.8838 69.0337 19.1702C69.2482 19.4565 69.5122 19.6755 69.8257 19.844C70.1392 20.0124 70.4857 20.0967 70.8981 20.0967C71.3601 20.0967 71.7231 19.9956 72.0366 19.8103C72.3501 19.625 72.5975 19.3723 72.812 19.0859C73.01 18.7827 73.1585 18.4458 73.241 18.0584C73.3235 17.6541 73.373 17.2667 73.373 16.8624ZM76.8543 8.79346L78.8342 8.79346V10.697H76.8543V8.79346ZM76.8543 12.2804H78.8342V21.4275H76.8543V12.2804ZM80.5996 8.79346H82.5795V21.4275H80.5996V8.79346ZM88.6182 21.6801C87.9088 21.6801 87.2653 21.5622 86.7043 21.3095C86.1434 21.0569 85.6814 20.7368 85.2854 20.3157C84.9059 19.8945 84.6089 19.3723 84.4109 18.7827C84.2129 18.1931 84.0975 17.5362 84.0975 16.8455C84.0975 16.1549 84.1964 15.5147 84.4109 14.9252C84.6089 14.3356 84.9059 13.8302 85.2854 13.3922C85.6649 12.9711 86.1434 12.6342 86.7043 12.3984C87.2653 12.1625 87.9088 12.0278 88.6182 12.0278C89.3277 12.0278 89.9712 12.1457 90.5321 12.3984C91.0931 12.6342 91.5551 12.9711 91.9511 13.3922C92.3305 13.8134 92.6275 14.3356 92.8255 14.9252C93.0235 15.5147 93.139 16.1549 93.139 16.8455C93.139 17.553 93.04 18.1931 92.8255 18.7827C92.611 19.3723 92.3305 19.8777 91.9511 20.3157C91.5716 20.7368 91.0931 21.0737 90.5321 21.3095C89.9712 21.5454 89.3442 21.6801 88.6182 21.6801ZM88.6182 20.0798C89.0472 20.0798 89.4432 19.9788 89.7567 19.7935C90.0867 19.6082 90.3341 19.3555 90.5486 19.0523C90.7631 18.749 90.9116 18.3953 91.0106 18.0247C91.1096 17.6373 91.1591 17.2498 91.1591 16.8455C91.1591 16.4581 91.1096 16.0706 91.0106 15.6832C90.9116 15.2958 90.7631 14.9588 90.5486 14.6556C90.3341 14.3524 90.0702 14.1166 89.7567 13.9313C89.4267 13.746 89.0472 13.6449 88.6182 13.6449C88.1892 13.6449 87.7933 13.746 87.4798 13.9313C87.1498 14.1166 86.9023 14.3693 86.6878 14.6556C86.4733 14.9588 86.3248 15.2958 86.2258 15.6832C86.1269 16.0706 86.0774 16.4581 86.0774 16.8455C86.0774 17.2498 86.1269 17.6373 86.2258 18.0247C86.3248 18.4121 86.4733 18.749 86.6878 19.0523C86.9023 19.3555 87.1663 19.6082 87.4798 19.7935C87.8098 19.9956 88.1892 20.0798 88.6182 20.0798ZM93.733 12.2804H95.2344V9.5178H97.2143V12.2636H98.9962V13.7628H97.2143V18.648C97.2143 18.867 97.2308 19.0354 97.2473 19.2039C97.2638 19.3555 97.3133 19.4902 97.3628 19.5913C97.4288 19.6924 97.5278 19.7766 97.6433 19.8271C97.7753 19.8777 97.9403 19.9114 98.1712 19.9114C98.3032 19.9114 98.4517 19.9114 98.5837 19.8945C98.7157 19.8777 98.8642 19.8608 98.9962 19.8271V21.3938C98.7817 21.4275 98.5672 21.4443 98.3527 21.4611C98.1382 21.4948 97.9403 21.4948 97.7093 21.4948C97.1813 21.4948 96.7688 21.4443 96.4553 21.3432C96.1418 21.2422 95.8944 21.0905 95.7129 20.9052C95.5314 20.7031 95.4159 20.4673 95.3499 20.1809C95.2839 19.8945 95.2509 19.5408 95.2344 19.1702V13.7797L93.733 13.7797V12.2467V12.2804Z" fill="white"/>
<path d="M23.7093 8.79375L14.6513 8.79375L11.8629 0.000488281L9.05804 8.79375L0 8.77691L7.32563 14.2179L4.52077 23.0112L11.8464 17.5702L19.172 23.0112L16.3837 14.2179L23.7093 8.79375Z" fill="#00B67A"/>
<path d="M17.011 16.2055L16.3841 14.2178L11.8633 17.57L17.011 16.2055Z" fill="#005128"/>
</svg>
