<svg width="59" height="11" viewBox="0 0 59 11" fill="none" xmlns="http://www.w3.org/2000/svg">
<path d="M0 0H10.9525V10.8618H0V0ZM11.8652 0H22.8177V10.8618H11.8652V0ZM23.7304 0H34.683V10.8618H23.7304V0ZM35.5957 0H46.5482V10.8618H35.5957V0ZM47.4609 0H58.4134V10.8618H47.4609V0Z" fill="#00B67A"/>
<path d="M5.47596 7.32L7.14165 6.90137L7.83759 9.02847L5.47596 7.32ZM9.30934 4.5706H6.37726L5.47596 1.83252L4.57466 4.5706H1.64258L4.01562 6.26776L3.11432 9.00584L5.48737 7.30868L6.9477 6.26776L9.30934 4.5706ZM17.3412 7.32L19.0069 6.90137L19.7028 9.02847L17.3412 7.32ZM21.1746 4.5706H18.2425L17.3412 1.83252L16.4399 4.5706H13.5078L15.8808 6.26776L14.9795 9.00584L17.3526 7.30868L18.8129 6.26776L21.1746 4.5706ZM29.2064 7.32L30.8721 6.90137L31.568 9.02847L29.2064 7.32ZM33.0398 4.5706H30.1077L29.2064 1.83252L28.3051 4.5706H25.373L27.7461 6.26776L26.8448 9.00584L29.2178 7.30868L30.6781 6.26776L33.0398 4.5706ZM41.0716 7.32L42.7373 6.90137L43.4333 9.02847L41.0716 7.32ZM44.905 4.5706H41.9729L41.0716 1.83252L40.1703 4.5706H37.2382L39.6113 6.26776L38.71 9.00584L41.083 7.30868L42.5434 6.26776L44.905 4.5706ZM52.9368 7.32L54.6025 6.90137L55.2985 9.02847L52.9368 7.32ZM56.7702 4.5706H53.8381L52.9368 1.83252L52.0355 4.5706H49.1035L51.4765 6.26776L50.5752 9.00584L52.9482 7.30868L54.4086 6.26776L56.7702 4.5706Z" fill="white"/>
</svg>
