<svg width="9" height="9" viewBox="0 0 9 9" fill="none" xmlns="http://www.w3.org/2000/svg">
<g clip-path="url(#clip0_361_481)">
<path d="M7.44832 1.23185C7.59616 1.08023 7.79291 0.996407 7.99703 0.998071C8.20115 0.999735 8.39669 1.08675 8.54239 1.24077C8.68809 1.39478 8.77255 1.60374 8.77794 1.82355C8.78334 2.04336 8.70925 2.25684 8.57131 2.41893L4.38371 8.06038C4.31171 8.14393 4.2248 8.21097 4.12819 8.25751C4.03158 8.30405 3.92725 8.32912 3.82143 8.33123C3.71562 8.33335 3.6105 8.31245 3.51235 8.2698C3.41421 8.22714 3.32506 8.16361 3.25023 8.08299L0.473186 5.09155C0.39585 5.01393 0.333821 4.92032 0.290799 4.81631C0.247777 4.7123 0.224643 4.60002 0.222779 4.48617C0.220914 4.37232 0.240356 4.25923 0.279945 4.15365C0.319534 4.04807 0.378459 3.95216 0.453205 3.87164C0.527951 3.79113 0.616986 3.72765 0.714999 3.68501C0.813012 3.64236 0.917995 3.62142 1.02369 3.62343C1.12938 3.62544 1.23361 3.65036 1.33017 3.6967C1.42672 3.74304 1.51362 3.80986 1.58568 3.89317L3.78339 6.25941L7.42838 1.25672C7.43494 1.24802 7.44195 1.23971 7.44937 1.23185H7.44832Z" fill="white"/>
</g>
<defs>
<clipPath id="clip0_361_481">
<rect width="9" height="9" fill="white"/>
</clipPath>
</defs>
</svg>
