<svg width="78" height="24" viewBox="0 0 78 24" fill="none" xmlns="http://www.w3.org/2000/svg">
<mask id="mask0_411_3695" style="mask-type:alpha" maskUnits="userSpaceOnUse" x="0" y="0" width="78" height="24">
<rect width="78" height="24" fill="#D9D9D9"/>
</mask>
<g mask="url(#mask0_411_3695)">
<path d="M68.6073 18.7675H71.2027V14.5496L74.8243 18.7675H78L73.7839 13.9065L77.3854 9.69152H74.4956L71.2027 13.5764V5L68.6073 5.3417V18.7675ZM62.6218 9.45903C59.7405 9.45903 57.7397 11.4057 57.7397 14.2281C57.7397 17.0505 59.7405 18.9972 62.6218 18.9972C65.503 18.9972 67.504 17.0505 67.504 14.2281C67.504 11.4057 65.503 9.45903 62.6218 9.45903ZM62.6218 16.7749C61.2869 16.7749 60.3723 15.7383 60.3723 14.2281C60.3723 12.7179 61.2869 11.6813 62.6218 11.6813C63.9566 11.6813 64.8714 12.7179 64.8714 14.2281C64.8714 15.7383 63.9566 16.7749 62.6218 16.7749ZM52.0743 9.45903C49.1931 9.45903 47.1921 11.4057 47.1921 14.2281C47.1921 17.0505 49.1931 18.9972 52.0743 18.9972C54.9556 18.9972 56.9564 17.0505 56.9564 14.2281C56.9564 11.4057 54.9556 9.45903 52.0743 9.45903ZM52.0743 16.7749C50.7395 16.7749 49.8247 15.7383 49.8247 14.2281C49.8247 12.7179 50.7395 11.6813 52.0743 11.6813C53.4092 11.6813 54.3238 12.7179 54.3238 14.2281C54.3238 15.7383 53.4092 16.7749 52.0743 16.7749ZM42.1413 9.45903C40.9408 9.45903 39.9461 9.93276 39.323 10.7998V5L36.7247 5.33878V18.7646H39.0286L39.0743 17.3635C39.6889 18.4086 40.7893 18.9972 42.1413 18.9972C44.6053 18.9972 46.409 16.9873 46.409 14.2281C46.409 11.4688 44.6139 9.45903 42.1413 9.45903ZM41.5268 16.7749C40.1919 16.7749 39.2773 15.7383 39.2773 14.2281C39.2773 12.7179 40.1919 11.6813 41.5268 11.6813C42.8616 11.6813 43.7764 12.7179 43.7764 14.2281C43.7764 15.7383 42.8616 16.7749 41.5268 16.7749ZM31.5224 16.8926C30.1447 16.8926 29.1557 16.2494 28.8184 15.1412H35.2126C35.2755 14.8024 35.3184 14.4004 35.3184 14.1305C35.3184 11.2104 33.6919 9.45903 30.9593 9.45903C28.201 9.45903 26.2915 11.4057 26.2915 14.2281C26.2915 17.0878 28.2924 18.9972 31.2623 18.9972C32.8001 18.9972 34.295 18.4804 35.2297 17.6219L34.295 15.9681C33.389 16.5968 32.4999 16.8926 31.5224 16.8926ZM30.9421 11.4861C32.1427 11.4861 32.9087 12.2182 32.9087 13.3524V13.361H28.7641C29.0128 12.158 29.7873 11.4861 30.9421 11.4861ZM22.2269 19C23.5704 19 24.8852 18.4832 25.8113 17.5874L24.7966 15.8733C24.0762 16.4361 23.2588 16.7404 22.4842 16.7404C21.0435 16.7404 20.0831 15.7297 20.0831 14.2309C20.0831 12.7322 21.0435 11.7215 22.4842 11.7215C23.1959 11.7215 23.9705 11.9799 24.5993 12.4365L25.6312 10.685C24.7966 9.92701 23.5046 9.46186 22.224 9.46186C19.4056 9.46186 17.4134 11.4373 17.4134 14.2309C17.4162 17.016 19.4085 19 22.2269 19ZM13.9747 9.69152L13.929 11.1042C13.3144 10.0505 12.2139 9.46186 10.8619 9.46186C8.38939 9.46186 6.5943 11.4717 6.5943 14.2309C6.5943 16.9902 8.40083 19 10.8619 19C12.2139 19 13.3172 18.4114 13.929 17.3663L13.9747 18.7674H16.2785V9.69152H13.9747ZM11.4764 16.7749C10.1416 16.7749 9.22689 15.7383 9.22689 14.2281C9.22689 12.7179 10.1416 11.6813 11.4764 11.6813C12.8114 11.6813 13.726 12.7179 13.726 14.2281C13.726 15.7383 12.8084 16.7749 11.4764 16.7749ZM6.39991 9.70858H4.06462V8.9333C4.06462 7.77333 4.51625 7.32834 5.68821 7.32834C6.05119 7.32834 6.34559 7.33692 6.51427 7.35416V5.36443C6.19408 5.27538 5.4138 5.18642 4.96216 5.18642C2.57537 5.18642 1.4749 6.31764 1.4749 8.76103V9.70567H0V11.8993H1.4749V18.7644H4.06744V11.9021H5.99978L6.39991 9.70858Z" fill="#0866FF"/>
</g>
</svg>
