<svg width="65" height="65" viewBox="0 0 65 65" fill="none" xmlns="http://www.w3.org/2000/svg">
<g clip-path="url(#clip0_954_185)">
<path d="M50.606 57.0263C50.5119 56.944 50.4025 56.8811 50.284 56.841C50.1656 56.801 50.0404 56.7847 49.9156 56.7931C49.7909 56.8014 49.669 56.8343 49.5569 56.8897C49.4449 56.9452 49.3448 57.0222 49.2625 57.1163L45.337 61.6059C44.9212 62.0819 44.3441 62.3557 43.7121 62.377C43.0784 62.3996 42.4857 62.1642 42.0387 61.7178L39.0133 58.6936V56.6937C39.0133 56.1679 38.5871 55.7416 38.0612 55.7416C37.5352 55.7416 37.109 56.1679 37.109 56.6937V64.0479C37.109 64.5737 37.5352 65 38.0612 65C38.5871 65 39.0133 64.5737 39.0133 64.0479V61.3862L40.6927 63.0647C41.4719 63.8432 42.5382 64.2826 43.6371 64.2826C44.8312 64.2826 45.9853 63.7587 46.7708 62.8592L50.6962 58.3699C50.7785 58.2757 50.8414 58.1663 50.8815 58.0478C50.9215 57.9294 50.9378 57.8042 50.9294 57.6794C50.921 57.5547 50.8881 57.4328 50.8327 57.3207C50.7772 57.2087 50.7002 57.1086 50.606 57.0263ZM11.0629 55.7416C10.8104 55.7416 10.5682 55.8419 10.3897 56.0204C10.2111 56.199 10.1108 56.4412 10.1108 56.6937V64.0479C10.1108 64.5737 10.537 65 11.0629 65C11.5889 65 12.0151 64.5737 12.0151 64.0479V56.6937C12.0151 56.4412 11.9148 56.199 11.7362 56.0204C11.5576 55.8419 11.3155 55.7416 11.0629 55.7416ZM63.7946 15.095L57.4125 9.90945C56.9711 9.55094 56.3781 9.47984 55.8644 9.72436C55.3509 9.96874 55.0319 10.4739 55.0319 11.0426V23.281C55.0319 23.2828 55.0323 23.2845 55.0323 23.2862V38.7296L45.4453 49.6636L42.4082 43.9932C40.9586 41.2849 38.2831 39.3708 35.2507 38.8729C34.0002 38.6676 31.0814 38.1904 30.0296 38.0174C29.6504 37.9563 29.3053 37.7619 29.0566 37.4691C28.8079 37.1763 28.6718 36.8045 28.6727 36.4203V35.2951C29.4235 34.8225 30.1191 34.2675 30.7465 33.6403C32.9787 31.4067 34.208 28.4381 34.208 25.2814V24.8676H34.5749C36.4588 24.8762 38.061 23.2742 38.061 21.3814C38.061 20.3772 37.62 19.4439 36.9048 18.7954C37.4583 18.0059 37.6152 16.9684 37.3002 16.0575C37.1647 15.6675 36.9507 15.3093 36.6713 15.0052C36.392 14.7011 36.0533 14.4574 35.6761 14.2893C35.5762 14.2449 35.4753 14.2022 35.3747 14.1588V7.30488C35.3747 3.27704 32.0977 0 28.0698 0H16.7088C12.681 0 9.40392 3.27704 9.40392 7.30488V14.1588C9.30362 14.2022 9.20308 14.2449 9.10316 14.2892C8.72595 14.4573 8.38721 14.701 8.10785 15.0052C7.8285 15.3094 7.61445 15.6675 7.47893 16.0577C7.15989 16.9804 7.31655 18.0018 7.87261 18.7966C7.15799 19.4445 6.71759 20.3772 6.71759 21.3814C6.71759 23.2691 8.30145 24.8784 10.205 24.8676H10.5719V25.2814C10.5719 29.4921 12.7844 33.1949 16.1072 35.2897V36.6146C16.1075 36.9694 15.9888 37.3141 15.77 37.5935C15.5512 37.8729 15.245 38.0708 14.9004 38.1555L6.99371 40.1055C5.13234 40.5615 3.47806 41.6295 2.29626 43.1381C1.11445 44.6467 0.473626 46.5086 0.476573 48.425V64.0479C0.476573 64.5737 0.902754 65 1.42872 65C1.95469 65 2.38087 64.5737 2.38087 64.0479V48.425C2.37858 46.9345 2.87698 45.4864 3.79613 44.3131C4.71528 43.1397 6.0019 42.3091 7.4496 41.9545L13.5741 40.4441C15.4676 43.4807 18.7802 45.338 22.3896 45.338C26.1347 45.338 29.5154 43.3742 31.3745 40.1675L34.9424 40.7521C37.394 41.1546 39.5573 42.7022 40.7293 44.892L43.8025 50.6295C43.9436 50.8933 44.1465 51.1189 44.3939 51.2871C44.6412 51.4552 44.9257 51.5609 45.2229 51.595C45.5204 51.6292 45.8217 51.5907 46.1011 51.4829C46.3805 51.3751 46.6296 51.2012 46.827 50.976L53.348 43.5388L57.49 47.6823C57.4939 47.6861 57.4981 47.6894 57.502 47.6932L52.1923 53.7658C52.0297 53.9564 51.9487 54.2034 51.9669 54.4534C51.9852 54.7033 52.1012 54.9359 52.2899 55.1009C52.4785 55.2658 52.7246 55.3497 52.9747 55.3345C53.2248 55.3192 53.4588 55.206 53.626 55.0193L62.3773 45.0108C64.1684 42.9791 63.8544 39.7299 61.7571 38.0533C60.3482 36.927 58.5032 36.7123 56.9364 37.3438V23.7339L63.7946 18.1617C64.023 17.9768 64.2071 17.7431 64.3334 17.4777C64.4597 17.2123 64.525 16.9221 64.5244 16.6282C64.5244 16.0306 64.2583 15.4718 63.7946 15.095ZM36.1567 21.3814C36.1567 22.2396 35.4338 22.9676 34.5749 22.9633H34.208V20.0738C34.5664 20.0994 34.9265 20.061 35.2715 19.9606C35.8034 20.223 36.1567 20.7742 36.1567 21.3814ZM10.5719 22.9633H10.205C9.3412 22.9677 8.62189 22.2408 8.62189 21.3814C8.62189 20.7747 8.97431 20.2245 9.50484 19.9625C9.85096 20.0632 10.2122 20.1017 10.5718 20.0761L10.5719 22.9633ZM10.8076 18.0845C10.2621 18.3263 9.63027 18.0897 9.34641 17.5607C9.0473 17.0033 9.29816 16.2863 9.8758 16.0299C15.1067 13.7073 20.8808 12.8867 26.5516 13.66C27.0717 13.7302 27.5525 13.366 27.6233 12.845C27.6402 12.7211 27.6325 12.5951 27.6007 12.4741C27.5688 12.3532 27.5135 12.2398 27.4378 12.1402C27.3621 12.0407 27.2675 11.957 27.1595 11.894C27.0515 11.8311 26.9321 11.79 26.8082 11.7731C21.5854 11.0613 16.268 11.6213 11.3081 13.4055V7.30488C11.3081 4.32694 13.7307 1.9043 16.7087 1.9043H28.0698C31.0478 1.9043 33.4704 4.32694 33.4704 7.30488V13.4051C32.7428 13.1434 32.0062 12.9074 31.2619 12.6979C31.0194 12.6311 30.7603 12.663 30.5412 12.7867C30.3221 12.9104 30.1609 13.1158 30.0927 13.358C30.0246 13.6001 30.055 13.8594 30.1775 14.0792C30.2999 14.299 30.5043 14.4614 30.7461 14.5309C32.1658 14.9308 33.5551 15.4317 34.9033 16.0297C35.4762 16.284 35.7285 17.0017 35.4348 17.5567C35.156 18.0833 34.5302 18.3319 33.9714 18.0843C26.8661 14.9379 18.0075 14.8924 10.8076 18.0845ZM12.4762 25.2814V19.4499C18.8292 16.909 25.9512 16.9091 32.3038 19.4502V25.2814C32.3038 27.9297 31.2725 30.4203 29.3998 32.2941C27.5423 34.1528 25.04 35.1989 22.3901 35.1989C16.9235 35.199 12.4762 30.75 12.4762 25.2814ZM22.3896 43.4337C19.6522 43.4337 17.1241 42.1247 15.5382 39.9513C17.0905 39.4691 18.1671 37.9163 18.0113 36.2617C19.4038 36.8191 20.8901 37.1048 22.39 37.1033C23.9145 37.1033 25.3938 36.814 26.7684 36.2658C26.6709 37.9062 27.8012 39.3877 29.3439 39.8126C27.7696 42.073 25.2059 43.4337 22.3896 43.4337ZM60.5677 39.5402C61.8437 40.5601 62.032 42.5252 60.9436 43.7573L58.758 46.2569L54.6063 42.1039L56.5405 39.8981C57.036 39.3306 57.7317 38.9765 58.4822 38.9098C59.2326 38.8431 59.9798 39.069 60.5677 39.5402ZM62.5937 16.6837L56.9364 21.2803L56.9361 11.9761L62.5936 16.573C62.6224 16.5909 62.6232 16.6651 62.5937 16.6837ZM27.6321 24.5602C27.8846 24.5602 28.1268 24.4599 28.3054 24.2813C28.4839 24.1028 28.5842 23.8606 28.5842 23.6081V21.5103C28.5842 20.9845 28.1581 20.5582 27.6321 20.5582C27.1061 20.5582 26.68 20.9845 26.68 21.5103V23.6081C26.68 23.8606 26.7803 24.1028 26.9588 24.2813C27.1374 24.4599 27.3796 24.5602 27.6321 24.5602ZM17.147 20.5583C16.8945 20.5583 16.6523 20.6586 16.4738 20.8372C16.2952 21.0157 16.1949 21.2579 16.1949 21.5104V23.6082C16.1949 24.134 16.6211 24.5604 17.147 24.5604C17.673 24.5604 18.0992 24.134 18.0992 23.6082V21.5104C18.0992 21.2579 17.9989 21.0157 17.8203 20.8372C17.6417 20.6586 17.3996 20.5583 17.147 20.5583ZM25.3213 29.2953C25.1998 29.0739 24.9954 28.9099 24.7529 28.8392C24.5105 28.7686 24.2499 28.7971 24.0285 28.9185C23.5152 29.1988 22.9388 29.3436 22.3539 29.3391C21.7931 29.3325 21.2425 29.1881 20.7506 28.9185C20.5295 28.8003 20.2706 28.774 20.0302 28.8454C19.7898 28.9169 19.5873 29.0803 19.4667 29.3001C19.346 29.52 19.317 29.7785 19.3858 30.0197C19.4547 30.2608 19.6158 30.4651 19.8344 30.5881C20.3676 30.8807 21.234 31.2319 22.334 31.2434C23.4452 31.255 24.3952 30.8895 24.9445 30.5882C25.1659 30.4667 25.33 30.2623 25.4007 30.0198C25.4713 29.7773 25.4428 29.5167 25.3213 29.2953Z" fill="#D2D234"/>
</g>
<defs>
<clipPath id="clip0_954_185">
<rect width="65" height="65" fill="white"/>
</clipPath>
</defs>
</svg>
