<svg width="65" height="65" viewBox="0 0 65 65" fill="none" xmlns="http://www.w3.org/2000/svg">
<path d="M11.3463 39.5414C11.2271 39.5414 11.1112 39.5021 11.0166 39.4295C10.922 39.3569 10.854 39.2551 10.8231 39.14C10.7923 39.0248 10.8003 38.9027 10.8459 38.7925C10.8915 38.6823 10.9722 38.5903 11.0755 38.5307L29.8226 27.706C29.944 27.6368 30.0876 27.6172 30.2231 27.6514C30.3587 27.6855 30.4758 27.7708 30.55 27.8893C30.6241 28.0078 30.6496 28.1504 30.621 28.2873C30.5925 28.4241 30.5121 28.5446 30.3967 28.6236L26.3884 31.3319C26.4768 31.3268 26.5649 31.3452 26.6438 31.3851C26.7228 31.4251 26.7898 31.4852 26.838 31.5594C26.9162 31.6692 26.9506 31.8042 26.9346 31.938C26.9186 32.0718 26.8532 32.1949 26.7513 32.2831L21.1949 37.0877C21.2251 37.1206 21.2513 37.157 21.2729 37.196C21.3447 37.3204 21.3642 37.4683 21.327 37.607C21.2898 37.7458 21.1991 37.8641 21.0747 37.9359L18.4573 39.4331C18.3408 39.4989 18.204 39.5192 18.0734 39.4902C17.9427 39.4611 17.8275 39.3847 17.7498 39.2757C17.6722 39.1667 17.6376 39.0328 17.6528 38.8998C17.6681 38.7669 17.732 38.6442 17.8322 38.5556L21.7322 35.1864L14.3439 39.4515C14.2225 39.5187 14.08 39.5368 13.9457 39.5021C13.8114 39.4673 13.6955 39.3823 13.622 39.2646C13.5485 39.1469 13.523 39.0055 13.5507 38.8696C13.5784 38.7336 13.6572 38.6135 13.7708 38.5339L16.9667 36.377L11.6215 39.4634C11.5385 39.5139 11.4434 39.5409 11.3463 39.5414ZM39.9604 28.6117C39.8503 28.6116 39.7428 28.5779 39.6524 28.5151C39.5619 28.4524 39.4927 28.3635 39.454 28.2605C39.4152 28.1574 39.4089 28.045 39.4357 27.9382C39.4625 27.8314 39.5212 27.7353 39.604 27.6627L39.7372 27.5457L39.3992 27.7396C39.2823 27.8061 39.1449 27.8266 39.0136 27.7973C38.8823 27.7681 38.7667 27.691 38.6891 27.5811C38.6115 27.4712 38.5776 27.3364 38.5939 27.2029C38.6102 27.0694 38.6756 26.9468 38.7774 26.8589L39.2302 26.4732C39.1185 26.5275 38.9914 26.5418 38.8704 26.5135C38.7494 26.4853 38.6417 26.4163 38.5655 26.3182C38.4893 26.22 38.4492 26.0986 38.4519 25.9744C38.4546 25.8501 38.4999 25.7306 38.5802 25.6358L40.2995 23.5894L35.3595 26.4418C35.2405 26.5101 35.1 26.5307 34.9664 26.4994C34.8328 26.4681 34.7161 26.3873 34.6397 26.2733C34.5634 26.1593 34.5332 26.0206 34.5552 25.8852C34.5772 25.7497 34.6498 25.6277 34.7582 25.5437L35.0161 25.3454L33.1062 26.445C33.0445 26.4842 32.9756 26.5105 32.9035 26.5224C32.8314 26.5342 32.7577 26.5314 32.6867 26.514C32.6157 26.4966 32.549 26.4651 32.4906 26.4212C32.4321 26.3774 32.3832 26.3222 32.3466 26.259C32.3101 26.1957 32.2867 26.1257 32.2779 26.0532C32.269 25.9807 32.275 25.9071 32.2954 25.837C32.3157 25.7668 32.35 25.7015 32.3963 25.6449C32.4425 25.5884 32.4998 25.5418 32.5645 25.5079L41.5897 20.296C41.7087 20.2291 41.8485 20.2095 41.9813 20.2412C42.114 20.2729 42.2299 20.3536 42.3058 20.4671C42.3816 20.5806 42.4118 20.7185 42.3903 20.8533C42.3688 20.9881 42.2973 21.1098 42.1899 21.1941L41.9332 21.3924L42.399 21.1237C42.5091 21.0609 42.6378 21.0387 42.7626 21.061C42.8874 21.0833 43.0004 21.1486 43.082 21.2457C43.1636 21.3427 43.2085 21.4653 43.209 21.592C43.2095 21.7188 43.1655 21.8417 43.0847 21.9394L41.3731 23.988L43.8052 22.5797C43.9221 22.5132 44.0596 22.4926 44.1908 22.5219C44.3221 22.5512 44.4377 22.6283 44.5153 22.7382C44.5929 22.8481 44.6268 22.9829 44.6105 23.1163C44.5942 23.2498 44.5288 23.3725 44.427 23.4604L43.985 23.8374C44.1022 23.7758 44.2379 23.7593 44.3665 23.791C44.495 23.8226 44.6075 23.9002 44.6827 24.0092C44.758 24.1182 44.7907 24.2509 44.7747 24.3823C44.7587 24.5137 44.6951 24.6348 44.596 24.7225L42.1921 26.8296C42.2495 26.952 42.2591 27.0914 42.2191 27.2205C42.179 27.3495 42.0921 27.459 41.9754 27.5273L40.2345 28.5337C40.152 28.5842 40.0572 28.6112 39.9604 28.6117ZM39.1631 20.8095C39.0438 20.8095 38.9279 20.7702 38.8333 20.6976C38.7388 20.625 38.6708 20.5232 38.6399 20.408C38.609 20.2929 38.617 20.1707 38.6627 20.0606C38.7083 19.9504 38.789 19.8584 38.8922 19.7988L40.1229 19.0892C40.1846 19.05 40.2535 19.0237 40.3256 19.0118C40.3977 19 40.4714 19.0028 40.5424 19.0202C40.6133 19.0376 40.68 19.0691 40.7385 19.113C40.7969 19.1568 40.8459 19.212 40.8825 19.2752C40.919 19.3385 40.9424 19.4085 40.9512 19.481C40.96 19.5535 40.9541 19.6271 40.9337 19.6972C40.9134 19.7674 40.879 19.8327 40.8328 19.8893C40.7865 19.9458 40.7293 19.9924 40.6646 20.0263L39.4339 20.7369C39.3517 20.7848 39.2582 20.8098 39.1631 20.8095Z" fill="#FBB03B"/>
<path d="M19.5952 33.1781C19.4804 33.1782 19.3685 33.1419 19.2757 33.0743C19.1828 33.0066 19.1139 32.9113 19.0788 32.8019C19.0437 32.6926 19.0443 32.5749 19.0805 32.4659C19.1166 32.3569 19.1865 32.2622 19.28 32.1955L25.4864 27.7647L24.8364 28.1406C24.7198 28.2074 24.5826 28.2286 24.4513 28.1999C24.32 28.1712 24.2041 28.0947 24.1261 27.9853C24.048 27.8759 24.0134 27.7415 24.029 27.608C24.0445 27.4745 24.1091 27.3516 24.2102 27.2631L28.8816 23.193L28.8696 23.1735C28.7978 23.0491 28.7783 22.9013 28.8155 22.7625C28.8527 22.6238 28.9435 22.5054 29.0679 22.4336L31.1511 21.2311C31.2675 21.1655 31.4041 21.1452 31.5346 21.1742C31.665 21.2032 31.7801 21.2794 31.8578 21.3881C31.9355 21.4968 31.9703 21.6304 31.9554 21.7632C31.9405 21.896 31.8771 22.0187 31.7773 22.1075L29.1416 24.4042L34.6666 21.2159C34.7871 21.1452 34.9303 21.1238 35.0663 21.1562C35.2022 21.1886 35.3204 21.2723 35.3961 21.3898C35.4718 21.5073 35.4991 21.6495 35.4724 21.7867C35.4456 21.9239 35.3669 22.0455 35.2526 22.1259L29.0484 26.5557L38.3239 21.1997C38.4482 21.129 38.5955 21.1104 38.7335 21.1478C38.8716 21.1853 38.9892 21.2759 39.0607 21.3997C39.1322 21.5236 39.1518 21.6707 39.1153 21.809C39.0787 21.9473 38.9889 22.0655 38.8656 22.1379L19.8661 33.1055C19.7837 33.1531 19.6903 33.1781 19.5952 33.1781ZM9.43897 41.6498C9.36522 41.6502 9.29219 41.6353 9.2245 41.606C9.15681 41.5767 9.09593 41.5337 9.04572 41.4797C8.96211 41.3912 8.91076 41.2771 8.89995 41.1558C8.88914 41.0346 8.9195 40.9132 8.98613 40.8113L9.09447 40.6499L8.72722 40.8665C8.60797 40.9344 8.46742 40.9545 8.33393 40.9227C8.20045 40.891 8.08399 40.8098 8.00807 40.6955C7.93215 40.5812 7.90244 40.4424 7.92492 40.307C7.94741 40.1717 8.02042 40.0499 8.12922 39.9663L8.70447 39.5329L7.8833 40.0064C7.76789 40.0754 7.63091 40.0991 7.49901 40.0727C7.36712 40.0464 7.24975 39.9719 7.16974 39.8638C7.08973 39.7557 7.05281 39.6216 7.06616 39.4878C7.07951 39.354 7.14218 39.2299 7.24197 39.1397L8.99155 37.4833L6.71655 38.7984C6.60362 38.8629 6.47126 38.8846 6.34366 38.8595C6.21605 38.8345 6.10172 38.7644 6.02155 38.662C5.94138 38.5596 5.90071 38.4318 5.90699 38.3019C5.91326 38.172 5.96605 38.0487 6.05572 37.9545L7.7533 36.1919L5.75563 37.3468C5.64144 37.4126 5.50714 37.4346 5.37791 37.4085C5.24868 37.3825 5.1334 37.3101 5.05367 37.2052C4.97393 37.1002 4.93522 36.9697 4.94479 36.8382C4.95436 36.7068 5.01154 36.5833 5.10563 36.4909L7.71538 33.944C7.69598 33.9216 7.67891 33.8973 7.66447 33.8714C7.59264 33.747 7.57318 33.5992 7.61036 33.4604C7.64753 33.3217 7.73831 33.2034 7.86272 33.1315L9.60147 32.1273C9.71567 32.0614 9.84997 32.0395 9.97919 32.0655C10.1084 32.0916 10.2237 32.1639 10.3034 32.2689C10.3832 32.3739 10.4219 32.5043 10.4123 32.6358C10.4027 32.7673 10.3456 32.8908 10.2515 32.9831L8.95147 34.2474L10.5277 33.3374C10.6408 33.2721 10.7736 33.2498 10.9018 33.2747C11.0299 33.2996 11.1448 33.3699 11.2252 33.4728C11.3057 33.5756 11.3462 33.704 11.3395 33.8344C11.3328 33.9648 11.2792 34.0884 11.1886 34.1824L9.49422 35.946L12.4712 34.2333C12.5866 34.1642 12.7236 34.1406 12.8555 34.1669C12.9874 34.1933 13.1048 34.2678 13.1848 34.3759C13.2648 34.484 13.3017 34.618 13.2884 34.7518C13.275 34.8857 13.2123 35.0098 13.1126 35.0999L11.363 36.7477L15.7223 34.2322C15.8415 34.1657 15.9814 34.1466 16.114 34.1788C16.2467 34.211 16.3623 34.2921 16.4377 34.4059C16.5131 34.5196 16.5428 34.6577 16.5209 34.7924C16.4989 34.9271 16.4269 35.0485 16.3192 35.1324L11.324 38.91C11.3431 38.9832 11.3468 39.0595 11.3346 39.1341C11.3225 39.2088 11.2949 39.28 11.2536 39.3434L10.882 39.9067C10.9902 39.9519 11.0802 40.032 11.1376 40.1342C11.2096 40.2585 11.2292 40.4062 11.1922 40.545C11.1552 40.6837 11.0647 40.8021 10.9405 40.8741L9.7098 41.5837C9.62704 41.6295 9.53353 41.6523 9.43897 41.6498Z" fill="#FBB03B"/>
<path d="M39.1647 33.8086C39.0455 33.8086 38.9296 33.7692 38.835 33.6966C38.7404 33.624 38.6724 33.5223 38.6415 33.4071C38.6106 33.2919 38.6186 33.1698 38.6643 33.0596C38.7099 32.9495 38.7906 32.8574 38.8939 32.7978L40.1202 32.0904C40.1818 32.0512 40.2508 32.0249 40.3229 32.013C40.395 32.0012 40.4687 32.004 40.5396 32.0214C40.6106 32.0388 40.6773 32.0703 40.7358 32.1142C40.7942 32.158 40.8432 32.2132 40.8797 32.2765C40.9163 32.3397 40.9397 32.4097 40.9485 32.4822C40.9573 32.5547 40.9514 32.6283 40.931 32.6984C40.9106 32.7686 40.8763 32.8339 40.8301 32.8905C40.7838 32.947 40.7266 32.9936 40.6619 33.0275L39.4355 33.736C39.3533 33.7838 39.2598 33.8089 39.1647 33.8086Z" fill="#FBB03B"/>
<path d="M39.5741 41.4915C39.4678 41.4915 39.3638 41.4603 39.2752 41.4016C39.1865 41.343 39.1171 41.2596 39.0755 41.1617C39.034 41.0639 39.0221 40.956 39.0414 40.8515C39.0607 40.747 39.1103 40.6505 39.1841 40.5739L41.1048 38.5795L39.2772 39.6347C39.164 39.7 39.0311 39.7222 38.9028 39.6972C38.7746 39.6722 38.6597 39.6017 38.5793 39.4986C38.499 39.3956 38.4586 39.267 38.4656 39.1365C38.4726 39.006 38.5265 38.8825 38.6175 38.7886L39.9413 37.4312L36.4606 39.4332C36.3439 39.4992 36.2069 39.5196 36.076 39.4905C35.9452 39.4613 35.8298 39.3847 35.7522 39.2754C35.6746 39.1661 35.6402 39.0319 35.6558 38.8988C35.6714 38.7657 35.7358 38.643 35.8366 38.5546L37.3099 37.2849L33.5832 39.4332C33.4728 39.4972 33.3433 39.5201 33.2175 39.4979C33.0918 39.4757 32.978 39.4098 32.8961 39.3119C32.8143 39.214 32.7696 39.0903 32.77 38.9626C32.7705 38.835 32.816 38.7116 32.8986 38.6142L34.5236 36.701L30.5033 39.0215C30.3914 39.0852 30.2604 39.1069 30.134 39.0827C30.0075 39.0585 29.8937 38.9901 29.8132 38.8897C29.7326 38.7893 29.6904 38.6634 29.6942 38.5347C29.6979 38.406 29.7474 38.2829 29.8338 38.1874L30.993 36.9253L29.2878 37.9165C29.1793 37.9786 29.0527 38.0012 28.9295 37.9806C28.8062 37.96 28.6939 37.8974 28.6115 37.8034C28.5292 37.7094 28.4818 37.5898 28.4775 37.465C28.4732 37.3401 28.5122 37.2175 28.588 37.1181L29.5521 35.8604L28.0799 36.7108C27.9695 36.7741 27.8404 36.7966 27.7152 36.7743C27.5899 36.752 27.4765 36.6863 27.3948 36.5887C27.3131 36.4912 27.2684 36.368 27.2685 36.2407C27.2686 36.1135 27.3134 35.9903 27.3952 35.8929L28.1622 34.9829L27.0139 35.6459C26.9027 35.7089 26.7728 35.7306 26.6472 35.7072C26.5215 35.6837 26.4082 35.6166 26.3273 35.5176C26.2464 35.4187 26.2031 35.2943 26.205 35.1665C26.2069 35.0387 26.254 34.9157 26.3379 34.8193L26.9673 34.1064L26.0194 34.6481C25.9057 34.7106 25.7735 34.7302 25.6466 34.7034C25.5197 34.6766 25.4067 34.6051 25.328 34.5021C25.2493 34.399 25.2102 34.2711 25.2178 34.1417C25.2254 34.0122 25.2792 33.8898 25.3694 33.7966L25.4842 33.6829L25.2123 33.8389C25.1025 33.9025 24.9738 33.9255 24.8487 33.9039C24.7236 33.8824 24.6101 33.8175 24.528 33.7208C24.4458 33.6241 24.4002 33.5015 24.3992 33.3746C24.3981 33.2477 24.4417 33.1244 24.5222 33.0264L25.3607 32.0037L24.1008 32.7306C23.9907 32.7941 23.8617 32.8168 23.7365 32.7948C23.6114 32.7727 23.4979 32.7074 23.416 32.6101C23.3342 32.5129 23.2891 32.39 23.2887 32.2629C23.2883 32.1358 23.3327 32.0126 23.414 31.9149L24.2102 30.9626L23.0186 31.6494C22.9138 31.7111 22.7912 31.7352 22.6709 31.7179C22.5506 31.7006 22.4397 31.6428 22.3566 31.5541C22.2727 31.4664 22.2207 31.353 22.2089 31.2322C22.1971 31.1114 22.2263 30.9901 22.2916 30.8879L23.4497 29.0863L21.5496 30.1826C21.438 30.2463 21.3075 30.2683 21.1813 30.2447C21.0551 30.2211 20.9414 30.1534 20.8604 30.0537C20.7795 29.954 20.7366 29.8288 20.7394 29.7004C20.7422 29.572 20.7905 29.4488 20.8757 29.3528L21.4683 28.6898L20.5713 29.2076C20.466 29.2681 20.3434 29.2915 20.2232 29.2739C20.1029 29.2564 19.9921 29.1989 19.9085 29.1108C19.8249 29.0227 19.7733 28.909 19.7621 28.7881C19.7508 28.6671 19.7806 28.5459 19.8466 28.4439L20.996 26.678L19.1207 27.7614C19.0131 27.8236 18.8874 27.847 18.7646 27.8276C18.6418 27.8081 18.5295 27.747 18.4464 27.6546C18.3633 27.5621 18.3146 27.4438 18.3084 27.3197C18.3021 27.1955 18.3388 27.073 18.4122 26.9727L19.4533 25.5459L17.837 26.4787C17.731 26.5399 17.6073 26.5635 17.4862 26.5454C17.3651 26.5274 17.2537 26.4689 17.1702 26.3794C17.0866 26.2899 17.0358 26.1748 17.0261 26.0527C17.0163 25.9307 17.0482 25.8089 17.1166 25.7074L18.2411 24.0358L14.0507 26.4538C13.9339 26.5211 13.7962 26.5424 13.6645 26.5135C13.5328 26.4847 13.4166 26.4078 13.3386 26.2978C13.2606 26.1878 13.2264 26.0527 13.2427 25.9189C13.259 25.7851 13.3246 25.6621 13.4267 25.5741L13.9684 25.1115L11.6219 26.4657C11.4975 26.5364 11.3503 26.555 11.2122 26.5176C11.0742 26.4801 10.9566 26.3895 10.8851 26.2657C10.8136 26.1418 10.7939 25.9946 10.8305 25.8564C10.8671 25.7181 10.9568 25.5999 11.0802 25.5275L18.4285 21.2852C18.5453 21.2179 18.683 21.1966 18.8147 21.2254C18.9464 21.2543 19.0626 21.3312 19.1406 21.4412C19.2186 21.5511 19.2528 21.6862 19.2365 21.8201C19.2202 21.9539 19.1546 22.0768 19.0525 22.1649L18.5108 22.6285L19.7209 21.9298C19.8269 21.8685 19.9505 21.845 20.0716 21.863C20.1927 21.8811 20.3041 21.9396 20.3877 22.0291C20.4713 22.1185 20.5221 22.2337 20.5318 22.3557C20.5415 22.4778 20.5096 22.5995 20.4413 22.7011L19.3168 24.3749L21.1227 23.3327C21.2303 23.2704 21.356 23.247 21.4788 23.2665C21.6016 23.2859 21.714 23.347 21.797 23.4395C21.8801 23.532 21.9289 23.6502 21.9351 23.7744C21.9413 23.8985 21.9046 24.021 21.8312 24.1214L20.7901 25.5492L22.4086 24.6154C22.5134 24.5567 22.6348 24.5346 22.7535 24.5524C22.8723 24.5702 22.9818 24.627 23.0648 24.7138C23.1477 24.8006 23.1995 24.9126 23.2119 25.032C23.2243 25.1515 23.1967 25.2717 23.1334 25.3737L21.984 27.1395L23.8581 26.0562C23.9697 25.9918 24.1005 25.9692 24.2271 25.9926C24.3538 26.0159 24.468 26.0836 24.5492 26.1835C24.6305 26.2834 24.6735 26.409 24.6705 26.5377C24.6676 26.6665 24.6188 26.79 24.5331 26.886L23.9405 27.5479L24.8353 27.0312C24.9401 26.9696 25.0627 26.9454 25.183 26.9627C25.3033 26.9801 25.4141 27.0378 25.4972 27.1265C25.5811 27.2142 25.6332 27.3276 25.645 27.4484C25.6567 27.5692 25.6276 27.6905 25.5622 27.7928L24.4041 29.5954L26.3043 28.4991C26.4144 28.4357 26.5434 28.4129 26.6686 28.435C26.7938 28.457 26.9072 28.5223 26.9891 28.6196C27.071 28.7168 27.116 28.8397 27.1164 28.9668C27.1168 29.094 27.0724 29.2171 26.9911 29.3149L26.1971 30.266L27.3887 29.5792C27.4986 29.5156 27.6272 29.4925 27.7523 29.5141C27.8774 29.5357 27.9909 29.6005 28.0731 29.6973C28.1552 29.794 28.2008 29.9165 28.2019 30.0434C28.2029 30.1704 28.1594 30.2936 28.0788 30.3917L27.2392 31.4165L28.4991 30.6896C28.6128 30.6272 28.7451 30.6076 28.8719 30.6344C28.9988 30.6612 29.1119 30.7326 29.1905 30.8357C29.2692 30.9387 29.3083 31.0666 29.3007 31.1961C29.2931 31.3255 29.2393 31.4479 29.1491 31.5411L29.0354 31.6559L29.3073 31.4989C29.4186 31.4351 29.5489 31.413 29.675 31.4363C29.8011 31.4596 29.9149 31.5269 29.996 31.6263C30.0771 31.7256 30.1204 31.8505 30.118 31.9787C30.1157 32.107 30.068 32.2302 29.9833 32.3265L29.3582 33.0415L30.3051 32.4999C30.4154 32.4372 30.5442 32.4152 30.6691 32.4378C30.794 32.4603 30.907 32.526 30.9883 32.6234C31.0697 32.7208 31.1143 32.8436 31.1144 32.9705C31.1144 33.0974 31.0699 33.2203 30.9886 33.3178L30.2216 34.2278L31.3711 33.5648C31.4792 33.5017 31.6059 33.478 31.7295 33.4977C31.8531 33.5175 31.9661 33.5795 32.0492 33.6731C32.1322 33.7674 32.1798 33.8875 32.1839 34.013C32.1881 34.1385 32.1485 34.2615 32.072 34.361L31.1056 35.6199L33.5161 34.2289C33.628 34.1652 33.7589 34.1435 33.8854 34.1677C34.0119 34.1919 34.1256 34.2603 34.2062 34.3607C34.2868 34.4611 34.329 34.587 34.3252 34.7157C34.3214 34.8444 34.2719 34.9675 34.1856 35.063L33.0264 36.3251L36.6848 34.2126C36.7953 34.1486 36.9248 34.1257 37.0505 34.1479C37.1762 34.1701 37.29 34.236 37.3719 34.3339C37.4538 34.4318 37.4984 34.5555 37.498 34.6832C37.4975 34.8109 37.452 34.9342 37.3695 35.0316L35.7499 36.9415L41.7624 33.4749C41.8791 33.4088 42.0161 33.3884 42.1469 33.4176C42.2777 33.4467 42.3931 33.5234 42.4707 33.6326C42.5484 33.7419 42.5827 33.8761 42.5671 34.0093C42.5515 34.1424 42.4871 34.265 42.3864 34.3534L40.9141 35.622L42.8002 34.5387C42.9134 34.4742 43.046 34.4526 43.1738 34.4779C43.3016 34.5032 43.4159 34.5737 43.496 34.6765C43.576 34.7793 43.6163 34.9075 43.6095 35.0375C43.6027 35.1676 43.5492 35.2909 43.4589 35.3848L42.1307 36.7346L43.8846 35.7228C43.9976 35.6583 44.1299 35.6366 44.2575 35.6617C44.3851 35.6867 44.4995 35.7569 44.5796 35.8592C44.6598 35.9616 44.7005 36.0894 44.6942 36.2193C44.6879 36.3492 44.6351 36.4725 44.5455 36.5667L42.4514 38.7409C42.5486 38.7325 42.6462 38.7539 42.7309 38.8022C42.8157 38.8506 42.8837 38.9237 42.9259 39.0118C42.9974 39.1361 43.0166 39.2837 42.9795 39.4222C42.9423 39.5607 42.8518 39.6788 42.7276 39.7506L39.8449 41.4146C39.7632 41.4642 39.6696 41.4907 39.5741 41.4915Z" fill="#FBB03B"/>
<path d="M8.93063 28.3766C8.81695 28.3766 8.70614 28.3408 8.61392 28.2744C8.52169 28.2079 8.45271 28.1141 8.41676 28.0062C8.38081 27.8984 8.37971 27.782 8.41361 27.6734C8.4475 27.5649 8.51469 27.4698 8.60563 27.4016L9.59688 26.6563L8.28713 27.4146C8.17054 27.4825 8.03279 27.5045 7.90086 27.4762C7.76893 27.4479 7.65232 27.3713 7.57385 27.2615C7.49539 27.1518 7.46071 27.0167 7.47663 26.8827C7.49254 26.7487 7.55789 26.6255 7.65988 26.5371L9.47988 24.949L7.17563 26.2782C7.06411 26.3426 6.93329 26.3652 6.80664 26.3418C6.68 26.3185 6.5658 26.2508 6.48455 26.1509C6.40329 26.051 6.36029 25.9254 6.36325 25.7967C6.36621 25.6679 6.41495 25.5444 6.50072 25.4484L8.16688 23.585L5.9168 24.885C5.8056 24.9495 5.6751 24.9723 5.54862 24.9494C5.42215 24.9265 5.30795 24.8593 5.22642 24.76C5.14489 24.6606 5.10136 24.5355 5.1036 24.407C5.10584 24.2784 5.1537 24.1549 5.23863 24.0585L7.86247 21.0684C7.78092 21.0216 7.71326 20.9539 7.66638 20.8724C7.59456 20.748 7.57509 20.6001 7.61227 20.4613C7.64945 20.3226 7.74023 20.2043 7.86463 20.1324L9.60338 19.1282C9.71459 19.0637 9.84509 19.0409 9.97156 19.0639C10.098 19.0868 10.2122 19.1539 10.2938 19.2533C10.3753 19.3526 10.4188 19.4778 10.4166 19.6063C10.4144 19.7348 10.3665 19.8583 10.2816 19.9548L8.22322 22.3056L10.5578 20.958C10.6692 20.8942 10.7996 20.8722 10.9258 20.8956C11.0519 20.9191 11.1657 20.9866 11.2467 21.0861C11.3277 21.1856 11.3708 21.3107 11.3683 21.439C11.3657 21.5673 11.3177 21.6905 11.2327 21.7867L9.56222 23.65L13.7591 21.2331C13.8755 21.1665 14.0125 21.1455 14.1436 21.1741C14.2746 21.2027 14.3904 21.2789 14.4685 21.388C14.5466 21.4971 14.5814 21.6313 14.5662 21.7646C14.551 21.8979 14.4869 22.0208 14.3863 22.1095L12.5674 23.6934L16.8357 21.2299C16.9551 21.1629 17.0953 21.1436 17.2283 21.1758C17.3613 21.208 17.4772 21.2894 17.5527 21.4035C17.6281 21.5177 17.6576 21.6562 17.6351 21.7912C17.6127 21.9262 17.5399 22.0476 17.4316 22.1312L11.3454 26.7018C11.3553 26.8053 11.3353 26.9094 11.2876 27.0018C11.24 27.0942 11.1668 27.1709 11.0767 27.2229L9.20472 28.3062C9.12139 28.354 9.02668 28.3783 8.93063 28.3766Z" fill="#FBB03B"/>
<path d="M39.3079 50.9934C39.3036 51.0247 39.3036 51.0564 39.3079 51.0877C39.3065 51.6178 39.3515 52.147 39.4423 52.6693C39.8747 54.8016 41.0338 56.7178 42.7216 58.0907C44.4095 59.4636 46.5215 60.2082 48.6972 60.1974C50.615 60.1794 52.4845 59.5936 54.0696 58.5138C55.6548 57.4341 56.8844 55.9089 57.6033 54.1307C57.9943 53.0922 58.1908 51.9905 58.1828 50.8807C58.2076 50.8102 58.2053 50.733 58.1763 50.6641C58.1522 49.3295 57.8387 48.0161 57.2574 46.8145C56.6761 45.613 55.8408 44.5519 54.8093 43.7047C53.2853 42.5051 51.4351 41.7926 49.5001 41.6602C47.5651 41.5278 45.6351 41.9817 43.9619 42.9627C42.5613 43.7883 41.3972 44.9611 40.582 46.3678C39.7668 47.7745 39.328 49.3677 39.3079 50.9934ZM53.9665 45.0026L52.8171 46.1498L52.6264 46.3416C52.6075 46.3576 52.5921 46.3773 52.5811 46.3995C52.5701 46.4217 52.5637 46.446 52.5624 46.4707C52.5611 46.4955 52.5648 46.5202 52.5734 46.5435C52.582 46.5667 52.5952 46.588 52.6123 46.6059C52.7352 46.6823 52.8803 46.7148 53.024 46.698C53.4087 46.6947 53.7793 46.5523 54.0673 46.2972L54.6555 45.7089C55.7692 47.0399 56.4379 48.6864 56.5676 50.4171H55.5417C55.3298 50.4107 55.1191 50.4507 54.9242 50.5341C54.7559 50.6008 54.6119 50.7172 54.5114 50.8677C54.4743 50.9231 54.4557 50.9887 54.4582 51.0553C54.4608 51.1218 54.4843 51.1859 54.5255 51.2382C54.6411 51.3517 54.7969 51.4148 54.9588 51.4137H56.5838C56.5744 51.7402 56.5451 52.0658 56.4961 52.3887C56.2764 53.7161 55.7166 54.9638 54.8711 56.0103L54.2753 55.4123L54.0835 55.2217C53.9612 55.1415 53.8152 55.1056 53.6697 55.1198C53.4592 55.1252 53.2514 55.1689 53.0565 55.2487C52.8915 55.3016 52.7438 55.3978 52.6286 55.5272C52.5668 55.616 52.5278 55.7135 52.6178 55.8034L53.8701 57.0557C52.6487 58.1038 51.1373 58.7556 49.5368 58.9245V57.2063C49.5368 57.0882 49.3114 57.0232 49.2378 57.0092C49.0425 56.9794 48.843 56.9935 48.6538 57.0503C48.4617 57.0948 48.282 57.1822 48.1284 57.306L48.0255 57.4143C47.9996 57.4434 47.9809 57.4782 47.9709 57.5158C47.961 57.5534 47.96 57.5929 47.9681 57.631V58.8931C46.3061 58.6808 44.7516 57.9556 43.521 56.8185L44.6791 55.6604L44.8698 55.4697C44.9358 55.4037 44.9781 55.3137 44.8936 55.2433C44.7689 55.1816 44.6281 55.1601 44.4906 55.1816C44.2811 55.1967 44.0749 55.2423 43.8785 55.317C43.7187 55.3693 43.5712 55.4537 43.4452 55.5651L42.8732 56.1371C42.2182 55.3918 41.7079 54.5311 41.3684 53.5988C41.1266 52.8995 40.9808 52.1707 40.9351 51.4322H41.9675C42.1789 51.4392 42.3893 51.4001 42.5839 51.3173C42.7531 51.2495 42.8973 51.1311 42.9967 50.9782C43.0331 50.9209 43.051 50.8538 43.0479 50.7859C43.0448 50.7181 43.0209 50.6528 42.9793 50.5991C42.9225 50.5419 42.855 50.4965 42.7807 50.4655C42.7063 50.4345 42.6266 50.4184 42.546 50.4182H40.9275C41.0103 48.7589 41.5997 47.1648 42.6164 45.8508L43.2437 46.4781L43.4343 46.6698C43.5507 46.7936 43.7083 46.8706 43.8774 46.8865C44.0896 46.9075 44.3036 46.8701 44.496 46.7782C44.6684 46.7059 44.8115 46.5776 44.9023 46.4142C44.9387 46.3489 44.9554 46.2744 44.9504 46.1998C44.9454 46.1252 44.9189 46.0537 44.8741 45.9938L43.6413 44.761C43.6759 44.7317 43.703 44.696 43.7377 44.6667C44.9378 43.6751 46.4116 43.0727 47.9627 42.9399V44.6407C47.9627 44.7307 48.2053 44.7393 48.2357 44.7404C48.4294 44.7413 48.6221 44.7136 48.8077 44.6581C48.9984 44.6145 49.1811 44.5414 49.3493 44.4414C49.4306 44.3883 49.5357 44.3331 49.5357 44.2193V42.9421C50.6905 43.0647 51.802 43.4493 52.7857 44.0666C53.2074 44.3413 53.6027 44.6547 53.9665 45.0026Z" fill="#FBB03B"/>
<path d="M0.299173 35.7326V44.5975C0.140321 46.0331 0.196184 47.4845 0.464923 48.9037C1.29151 51.3878 3.76692 51.247 5.86209 51.247H34.9918C35.0164 53.5964 35.6611 55.8978 36.8606 57.9181C38.4427 60.4614 40.8045 62.425 43.5938 63.5163C46.383 64.6076 49.4504 64.7679 52.3382 63.9735C55.2261 63.1791 57.7798 61.4724 59.6185 59.108C61.4572 56.7437 62.4823 53.8483 62.541 50.8537C62.5388 47.3606 61.1823 44.0043 58.7567 41.4906C56.3311 38.9769 53.0254 37.5016 49.5345 37.3749V22.5332C49.5345 17.1577 49.7588 11.7302 49.5345 6.35905C49.4262 3.83272 47.4025 2.91297 45.2012 2.91297H41.9653V1.03447C41.9586 0.94679 41.9335 0.861511 41.8915 0.784222C41.8496 0.706932 41.7918 0.639375 41.722 0.585981C41.6521 0.532587 41.5718 0.494561 41.4862 0.474395C41.4006 0.45423 41.3117 0.45238 41.2253 0.468967C40.9003 0.4993 40.3684 0.725717 40.3684 1.13197V2.92488H35.4523V0.988967C35.4523 0.643384 35.0482 0.594633 34.7698 0.633633C34.5592 0.656615 34.3564 0.726187 34.1761 0.8373C34.0678 0.907717 33.8814 1.03555 33.8814 1.17747V2.92488H28.9512V0.87305C28.9512 0.783134 28.7085 0.773383 28.6782 0.7723C28.4841 0.771458 28.291 0.799201 28.1051 0.854633C27.922 0.90555 27.3825 1.0323 27.3825 1.28797V2.92488H22.4512V0.87305C22.4512 0.750634 22.2269 0.676967 22.1478 0.656383C21.9528 0.622284 21.7525 0.634154 21.5628 0.69105C21.2714 0.776634 20.8825 0.939133 20.8825 1.28905V2.92488H15.9588V1.01172C15.9588 0.641217 15.5709 0.5123 15.2481 0.550217C14.9686 0.582717 14.3749 0.777717 14.3749 1.15472V2.92488H9.46309V1.02688C9.45533 0.941771 9.42947 0.859299 9.38726 0.784985C9.34505 0.710671 9.28745 0.64623 9.21832 0.595973C9.14919 0.545717 9.07013 0.510804 8.98642 0.493572C8.90271 0.476339 8.81628 0.477184 8.73292 0.49605C8.42309 0.527467 7.86626 0.74305 7.86626 1.13955V2.91513C6.6818 2.86202 5.49539 2.87069 4.31184 2.94113C3.35494 2.96424 2.43525 3.31645 1.7077 3.93842C0.980154 4.5604 0.489213 5.41414 0.317589 6.3558C0.289794 6.77156 0.283646 7.18848 0.299173 7.60488V35.7326ZM5.20017 50.5915C2.86234 50.545 1.86784 48.8398 1.86784 46.7327V19.9538C1.86784 17.0602 1.80284 14.1515 1.79742 11.2481H47.9658V37.4052C46.7704 37.489 45.5902 37.7219 44.4526 38.0985C44.6997 37.8419 44.9072 37.5498 45.0679 37.2319C45.654 35.9763 43.847 34.7261 43.0995 33.9635C42.2599 33.1055 41.5655 32.0265 40.2276 32.2193C39.9556 32.2241 39.6874 32.2834 39.4388 32.3938C39.1903 32.5041 38.9664 32.6633 38.7805 32.8619C38.5946 33.0604 38.4504 33.2942 38.3566 33.5495C38.2628 33.8048 38.2212 34.0764 38.2343 34.348H33.8717C33.5794 34.3732 33.2856 34.375 32.9931 34.3535C32.975 34.3184 32.95 34.2874 32.9194 34.2625C32.5034 33.8627 32.1026 33.4467 31.6953 33.0394L28.8082 30.1545L32.6475 26.3151H38.2137C38.2039 26.9565 38.1292 27.6725 38.6654 28.133C39.0341 28.3595 39.4574 28.4814 39.8901 28.4856C40.3227 28.4898 40.7484 28.3761 41.1213 28.1568C41.6036 27.873 42.0319 27.5062 42.3867 27.0735L44.12 25.3011C44.5756 24.9495 44.9324 24.486 45.1557 23.9556C45.3247 23.2493 44.8957 22.7997 44.4493 22.3436L42.7073 20.5626C42.371 20.156 41.9966 19.7824 41.5893 19.4468C41.1612 19.24 40.6845 19.1547 40.2112 19.1999C39.7379 19.2452 39.2861 19.4194 38.9048 19.7035C38.654 19.8919 38.4578 20.1435 38.3364 20.4327C38.2149 20.7219 38.1726 21.0382 38.2137 21.3491H32.4883C31.2811 21.2479 30.0824 21.624 29.1494 22.3967C28.3293 23.1659 27.5548 23.9914 26.7596 24.7865L25.0978 26.4495L22.0449 23.3999C21.0851 22.44 20.3181 21.413 18.8469 21.3502C16.7886 21.2625 14.6978 21.3502 12.6318 21.3502C12.2847 21.3784 11.9358 21.3784 11.5886 21.3502H11.581C11.6309 21.1532 11.6434 20.9485 11.6178 20.7468C11.5756 19.5378 10.736 19.0514 9.59417 19.2399C7.84459 19.5291 6.38209 21.5972 5.26084 22.8257C5.08998 22.9618 4.95072 23.1334 4.85269 23.3286C4.75467 23.5238 4.70022 23.7379 4.69311 23.9562C4.686 24.1745 4.7264 24.3918 4.81152 24.593C4.89664 24.7941 5.02444 24.9744 5.18609 25.1213C5.98126 26.0096 6.86092 26.834 7.69401 27.6855C7.99951 28.0522 8.41682 28.3084 8.88197 28.4151C9.34711 28.5217 9.83439 28.4729 10.2691 28.276C10.686 28.1572 11.048 27.8959 11.2919 27.5375C11.5359 27.1792 11.6462 26.7465 11.6038 26.3151H15.8602C16.1364 26.3151 16.4127 26.3216 16.6889 26.3151C16.7429 26.3133 16.7969 26.3162 16.8503 26.3238C17.3147 26.7202 17.7449 27.1551 18.1363 27.6238L21.0006 30.486L17.1948 34.2917H11.6211C11.6831 33.9796 11.6742 33.6575 11.5951 33.3492C11.5159 33.041 11.3686 32.7544 11.1639 32.5107C10.8008 32.2673 10.3761 32.1318 9.93904 32.1201C9.50201 32.1084 9.07064 32.221 8.69501 32.4446C8.21954 32.7458 7.79499 33.1206 7.43726 33.555L5.70392 35.3274C5.24477 35.6813 4.88899 36.152 4.67367 36.6902C4.50467 37.4095 4.93367 37.8743 5.38976 38.3412L7.13176 40.1222C7.47068 40.5265 7.84482 40.8999 8.24976 41.2381C8.67645 41.4681 9.16132 41.5677 9.64416 41.5246C10.127 41.4814 10.5865 41.2974 10.9657 40.9954C11.2018 40.8007 11.3855 40.55 11.5 40.2662C11.6145 39.9824 11.6561 39.6744 11.6211 39.3704H14.6793C16.1404 39.5075 17.6129 39.4613 19.0625 39.2328C20.525 38.8396 21.5921 37.4041 22.6213 36.375L24.7598 34.2365L27.7931 37.2633C28.2394 37.7096 28.6673 38.209 29.1494 38.6196C30.1158 39.4397 31.2348 39.313 32.4146 39.313H37.5918C37.8081 39.2965 38.0253 39.2947 38.2418 39.3075C38.2229 39.432 38.2125 39.5576 38.2104 39.6835C38.1264 40.0169 38.1683 40.3697 38.3282 40.6742C38.4882 40.9786 38.7548 41.2133 39.0771 41.3334C38.777 41.6237 38.4867 41.9238 38.2104 42.2434C36.226 44.5801 35.0932 47.5209 34.9973 50.585C25.0718 50.6056 15.1257 50.7833 5.20017 50.5915ZM40.0662 40.4732C39.7979 39.9555 39.6994 39.3665 39.7845 38.7897C39.7845 38.6987 39.5429 38.6814 39.5104 38.6814C37.152 38.6814 34.773 38.7832 32.4178 38.6814C30.6347 38.6045 29.5492 37.0131 28.3629 35.829L25.6806 33.1499C25.6738 33.1409 25.6658 33.1329 25.6568 33.126L21.9268 29.3994L19.3268 26.7994C19.0408 26.5145 18.6378 25.9121 18.263 25.7377C17.9383 25.6563 17.6009 25.639 17.2696 25.6868H11.3438C11.0664 25.6868 10.0438 25.807 10.0438 26.2133C10.0438 26.4765 10.0654 26.7485 10.0438 27.0106C10.0026 27.5025 10.0221 27.782 9.55192 27.5523C9.25617 27.405 8.96151 26.9489 8.73076 26.7138C8.01251 25.9793 6.08201 24.6305 6.25967 23.4876C6.42759 22.4119 8.05259 21.3036 8.78276 20.5561C9.02109 20.3124 9.36776 19.8455 9.55734 19.9007C10.1889 20.0827 10.0438 21.4174 10.0438 21.8843C10.0438 21.9753 10.2853 21.9926 10.3178 21.9926C12.6763 21.9926 15.0553 21.8908 17.4104 21.9926C19.1936 22.0695 20.2791 23.661 21.4653 24.845L27.9014 31.2757L30.5014 33.8757C30.7874 34.1606 31.1904 34.763 31.5653 34.9374C31.8899 35.0188 32.2274 35.0361 32.5587 34.9883H38.4791C38.7564 34.9883 39.7737 34.868 39.7737 34.4618C39.7737 34.2191 39.6653 33.1412 39.9004 33.0015C40.1171 32.8725 40.3197 33.1954 40.4735 33.3427C41.2318 34.0577 41.9317 34.8312 42.6586 35.5733C43.3855 36.3154 44.0171 36.9816 43.1223 37.9891C42.7474 38.4105 42.3455 38.8103 41.9425 39.209C41.2838 39.5788 40.6563 40.0016 40.0662 40.4732ZM11.1585 38.6261C10.8508 38.6261 10.0503 38.793 10.0503 39.21C10.0503 39.495 10.0741 39.7885 10.0503 40.0713C10.0362 40.2284 10.0589 40.5176 9.91376 40.6281C9.71551 40.7809 9.80542 40.6964 9.54867 40.5198C9.20417 40.2265 8.88724 39.9023 8.60184 39.5513L7.10251 38.0249C6.69084 37.6035 6.15134 37.1994 6.23584 36.5418C6.30517 35.9925 6.83276 35.6015 7.20001 35.2255L8.70584 33.6807C8.90301 33.4792 9.09692 33.2723 9.29842 33.0751C9.33526 33.0383 9.41759 32.9126 9.47284 32.8964C9.65267 32.8422 9.40676 32.918 9.47284 32.9321C10.2214 33.1033 10.0535 34.334 10.0535 34.8821C10.0535 35.05 10.4262 35.0457 10.5139 35.0457H13.9503C15.0647 35.1053 16.1815 35.1021 17.2956 35.036C18.4028 34.9081 19.2738 33.6146 20.0039 32.8845L21.7015 31.1869C22.4916 31.9741 23.2806 32.7624 24.0686 33.5518L21.5769 36.0435L19.8111 37.8093C19.4991 38.1213 19.1806 38.5536 18.7278 38.637C18.2905 38.6743 17.8509 38.6743 17.4137 38.637H11.1585V38.6261ZM38.491 21.984C38.7694 21.984 39.7856 21.8648 39.7856 21.4564C39.7856 21.1541 39.7618 20.841 39.7856 20.541C39.8153 20.343 39.8647 20.1485 39.9329 19.9603L39.96 19.9343C40.0023 19.9484 40.0467 19.9625 40.1106 19.9787C40.4258 20.32 40.7823 20.6385 41.1083 20.9721L42.7268 22.6264C43.1602 23.0651 43.6758 23.453 43.6033 24.1376C43.5426 24.714 43.0313 25.0866 42.6467 25.4799L41.0217 27.1395C40.8209 27.3052 40.6392 27.4927 40.48 27.6985C40.4525 27.7392 40.4193 27.7757 40.3814 27.8069C40.3527 27.7798 40.3266 27.75 40.3034 27.718C40.0358 27.3486 39.8257 27.1948 39.7888 26.7051C39.7672 26.404 39.7888 26.092 39.7888 25.7897C39.7888 25.6987 39.5483 25.6814 39.5148 25.6814H36.0752C34.9528 25.6814 33.7785 25.5795 32.6594 25.6814C31.4558 25.7973 30.6379 27.0258 29.8428 27.8177L28.1582 29.5012C27.3536 28.6988 26.5494 27.8954 25.7456 27.0908L28.2448 24.5915L30.0107 22.8246C30.2338 22.608 30.6228 22.0836 30.9304 21.9775C31.3634 21.9162 31.8029 21.9162 32.2358 21.9775H38.4888L38.491 21.984ZM40.3879 27.8188C40.5688 27.9889 40.5818 27.7267 40.3879 27.8188V27.8188ZM60.9561 50.9794C60.9603 53.4959 60.2032 55.9548 58.7842 58.0331C57.3653 60.1113 55.3508 61.7118 53.0055 62.6241C50.5848 63.4758 47.9583 63.5484 45.4942 62.8319C43.0302 62.1154 40.8522 60.6457 39.2656 58.6288C37.727 56.6625 36.8016 54.2865 36.6051 51.7974C36.4086 49.3084 36.9496 46.8166 38.1606 44.6332C39.4056 42.429 41.3117 40.6716 43.6096 39.6093C45.9074 38.547 48.4809 38.2334 50.9667 38.7128C53.776 39.3217 56.2948 40.8675 58.11 43.0964C59.9251 45.3253 60.9287 48.105 60.9561 50.9794ZM1.86784 6.40347C1.81735 5.75987 2.00114 5.11971 2.38535 4.60092C2.76957 4.08213 3.32832 3.71966 3.95867 3.5803C4.48429 3.54726 5.01147 3.54726 5.53709 3.5803H7.87059V5.47288C7.87836 5.558 7.90421 5.64047 7.94642 5.71478C7.98863 5.7891 8.04623 5.85354 8.11536 5.90379C8.18449 5.95405 8.26355 5.98896 8.34726 6.0062C8.43097 6.02343 8.5174 6.02258 8.60076 6.00372C8.91059 5.9723 9.46742 5.75672 9.46742 5.36022V3.5803H14.3793V5.48805C14.3793 5.85855 14.7671 5.98747 15.0899 5.94955C15.3694 5.91705 15.9631 5.72205 15.9631 5.34505V3.5803H20.8868V5.62672C20.8868 5.74913 21.1111 5.8228 21.1902 5.84338C21.3852 5.87748 21.5855 5.86561 21.7752 5.80872C22.0666 5.72313 22.4555 5.56063 22.4555 5.21072V3.58572H27.3868V5.62672C27.3868 5.71663 27.6295 5.72638 27.6598 5.72747C27.8539 5.72831 28.047 5.70057 28.2329 5.64513C28.416 5.59422 28.9555 5.46747 28.9555 5.20638V3.58138H33.8858V5.5108C33.8858 5.85638 34.2898 5.90513 34.5683 5.86613C34.7788 5.84315 34.9816 5.77358 35.1619 5.66247C35.2703 5.59205 35.4566 5.46422 35.4566 5.3223V3.5803H40.3728V5.4653C40.3794 5.55298 40.4045 5.63826 40.4465 5.71555C40.4884 5.79284 40.5462 5.86039 40.6161 5.91379C40.6859 5.96718 40.7663 6.00521 40.8519 6.02537C40.9374 6.04554 41.0263 6.04739 41.1127 6.0308C41.4377 6.00047 41.9696 5.77405 41.9696 5.3678V3.5803H42.0238C43.3238 3.5803 45.2326 3.28455 46.4058 3.96488C48.3721 5.10238 47.9702 7.58972 47.9702 9.50722V10.4183H1.79634C1.79959 9.07822 1.81692 7.73922 1.86784 6.40347Z" fill="#FBB03B"/>
<path d="M49.5159 48.3979C49.3461 48.4596 49.2001 48.5733 49.0988 48.7229L48.0155 50.8896C47.9788 50.9403 47.9596 51.0016 47.961 51.0642C47.9624 51.1268 47.9842 51.1872 48.023 51.2363L49.1064 52.3196C49.2603 52.421 49.4392 52.478 49.6234 52.4845C49.8076 52.491 49.99 52.4467 50.1507 52.3564C50.3414 52.2665 50.8235 51.9523 50.5602 51.6891L49.5971 50.7271C49.9214 50.0771 50.2464 49.43 50.5721 48.7858C50.6085 48.7349 50.6274 48.6737 50.626 48.6112C50.6247 48.5487 50.6031 48.4883 50.5645 48.4391C50.4451 48.3341 50.2902 48.2784 50.1312 48.2831C49.9201 48.2747 49.7098 48.314 49.5159 48.3979Z" fill="#FBB03B"/>
</svg>
