<svg width="65" height="65" viewBox="0 0 65 65" fill="none" xmlns="http://www.w3.org/2000/svg">
<path d="M34.0156 3.24372L34.0852 3.17613C18.629 3.02703 2.98697 15.5103 3.25335 33.8569C3.51179 51.6052 17.809 64.1202 34.4937 63.3529C36.6877 63.2555 38.8628 62.9016 40.9744 62.2983C43.6014 64.3607 47.958 65.7344 50.8087 64.5784C51.9716 64.0963 53.0093 63.322 53.8771 62.3321C57.0896 59.3979 57.5776 54.3883 56.8192 50.0267C61.6042 43.235 62.957 35.4224 61.7264 28.1505C59.4642 14.7767 48.4659 3.23576 34.0156 3.24372ZM48.9977 9.83372C48.9409 9.94968 48.9162 10.0787 48.9261 10.2074C49.1726 12.6357 46.5505 14.3394 44.4314 13.1466C42.8659 12.264 42.0061 9.97883 39.9089 9.21348C36.0672 7.80702 33.2254 12.2828 30.1133 11.9598C28.9265 11.8336 27.7576 10.9052 27.1344 9.59417C26.6672 8.61213 26.4595 7.39949 26.4625 5.85288C34.4838 3.47034 42.3699 4.9265 48.9977 9.83372ZM7.32365 25.2213C12.5489 23.6499 19.5952 26.9409 14.4892 29.5938C13.3014 30.1921 12.0808 30.7438 11.4029 31.8739C10.5431 33.3112 10.9894 35.33 12.379 36.2832C12.9117 36.646 13.6085 36.9054 13.685 37.1996C13.864 37.8835 10.4149 40.1656 6.61296 39.0404C6.21437 37.2071 5.99204 35.3399 5.94899 33.4643C5.87518 30.6846 6.2227 27.9098 6.97974 25.2342C7.09375 25.2576 7.21171 25.2531 7.32365 25.2213ZM21.5304 51.4143C23.2957 48.1641 27.0151 47.2516 27.4982 47.8281C27.8043 48.1949 27.3123 49.2097 27.1652 50.0605C26.7577 52.3675 29.0031 54.6407 31.32 54.265C33.9739 53.8317 35.2213 50.7275 37.254 50.4671C38.2161 50.3478 39.3353 50.9313 40.2558 52.0415C41.5956 53.6527 42.4514 56.9994 42.2367 59.4704C39.5638 60.4437 36.7493 60.9719 33.9053 61.0339C29.4852 61.1336 25.1096 60.1324 21.1726 58.1206C20.61 56.1396 20.606 53.117 21.5304 51.4143ZM40.5162 38.1926C40.4695 36.9919 40.3243 35.823 40.1444 34.2614C40.1311 34.1525 40.0936 34.0479 40.0348 33.9553C39.976 33.8626 39.8974 33.7842 39.8045 33.7257C38.8274 32.8013 37.1228 30.9655 34.2532 28.8781C34.1661 28.8146 34.0662 28.7707 33.9605 28.7495C33.8547 28.7283 33.7457 28.7303 33.6408 28.7553C33.5359 28.7803 33.4377 28.8278 33.3529 28.8945C33.2682 28.9612 33.1989 29.0455 33.1499 29.1415C31.1878 32.9892 29.9543 36.642 29.178 40.8793C28.5269 40.5513 28.4872 40.5314 28.3619 40.4618C29.1392 35.0835 29.2784 29.9933 29.3519 25.2322C29.3538 25.1164 29.3286 25.0018 29.2784 24.8974C29.2282 24.793 29.1543 24.7018 29.0627 24.6309C26.5897 22.7165 24.3314 21.1123 22.1656 19.7306C21.76 18.4782 21.4767 18.2814 21.6507 18.0151C21.7859 17.8063 21.8664 17.9335 23.1884 17.7914C25.9824 19.6531 28.6174 21.2802 31.0208 22.63C31.2236 22.7434 31.4681 22.7573 31.6828 22.6638C35.927 20.83 40.7706 19.2953 45.7176 18.2138C45.7782 18.3083 45.8786 18.4723 45.9363 18.5717C42.4355 20.2813 38.8612 22.8129 35.5513 25.9499C35.4795 26.0178 35.4219 26.0993 35.3819 26.1897C35.3419 26.28 35.3203 26.3775 35.3184 26.4763C35.3164 26.5751 35.3342 26.6733 35.3706 26.7652C35.407 26.8571 35.4613 26.9408 35.5304 27.0114C37.5035 29.0391 39.2876 30.711 40.8283 31.9773C41.4962 32.522 42.1761 31.5797 45.8916 30.8402C46.0476 31.0241 46.2116 31.2408 46.3736 31.4714C43.0637 33.5786 41.9286 34.4632 40.8174 38.3198C40.7171 38.2771 40.6167 38.2347 40.5162 38.1926ZM44.7405 34.4125C51.2987 41.4975 59.1918 54.8912 52.407 61.7098C57.0856 54.4827 50.4628 43.4805 43.1035 36.4661C43.4903 35.6687 44.0495 34.9673 44.7405 34.4125ZM52.3335 55.09C52.5144 57.0601 52.2539 58.5093 51.7917 59.6722C49.8287 62.5289 46.2215 62.8092 43.8301 61.3073C46.6847 60.1086 49.3267 58.3552 51.2679 56.0233C51.6327 55.7252 51.9816 55.4081 52.3335 55.09ZM46.9501 32.8739C47.2344 32.688 47.5038 32.519 47.7334 32.3868C47.7612 32.3759 47.791 32.3799 47.8169 32.365C47.9861 32.2627 48.1078 32.0974 48.1554 31.9055C48.2029 31.7135 48.1723 31.5106 48.0703 31.3412C47.8626 30.9973 47.3119 30.1285 46.6887 29.5053C46.6043 29.4202 46.5005 29.3569 46.3862 29.3209C46.2719 29.2849 46.1506 29.2772 46.0327 29.2986C44.3608 29.5918 42.8798 30.0739 41.4565 30.5609C40.1733 29.4825 38.7221 28.1247 37.1307 26.5145C40.3979 23.5127 43.8986 21.1192 47.2921 19.5716C47.4565 19.4948 47.587 19.3602 47.6585 19.1933C47.73 19.0265 47.7375 18.8392 47.6797 18.6671C47.6658 18.5409 47.6188 18.4205 47.5435 18.3182C47.0595 17.692 46.6758 16.4903 45.8438 16.6623C40.7836 17.7387 35.8088 19.2873 31.4313 21.149C24.4398 17.1851 24.0004 16.1931 23.2798 16.2786C21.9131 16.4525 21.0523 16.21 20.4043 17.196C20.2466 17.4366 20.1483 17.7112 20.1174 17.9971C20.0865 18.2831 20.1238 18.5723 20.2263 18.841C21.607 22.1778 19.3646 19.0498 27.855 25.5821C27.7755 30.5072 27.6234 35.3856 26.8163 40.7192C26.6752 41.6566 28.2626 41.91 29.1492 42.5809C29.2441 42.6535 29.3552 42.702 29.473 42.7221C29.5908 42.7422 29.7117 42.7334 29.8254 42.6964C29.939 42.6595 30.0419 42.5955 30.1253 42.5099C30.2088 42.4243 30.2701 42.3198 30.3042 42.2052C30.9502 41.5711 30.5924 37.7821 34.0832 30.6116C35.6 31.7706 37.0552 33.0707 38.6982 34.7286C38.7529 35.327 38.8344 35.5675 39.0034 38.2274C39.0759 39.3585 39.1395 39.2233 40.1643 39.6627C40.9267 39.9936 40.9754 40.0274 41.2348 39.9907C41.4245 40.022 41.6189 39.9783 41.7769 39.8688C41.935 39.7594 42.0442 39.5928 42.0817 39.4042C42.1751 38.939 42.3282 38.447 42.4972 37.965C46.979 42.3185 50.7968 47.0458 52.072 53.3138C49.6559 55.6469 46.8373 57.5233 43.7525 58.8522C43.7824 56.1158 42.8431 52.8208 41.4038 51.0883C40.1365 49.5616 38.5511 48.8002 37.0631 48.9871C34.3705 49.334 33.124 52.461 31.0795 52.7939C29.7823 53.0086 28.4047 51.6191 28.6323 50.319C28.8033 49.3648 29.5706 47.9792 28.6403 46.8709C28.0777 46.195 27.1076 45.9902 25.9078 46.2904C23.5213 46.8908 21.3952 48.5388 20.2194 50.7016C19.299 52.3983 19.133 55.0105 19.4461 57.1525C13.522 53.5484 8.99948 47.7197 7.02745 40.6864C9.49248 41.1645 11.9675 40.594 13.857 39.2979C14.8887 38.5882 15.3519 37.6876 15.1263 36.8219C14.8529 35.7782 13.8063 35.4502 13.2199 35.0526C12.4843 34.5487 12.2269 33.3977 12.6821 32.6403C13.1284 31.8928 14.0936 31.4614 15.177 30.9158C18.9511 28.9556 18.3408 25.7103 14.8897 24.2393C12.5887 23.2552 9.92685 23.0565 7.48666 23.6439C10.3393 15.5908 16.9423 9.21746 24.9616 6.34092C25.0809 10.939 27.5419 13.1854 29.9523 13.4428C33.4779 13.8106 36.584 9.58622 39.396 10.613C40.9992 11.1994 41.8332 13.3941 43.6989 14.4447C46.3885 15.9615 50.0304 14.3652 50.3952 10.94C55.5261 15.2797 58.9801 21.3945 60.1898 27.9736C61.4143 34.6352 60.3389 41.7719 56.3729 48.0219C54.8045 42.2847 50.755 37.3298 46.9501 32.8739Z" fill="#63AB45"/>
<path d="M54.9946 24.1719C54.4608 23.8012 54.441 23.7843 54.4927 23.0666C54.5165 22.7297 54.5443 22.347 54.441 21.9464C53.9082 19.869 50.8975 19.7468 50.0506 21.9325C49.4542 23.4741 46.7735 24.2176 48.0239 27.4391C49.1024 30.2182 53.1886 31.3116 55.3693 29.2451C56.0413 28.609 56.4309 27.6508 56.412 26.6837C56.3862 25.481 55.8405 24.7574 54.9946 24.1719ZM49.4145 26.8994C48.5348 24.6341 50.6122 24.6083 51.4412 22.4712C51.5903 22.0866 51.971 21.8261 52.3029 21.8261C52.6081 21.8261 52.9281 22.0498 52.9967 22.3162C53.118 22.7903 52.781 23.6381 53.2084 24.4572C53.774 25.5406 54.8942 25.3517 54.9211 26.7135C54.9747 29.4857 50.4104 29.4727 49.4145 26.8994ZM49.0248 4.71302L49.5695 0.816666C49.5876 0.625342 49.5312 0.434419 49.412 0.283641C49.2929 0.132864 49.1202 0.0338492 48.9298 0.00720943C48.7395 -0.0194303 48.5463 0.0283573 48.3903 0.140625C48.2343 0.252892 48.1277 0.420988 48.0925 0.609921L47.5478 4.50727C47.4126 5.48433 48.8877 5.69009 49.0248 4.71302ZM53.6398 2.31259L51.2086 5.80042C50.639 6.61646 51.8805 7.44543 52.4312 6.65225L54.8624 3.16541C54.9208 3.08524 54.9626 2.99423 54.9854 2.8977C55.0081 2.80118 55.0114 2.70108 54.995 2.60326C54.9786 2.50545 54.9429 2.4119 54.8899 2.32807C54.8369 2.24425 54.7677 2.17185 54.6863 2.11511C54.605 2.05837 54.5131 2.01843 54.4162 1.99763C54.3192 1.97683 54.219 1.97559 54.1216 1.99398C54.0241 2.01237 53.9313 2.05002 53.8486 2.10473C53.7659 2.15944 53.6949 2.2301 53.6398 2.31259ZM55.2501 10.3478L59.5519 7.1214C59.7101 7.00277 59.8147 6.82617 59.8426 6.63044C59.8706 6.43472 59.8197 6.2359 59.701 6.07773C59.5824 5.91956 59.4058 5.815 59.2101 5.78704C59.0144 5.75907 58.8155 5.81001 58.6574 5.92864L54.3545 9.15605C53.5603 9.75143 54.4718 10.9343 55.2491 10.3488L55.2501 10.3478Z" fill="#63AB45"/>
</svg>
