<svg width="65" height="65" viewBox="0 0 65 65" fill="none" xmlns="http://www.w3.org/2000/svg">
<g clip-path="url(#clip0_954_194)">
<path d="M62.471 44.1166C60.3137 42.0577 57.6706 45.8463 51.5772 48.1602C46.6382 50.0414 45.6223 50.1347 43.0454 50.5594C41.0808 50.8806 35.8257 51.7439 33.3662 51.3263C35.7735 49.8888 37.9408 47.8289 39.8411 45.7308C42.9711 42.3368 44.1577 41.618 44.3283 39.8312C44.502 38.1607 43.4861 36.6038 41.5968 36.1862C37.3134 35.1903 34.1703 39.6525 31.7048 41.4333C30.0404 42.6399 27.6784 42.3569 26.0692 42.5004V42.4984C22.3298 42.7233 19.9988 44.6346 16.4773 45.3765C16.3418 44.7751 16.2083 44.1738 16.0457 43.5765C15.6281 42.0206 14.0992 40.9244 12.4699 41.0177C8.62916 41.1884 9.22345 41.5166 6.1135 41.6431C4.30153 41.7184 2.73552 41.7837 2.06494 42.5877C1.94432 42.7313 1.85591 42.899 1.80569 43.0796C1.75547 43.2603 1.7446 43.4496 1.77382 43.6348C2.57189 49.3196 2.14023 53.3822 2.82687 57.5241C2.86028 57.7203 2.96999 57.8952 3.13202 58.0108C3.29404 58.1263 3.49521 58.1729 3.69154 58.1406C3.88788 58.1082 4.06341 57.9994 4.17978 57.838C4.29615 57.6766 4.3439 57.4757 4.31258 57.2792C3.71327 53.6613 4.02146 48.8699 3.27559 43.5123C3.93914 43.0967 7.11535 43.2182 8.46152 42.9582C9.6019 42.7373 10.9732 42.5908 12.5372 42.5215C13.4627 42.4984 14.3602 43.1037 14.5941 43.9691C16.2163 49.9671 16.4311 56.186 15.2245 62.0013C12.5783 61.8558 9.97835 61.5978 7.31913 61.4733C6.94871 61.4472 6.55118 61.7745 6.5311 62.1901C6.52183 62.3895 6.59213 62.5844 6.72654 62.732C6.86094 62.8795 7.04846 62.9677 7.24786 62.9771L7.28801 62.9791L8.49665 64.1235C9.53866 65.1113 10.4642 65.0009 16.4974 64.9928C17.2051 64.9928 17.7693 64.507 17.8064 63.8404C17.8907 62.2995 17.957 60.7184 18.0484 59.1925C25.5713 63.0102 33.6674 64.4979 41.1451 63.4218C48.7292 62.3306 55.6508 58.6103 60.8638 52.8251C61.683 51.9166 62.474 50.9338 62.9047 49.685C63.1777 48.894 63.3906 47.6733 63.1075 46.6945C63.4076 45.6124 63.1426 44.7591 62.471 44.1166ZM24.197 44.2913C27.1513 43.5484 29.4421 44.5443 32.3413 42.8096C34.604 41.4745 36.1419 38.7008 39.1454 37.7401C39.2458 37.7401 41.5717 37.0716 42.4802 38.3876C42.5033 38.4207 42.5666 38.496 42.5947 38.5261C43.2953 40.5198 42.5766 40.5439 38.7629 44.6798C38.7127 44.725 38.6866 44.7601 38.6947 44.7601H38.6967C38.1175 45.2038 35.5717 48.5286 31.8825 50.467C31.8152 50.5032 31.763 50.5554 31.7118 50.6076C31.0282 50.5523 30.6417 51.3534 31.0895 51.8554C32.6615 53.6211 38.2118 52.8793 43.2903 52.0441C44.498 51.7489 45.4406 52.1063 52.1132 49.5686C56.7902 47.7917 61.7031 43.4109 61.7302 45.8704C61.7452 47.346 59.1874 49.5776 58.1253 50.6166C55.4772 53.1363 52.6694 55.0556 49.4821 56.6407C38.9788 61.7825 28.878 59.4134 17.4591 56.0254C17.5764 52.9514 17.3474 49.8739 16.7765 46.8511C19.3383 46.3131 22.0296 44.8936 24.197 44.2913Z" fill="#63AB45"/>
<path d="M11.5308 47.5387C13.4471 48.0096 14.3908 45.7017 13.0205 44.5653C12.9405 44.4976 12.8471 44.4477 12.7463 44.419C12.6456 44.3902 12.5399 44.3833 12.4362 44.3987C12.0427 44.2039 11.595 44.1557 11.2045 44.2792C9.65757 44.7571 9.69571 47.09 11.5308 47.5387ZM27.5935 22.9523C27.9197 22.9523 28.242 22.874 28.5391 22.7395L31.5437 25.753L31.5035 25.7571C31.3046 25.7733 31.1203 25.8679 30.9912 26.02C30.862 26.1721 30.7986 26.3693 30.8149 26.5682C30.8311 26.7671 30.9257 26.9513 31.0778 27.0805C31.2299 27.2096 31.4271 27.2731 31.626 27.2568L33.5142 27.1012C33.7101 27.0853 33.8919 26.9934 34.021 26.8453C34.15 26.6971 34.216 26.5043 34.2049 26.3082L34.0985 24.4651C34.0858 24.2661 33.9952 24.0802 33.8464 23.9475C33.6976 23.8149 33.5025 23.7462 33.3034 23.7564C33.1041 23.768 32.9175 23.8583 32.7846 24.0073C32.6518 24.1564 32.5835 24.3521 32.5947 24.5514L32.6027 24.6819L29.6112 21.6834C29.768 21.3625 29.8482 21.0097 29.8454 20.6526C29.8426 20.2955 29.7569 19.9439 29.5952 19.6255L33.2633 15.8339L33.2653 15.9152C33.27 16.1118 33.3514 16.2987 33.4921 16.436C33.6328 16.5733 33.8216 16.6501 34.0182 16.6501H34.0372C34.1361 16.6476 34.2335 16.6257 34.3239 16.5855C34.4143 16.5454 34.4959 16.4878 34.5641 16.4161C34.6322 16.3444 34.6856 16.26 34.7211 16.1677C34.7566 16.0754 34.7736 15.977 34.7711 15.8781L34.7229 13.9838C34.7179 13.7875 34.6364 13.6008 34.4957 13.4637C34.3551 13.3266 34.1664 13.2499 33.97 13.25H32.1239C31.9242 13.25 31.7327 13.3293 31.5915 13.4705C31.4503 13.6117 31.371 13.8032 31.371 14.0029C31.371 14.2026 31.4503 14.3941 31.5915 14.5353C31.7327 14.6765 31.9242 14.7558 32.1239 14.7558H32.2112L28.509 18.5835C28.0456 18.3889 27.5289 18.3612 27.0474 18.5052C26.5695 18.64 26.1478 18.9253 25.8451 19.3189C25.5423 19.7124 25.3746 20.1931 25.3669 20.6896C25.3489 21.842 26.3035 22.9523 27.5935 22.9523Z" fill="#63AB45"/>
<path d="M31.3362 5.2956C29.9006 5.05376 28.4392 5.00447 26.9905 5.14904C23.0574 5.29761 19.552 6.91884 16.5715 9.97358C15.2389 11.3377 14.1714 12.9376 13.4234 14.6917C12.768 16.2442 12.3735 17.8944 12.2559 19.5755C11.9799 23.3871 13.0992 26.996 15.4944 30.0096C15.9848 30.6181 16.5215 31.188 17.0995 31.7141C18.1978 33.3594 19.8621 34.6966 21.6741 35.5569C30.7209 39.8514 41.8075 34.279 43.7228 23.9121C44.5902 19.2191 43.2892 14.1948 40.3328 10.4303C38.048 7.51814 35.0053 5.90494 31.3362 5.2956ZM13.7537 21.4346H15.8879C16.0876 21.4346 16.2791 21.3553 16.4203 21.2141C16.5614 21.0729 16.6408 20.8814 16.6408 20.6817C16.6408 20.482 16.5614 20.2905 16.4203 20.1493C16.2791 20.0081 16.0876 19.9288 15.8879 19.9288H13.7507C13.7557 19.8465 13.7507 19.7652 13.7577 19.6819C13.8651 18.161 14.2195 16.6793 14.8087 15.28C15.423 13.8521 16.2731 12.5378 17.3234 11.392L18.2931 12.3607C18.362 12.4347 18.4452 12.494 18.5375 12.5352C18.6299 12.5763 18.7296 12.5985 18.8307 12.6003C18.9318 12.602 19.0322 12.5834 19.1259 12.5456C19.2197 12.5077 19.3048 12.4514 19.3763 12.3799C19.4478 12.3084 19.5042 12.2232 19.542 12.1295C19.5799 12.0357 19.5985 11.9353 19.5967 11.8342C19.5949 11.7331 19.5728 11.6334 19.5317 11.5411C19.4905 11.4487 19.4312 11.3656 19.3572 11.2967L18.3885 10.3269C20.875 8.06123 23.72 6.8295 26.8661 6.66888V8.46578C26.8661 8.66546 26.9454 8.85696 27.0866 8.99816C27.2278 9.13935 27.4193 9.21868 27.6189 9.21868C27.8186 9.21868 28.0101 9.13935 28.1513 8.99816C28.2925 8.85696 28.3718 8.66546 28.3718 8.46578V6.70502C28.8306 6.75019 29.2663 6.80641 29.6738 6.89073C32.3491 7.40471 34.8618 8.71073 36.8454 10.5387L36.3505 11.0326C36.2786 11.1021 36.2213 11.1852 36.1819 11.2771C36.1425 11.369 36.1217 11.4678 36.1209 11.5678C36.1201 11.6677 36.1392 11.7669 36.1771 11.8594C36.215 11.9519 36.2709 12.0359 36.3417 12.1066C36.4124 12.1772 36.4965 12.2331 36.589 12.2709C36.6816 12.3087 36.7807 12.3277 36.8807 12.3268C36.9807 12.3259 37.0794 12.3051 37.1713 12.2656C37.2631 12.2261 37.3462 12.1687 37.4156 12.0967L37.8944 11.6189C38.6248 12.4426 39.2512 13.3529 39.7596 14.3293C40.654 16.0459 41.1479 17.9733 41.2604 19.9288H39.8399C39.6402 19.9288 39.4487 20.0081 39.3075 20.1493C39.1663 20.2905 39.087 20.482 39.087 20.6817C39.087 20.8814 39.1663 21.0729 39.3075 21.2141C39.4487 21.3553 39.6402 21.4346 39.8399 21.4346H41.2774C41.17 23.9011 40.4523 26.3374 39.1392 28.3813C38.7035 29.0519 38.1876 29.6813 37.6264 30.2756L36.8916 29.5408C36.8226 29.4668 36.7395 29.4075 36.6472 29.3663C36.5548 29.3252 36.4551 29.303 36.354 29.3012C36.2529 29.2995 36.1525 29.3181 36.0588 29.3559C35.965 29.3938 35.8799 29.4502 35.8084 29.5216C35.7369 29.5931 35.6805 29.6783 35.6427 29.772C35.6048 29.8658 35.5862 29.9662 35.588 30.0673C35.5898 30.1684 35.6119 30.2681 35.653 30.3604C35.6942 30.4528 35.7535 30.5359 35.8275 30.6048L36.5362 31.3146C34.0627 33.4307 31.271 34.4506 28.3718 34.551V33.3424C28.3718 32.3455 26.8661 32.3455 26.8661 33.3424V34.5239C23.6176 34.2709 20.612 32.8374 18.3333 30.8116L20.5819 29.1804C20.7437 29.0631 20.8522 28.8864 20.8836 28.6891C20.9151 28.4918 20.8668 28.2901 20.7496 28.1283C20.6323 27.9666 20.4556 27.8581 20.2583 27.8266C20.061 27.7952 19.8593 27.8434 19.6975 27.9607L17.3204 29.6843C17.2973 29.7014 17.2842 29.7275 17.2632 29.7465C17.0624 29.5257 16.8586 29.3059 16.6739 29.074C14.889 26.8273 13.9043 24.2133 13.7537 21.4346Z" fill="#63AB45"/>
<path d="M9.29159 14.9045C9.48102 14.9674 9.68768 14.9525 9.86613 14.8631C10.0446 14.7737 10.1802 14.617 10.2432 14.4276C12.6174 7.29223 19.7929 1.86538 27.3058 1.52507C34.6079 1.20383 42.0595 5.70914 45.2196 12.3205L44.6233 12.694C43.8544 13.1758 43.9507 14.3132 44.7789 14.6676C45.6352 15.033 46.8639 15.8009 47.4311 16.1051C47.5247 16.1549 47.6277 16.1844 47.7335 16.1917C47.8393 16.199 47.9454 16.1838 48.0449 16.1472C48.1444 16.1107 48.235 16.0535 48.3109 15.9794C48.3868 15.9054 48.4462 15.8162 48.4852 15.7176C48.8978 14.6736 48.7562 13.3254 48.8767 12.1589C48.973 11.2304 47.9652 10.6019 47.1771 11.0948L46.5036 11.5165C43.0172 4.35695 35.2473 -0.366199 27.2365 0.0222936C18.9949 0.394724 11.4188 6.12273 8.81376 13.9528C8.75085 14.1422 8.76575 14.3489 8.85516 14.5274C8.94458 14.7058 9.10119 14.8415 9.29059 14.9045H9.29159ZM45.7215 18.8938C45.5077 19.3646 45.5007 19.8836 45.7015 20.3193C46.1171 21.2217 47.4883 20.5953 47.0687 19.6889C47.0557 19.6587 47.0567 19.5925 47.0928 19.5142C47.3117 19.0263 48.2422 19.3315 48.3205 20.9266C48.4079 22.7165 47.4833 24.5174 46.0217 25.4118C45.861 25.5091 45.7425 25.6629 45.6894 25.8431C45.6363 26.0232 45.6524 26.2167 45.7347 26.3856C45.8169 26.5544 45.9593 26.6865 46.1338 26.7557C46.3084 26.825 46.5026 26.8265 46.6782 26.76C47.9657 26.2798 49.3496 26.1156 50.7137 26.2812C50.9112 26.3029 51.1093 26.2468 51.266 26.1248C51.4227 26.0028 51.5257 25.8244 51.553 25.6277C51.5777 25.4296 51.5227 25.2298 51.4001 25.0723C51.2776 24.9147 51.0975 24.8123 50.8994 24.7874C50.19 24.6994 49.4731 24.6883 48.7612 24.7543C49.494 23.6109 49.8916 22.2276 49.8253 20.8533C49.6587 17.4703 46.5688 17.0126 45.7215 18.8938ZM52.8329 23.3057C53.5275 23.0106 54.4069 22.6864 55.3224 22.5488C55.2582 23.3951 55.1618 24.2393 55.0163 25.0745C54.8426 26.0563 56.3273 26.3153 56.499 25.3356C56.8704 23.2094 56.9939 21.037 56.8634 18.8787C56.8437 18.685 56.7499 18.5063 56.6014 18.3802C56.453 18.2541 56.2615 18.1903 56.0671 18.2022C55.8727 18.2142 55.6904 18.3009 55.5585 18.4442C55.4266 18.5876 55.3553 18.7764 55.3596 18.9711C55.4007 19.6527 55.4058 20.3353 55.3937 21.017C54.6537 21.1048 53.9264 21.2783 53.2264 21.5339L53.0136 18.0827C52.9493 17.0688 51.4496 17.1933 51.5098 18.175L51.7859 22.6593C51.7937 22.7795 51.8301 22.896 51.8922 22.9993C51.9542 23.1025 52.0401 23.1894 52.1426 23.2527C52.245 23.3159 52.3612 23.3538 52.4813 23.363C52.6014 23.3722 52.7219 23.3526 52.8329 23.3057Z" fill="#63AB45"/>
</g>
<defs>
<clipPath id="clip0_954_194">
<rect width="65" height="65" fill="white"/>
</clipPath>
</defs>
</svg>
