<svg width="65" height="65" viewBox="0 0 65 65" fill="none" xmlns="http://www.w3.org/2000/svg">
<path d="M58.8009 21.2811C57.8248 21.163 54.6312 21.2768 53.6313 21.2421C52.4006 21.241 49.3044 21.2269 48.1052 21.2269L47.1843 21.2248C46.6026 21.2768 46.2787 20.7763 46.4943 20.2801C46.6004 19.9789 47.1768 18.4644 47.2959 18.121C48.7292 14.2665 50.9879 8.15976 52.4342 4.3096C52.6346 3.7636 52.9195 3.07785 53.0972 2.51668C53.3312 1.61643 52.6303 0.60568 51.6693 0.548264L36.8894 0.386847C35.0759 0.350014 28.6886 0.240597 26.9888 0.204847C26.6531 0.183715 26.3174 0.248289 26.0135 0.3925C25.7095 0.536712 25.4472 0.755828 25.2512 1.02926C24.9771 1.36835 24.9208 1.8396 24.8157 2.22093C24.7214 2.58493 24.5232 3.46135 24.3618 4.15035C24.0807 4.13264 23.8118 4.02902 23.5915 3.85351C22.0597 2.60876 20.5918 1.57851 18.7436 3.03018C18.0026 3.5231 17.6234 4.17093 16.7968 4.28793C15.8608 4.3356 14.9205 3.94885 13.822 4.18068C13.1612 4.29335 12.5123 4.86535 12.2252 5.43301C11.7485 6.23901 11.6261 7.24868 11.1104 7.86185C10.5395 8.40893 9.50709 8.58118 8.73793 9.07301C7.53976 9.6591 7.38701 11.1649 7.65243 12.2526C7.78893 13.1561 8.01209 13.7963 7.43793 14.5688C5.48684 16.9889 5.50309 17.7028 7.49968 20.0613C8.10851 20.8163 7.92218 21.5346 7.79868 22.4424C7.17901 25.6762 9.54284 25.3642 11.3173 26.6035C11.8493 27.1365 12.0161 28.1418 12.5285 29.0616C13.0225 30.1698 14.4471 30.3237 15.4752 30.0973C16.3841 29.9705 17.1208 29.7853 17.8791 30.3973L18.4955 30.8783L17.8011 33.8521L17.7112 34.241C17.3721 35.5128 18.5269 36.8616 19.7955 36.802C19.8107 36.7934 26.5089 36.8453 26.8242 36.8193C27.7028 36.8226 33.5549 36.8269 34.2894 36.8334C34.2905 36.7738 33.4152 39.7205 33.4108 39.7162L26.2825 63.673C26.2238 63.8602 26.2326 64.062 26.3073 64.2434C26.3821 64.4248 26.5181 64.5742 26.6916 64.6657C26.8651 64.7572 27.0653 64.7849 27.2572 64.7441C27.449 64.7032 27.6205 64.5964 27.7418 64.4422C33.6979 56.7928 49.1484 36.9743 54.9627 29.6076L59.5235 23.8215C60.3122 23.048 59.9113 21.5227 58.802 21.2843L58.8009 21.2811ZM15.343 29.21C14.4937 29.3335 13.7245 29.4668 13.2673 28.6228C12.8113 27.9035 12.7116 26.8895 11.9251 25.9914C11.0368 25.1876 10.0173 25.0814 9.30451 24.6297C8.46709 24.1714 8.61118 23.4228 8.73143 22.5778C8.93509 21.6072 9.02609 20.3267 8.30351 19.486C7.72176 18.6757 6.99809 17.9618 7.01868 17.3334C7.08584 16.2696 9.07051 15.0129 8.99684 13.6057C9.05209 12.6556 8.70759 11.6925 8.85276 10.8681C8.92209 10.5821 9.07051 10.4239 9.41501 10.2257C10.2806 9.7566 11.274 9.66018 12.132 8.88343C12.9283 8.05901 13.0756 7.05585 13.5707 6.22276C13.7819 5.89776 13.9119 5.80893 14.1503 5.7656C14.9606 5.67676 15.889 6.04618 16.8651 6.02126C17.9809 6.06135 19.0296 5.1026 19.8128 4.52735C20.8918 3.6466 21.5007 4.85018 22.4529 5.45251C23.3413 6.25635 24.8861 6.24118 25.9066 6.02668C26.4688 5.97685 26.8404 5.87176 27.1481 6.08301C27.8447 6.98543 27.8111 8.14785 28.7753 9.14126C29.7611 10.1033 30.9138 10.0968 31.8086 10.7901C32.1217 11.5777 31.6288 12.6003 31.7241 13.6252C31.6526 15.1083 33.3404 16.1753 33.6958 17.3356C33.7077 17.4699 33.608 17.7581 33.3718 18.0928C32.9862 18.6031 32.3308 19.4427 32.074 20.0461C31.554 21.2475 32.2278 22.6667 32.1271 23.7619C31.9808 24.3957 31.1293 24.5733 30.4934 24.8756C30.0384 25.0771 29.5163 25.2894 29.0223 25.7748C28.2423 26.6393 28.1523 27.6262 27.6898 28.5026C27.2803 29.2956 26.6606 29.132 25.8448 29.0562C25.1233 28.963 24.1841 28.8016 23.4225 29.1396C22.4139 29.5643 21.4162 30.9108 20.582 30.9228C19.9342 30.9477 19.2148 30.2218 18.411 29.6401C17.5747 28.9229 16.3104 29.0096 15.3419 29.2122L15.343 29.21ZM53.1633 30.3291C52.5727 29.9255 51.9674 29.5439 51.3487 29.1851C50.0779 28.4475 48.7906 27.7388 47.4877 27.0596C46.465 26.5277 45.4337 26.0131 44.3969 25.5083C43.3807 25.0077 42.3492 24.5388 41.304 24.1021C41.2479 24.0793 41.1908 24.0591 41.1328 24.0414C41.0777 24.0255 41.019 24.0277 40.9652 24.0475C40.9114 24.0674 40.8654 24.104 40.8338 24.1519C40.7993 24.2042 40.7848 24.2671 40.7929 24.3292C40.8011 24.3913 40.8314 24.4484 40.8783 24.4899C40.9422 24.5441 41.0126 24.5972 41.0895 24.6459C42.9984 25.8394 44.9528 26.9586 46.9482 28.001L47.0663 28.0628C48.0824 28.5936 49.1083 29.106 50.144 29.6C51.0161 30.0149 51.9001 30.4093 52.7863 30.7971L51.4776 32.4243C49.2676 31.1091 46.9839 29.9434 44.7035 28.7691C42.2649 27.5828 39.8339 26.3793 37.3119 25.3598C37.2468 25.3347 37.1747 25.3347 37.1096 25.3598C37.0445 25.385 36.9911 25.4335 36.9599 25.4958C36.9286 25.5582 36.9217 25.63 36.9405 25.6972C36.9594 25.7644 37.0026 25.8222 37.0617 25.8593C39.4038 27.2309 41.7902 28.5255 44.2171 29.7408C46.4733 30.8679 48.7631 31.9264 51.0833 32.915L48.8364 35.7035C48.2891 35.3134 47.7268 34.9448 47.1508 34.5985C45.9027 33.8605 44.6351 33.1561 43.3493 32.486C41.5965 31.5825 39.8426 30.6823 38.0063 29.9272C37.9067 29.886 37.7908 29.9088 37.7279 29.9824C37.6532 30.0702 37.6662 30.1883 37.7409 30.2446C38.8394 31.0744 40.5218 32.1274 42.3213 33.1252C42.6062 33.2833 42.8943 33.4361 43.1836 33.5899C44.3073 34.1851 45.4428 34.7576 46.5896 35.307C47.2537 35.6266 47.8755 35.9104 48.4627 36.165L46.2418 38.9156C45.9554 38.6671 45.6552 38.4349 45.3427 38.2201C44.5432 37.6665 43.6353 37.1335 42.942 36.7186C42.8033 36.6352 42.6842 36.5615 42.5867 36.5063C41.3083 35.7739 40.0192 35.0622 38.6466 34.4815C38.5729 34.4501 38.4884 34.4468 38.4343 34.4772C38.366 34.5162 38.3508 34.5833 38.366 34.6169C38.5838 35.0958 39.913 36.0968 41.4578 37.0468C42.4944 37.6667 43.5489 38.2559 44.6201 38.8138C45.0697 39.0499 45.4792 39.2547 45.8356 39.4204L43.7686 41.9771C43.7274 41.9403 43.6884 41.9034 43.6451 41.8666C42.9843 41.2968 42.0981 40.6933 41.9356 40.5503C41.0733 39.987 40.2207 39.4085 39.2511 38.9979C38.2945 39.0359 39.3453 40.0141 40.7038 40.9934C41.3831 41.4831 42.1393 41.9728 42.7589 42.3443C42.9344 42.4494 43.0948 42.5426 43.2443 42.626C38.3303 48.7035 33.0371 55.2371 29.2248 59.9398L35.4486 40.3456C35.7487 39.3836 36.1311 38.245 36.3987 37.2592C36.7139 35.9527 35.5537 34.5985 34.2396 34.6722C33.9818 34.6657 33.3383 34.683 33.0685 34.6743L26.8209 34.6841C26.4082 34.6613 19.8399 34.735 19.7067 34.6841C19.7067 34.6841 19.7013 34.6776 19.7023 34.6614L19.7782 34.2876L20.27 31.8707C21.3696 32.0343 22.324 31.2467 23.3369 30.4634C24.1115 29.8871 24.7626 30.1103 25.6672 30.2489C27.8458 30.7516 28.811 29.7311 29.4935 27.7908C30.0222 25.9665 32.1379 26.4421 33.2711 25.0944C33.933 24.3794 33.8713 23.1401 33.7499 22.3818C33.6524 21.5303 33.4715 20.9398 34.0088 20.3007C34.6523 19.4188 35.5645 18.7201 35.6328 17.3334C35.623 16.4993 35.246 15.8948 34.9438 15.4506L34.0901 14.3077C33.608 13.6642 33.8333 13.1518 33.9482 12.3133C34.1128 11.5376 34.1746 10.1704 33.4737 9.40235C32.6937 8.38835 31.1369 8.2291 30.3125 7.60185C29.851 7.0656 29.6712 6.0516 29.1815 5.28893C28.8598 4.68118 28.1068 4.0561 27.3908 3.95318C27.0465 3.89227 26.6956 3.8777 26.3475 3.90985L26.4266 3.51443C26.5057 3.19376 26.6324 2.34768 26.7256 2.0606C26.7375 2.03789 26.7543 2.01808 26.7747 2.00254C26.7951 1.98701 26.8186 1.97613 26.8437 1.97068L27.6746 1.95226C33.4563 1.81468 45.6644 1.6836 51.5751 1.6316C51.8817 1.63485 52.1373 1.97176 52.0658 2.28918C50.9912 5.39185 48.8213 11.2093 47.6968 14.3456L46.4336 17.8068C46.3079 18.1405 45.7619 19.6626 45.6438 19.9703C45.1661 20.9886 46.0902 22.2463 47.1789 22.112L48.8765 22.1066C50.0348 22.9905 51.2386 23.8132 52.4829 24.5712C53.1533 24.9778 53.835 25.3654 54.5272 25.7336C55.071 26.0228 55.6268 26.2904 56.1847 26.5558L54.863 28.2058C54.4252 27.8627 53.9688 27.544 53.4958 27.2513C52.4343 26.592 51.3568 25.9588 50.2643 25.3523C49.4175 24.8838 48.5622 24.4309 47.6989 23.9938C46.8468 23.5525 45.9785 23.1435 45.0957 22.7674C45.0489 22.7476 44.9997 22.7338 44.9494 22.7263C44.9016 22.7191 44.8526 22.7253 44.8081 22.7442C44.7635 22.7632 44.7251 22.7941 44.697 22.8335C44.6663 22.8755 44.6493 22.9259 44.6484 22.9778C44.6474 23.0298 44.6625 23.0808 44.6916 23.1238C44.7332 23.1843 44.7853 23.2367 44.8454 23.2788C46.4067 24.3514 48.0187 25.3482 49.676 26.2655L49.7735 26.3197C50.6169 26.7889 51.4708 27.2389 52.3345 27.6695C53.0419 28.0227 53.7623 28.3531 54.4838 28.6803L54.2141 29.0161L53.1589 30.3323L53.1633 30.3291ZM58.8258 23.2636L56.6028 26.0369C56.3 25.7772 55.9824 25.5353 55.6517 25.3122C54.5759 24.5712 53.2326 23.7966 53.0506 23.6395C52.3724 23.2463 51.6975 22.8498 51.0096 22.4738C50.7745 22.3449 50.5362 22.2236 50.2989 22.1001C52.6758 22.0936 55.2259 22.0893 57.3146 22.0958C57.5085 22.1066 58.4423 22.0752 58.5853 22.1239C59.0718 22.2767 59.2462 22.8584 58.8258 23.2636Z" fill="white"/>
<path d="M19.3869 13.0001C19.6176 8.84442 13.37 8.92133 13.565 13.0001C13.8456 16.4884 19.1117 16.5523 19.3869 13.0001ZM17.4466 13.0001C17.7012 15.2458 14.4479 15.2068 14.6018 13.0001C14.9441 11.2017 17.0869 11.5018 17.4466 13.0001ZM22.2317 21.6667C22.5123 25.1551 27.7784 25.219 28.0535 21.6667C28.2843 17.5111 22.0367 17.588 22.2317 21.6667ZM26.1144 21.6667C26.3689 23.9125 23.1157 23.8735 23.2695 21.6667C23.6119 19.8684 25.7547 20.1685 26.1144 21.6667ZM25.3766 11.2927L14.4014 21.9842C13.3776 22.9938 14.9289 24.5354 15.9332 23.516L26.6246 12.5408C27.4187 11.7196 26.1913 10.5019 25.3766 11.2927Z" fill="white"/>
</svg>
