<svg width="65" height="65" viewBox="0 0 65 65" fill="none" xmlns="http://www.w3.org/2000/svg">
<path d="M7.37071 47.6592C11.7765 49.8458 5.43391 62.5178 11.9857 62.8316C70.503 61.9378 57.767 73.6663 58.7065 15.0972C58.7227 12.9217 56.6275 11.7599 54.642 12.0503C55.3234 8.21331 51.4163 7.63948 48.5482 7.98784C50.2291 -0.314892 36.7101 -0.309814 38.392 7.98784H35.3451C37.0259 -0.314892 23.507 -0.309814 25.1888 7.98784H22.142C23.8228 -0.314892 10.3038 -0.309814 11.9857 7.98784C9.65383 7.87003 5.84117 7.73597 5.89196 11.0347C6.44039 12.7349 4.44063 47.8359 7.37071 47.6592ZM56.7037 15.536C56.7727 16.4072 56.7683 17.2827 56.6905 18.1532C55.881 17.9501 55.2483 18.6783 54.642 19.1039V18.0415C57.0073 17.9867 57.4248 15.2282 54.642 16.6501V16.3231C55.3958 16.2883 56.1185 16.0124 56.7037 15.536ZM54.642 20.0342C55.3494 19.9649 56.0296 19.7255 56.6245 19.3364C56.5994 19.617 56.6162 19.8997 56.6742 20.1753H54.643L54.642 20.0342ZM55.6576 14.0826C55.8265 14.0679 55.9955 14.1086 56.1393 14.1983C56.2831 14.2881 56.3938 14.4221 56.4548 14.5803C55.7988 14.4076 55.165 14.9845 54.643 15.3217V14.0826H55.6576ZM54.642 22.2076H56.6732C56.1156 76.4257 65.2735 57.856 11.9847 60.8024C9.91992 61.106 11.3916 52.133 10.9711 51.2677C13.0602 52.7617 17.203 58.9814 20.1117 58.7701C64.4072 58.7102 53.6223 64.9553 54.643 22.2076H54.642ZM14.017 46.5826H20.1107V52.6764H18.0795C18.4684 49.8824 17.3238 46.54 14.017 46.5826ZM16.0482 53.4736L11.1884 48.6128C15.5729 48.2076 16.3966 49.1511 16.0492 53.4736H16.0482ZM40.4232 5.95659C40.4232 3.48558 43.8306 3.68565 45.4607 4.13355C40.931 6.19019 42.4565 8.28034 46.4103 5.58386C46.4933 5.96664 46.5409 6.35625 46.5525 6.74776C44.1597 7.34698 43.2213 9.75605 46.5403 8.11683C46.523 8.52917 46.5027 8.92628 46.4956 9.27667C45.3551 9.59456 44.8574 11.0164 46.4702 10.5086C46.1351 12.1935 43.8804 12.1336 42.4545 12.0503C39.5376 12.1235 40.6111 7.66995 40.4232 5.95659ZM27.2201 5.95659C27.1937 3.45917 31.0673 3.5069 32.5643 4.34378C28.6755 5.56761 29.5946 8.32503 33.194 5.53206C33.2929 5.96886 33.3463 6.41473 33.3534 6.86253C32.872 7.09206 32.1479 7.18651 31.9945 7.79487C30.1126 8.6998 30.9495 10.1948 32.6009 8.8105C32.8438 8.85586 33.0949 8.81604 33.3118 8.69776C33.2986 9.03292 33.2874 9.34573 33.2925 9.61894C31.7305 9.97847 30.5341 12.3957 33.0061 11.1403C32.2911 12.1742 30.4691 12.1214 29.2513 12.0503C26.3345 12.1235 27.408 7.66995 27.2201 5.95659ZM14.017 5.95659C13.954 3.43276 18.3435 3.32714 19.6039 4.60987C15.2855 5.80323 16.1508 9.13651 20.064 5.87534C20.1253 6.28821 20.1552 6.70514 20.1534 7.12253C17.5676 7.97769 16.8191 10.8113 20.128 8.26511C20.1097 8.6744 20.0924 9.05831 20.0894 9.39956C19.1956 9.65956 18.4695 11.4227 19.9279 10.924C19.3277 12.1814 17.3452 12.1255 16.0482 12.0514C13.1313 12.1235 14.2048 7.66995 14.017 5.95761V5.95659ZM7.92321 11.0347C7.85516 9.36909 11.094 10.2131 11.9857 10.0191C11.9095 15.6091 22.2191 15.6091 22.142 10.0191H25.1888C25.1127 15.6091 35.4223 15.6091 35.3451 10.0191H38.392C38.3158 15.6091 48.6254 15.6091 48.5482 10.0191C54.2784 9.20964 52.2918 12.2352 52.6107 16.1128C38.0345 15.8904 22.4182 17.165 7.92321 16.1128V11.0347ZM52.6107 18.1441C50.1793 64.1925 65.3995 56.2402 20.1117 56.7378C19.5731 56.7376 19.0566 56.5235 18.6757 56.1426C18.2948 55.7617 18.0807 55.2452 18.0805 54.7066C23.6258 55.9751 21.9094 49.7737 22.143 46.5816C22.2801 43.2473 15.8014 44.9393 14.018 44.5503C13.4794 44.5509 12.9631 44.7651 12.5823 45.1459C12.2014 45.5267 11.9873 46.043 11.9867 46.5816C10.4318 46.6659 7.88969 46.7461 7.92422 44.5503V18.1441H52.6107Z" fill="#D2D234"/>
<path d="M11.9847 22.1894C12.3716 24.3821 10.9162 28.5564 13.1658 29.6502C15.8979 29.2449 21.5285 31.0132 22.2841 27.4097C22.0617 24.9113 22.3552 19.5071 18.7152 19.9428C17.1664 20.3288 9.43341 19.1811 11.9847 22.1894ZM14.9158 21.902C20.847 20.8274 21.2289 21.5049 20.4448 27.4879C18.3744 27.8418 16.2675 27.9326 14.1743 27.7581C13.9854 25.8416 13.8321 23.9596 13.5365 22.0533C13.9976 21.9812 14.475 21.9517 14.9158 21.902ZM25.9231 21.6775C26.0358 23.6275 24.3438 29.0916 27.0098 29.315C29.7418 28.3563 33.2783 29.9082 35.6172 28.469C35.6903 25.622 35.1662 22.7913 34.0786 20.1592C31.7162 19.1486 28.8786 20.3369 26.3619 19.8565C26.1477 19.8605 25.941 19.9354 25.774 20.0695C25.607 20.2036 25.4891 20.3893 25.439 20.5975C25.3888 20.8057 25.4091 21.0247 25.4967 21.2201C25.5843 21.4156 25.7343 21.5764 25.9231 21.6775ZM28.3433 21.4399C29.9871 21.2457 31.6404 21.1423 33.2955 21.1301C33.5626 23.0689 33.6307 25.0596 33.8297 27.0146C31.8023 26.8081 29.7576 26.8415 27.738 27.1142C27.7196 25.2772 27.547 23.445 27.2221 21.6369C27.5909 21.5457 27.9655 21.4799 28.3433 21.4399ZM39.2085 27.5935C38.5443 31.524 45.9522 29.5821 48.274 29.3912C49.8147 27.7195 49.1149 20.9249 47.2756 19.6635C39.3192 18.3321 37.9054 19.7153 39.2085 27.5935ZM41.4175 28.4284L41.4784 28.534C41.4378 28.6427 41.4175 28.6021 41.4175 28.4284ZM40.8467 21.4582C42.8097 21.1297 44.8026 21.0167 46.7901 21.121C47.1293 23.3 47.2278 25.5098 47.0836 27.7103C45.1743 27.8048 43.272 27.8444 41.3606 27.9064C41.0661 25.7451 40.541 23.6306 40.3907 21.451C40.5417 21.4777 40.6949 21.4801 40.8467 21.4582ZM21.5254 32.1222C19.6618 31.72 13.0094 30.9786 12.8693 33.4801C12.8053 35.4596 11.5469 41.7331 14.0911 42.1271C16.2545 41.7353 18.4442 41.5054 20.6419 41.4396C23.8004 40.2391 23.6583 34.1707 21.5254 32.1222ZM20.8419 37.3527C20.7549 37.9517 20.6076 38.5404 20.4022 39.1097C20.4062 39.1026 20.2925 39.2925 20.3514 39.2042C18.635 39.7607 16.5062 39.3118 14.6933 39.9222C14.5815 37.9884 14.3727 36.0613 14.0677 34.1484C17.6711 33.7746 22.0302 31.7657 20.8419 37.3527ZM48.1358 31.0782C46.5291 30.9289 40.0515 30.2108 41.0417 32.9489C39.6665 34.5658 40.3795 37.5446 40.1723 39.6135C40.4963 42.4816 44.1475 40.8495 46.0345 40.95C47.5661 40.9673 49.4226 40.5824 49.5069 38.7289C49.6847 36.3696 50.5713 32.4421 48.1358 31.0782ZM47.6382 32.8453H47.6483C47.8515 32.826 47.6605 32.9195 47.6382 32.8453ZM42.2543 39.3961C42.2635 39.4307 42.2889 39.391 42.2543 39.3961V39.3961ZM47.7255 36.1289C47.6801 36.9876 47.5518 37.8399 47.3426 38.674C45.6521 38.8637 43.9568 39.0069 42.2584 39.1036C42.0705 37.1749 42.4463 35.0279 41.6693 33.2333C43.6061 33.2739 45.6587 32.6757 47.6229 32.8464C47.7754 33.9336 47.8105 35.0342 47.7255 36.1289ZM36.1758 44.6439C27.8335 42.6157 25.8408 44.5067 26.7681 52.8846C26.9306 56.6993 31.9031 54.861 34.3335 54.8773C36.5384 55.1109 37.1772 53.0959 36.9376 51.2627C36.5597 49.1634 38.1187 46.083 36.1758 44.6439ZM28.6958 53.0532C28.7207 53.0501 28.746 53.0549 28.768 53.0669C28.7901 53.079 28.8078 53.0976 28.8186 53.1203C28.7805 53.0931 28.7392 53.0706 28.6958 53.0532ZM35.0099 52.908C34.9408 52.9537 34.9815 53.0014 35.0099 52.908V52.908ZM35.6243 46.9575C35.4916 48.9428 35.2884 50.9228 35.015 52.8938C33.0101 52.9608 30.8986 53.5641 28.9222 53.1853C28.9425 50.729 28.7293 48.2764 28.2854 45.8606C29.9541 46.1419 35.8904 44.5159 35.6243 46.9575ZM45.8588 44.0639C44.6624 44.3676 39.8808 43.4972 41.259 45.7021C40.5156 48.1539 40.1896 52.3443 42.2036 54.1369C45.0838 54.5596 48.0194 54.4031 50.8384 53.6768C52.0978 49.206 52.5365 42.314 45.8588 44.0639ZM49.8421 45.1842C50.6282 47.2814 50.0066 50.2125 49.7608 52.52C47.5711 52.1473 45.3459 52.8237 43.1501 52.4692C42.5769 50.2841 42.2989 48.0321 42.3234 45.7732C44.8178 45.6057 47.3508 44.7891 49.8421 45.1842ZM28.0488 32.2035C28.0421 32.2318 28.0384 32.2607 28.0376 32.2898L28.0488 32.2035ZM28.0366 32.3101C28.0322 32.3326 28.0288 32.3553 28.0265 32.3782L28.0366 32.3101Z" fill="#D2D234"/>
<path d="M25.573 34.3199C26.3753 34.585 29.0078 32.1658 27.6215 31.5777C26.5144 31.4365 24.7371 33.35 25.573 34.3199ZM25.4572 38.1082C27.2985 39.7068 26.0665 36.4974 26.0808 35.5488C25.0895 34.1716 24.8387 37.5313 25.4572 38.1082ZM28.4878 39.6316C26.6942 37.9254 26.8526 40.5965 28.2258 41.2353C29.7807 42.5251 31.9399 40.6737 29.2912 40.0297L29.4811 40.111C29.1333 39.9875 28.801 39.8268 28.4878 39.6316Z" fill="#D2D234"/>
<path d="M31.3798 41.5888C32.8109 42.3668 36.59 39.9811 33.862 39.3687C33.0881 39.7465 29.8513 40.5123 31.3798 41.5888ZM37.4452 36.8926C36.3503 36.7311 35.7897 38.3419 35.3398 39.1076C35.8435 40.9622 38.8934 37.7122 37.4452 36.8926ZM31.4834 31.7139C34.8675 32.7468 34.9376 29.9721 31.6327 30.0848C28.8936 29.9234 28.5087 31.6144 31.4834 31.7139Z" fill="#D2D234"/>
<path d="M35.0894 31.8764C35.1478 32.4927 35.3655 33.0831 35.7211 33.5898L35.5962 33.4273C35.783 33.6994 35.975 34.0458 36.3559 34.0153C35.0579 35.0584 34.0443 36.9911 32.8388 34.7364C30.7334 32.1029 31.3052 35.9897 32.3766 37.0368C35.9679 41.7899 46.1627 24.9255 37.0526 33.3755C37.3644 32.4055 35.7627 30.4271 35.0894 31.8764Z" fill="#D2D234"/>
</svg>
