<svg width="70" height="21" viewBox="0 0 70 21" fill="none" xmlns="http://www.w3.org/2000/svg">
<g clip-path="url(#clip0_2652_25)">
<mask id="mask0_2652_25" style="mask-type:alpha" maskUnits="userSpaceOnUse" x="0" y="0" width="70" height="21">
<path d="M70 0H0V21H70V0Z" fill="#D9D9D9"/>
</mask>
<g mask="url(#mask0_2652_25)">
<path d="M18.1345 7.5401H10.5371V9.73803H15.9256C15.6586 12.8146 13.0293 14.1352 10.5462 14.1352C9.75953 14.1386 8.98011 13.9891 8.25336 13.6956C7.52661 13.402 6.86713 12.9703 6.3134 12.4254C5.75968 11.8806 5.32282 11.2338 5.02832 10.5226C4.73382 9.81135 4.58758 9.0501 4.59814 8.28321C4.59814 4.95578 7.24024 2.39394 10.5535 2.39394C13.1094 2.39394 14.6156 3.98252 14.6156 3.98252L16.1932 2.38862C16.1932 2.38862 14.1665 0.189453 10.4709 0.189453C5.76506 0.189453 2.12476 4.06179 2.12476 8.24416C2.12476 12.3425 5.54903 16.3391 10.5898 16.3391C15.0239 16.3391 18.2698 13.3773 18.2698 8.99795C18.2698 8.07376 18.1321 7.5401 18.1321 7.5401H18.1345Z" fill="#4885ED"/>
<path d="M24.3585 5.94785C21.2407 5.94785 19.0063 8.32451 19.0063 11.0952C19.0063 13.9079 21.1727 16.3283 24.3949 16.3283C27.3113 16.3283 29.7004 14.1552 29.7004 11.1555C29.7004 7.72399 26.9211 5.94785 24.3585 5.94785ZM24.3888 7.98668C25.9216 7.98668 27.3744 9.19543 27.3744 11.1426C27.3744 13.0476 25.9277 14.2913 24.3815 14.2913C22.6825 14.2913 21.3475 12.9648 21.3475 11.1272C21.3475 9.32852 22.6703 7.98668 24.3937 7.98668H24.3888Z" fill="#DB3236"/>
<path d="M35.9982 5.94785C32.8803 5.94785 30.646 8.32451 30.646 11.0952C30.646 13.9079 32.8124 16.3283 36.0346 16.3283C38.951 16.3283 41.34 14.1552 41.34 11.1555C41.34 7.72399 38.5608 5.94785 35.9982 5.94785ZM36.0285 7.98668C37.5614 7.98668 39.014 9.19543 39.014 11.1426C39.014 13.0476 37.5674 14.2913 36.0213 14.2913C34.3222 14.2913 32.9871 12.9648 32.9871 11.1272C32.9871 9.32852 34.31 7.98668 36.0334 7.98668H36.0285Z" fill="#F4C20D"/>
<path d="M47.4141 5.9541C44.5524 5.9541 42.3035 8.39761 42.3035 11.1405C42.3035 14.2644 44.911 16.3364 47.3643 16.3364C48.8814 16.3364 49.6885 15.7488 50.2771 15.075V16.0985C50.2771 17.8894 49.1618 18.9621 47.4784 18.9621C45.8521 18.9621 45.0366 17.7829 44.7477 17.1144L42.7015 17.9427C43.4272 19.4396 44.8885 20.9997 47.4954 20.9997C50.3475 20.9997 52.5089 19.2526 52.5089 15.5879V6.2659H50.2855V7.14509C49.5999 6.42328 48.6605 5.9541 47.4153 5.9541H47.4141ZM47.6204 7.98938C49.0234 7.98938 50.4639 9.15728 50.4639 11.1518C50.4639 13.1793 49.0258 14.2963 47.5895 14.2963C46.0639 14.2963 44.6445 13.0893 44.6445 11.1706C44.6445 9.17801 46.1191 7.98938 47.6204 7.98938Z" fill="#4885ED"/>
<path d="M62.4461 5.94141C59.7469 5.94141 57.4805 8.03585 57.4805 11.1242C57.4805 14.3937 60.0067 16.3325 62.6992 16.3325C64.9516 16.3325 66.3401 15.1315 67.1592 14.0547L65.3188 12.8608C64.8411 13.5825 64.0426 14.2895 62.7106 14.2895C61.2143 14.2895 60.5261 13.4908 60.0995 12.7158L67.2375 9.82853L66.8734 8.98249C66.1841 7.32587 64.5748 5.94141 62.4461 5.94141ZM62.539 7.93763C63.5117 7.93763 64.2113 8.44172 64.5087 9.04637L59.7415 10.9888C59.5351 9.48483 60.9976 7.93763 62.5329 7.93763H62.539Z" fill="#DB3236"/>
<path d="M54.0723 16.0248H56.417V0.726562H54.0723V16.0248Z" fill="#3CBA54"/>
</g>
</g>
<defs>
<clipPath id="clip0_2652_25">
<rect width="70" height="21" fill="white"/>
</clipPath>
</defs>
</svg>
