<svg width="12" height="12" viewBox="0 0 12 12" fill="none" xmlns="http://www.w3.org/2000/svg">
<g clip-path="url(#clip0_1015_45)">
<path d="M0 6C0 2.6916 2.6916 0 6 0C7.33617 0 8.60086 0.429886 9.65737 1.2432L8.26309 3.0544C7.60983 2.55154 6.82726 2.28571 6 2.28571C3.95194 2.28571 2.28571 3.95194 2.28571 6C2.28571 8.04806 3.95194 9.71429 6 9.71429C7.64954 9.71429 9.05131 8.63354 9.5344 7.14286H6V4.85714H12V6C12 9.3084 9.3084 12 6 12C2.6916 12 0 9.3084 0 6Z" fill="#F3F3F3"/>
</g>
<defs>
<clipPath id="clip0_1015_45">
<rect width="12" height="12" fill="white"/>
</clipPath>
</defs>
</svg>
