<svg width="37" height="25" viewBox="0 0 37 25" fill="none" xmlns="http://www.w3.org/2000/svg">
<rect x="0.429688" width="35.7143" height="25" fill="#253B80"/>
<path fill-rule="evenodd" clip-rule="evenodd" d="M9.74591 9.43848H7.99647C7.87676 9.43848 7.77494 9.5273 7.75627 9.6479L7.04871 14.2274C7.03465 14.3178 7.1032 14.3993 7.19299 14.3993H8.02819C8.14791 14.3993 8.24972 14.3105 8.26839 14.1896L8.45923 12.9545C8.47764 12.8335 8.5797 12.7448 8.69917 12.7448H9.25298C10.4054 12.7448 11.0705 12.1755 11.2442 11.0474C11.3225 10.5539 11.2475 10.1661 11.0211 9.89442C10.7725 9.5963 10.3314 9.43848 9.74591 9.43848ZM9.94775 11.1111C9.8521 11.7519 9.37245 11.7519 8.90868 11.7519H8.64468L8.82989 10.5551C8.84088 10.4828 8.90227 10.4295 8.9739 10.4295H9.0949C9.41082 10.4295 9.70886 10.4295 9.86287 10.6133C9.95461 10.7231 9.98279 10.886 9.94775 11.1111ZM14.9754 11.0905H14.1376C14.0663 11.0905 14.0046 11.1438 13.9936 11.2162L13.9565 11.4554L13.8979 11.3687C13.7166 11.1 13.3122 11.0102 12.9085 11.0102C11.9827 11.0102 11.192 11.726 11.038 12.7301C10.958 13.2308 11.0718 13.7097 11.3501 14.0438C11.6054 14.3508 11.9707 14.4788 12.4053 14.4788C13.1512 14.4788 13.5649 13.9891 13.5649 13.9891L13.5275 14.2268C13.5134 14.3177 13.582 14.3992 13.6712 14.3992H14.4259C14.5459 14.3992 14.6471 14.3103 14.6661 14.1895L15.1189 11.2624C15.1332 11.1724 15.0649 11.0905 14.9754 11.0905ZM13.8076 12.7551C13.7268 13.2436 13.3469 13.5716 12.8625 13.5716C12.6192 13.5716 12.4247 13.492 12.2999 13.341C12.1761 13.1912 12.129 12.9778 12.1684 12.7402C12.2439 12.2557 12.6302 11.9171 13.1073 11.9171C13.3451 11.9171 13.5385 11.9977 13.6659 12.15C13.7935 12.3038 13.8442 12.5185 13.8076 12.7551ZM18.5953 11.0904H19.4372C19.5551 11.0904 19.6239 11.2254 19.5569 11.3241L16.7569 15.45C16.7116 15.5169 16.6369 15.5566 16.5571 15.5566H15.7162C15.5978 15.5566 15.5287 15.4205 15.5973 15.3216L16.4691 14.0653L15.5419 11.2873C15.5098 11.1907 15.5796 11.0904 15.6802 11.0904H16.5075C16.615 11.0904 16.7098 11.1625 16.7408 11.2675L17.2329 12.9453L18.3941 11.1993C18.4395 11.1312 18.5151 11.0904 18.5953 11.0904Z" fill="white"/>
<path fill-rule="evenodd" clip-rule="evenodd" d="M27.727 14.2277L28.4449 9.5644C28.456 9.49201 28.5174 9.43872 28.5888 9.43848H29.3971C29.4863 9.43848 29.5549 9.52017 29.5408 9.61056L28.8327 14.1899C28.8143 14.3107 28.7125 14.3995 28.5926 14.3995H27.8707C27.7814 14.3995 27.7129 14.3181 27.727 14.2277ZM22.2284 9.43872H20.4786C20.3592 9.43872 20.2574 9.52754 20.2387 9.64814L19.5311 14.2277C19.5171 14.3181 19.5856 14.3995 19.675 14.3995H20.5728C20.6562 14.3995 20.7276 14.3374 20.7406 14.2528L20.9414 12.9547C20.9599 12.8337 21.0619 12.745 21.1813 12.745H21.7349C22.8875 12.745 23.5525 12.1757 23.7264 11.0476C23.8048 10.5541 23.7294 10.1663 23.5031 9.89467C23.2546 9.59654 22.8139 9.43872 22.2284 9.43872ZM22.4302 11.1113C22.3348 11.7522 21.8551 11.7522 21.3911 11.7522H21.1274L21.3129 10.5553C21.3239 10.4831 21.3847 10.4298 21.4566 10.4298H21.5776C21.8933 10.4298 22.1916 10.4298 22.3455 10.6136C22.4373 10.7233 22.4653 10.8862 22.4302 11.1113ZM27.4574 11.0908H26.6203C26.5483 11.0908 26.4872 11.1441 26.4764 11.2165L26.4394 11.4556L26.3805 11.369C26.1992 11.1002 25.795 11.0104 25.3914 11.0104C24.4655 11.0104 23.6751 11.7262 23.5211 12.7303C23.4413 13.2311 23.5546 13.71 23.8329 14.044C24.0887 14.3511 24.4536 14.479 24.8881 14.479C25.634 14.479 26.0477 13.9894 26.0477 13.9894L26.0104 14.2271C25.9963 14.318 26.0648 14.3994 26.1547 14.3994H26.909C27.0284 14.3994 27.1302 14.3106 27.1489 14.1897L27.602 11.2626C27.6158 11.1726 27.5473 11.0908 27.4574 11.0908ZM26.2897 12.7553C26.2094 13.2439 25.829 13.5719 25.3445 13.5719C25.1017 13.5719 24.9068 13.4922 24.7819 13.3413C24.6581 13.1914 24.6116 12.978 24.6505 12.7404C24.7264 12.256 25.1122 11.9174 25.5893 11.9174C25.8272 11.9174 26.0205 11.998 26.148 12.1502C26.2761 12.3041 26.3268 12.5187 26.2897 12.7553Z" fill="#179BD7"/>
</svg>
