<svg width="37" height="25" viewBox="0 0 37 25" fill="none" xmlns="http://www.w3.org/2000/svg">
<rect x="0.859375" width="35.7143" height="25" fill="#862165"/>
<path fill-rule="evenodd" clip-rule="evenodd" d="M24.2867 8.15625C23.7092 8.15625 23.2402 8.6325 23.2402 9.21962C23.2402 9.80707 23.7092 10.2823 24.2867 10.2823C24.8651 10.2823 25.3338 9.80707 25.3338 9.21962C25.3338 8.6325 24.8651 8.15625 24.2867 8.15625ZM9.1916 11.7194C8.92327 11.7017 8.30161 11.6606 8.30161 11.0925C8.30161 10.407 9.19602 10.407 9.53167 10.407C10.122 10.407 10.8859 10.5838 11.432 10.7499C11.432 10.7499 11.7361 10.8591 11.9949 10.9703L12.019 10.9772V9.09945L11.9867 9.08943C11.3419 8.86046 10.5934 8.64046 9.20486 8.64046C6.81105 8.64046 5.96289 10.0561 5.96289 11.27C5.96289 11.9691 6.25808 13.6157 8.99877 13.8053L9.00131 13.8055C9.23617 13.8201 9.84863 13.8582 9.84863 14.4432C9.84863 14.9281 9.34361 15.2134 8.49443 15.2134C7.56398 15.2134 6.66073 14.973 6.11253 14.744V16.6774C6.93347 16.8967 7.85917 17.0051 8.94402 17.0051C11.2838 17.0051 12.3326 15.6654 12.3326 14.3372C12.3326 12.8318 11.1596 11.8534 9.1916 11.7194ZM29.3495 16.9163V9.02623L31.4733 8.64046V16.9163H29.3495ZM22.0251 10.7735C20.0632 10.8377 19.0664 11.7322 19.0664 13.5101V16.9154H21.2075V14.138C21.2075 13.0739 21.3449 12.6177 22.5886 12.5742V10.8049C22.3794 10.7597 22.0251 10.7735 22.0251 10.7735ZM23.2285 16.9164V10.8633H25.352V16.9164H23.2285ZM26.2461 9.02639L28.3685 8.64062V16.9165H26.2461V9.02639ZM16.2533 10.885L16.2641 10.8565H18.7704C18.699 11.0882 18.2518 12.4866 17.2323 13.7996C17.2323 13.7996 18.3678 15.8203 18.6273 16.9165H16.0029C16.0029 16.9165 15.6893 15.4612 15.0547 14.4941V16.9165H12.8633V9.08096L15.0547 8.64062V12.9639C15.8313 12.0101 16.1773 11.0876 16.2533 10.885Z" fill="white"/>
</svg>
