<svg width="37" height="25" viewBox="0 0 37 25" fill="none" xmlns="http://www.w3.org/2000/svg">
<rect x="0.714844" width="35.7143" height="25" fill="#6461FC"/>
<path fill-rule="evenodd" clip-rule="evenodd" d="M19.9021 8.4805L18.0879 8.87796V7.37643L19.9021 6.98633V8.4805ZM12.5326 7.84082L10.7689 8.22356L10.7617 14.1193C10.7617 15.2086 11.564 16.0109 12.6338 16.0109C13.2264 16.0109 13.6601 15.9005 13.8986 15.768V14.2739C13.6673 14.3695 12.5253 14.7081 12.5253 13.6188V11.0058H13.8986V9.43804H12.5253L12.5326 7.84082ZM8.2614 10.9087C7.87832 10.9087 7.64702 11.0191 7.64702 11.3062C7.64702 11.6196 8.04508 11.7575 8.53892 11.9285C9.34399 12.2074 10.4036 12.5744 10.4081 13.9339C10.4081 15.2514 9.3745 16.0095 7.87109 16.0095C7.24949 16.0095 6.57006 15.8844 5.89787 15.59V13.8382C6.50501 14.1768 7.27117 14.427 7.87109 14.427C8.27585 14.427 8.56497 14.3166 8.56497 13.9781C8.56497 13.6309 8.13347 13.4722 7.61252 13.2806C6.81916 12.9889 5.81836 12.6208 5.81836 11.3945C5.81836 10.0917 6.79413 9.31152 8.2614 9.31152C8.86132 9.31152 9.45401 9.40721 10.0539 9.6501V11.3798C9.5046 11.078 8.81072 10.9087 8.2614 10.9087ZM16.1437 9.98111L16.028 9.43643H14.4668V15.8768H16.2738V11.5121C16.7002 10.9453 17.423 11.0484 17.6471 11.1293V9.43643C17.4158 9.34811 16.5701 9.18618 16.1437 9.98111ZM18.0879 9.43652H19.9021V15.8769H18.0879V9.43652ZM31.841 12.6846C31.841 10.8003 30.9448 9.31348 29.2318 9.31348C27.5115 9.31348 26.4707 10.8003 26.4707 12.6698C26.4707 14.8853 27.6994 16.0041 29.4631 16.0041C30.3232 16.0041 30.9737 15.8054 31.4652 15.5257V14.0536C30.9737 14.3039 30.4099 14.4584 29.6943 14.4584C28.9932 14.4584 28.3716 14.2082 28.2921 13.3396H31.8266C31.8266 13.2993 31.8291 13.2079 31.8321 13.1025L31.8322 13.1009L31.8322 13.1008V13.1007C31.8362 12.9565 31.841 12.7863 31.841 12.6846ZM28.2715 11.9853C28.2715 11.1536 28.7702 10.8076 29.2256 10.8076C29.6665 10.8076 30.1363 11.1536 30.1363 11.9853H28.2715ZM22.2603 9.88743C22.5133 9.6519 22.9686 9.31331 23.6769 9.31331C24.9418 9.31331 26.1344 10.4763 26.1417 12.6108C26.1417 14.9441 24.9635 16.004 23.6697 16.004C23.0337 16.004 22.6506 15.7316 22.3904 15.5403L22.3831 17.6233L20.5762 18.0134V9.43108H22.1663L22.2603 9.88743ZM22.39 14.0394C22.5635 14.2308 22.8165 14.3854 23.2429 14.3854C23.9079 14.3854 24.356 13.6493 24.356 12.663C24.356 11.6988 23.9007 10.948 23.2429 10.948C22.8309 10.948 22.5707 11.0952 22.3828 11.3087L22.39 14.0394Z" fill="white"/>
</svg>
