<svg width="16" height="10" viewBox="0 0 16 10" fill="none" xmlns="http://www.w3.org/2000/svg">
<path d="M14.1767 3.049L15.3834 1.73614H12.7074C11.3678 0.821039 9.74987 0.288086 8.00015 0.288086C6.25264 0.288086 4.63926 0.822188 3.30182 1.73614H0.619141L1.82585 3.049C1.08619 3.72384 0.622504 4.69593 0.622504 5.77527C0.622504 7.81214 2.27392 9.46353 4.31079 9.46353C5.2784 9.46353 6.15994 9.09035 6.81805 8.48028L8.00018 9.76744L9.1823 8.4814C9.84041 9.09147 10.7208 9.46353 11.6884 9.46353C13.7253 9.46353 15.3789 7.81214 15.3789 5.77527C15.38 4.69481 14.9164 3.72275 14.1767 3.049ZM4.31189 8.27134C2.9331 8.27134 1.81581 7.15405 1.81581 5.77527C1.81581 4.39648 2.93313 3.27916 4.31189 3.27916C5.69065 3.27916 6.80796 4.39648 6.80796 5.77527C6.80796 7.15405 5.69065 8.27134 4.31189 8.27134ZM8.00127 5.70264C8.00127 4.06016 6.80687 2.65012 5.23032 2.04787C6.08283 1.69143 7.01803 1.49367 8.00015 1.49367C8.98227 1.49367 9.91856 1.69143 10.7711 2.04787C9.1957 2.65124 8.00127 4.06019 8.00127 5.70264ZM11.6896 8.27134C10.3108 8.27134 9.19346 7.15405 9.19346 5.77527C9.19346 4.39648 10.3108 3.27916 11.6896 3.27916C13.0683 3.27916 14.1856 4.39648 14.1856 5.77527C14.1856 7.15405 13.0683 8.27134 11.6896 8.27134ZM11.6896 4.46574C10.9666 4.46574 10.3812 5.05122 10.3812 5.77414C10.3812 6.49703 10.9666 7.08252 11.6896 7.08252C12.4125 7.08252 12.9979 6.49703 12.9979 5.77414C12.9979 5.05235 12.4125 4.46574 11.6896 4.46574ZM5.62026 5.77527C5.62026 6.49816 5.03478 7.08364 4.31189 7.08364C3.589 7.08364 3.00351 6.49816 3.00351 5.77527C3.00351 5.05235 3.589 4.46686 4.31189 4.46686C5.03478 4.46574 5.62026 5.05235 5.62026 5.77527Z" fill="#F3F3F3"/>
</svg>
