<svg width="61" height="68" viewBox="0 0 61 68" fill="none" xmlns="http://www.w3.org/2000/svg">
<path d="M53.3466 1.20374C53.173 1.42081 53.0427 1.69576 53.0427 1.84047C53.0427 2.21673 53.6071 2.85347 53.9255 2.85347C54.3596 2.85347 54.2438 3.28761 53.7663 3.44679C53.419 3.57703 53.3322 3.6928 53.3322 4.02564C53.3322 4.34401 53.4045 4.44531 53.6071 4.44531C54.5912 4.44531 55.2134 3.64939 55.2134 2.40486C55.2134 1.36292 54.8516 0.827482 54.1281 0.827482C53.7808 0.827482 53.5637 0.928781 53.3466 1.20374Z" fill="#100C08"/>
<path d="M5.76277 1.17421C5.71934 1.28998 5.70486 1.62282 5.73381 1.92672L5.77724 2.4911L6.83404 2.53452L7.87635 2.57793V5.76162V8.94531L8.78838 8.9019L9.68593 8.85848L9.72936 5.70374L9.75832 2.56346H10.7717H11.785V1.76754V0.971614H8.81733C6.39974 0.971614 5.82067 1.01503 5.76277 1.17421Z" fill="#100C08"/>
<path d="M33.3535 4.95105V8.93066H34.2218H35.0901V4.95105V0.971437H34.2218H33.3535V4.95105Z" fill="#100C08"/>
<path d="M35.9609 4.95105V8.93066H36.7569H37.5528V4.95105V0.971437H36.7569H35.9609V4.95105Z" fill="#100C08"/>
<path d="M16.4457 3.44608C14.9112 4.21306 14.4479 6.38376 15.4757 7.94666C16.1706 9.00307 17.821 9.40827 18.8488 8.786C19.4134 8.43869 19.4568 8.43869 19.4568 8.71364C19.4568 8.87283 19.6305 8.93071 20.1806 8.93071H20.9045V6.10881V3.2869H20.1951C19.7898 3.2869 19.4568 3.35926 19.4279 3.44608C19.3844 3.56185 19.2252 3.54738 18.9212 3.37373C18.2697 3.04089 17.1985 3.0843 16.4457 3.44608ZM18.8198 4.9511C19.312 5.28394 19.5147 5.93515 19.312 6.52847C19.0949 7.17968 18.6751 7.48358 17.9657 7.48358C17.1985 7.48358 16.5615 6.86132 16.5615 6.10881C16.5615 5.03793 17.9368 4.32883 18.8198 4.9511Z" fill="#100C08"/>
<path d="M28.6492 3.41691C27.5924 3.90893 26.9844 4.89298 26.9844 6.10857C26.9844 7.81619 28.2294 9.0752 29.9087 9.0752C30.7338 9.0752 31.6748 8.71341 32.0801 8.2648C32.2249 8.10562 32.4276 7.74383 32.5579 7.43994L32.775 6.9045H31.9643C31.2695 6.9045 31.1102 6.96238 30.8641 7.26628C30.2995 7.97538 28.7216 7.57018 28.7216 6.71637C28.7216 6.4993 28.9387 6.47036 30.7483 6.47036H32.775V5.97833C32.775 5.38501 32.5289 4.64697 32.1525 4.09706C31.53 3.21431 29.8218 2.88147 28.6492 3.41691ZM30.8496 4.79168C31.0668 4.97981 31.2116 5.18241 31.1681 5.2403C31.1102 5.28371 30.5311 5.31265 29.8652 5.28371L28.6492 5.2403L29.0401 4.8351C29.5467 4.3286 30.285 4.29966 30.8496 4.79168Z" fill="#100C08"/>
<path d="M39.6519 3.56169C38.6675 4.12607 38.2188 4.92199 38.2188 6.10864C38.2332 8.16357 39.8401 9.4081 41.9682 9.01737C42.7499 8.85819 43.9225 7.70048 43.9225 7.04927C43.9225 6.97692 43.6041 6.90456 43.1842 6.90456C42.5762 6.90456 42.3735 6.97692 42.0985 7.26634C41.6352 7.77284 40.7232 7.77284 40.231 7.26634C39.5072 6.54278 39.6664 6.47042 41.8958 6.47042H43.9225V5.84815C43.9225 5.13906 43.5317 4.21289 43.0395 3.76428C42.1998 2.9973 40.7811 2.91048 39.6519 3.56169ZM41.7945 4.60362C42.113 4.77728 42.3301 5.00882 42.3301 5.19694C42.3301 5.2693 41.809 5.31272 41.172 5.31272C40.535 5.31272 40.0139 5.25483 40.0139 5.18247C40.0139 4.93646 40.7666 4.44444 41.1286 4.44444C41.3167 4.44444 41.6208 4.51679 41.7945 4.60362Z" fill="#100C08"/>
<path d="M49.4235 3.40244C49.134 3.56162 48.801 3.89446 48.6418 4.21283C48.4102 4.69038 48.3957 4.8351 48.5404 5.32712C48.7286 5.97833 49.2064 6.32564 50.2342 6.61507C50.9436 6.81767 51.2331 7.07815 51.1028 7.41099C50.987 7.72936 50.3355 7.68595 50.1474 7.33864C50.0171 7.1071 49.8433 7.04921 49.2064 7.04921C48.4825 7.04921 48.4102 7.07815 48.4102 7.36758C48.4102 8.2648 49.438 9.0752 50.5817 9.0752C51.8556 9.0752 52.7531 8.2648 52.7531 7.09262C52.7531 6.25329 52.3333 5.80468 51.1607 5.39948C50.4369 5.15347 50.2197 5.02322 50.2197 4.80615C50.2197 4.41543 50.6685 4.37201 50.9725 4.71933C51.1607 4.95087 51.3923 5.02322 51.9135 5.02322C52.5215 5.02322 52.6084 4.97981 52.6084 4.7338C52.6084 3.46032 50.7698 2.70781 49.4235 3.40244Z" fill="#100C08"/>
<path d="M11.3518 6.10876V8.93066H12.2204H13.089V7.04939C13.089 4.93658 13.118 4.87869 14.2327 4.87869H14.8262V4.08277V3.28685H14.2616C13.9142 3.28685 13.5667 3.40262 13.3206 3.59075L12.9442 3.88017V3.59075C12.9442 3.31579 12.8574 3.28685 12.148 3.28685H11.3518V6.10876Z" fill="#100C08"/>
<path d="M21.5398 3.53304C21.5832 3.67775 22.0031 4.93676 22.4663 6.326L23.3204 8.85848L24.2614 8.9019L25.2169 8.94531L26.1578 6.10893L27.0988 3.28703H26.2013H25.2892L24.8115 5.03806C24.5365 6.00763 24.2904 6.71673 24.2469 6.60096C24.218 6.48519 23.9864 5.71821 23.7402 4.87887L23.2915 3.35938L22.3794 3.31597C21.5543 3.27255 21.4674 3.3015 21.5398 3.53304Z" fill="#100C08"/>
<path d="M44.6465 6.09428V8.93066H45.4427H46.2389V7.22305C46.2389 5.13918 46.3547 4.87869 47.3391 4.87869H47.9761V4.08277V3.28685H47.397C47.0062 3.28685 46.7166 3.38815 46.5284 3.57627C46.181 3.92359 46.1231 3.93806 46.1521 3.60522C46.1665 3.40262 46.0218 3.34473 45.4137 3.31579L44.6465 3.27238V6.09428Z" fill="#100C08"/>
<path d="M34.2671 10.841C33.0949 11.4053 33.9921 13.2577 35.1788 12.7078C35.9602 12.3604 35.9458 11.1883 35.1499 10.8265C34.7302 10.6384 34.6868 10.6384 34.2671 10.841Z" fill="#100C08"/>
<path d="M15.8382 11.0864C14.6511 11.4482 13.5509 12.519 13.16 13.7057C12.6244 15.3265 13.16 17.3669 14.405 18.351C15.9106 19.5521 18.3861 19.4942 19.6745 18.2352C20.1812 17.7432 20.7458 16.7447 20.7603 16.3395C20.7603 16.2237 20.4852 16.1658 19.8482 16.1658C18.9941 16.1658 18.9362 16.1803 18.7625 16.5855C18.3716 17.4827 16.9384 17.8734 15.983 17.3525C14.1155 16.325 14.3761 13.2426 16.3883 12.6927C17.4306 12.4177 18.6032 12.9677 18.9217 13.8793C18.9941 14.0964 19.1823 14.1398 19.8917 14.1398C20.9195 14.1398 20.9629 14.0241 20.3983 12.8808C19.964 12.0125 19.2692 11.4337 18.3282 11.1587C17.6333 10.9417 16.4318 10.9127 15.8382 11.0864Z" fill="#100C08"/>
<path d="M21.4412 11.2026C21.3833 11.246 21.3398 13.0405 21.3398 15.1822V19.0605H22.2084H23.077V17.2516C23.077 15.5151 23.0915 15.4138 23.439 15.0809C23.8588 14.6468 24.2352 14.6179 24.6839 14.9941C25.0169 15.2546 25.0314 15.3848 25.0748 17.1648L25.1327 19.0605H25.9145H26.6962V16.8464C26.6962 14.9217 26.6672 14.5889 26.4067 14.1837C25.8421 13.2431 24.5537 12.9826 23.5982 13.6338L23.077 13.9811V12.5485V11.1013H22.3098C21.8755 11.1013 21.4846 11.1447 21.4412 11.2026Z" fill="#100C08"/>
<path d="M47.3965 11.6802C47.3965 11.7525 47.4978 11.8249 47.6136 11.8249C47.7583 11.8249 47.8306 11.9841 47.8306 12.3314C47.8306 12.6063 47.903 12.8379 47.9753 12.8379C48.0622 12.8379 48.1201 12.6063 48.1201 12.3314C48.1201 12.0564 48.1924 11.8249 48.2648 11.8249C48.3516 11.8249 48.4095 11.7525 48.4095 11.6802C48.4095 11.5934 48.1779 11.5355 47.903 11.5355C47.628 11.5355 47.3965 11.5934 47.3965 11.6802Z" fill="#100C08"/>
<path d="M48.5569 12.1865C48.5569 12.8232 48.7595 13.0692 48.8897 12.5772C48.9476 12.3457 48.9621 12.3457 48.9766 12.5772C48.9766 12.7219 49.0489 12.8377 49.1357 12.8377C49.2081 12.8377 49.3383 12.7219 49.4107 12.5772C49.5554 12.3457 49.5554 12.3457 49.5699 12.5772C49.5699 12.7219 49.6422 12.8377 49.7146 12.8377C49.8014 12.8377 49.8593 12.5483 49.8593 12.1865C49.8593 11.434 49.5265 11.2748 49.3528 11.926L49.2515 12.3312L49.0489 11.926C48.745 11.3471 48.5569 11.4484 48.5569 12.1865Z" fill="#100C08"/>
<path d="M29.2573 13.4169C27.2306 14.0536 26.5936 17.0058 28.1571 18.4384C29.3586 19.5383 31.646 19.4225 32.6593 18.2214C33.8464 16.8032 33.4411 14.4733 31.8486 13.6484C31.2117 13.3301 29.8943 13.1998 29.2573 13.4169ZM31.1393 15.0811C31.6025 15.3995 31.8052 16.2388 31.5591 16.8032C31.2985 17.4399 30.98 17.657 30.2996 17.657C29.2573 17.657 28.6493 16.6729 29.0691 15.6599C29.1849 15.3995 29.3876 15.11 29.5468 15.0232C29.9377 14.8061 30.7774 14.8351 31.1393 15.0811Z" fill="#100C08"/>
<path d="M38.0617 13.4455C37.3089 13.7204 36.8746 14.1256 36.4838 14.8926C35.427 17.0054 36.8023 19.1906 39.1764 19.2051C40.1174 19.2051 40.6675 19.0314 41.1452 18.5828C41.4927 18.2644 42.0428 17.3093 42.0428 17.0344C42.0428 16.9476 41.6809 16.8897 41.1887 16.8897C40.4504 16.8897 40.3056 16.9331 40.1174 17.237C39.8423 17.6422 39.1764 17.7724 38.5829 17.5264C38.0472 17.3093 37.8446 16.9331 37.8446 16.195C37.8446 15.0084 39.2922 14.3861 40.074 15.2255C40.3635 15.5294 40.5372 15.5872 41.2321 15.5872C42.0862 15.5872 42.1297 15.5438 41.8836 14.9071C41.4058 13.6191 39.5673 12.9245 38.0617 13.4455Z" fill="#100C08"/>
<path d="M43.9947 13.5468C41.9246 14.473 41.6495 17.4975 43.5025 18.7275C44.3422 19.2775 45.674 19.3643 46.6005 18.9157C47.223 18.6118 47.9758 17.6711 47.9758 17.2081C47.9758 16.9476 46.4413 16.9765 46.34 17.237C46.2097 17.5698 45.3845 17.9316 44.9792 17.8303C44.6028 17.7435 43.9224 17.1502 43.9224 16.9042C43.9224 16.8029 44.7041 16.7305 45.9925 16.716L48.0482 16.6726L47.9903 15.949C47.9469 15.1676 47.5994 14.3717 47.1507 13.9665C46.3834 13.2719 44.9936 13.0837 43.9947 13.5468ZM45.8478 14.7335C46.1662 14.9071 46.3834 15.1387 46.3834 15.3268C46.3834 15.3991 45.8622 15.4426 45.2253 15.4426C44.5883 15.4426 44.0671 15.3847 44.0671 15.3123C44.0671 15.0663 44.8199 14.5743 45.1818 14.5743C45.37 14.5743 45.674 14.6466 45.8478 14.7335Z" fill="#100C08"/>
<path d="M33.9316 16.2386V19.0605H34.7276H35.5235V16.2386V13.4167H34.7276H33.9316V16.2386Z" fill="#100C08"/>
<path d="M27.9973 21.0145C19.6587 22.3314 13.6075 29.7263 13.9984 38.1486C14.3458 45.5 19.3692 51.6793 26.4772 53.5027C30.0964 54.4288 34.1788 54.0526 37.5084 52.4897C42.4305 50.1887 45.8904 45.7171 46.9037 40.3772C47.2512 38.4814 47.1209 35.1096 46.6287 33.1994C45.3258 28.2792 41.7501 24.1404 37.0596 22.1433C34.2077 20.9277 31.0518 20.537 27.9973 21.0145ZM33.3826 23.0405C34.8592 23.3589 35.7133 23.6483 37.0452 24.2995C43.2846 27.3819 46.455 34.3137 44.7467 41.0573C43.4149 46.2381 39.3904 50.2466 34.1064 51.6359C32.3403 52.1134 29.6042 52.1568 27.7077 51.7661C18.3703 49.8414 13.2745 39.8128 17.2846 31.2602C19.2823 27.0057 23.1331 23.9522 27.7077 23.0405C29.0396 22.7656 32.0797 22.7801 33.3826 23.0405Z" fill="#100C08"/>
<path d="M27.3025 30.4205C26.4918 30.6231 25.3916 31.0572 24.5664 31.5058L23.1766 32.2294H21.1789C20.0642 32.2294 19.1666 32.2728 19.1666 32.3162C19.1666 32.3741 19.5575 32.8227 20.0352 33.3292L20.9038 34.2554L20.3682 34.95C19.6878 35.8327 19.3259 36.6576 19.1666 37.6995C18.7758 40.1162 20.18 42.7066 22.4673 43.7775C23.2056 44.1248 23.4662 44.1682 24.8849 44.1682C26.3615 44.1682 26.5352 44.1393 27.2735 43.7485C27.7078 43.5315 28.2 43.2131 28.3738 43.0684C28.6778 42.779 28.6778 42.779 29.6477 43.763L30.6176 44.7471L31.4862 43.7775L32.3548 42.8224L33.0787 43.3144C34.1499 44.038 35.1633 44.284 36.6689 44.2116C37.6967 44.1537 38.0586 44.0669 38.7969 43.6907C39.9695 43.0973 40.896 42.1422 41.4896 40.9411C41.9239 40.0584 41.9673 39.8702 41.9673 38.5968C41.9528 36.976 41.6343 35.9774 40.7802 34.9934C40.1867 34.2843 40.1577 34.4001 41.2869 33.1121L42.0686 32.2294H39.9551C37.8704 32.2294 37.8415 32.2294 37.1611 31.7952C36.2925 31.2453 34.4395 30.5218 33.209 30.2613C31.66 29.9284 28.8949 30.0153 27.3025 30.4205ZM32.4851 32.157C33.0787 32.2583 33.8314 32.4464 34.1355 32.5477L34.7145 32.7648L34.0341 33.0977C32.543 33.8502 31.2836 35.2973 30.7334 36.9181C30.5453 37.468 30.4729 37.5548 30.4729 37.2799C30.4439 36.1222 28.7357 33.9659 27.2012 33.1411L26.376 32.7069L27.5052 32.403C29.4016 31.8965 30.7624 31.8387 32.4851 32.157ZM25.9562 34.921C26.955 35.2105 28.0263 36.1945 28.3882 37.1207C28.7791 38.1481 28.7067 39.2914 28.2 40.2899C27.0274 42.5764 23.8715 43.0395 22.1199 41.1727C21.3236 40.3333 21.121 39.7979 21.121 38.5244C21.121 37.5259 21.1789 37.2799 21.5118 36.6865C22.0185 35.8327 22.8147 35.1671 23.6544 34.9066C24.523 34.6461 25.0441 34.6461 25.9562 34.921ZM37.3927 34.921C38.9417 35.3697 40.0564 36.8747 40.0419 38.4955C40.0419 40.0005 39.376 41.1582 38.1021 41.8673C37.4361 42.2291 37.1755 42.2869 36.249 42.2869C34.9751 42.2725 34.2802 41.983 33.4695 41.0858C31.6455 39.0598 32.5141 35.717 35.0909 34.9066C35.9595 34.6461 36.4807 34.6461 37.3927 34.921Z" fill="#100C08"/>
<path d="M24.3047 36.5282C22.9873 36.8899 22.3648 38.5107 23.1176 39.625C24.2757 41.376 26.8815 40.5946 26.8815 38.4963C26.8815 37.2228 25.5207 36.1953 24.3047 36.5282Z" fill="#100C08"/>
<path d="M35.3807 36.6873C33.9041 37.4977 33.8317 39.4658 35.2649 40.3341C36.6257 41.159 38.3339 40.1171 38.305 38.4818C38.2905 37.0057 36.6402 35.9927 35.3807 36.6873Z" fill="#100C08"/>
<path d="M2.80859 25.4286C2.80859 25.5154 2.93888 26.21 3.1126 26.977C3.92329 30.6961 5.5302 33.8075 7.47007 35.4282C8.41105 36.2097 9.25069 36.6872 9.40994 36.5281C9.56918 36.3689 9.19279 34.4731 8.71506 32.9536C7.71617 29.8134 6.03688 27.3967 3.69167 25.7325C3.02574 25.2549 2.80859 25.1825 2.80859 25.4286Z" fill="#100C08"/>
<path d="M57.0697 26.0062C54.6376 27.8441 52.9873 30.4924 52.1187 34.0089C51.7134 35.6297 51.5831 36.5703 51.7568 36.5703C52.1911 36.5703 53.2624 35.8033 54.2757 34.7759C55.6076 33.43 56.4617 31.954 57.3013 29.5228C58.0107 27.4679 58.445 25.2827 58.1554 25.2827C58.0831 25.2827 57.6053 25.6155 57.0697 26.0062Z" fill="#100C08"/>
<path d="M9.46875 30.2616C9.46875 32.5625 9.85962 34.6174 10.569 36.0935C11.0901 37.1933 12.5378 38.9009 12.7549 38.6983C12.9431 38.4957 12.8418 35.1239 12.6102 34.0241C12.4799 33.4597 12.2483 32.6348 12.0745 32.1862C11.7126 31.2311 10.569 29.4367 9.91753 28.8434L9.46875 28.4092V30.2616Z" fill="#100C08"/>
<path d="M50.7402 29.3496C49.0464 31.4479 48.424 33.3002 48.3081 36.5997C48.2068 39.0888 48.2502 39.1322 49.307 38.0034C50.7402 36.4839 51.522 34.1106 51.6812 30.7678C51.8115 28.2932 51.7101 28.1485 50.7402 29.3496Z" fill="#100C08"/>
<path d="M1.65039 32.8959C1.65039 33.359 2.64928 36.123 3.2573 37.3241C4.57467 39.9579 6.13815 41.7234 8.02011 42.7074C9.27957 43.3731 9.38091 43.3731 9.25062 42.6785C8.97556 41.1735 7.78848 38.4239 6.71721 36.861C5.74728 35.4428 4.19828 34.0391 2.50451 33.0551C1.73725 32.6064 1.65039 32.592 1.65039 32.8959Z" fill="#100C08"/>
<path d="M58.5602 33.0983C57.0546 33.9231 55.5346 35.269 54.5646 36.6437C53.4355 38.2356 52.3352 40.7247 51.8286 42.8519C51.7272 43.2427 51.7417 43.2571 52.1326 43.1558C53.4065 42.8375 55.6214 40.9996 56.7361 39.3065C57.8074 37.7001 58.8208 35.3847 59.4867 32.9825C59.6025 32.5628 59.5012 32.5773 58.5602 33.0983Z" fill="#100C08"/>
<path d="M8.39735 37.7572C8.57107 38.5676 9.42519 40.4489 10.1345 41.6066C11.3361 43.5313 12.8706 44.935 14.3617 45.456C14.9263 45.6586 14.9697 45.6586 14.9697 45.427C14.9553 44.9495 13.9998 42.663 13.3773 41.6356C12.2771 39.8266 10.9018 38.5387 9.07775 37.5981C8.28154 37.2073 8.26706 37.2073 8.39735 37.7572Z" fill="#100C08"/>
<path d="M51.7401 37.758C49.8437 38.8434 48.5987 40.1169 47.4406 42.1863C46.876 43.1848 46.0653 45.3699 46.1811 45.5581C46.2969 45.7462 47.8314 45.0082 48.6711 44.3569C50.0319 43.3005 51.4795 41.1298 52.3916 38.7855C52.6666 38.0475 52.8982 37.4107 52.8982 37.3673C52.8982 37.1936 52.4784 37.3239 51.7401 37.758Z" fill="#100C08"/>
<path d="M0.203125 40.0156C0.203125 40.2327 1.21649 41.8246 2.02718 42.881C3.09845 44.2847 5.16861 46.2528 6.2254 46.875C6.70313 47.15 7.47039 47.5263 7.91917 47.6999C8.81672 48.0183 10.3368 48.2643 10.3368 48.0762C10.3368 48.0038 10.1341 47.5986 9.88799 47.15C8.42585 44.5596 6.08064 42.2442 3.7499 41.101C2.46148 40.4498 0.203125 39.7696 0.203125 40.0156Z" fill="#100C08"/>
<path d="M59.6567 40.2037C57.4562 40.8259 55.6322 41.9113 53.9674 43.59C52.8672 44.6898 51.6511 46.3251 51.072 47.4538L50.7246 48.1484H51.2168C52.4329 48.1484 54.5175 47.2512 56.0954 46.0356C57.5286 44.9358 59.5409 42.548 60.5542 40.7247C61.0899 39.7985 61.0899 39.7985 59.6567 40.2037Z" fill="#100C08"/>
<path d="M9.52839 44.6161C10.701 46.6566 12.9594 49.0299 14.4939 49.8547C15.2756 50.2599 16.7667 50.752 17.2444 50.752C17.5919 50.752 17.4326 50.3323 16.5785 49.0588C14.7255 46.2948 12.1487 44.3846 9.73107 44.0083L9.12305 43.907L9.52839 44.6161Z" fill="#100C08"/>
<path d="M51.0153 44.0523C48.7135 44.8772 47.4106 45.6876 46.1222 47.0623C44.8917 48.3648 43.473 50.5065 43.6902 50.7091C43.8349 50.8538 45.63 50.3473 46.4262 49.9421C47.4975 49.4212 48.5543 48.5674 49.5242 47.4675C50.3349 46.5414 51.8839 44.3128 51.8839 44.0668C51.8839 43.9365 51.3628 43.9221 51.0153 44.0523Z" fill="#100C08"/>
<path d="M4.86334 48.7266C3.63282 48.9148 3.61835 48.8714 5.64508 50.2461C8.22192 51.9972 10.8132 52.9233 13.1005 52.9378C14.4469 52.9523 15.6919 52.7352 15.6919 52.5037C15.6919 52.4458 15.1852 52.0116 14.5772 51.563C13.2019 50.5356 10.9146 49.4068 9.45243 49.0305C8.14953 48.6977 5.94908 48.553 4.86334 48.7266Z" fill="#100C08"/>
<path d="M52.8243 48.7848C51.4635 49.0164 50.5949 49.2913 49.1761 49.9715C47.9891 50.5359 46.1795 51.708 45.6728 52.2435L45.3398 52.6197L45.9479 52.7789C46.8165 53.0105 49.1906 52.9815 50.204 52.7066C52.1583 52.1856 54.8365 50.8542 56.5737 49.5084C57.2252 49.0164 57.2541 48.9585 56.9935 48.8572C56.3855 48.6401 53.9824 48.5967 52.8243 48.7848Z" fill="#100C08"/>
<path d="M15.8364 51.5486C16.1259 51.8959 17.9934 53.0102 18.9778 53.4154C20.1359 53.893 21.656 54.1535 22.5391 54.0232C22.9154 53.9653 23.2195 53.8785 23.2195 53.8206C23.2195 53.6759 21.5546 52.5761 20.6571 52.142C19.5279 51.5776 18.3843 51.3316 16.9511 51.3316C15.8074 51.3316 15.6771 51.3605 15.8364 51.5486Z" fill="#100C08"/>
<path d="M41.4902 51.7518C40.3031 52.1715 38.1316 53.416 38.0302 53.7488C37.9434 53.9804 39.1015 54.1396 39.9846 54.0238C40.8532 53.8935 41.9245 53.5607 42.8365 53.1121C43.7196 52.678 45.3699 51.5926 45.3699 51.4479C45.3699 51.3755 44.7619 51.3321 44.038 51.3321C42.9378 51.3321 42.4746 51.4045 41.4902 51.7518Z" fill="#100C08"/>
<path d="M13.2327 53.7482C12.0166 53.9508 9.46875 54.9638 9.46875 55.2388C9.46875 55.2966 9.96096 55.4848 10.5545 55.6584C13.7249 56.5991 17.1848 56.9319 19.226 56.4688C20.4565 56.2083 21.3396 55.8755 21.3396 55.7018C21.3396 55.5427 19.6458 54.7033 18.6325 54.356C16.9532 53.7916 14.608 53.5167 13.2327 53.7482Z" fill="#100C08"/>
<path d="M45.0063 53.7494C43.4428 53.9665 40.7791 54.9216 39.954 55.5583C39.6934 55.7609 39.7223 55.7899 40.4606 56.0793C42.2992 56.7594 44.572 56.8607 47.337 56.3977C49.2335 56.0648 51.5932 55.4136 51.5932 55.211C51.5932 54.965 49.523 54.1112 48.3794 53.8796C47.337 53.6626 46.0052 53.6192 45.0063 53.7494Z" fill="#100C08"/>
<path d="M24.0179 54.7911C23.0914 55.1239 22.6426 55.3554 22.6426 55.5291C22.6426 55.7462 24.2205 55.9922 25.5379 55.9922C26.7539 55.9922 27.6081 55.7751 28.4043 55.2686C28.882 54.9647 28.7951 54.849 27.9989 54.6753C26.8408 54.4293 24.8575 54.4872 24.0179 54.7911Z" fill="#100C08"/>
<path d="M33.0364 54.6891C32.7324 54.7615 32.4863 54.8917 32.4863 54.9641C32.4863 55.1666 33.3404 55.6587 34.0064 55.8323C35.1066 56.1507 38.5665 55.9192 38.5665 55.5429C38.5665 55.4705 38.1612 55.239 37.669 55.0075C36.8727 54.6457 36.5687 54.5878 35.1645 54.5589C34.2959 54.5444 33.326 54.6023 33.0364 54.6891Z" fill="#100C08"/>
<path d="M29.8822 55.0937C29.2889 55.687 29.7375 56.6855 30.5768 56.6855C31.0978 56.6855 31.4741 56.2803 31.4741 55.716C31.4741 54.8911 30.4755 54.5004 29.8822 55.0937Z" fill="#100C08"/>
<path d="M14.6234 58.8421C14.2616 59.2329 14.3774 59.8841 14.8405 60.1446C15.1878 60.3327 15.2601 60.3327 15.6075 60.1156C16.0995 59.7972 16.1284 59.1171 15.6653 58.7987C15.2312 58.4948 14.9273 58.5093 14.6234 58.8421Z" fill="#100C08"/>
<path d="M39.8248 58.8285C39.4775 59.2048 39.5209 59.8126 39.8971 60.073C40.3313 60.3769 40.5339 60.3625 40.8812 60.0152C41.2719 59.6244 41.2574 59.0745 40.8522 58.7996C40.4326 58.4957 40.1142 58.5101 39.8248 58.8285Z" fill="#100C08"/>
<path d="M6.81813 58.7988C6.76023 58.8567 6.7168 59.1606 6.7168 59.4645V60.0144H7.65778H8.59876V62.8363V65.6582H9.25021H9.90165V62.8363V60.0144H10.8571H11.7981L11.7547 59.3921L11.7112 58.7843L9.30811 58.7409C7.99074 58.7264 6.87604 58.7554 6.81813 58.7988Z" fill="#100C08"/>
<path d="M32.3965 58.9141C32.3531 59.0299 32.3386 59.5219 32.3676 60.0139C32.382 60.4915 32.3965 60.8822 32.3965 60.8822C32.382 60.8822 32.1215 60.7809 31.8175 60.6506C30.2395 59.985 28.2852 61.3453 28.2852 63.1108C28.2852 64.2251 29.1827 65.3538 30.3264 65.6577C30.8186 65.788 31.0647 65.7735 31.6582 65.5854C32.1649 65.4117 32.4255 65.3972 32.4544 65.4985C32.4834 65.5854 32.8019 65.6577 33.1493 65.6577H33.7863L33.7573 62.2136L33.7139 58.7838L33.0914 58.7404C32.6571 58.7115 32.4544 58.7549 32.3965 58.9141ZM31.8898 62.1267C32.2518 62.4306 32.3386 62.6187 32.3386 63.0529C32.3386 63.8922 31.8319 64.4277 31.0357 64.4277C30.2395 64.4277 29.7328 63.8922 29.7328 63.0529C29.7328 62.6187 29.8197 62.4306 30.1816 62.1267C30.4277 61.9097 30.8041 61.7505 31.0357 61.7505C31.2673 61.7505 31.6437 61.9097 31.8898 62.1267Z" fill="#100C08"/>
<path d="M18.4425 60.6802C18.124 60.8249 17.9213 60.8394 17.8924 60.7381C17.8634 60.6657 17.545 60.5934 17.1975 60.5934H16.5605V63.8494V67.1055H17.212H17.8634V66.2227C17.8634 65.4413 17.8924 65.3544 18.124 65.4413C20.0784 66.2517 21.9893 65.0505 21.9603 63.039C21.9459 61.9537 21.3523 61.1143 20.2955 60.6657C19.6296 60.3908 19.094 60.3908 18.4425 60.6802ZM20.1942 62.1707C20.4403 62.4312 20.614 62.7496 20.614 62.9811C20.614 64.2836 19.1519 64.9492 18.2977 64.0375C17.8634 63.5745 17.7911 63.0969 18.0661 62.5325C18.4715 61.6643 19.4993 61.4906 20.1942 62.1707Z" fill="#100C08"/>
<path d="M24.2057 60.5935C23.0331 60.9408 22.2514 62.1419 22.3961 63.372C22.5988 65.0217 24.1768 66.0636 25.7402 65.6006C26.1166 65.4848 26.4351 65.4558 26.493 65.5282C26.5365 65.6006 26.8549 65.6584 27.2169 65.6584H27.8538V63.126V60.5935H27.13C26.7391 60.5935 26.4062 60.6514 26.4062 60.7237C26.4062 60.8105 26.1745 60.7671 25.8995 60.6514C25.3494 60.4343 24.8137 60.4054 24.2057 60.5935ZM25.9574 62.1274C26.3193 62.4313 26.4062 62.6195 26.4062 63.0536C26.4062 63.8929 25.8995 64.4284 25.1033 64.4284C24.3071 64.4284 23.8004 63.8929 23.8004 63.0536C23.8004 62.6195 23.8872 62.4313 24.2491 62.1274C24.4952 61.9104 24.8716 61.7512 25.1033 61.7512C25.3349 61.7512 25.7113 61.9104 25.9574 62.1274Z" fill="#100C08"/>
<path d="M42.8082 60.5495C42.6345 60.5785 42.287 60.7955 42.0409 61.0271C41.708 61.331 41.6066 61.5625 41.6066 61.9677C41.6066 62.6623 42.1133 63.1544 43.1846 63.4727C44.0966 63.7477 44.4006 64.0805 44.0387 64.4423C43.7347 64.7462 43.0543 64.6015 42.953 64.2108C42.8951 63.9792 42.7503 63.9213 42.1712 63.9213C41.404 63.9213 41.3461 64.0082 41.6645 64.616C41.9685 65.1948 42.3884 65.5276 43.0109 65.6579C44.3427 65.9618 45.5153 65.1948 45.5153 64.0226C45.5153 63.2267 45.1679 62.8794 44.0677 62.561C43.0543 62.2571 42.8516 62.1269 42.953 61.8375C43.0832 61.4901 43.8795 61.5336 44.0677 61.8953C44.1835 62.1124 44.3717 62.1848 44.7915 62.1848C45.2982 62.1848 45.3706 62.1414 45.3706 61.8519C45.3706 60.8968 44.1835 60.289 42.8082 60.5495Z" fill="#100C08"/>
<path d="M47.5443 60.6807C46.5019 61.1294 45.9229 61.9687 45.9084 63.0396C45.8794 65.7023 49.1946 66.7153 50.6857 64.5012C51.3661 63.5027 51.2503 62.316 50.3672 61.332C49.6144 60.5071 48.5287 60.2466 47.5443 60.6807ZM49.4407 62.1713C49.9039 62.6488 49.9763 63.1409 49.6578 63.7631C49.4407 64.1683 48.8906 64.5012 48.4128 64.5012C48.022 64.5012 47.2981 63.85 47.1968 63.3869C46.8638 62.1279 48.4997 61.2451 49.4407 62.1713Z" fill="#100C08"/>
<path d="M11.0605 63.1257V65.6582H11.6975H12.3345L12.3924 63.9216C12.4358 61.9825 12.4793 61.8957 13.4202 61.8957H13.9559V61.2444C13.9559 60.6077 13.9414 60.5932 13.4781 60.5932C13.2176 60.5932 12.8556 60.6945 12.6819 60.8248C12.3924 61.0274 12.3634 61.0274 12.3634 60.8248C12.3634 60.6511 12.2042 60.5932 11.712 60.5932H11.0605V63.1257Z" fill="#100C08"/>
<path d="M14.5352 63.1257V65.6582H15.1864H15.8376V63.1257V60.5932H15.1864H14.5352V63.1257Z" fill="#100C08"/>
<path d="M34.3532 61.2736C34.4979 61.6643 34.8888 62.8075 35.2363 63.8205L35.8443 65.6729L36.655 65.6294L37.4801 65.586L38.3053 63.2706C38.7541 61.9971 39.1305 60.8684 39.1305 60.7671C39.1449 60.6513 38.9133 60.5934 38.4356 60.5934H37.7407L37.2485 62.2576C36.9735 63.1693 36.7273 63.9218 36.6839 63.9218C36.6405 63.9218 36.3799 63.1693 36.1049 62.2576L35.5982 60.5934H34.8454H34.0781L34.3532 61.2736Z" fill="#100C08"/>
<path d="M39.7246 63.1257V65.6582H40.3758H41.027V63.1257V60.5932H40.3758H39.7246V63.1257Z" fill="#100C08"/>
<path d="M51.5977 63.1257V65.6582H52.3215H53.0453V63.9506C53.0453 62.8218 53.1032 62.1851 53.219 62.0693C53.3204 61.968 53.6678 61.8957 54.0153 61.8957H54.6377V61.2444V60.5932H54.1021C53.8126 60.5932 53.4507 60.6945 53.3059 60.8393C53.0598 61.0563 53.0453 61.0563 53.0453 60.8393C53.0453 60.6367 52.9006 60.5932 52.3215 60.5932H51.5977V63.1257Z" fill="#100C08"/>
</svg>
