<svg width="46" height="45" viewBox="0 0 46 45" fill="none" xmlns="http://www.w3.org/2000/svg">
<path d="M22.7613 45C35.3321 45 45.5227 34.9264 45.5227 22.5C45.5227 10.0736 35.3321 0 22.7613 0C10.1906 0 0 10.0736 0 22.5C0 34.9264 10.1906 45 22.7613 45Z" fill="#34E0A1"/>
<path d="M36.8197 18.1105L39.5664 15.1566H33.4755C30.4262 13.0976 26.7437 11.8984 22.7611 11.8984C18.7835 11.8984 15.1113 13.1002 12.0671 15.1566H5.96094L8.70756 18.1105C7.02401 19.6289 5.96859 21.8161 5.96859 24.2446C5.96859 28.8276 9.72744 32.5432 14.3636 32.5432C16.566 32.5432 18.5725 31.7035 20.0705 30.3309L22.7612 33.227L25.4518 30.3334C26.9498 31.7061 28.9538 32.5432 31.1561 32.5432C35.7923 32.5432 39.5562 28.8276 39.5562 24.2446C39.5587 21.8136 38.5034 19.6264 36.8197 18.1105ZM14.3661 29.8608C11.2278 29.8608 8.68472 27.3469 8.68472 24.2446C8.68472 21.1423 11.2279 18.6284 14.3661 18.6284C17.5044 18.6284 20.0475 21.1423 20.0475 24.2446C20.0475 27.3469 17.5044 29.8608 14.3661 29.8608ZM22.7637 24.0812C22.7637 20.3856 20.045 17.213 16.4566 15.858C18.397 15.056 20.5257 14.611 22.7611 14.611C24.9965 14.611 27.1277 15.056 29.0682 15.858C25.4823 17.2155 22.7637 20.3857 22.7637 24.0812ZM31.1587 29.8608C28.0204 29.8608 25.4772 27.3469 25.4772 24.2446C25.4772 21.1423 28.0204 18.6284 31.1587 18.6284C34.297 18.6284 36.8401 21.1423 36.8401 24.2446C36.8401 27.3469 34.2969 29.8608 31.1587 29.8608ZM31.1587 21.2982C29.5132 21.2982 28.1806 22.6155 28.1806 24.2421C28.1806 25.8686 29.5132 27.1859 31.1587 27.1859C32.8041 27.1859 34.1367 25.8686 34.1367 24.2421C34.1367 22.618 32.8041 21.2982 31.1587 21.2982ZM17.3442 24.2446C17.3442 25.8711 16.0115 27.1884 14.3661 27.1884C12.7207 27.1884 11.3881 25.8711 11.3881 24.2446C11.3881 22.618 12.7207 21.3007 14.3661 21.3007C16.0115 21.2982 17.3442 22.618 17.3442 24.2446Z" fill="black"/>
</svg>
