<svg width="78" height="24" viewBox="0 0 78 24" fill="none" xmlns="http://www.w3.org/2000/svg">
<mask id="mask0_2646_238" style="mask-type:alpha" maskUnits="userSpaceOnUse" x="0" y="0" width="78" height="24">
<rect width="78" height="24" fill="#D9D9D9"/>
</mask>
<g mask="url(#mask0_2646_238)">
<path d="M77.5613 14.765C77.3194 14.765 77.1229 14.9597 77.1229 15.1995C77.1229 15.4392 77.3194 15.6339 77.5613 15.6339C77.8032 15.6339 77.9998 15.4392 77.9998 15.1995C77.9998 14.9597 77.8032 14.765 77.5613 14.765ZM77.5613 15.565C77.3574 15.565 77.1924 15.4006 77.1924 15.1995C77.1924 14.9974 77.3583 14.8339 77.5613 14.8339C77.7653 14.8339 77.9312 14.9983 77.9312 15.1995C77.9312 15.4006 77.7653 15.565 77.5613 15.565ZM77.7041 15.1251C77.7041 15.0461 77.6475 14.9992 77.5641 14.9992H77.4241V15.3951H77.4927V15.2518H77.5678L77.6401 15.3951H77.7142L77.6345 15.2371C77.6772 15.2178 77.7041 15.1792 77.7041 15.1251ZM77.5613 15.1903H77.4937V15.059H77.5613C77.6077 15.059 77.6355 15.0819 77.6355 15.1242C77.6355 15.1673 77.6068 15.1903 77.5613 15.1903ZM24.7314 10.3681V9.31734H23.1056V15.5687H24.7314V11.8203C24.7314 11.1415 25.1708 10.8081 25.8558 10.8081H26.7457V9.31736H25.9856C25.3905 9.31734 24.8733 9.62503 24.7314 10.3681ZM28.2687 6.84473C27.7125 6.84473 27.2861 7.28011 27.2861 7.83121C27.2861 8.36945 27.7125 8.80483 28.2687 8.80483C28.8249 8.80483 29.2513 8.36945 29.2513 7.83121C29.2512 7.28008 28.8249 6.84473 28.2687 6.84473ZM27.4576 15.5687H29.0798V9.31734H27.4576V15.5687ZM36.8069 12.443C36.8069 14.2277 35.3469 15.6743 33.5458 15.6743C32.8191 15.6743 32.16 15.4383 31.6316 15.0396V17.4039H30.0095V9.31734H31.6316V9.84639C32.16 9.44776 32.8191 9.21171 33.5458 9.21171C35.3469 9.21171 36.8069 10.6584 36.8069 12.443ZM35.1745 12.443C35.1745 11.474 34.381 10.6877 33.4031 10.6877C32.4251 10.6877 31.6317 11.474 31.6317 12.443C31.6317 13.4121 32.4252 14.1983 33.4031 14.1983C34.381 14.1983 35.1745 13.413 35.1745 12.443ZM65.0011 11.8947L64.0547 11.6375C63.4318 11.4767 63.1898 11.2875 63.1898 10.9615C63.1898 10.6437 63.5309 10.4214 64.0185 10.4214C64.483 10.4214 64.8472 10.7227 64.8472 11.1084V11.1442H66.3424V11.1084C66.3424 9.97405 65.409 9.21168 64.0185 9.21168C62.642 9.21168 61.6418 9.97312 61.6418 11.023C61.6418 11.8395 62.1878 12.4549 63.1407 12.7103L64.0473 12.9555C64.736 13.1447 64.9918 13.3542 64.9918 13.7298C64.9918 14.1257 64.622 14.3921 64.0713 14.3921C63.4975 14.3921 63.111 14.032 63.111 13.4974V13.4616H61.5241V13.4974C61.5241 14.7797 62.566 15.6761 64.0584 15.6761C65.4961 15.6761 66.5399 14.8008 66.5399 13.5957C66.5398 13.0042 66.2729 12.2309 65.0011 11.8947ZM42.5614 9.31734H44.1835V15.5687H42.5614V15.0396C42.033 15.4383 41.374 15.6743 40.6472 15.6743C38.8462 15.6743 37.3862 14.2277 37.3862 12.443C37.3862 10.6583 38.8462 9.21168 40.6472 9.21168C41.374 9.21168 42.0331 9.44774 42.5614 9.84636V9.31734ZM42.5614 12.443C42.5614 11.4731 41.7679 10.6877 40.79 10.6877C39.812 10.6877 39.0186 11.474 39.0186 12.443C39.0186 13.4121 39.812 14.1983 40.79 14.1983C41.7688 14.1983 42.5614 13.413 42.5614 12.443ZM50.041 7.09272H51.6632V15.5696H50.041V15.0405C49.5126 15.4392 48.8536 15.6752 48.1268 15.6752C46.3257 15.6752 44.8658 14.2286 44.8658 12.4439C44.8658 10.6592 46.3257 9.2126 48.1268 9.2126C48.8536 9.2126 49.5126 9.44866 50.041 9.84728V7.09272ZM50.041 12.443C50.041 11.474 49.2475 10.6877 48.2696 10.6877C47.2917 10.6877 46.4982 11.474 46.4982 12.443C46.4982 13.4121 47.2907 14.1983 48.2696 14.1983C49.2475 14.1983 50.041 13.413 50.041 12.443ZM59.1947 15.5687H60.8168V9.31734H59.1947V15.5687ZM60.0057 6.84473C59.4496 6.84473 59.0232 7.28011 59.0232 7.83121C59.0232 8.36945 59.4496 8.80483 60.0057 8.80483C60.5619 8.80483 60.9883 8.36945 60.9883 7.83121C60.9883 7.28008 60.5619 6.84473 60.0057 6.84473ZM73.5513 12.443C73.5513 14.2277 72.0914 15.6743 70.2903 15.6743C68.4892 15.6743 67.0293 14.2277 67.0293 12.443C67.0293 10.6583 68.4892 9.21171 70.2903 9.21171C72.0914 9.21171 73.5513 10.6584 73.5513 12.443ZM72.0617 12.443C72.0617 11.474 71.2682 10.6877 70.2903 10.6877C69.3123 10.6877 68.5189 11.474 68.5189 12.443C68.5189 13.4121 69.3114 14.1983 70.2903 14.1983C71.2682 14.1983 72.0617 13.413 72.0617 12.443ZM23.9009 7.09272H17.6782V8.52651H19.9817V15.5687H21.5983V8.52651H23.9018V7.09272H23.9009ZM55.3701 13.8566L53.9268 9.31736H52.223L54.3875 15.5687H56.3396L58.517 9.31736H56.8133L55.3701 13.8566ZM75.928 10.3681V9.31734H74.3021V15.5687H75.928V11.8203C75.928 11.1415 76.3674 10.8081 77.0524 10.8081H77.9423V9.31736H77.1822C76.5871 9.31734 76.0708 9.62503 75.928 10.3681Z" fill="black"/>
<path d="M8.29623 20.2206C12.8781 20.2206 16.5925 16.5401 16.5925 11.9999C16.5925 7.4598 12.8781 3.7793 8.29623 3.7793C3.71435 3.7793 0 7.4598 0 11.9999C0 16.5401 3.71435 20.2206 8.29623 20.2206Z" fill="#34E0A1"/>
<path d="M13.42 10.3966L14.4211 9.31734H12.2011C11.0897 8.56507 9.74743 8.12695 8.29582 8.12695C6.84605 8.12695 5.50755 8.56602 4.39798 9.31734H2.17236L3.17347 10.3966C2.55984 10.9514 2.17515 11.7505 2.17515 12.6378C2.17515 14.3122 3.54521 15.6697 5.23504 15.6697C6.03779 15.6697 6.76914 15.363 7.31513 14.8615L8.29584 15.9196L9.27656 14.8624C9.82254 15.3639 10.553 15.6697 11.3557 15.6697C13.0455 15.6697 14.4174 14.3122 14.4174 12.6378C14.4183 11.7496 14.0337 10.9505 13.42 10.3966ZM5.23595 14.6897C4.09208 14.6897 3.16515 13.7712 3.16515 12.6378C3.16515 11.5043 4.0921 10.5858 5.23595 10.5858C6.3798 10.5858 7.30675 11.5043 7.30675 12.6378C7.30675 13.7712 6.3798 14.6897 5.23595 14.6897ZM8.29675 12.5781C8.29675 11.2278 7.30585 10.0687 5.99791 9.57361C6.70517 9.28059 7.48103 9.11802 8.29582 9.11802C9.11061 9.11802 9.88738 9.28059 10.5947 9.57361C9.28767 10.0696 8.29675 11.2279 8.29675 12.5781ZM11.3566 14.6897C10.2128 14.6897 9.28581 13.7712 9.28581 12.6378C9.28581 11.5043 10.2128 10.5858 11.3566 10.5858C12.5005 10.5858 13.4274 11.5043 13.4274 12.6378C13.4274 13.7712 12.5005 14.6897 11.3566 14.6897ZM11.3566 11.5612C10.7569 11.5612 10.2712 12.0426 10.2712 12.6368C10.2712 13.2311 10.7569 13.7124 11.3566 13.7124C11.9564 13.7124 12.4421 13.2311 12.4421 12.6368C12.4421 12.0435 11.9564 11.5612 11.3566 11.5612ZM6.32141 12.6378C6.32141 13.232 5.83568 13.7133 5.23595 13.7133C4.63622 13.7133 4.15049 13.232 4.15049 12.6378C4.15049 12.0435 4.63622 11.5622 5.23595 11.5622C5.83568 11.5612 6.32141 12.0435 6.32141 12.6378Z" fill="black"/>
</g>
</svg>
