<svg width="20" height="20" viewBox="0 0 20 20" fill="none" xmlns="http://www.w3.org/2000/svg">
<path d="M10 20C15.5228 20 20 15.5228 20 10C20 4.47715 15.5228 0 10 0C4.47715 0 0 4.47715 0 10C0 15.5228 4.47715 20 10 20Z" fill="#34E0A1"/>
<path d="M16.1752 8.05291L17.3819 6.74005H14.706C13.3663 5.82495 11.7484 5.29199 9.99868 5.29199C8.25117 5.29199 6.6378 5.8261 5.30035 6.74005H2.61768L3.82438 8.05291C3.08473 8.72775 2.62104 9.69984 2.62104 10.7792C2.62104 12.8161 4.27246 14.4674 6.30933 14.4674C7.27693 14.4674 8.15848 14.0943 8.81659 13.4842L9.99871 14.7714L11.1808 13.4853C11.8389 14.0954 12.7194 14.4674 13.687 14.4674C15.7238 14.4674 17.3775 12.8161 17.3775 10.7792C17.3786 9.69872 16.9149 8.72666 16.1752 8.05291ZM6.31042 13.2753C4.93163 13.2753 3.81435 12.158 3.81435 10.7792C3.81435 9.40039 4.93166 8.28307 6.31042 8.28307C7.68918 8.28307 8.8065 9.40039 8.8065 10.7792C8.8065 12.158 7.68918 13.2753 6.31042 13.2753ZM9.9998 10.7065C9.9998 9.06407 8.8054 7.65403 7.22886 7.05178C8.08136 6.69534 9.01656 6.49758 9.99868 6.49758C10.9808 6.49758 11.9171 6.69534 12.7696 7.05178C11.1942 7.65515 9.9998 9.0641 9.9998 10.7065ZM13.6881 13.2753C12.3093 13.2753 11.192 12.158 11.192 10.7792C11.192 9.40039 12.3093 8.28307 13.6881 8.28307C15.0669 8.28307 16.1842 9.40039 16.1842 10.7792C16.1842 12.158 15.0669 13.2753 13.6881 13.2753ZM13.6881 9.46965C12.9652 9.46965 12.3797 10.0551 12.3797 10.7781C12.3797 11.5009 12.9652 12.0864 13.6881 12.0864C14.411 12.0864 14.9965 11.5009 14.9965 10.7781C14.9964 10.0563 14.411 9.46965 13.6881 9.46965ZM7.6188 10.7792C7.6188 11.5021 7.03331 12.0876 6.31042 12.0876C5.58753 12.0876 5.00205 11.5021 5.00205 10.7792C5.00205 10.0563 5.58753 9.47077 6.31042 9.47077C7.03331 9.46965 7.6188 10.0563 7.6188 10.7792Z" fill="black"/>
</svg>
