<svg width="54" height="54" viewBox="0 0 54 54" fill="none" xmlns="http://www.w3.org/2000/svg">
<g clip-path="url(#clip0_1022_576)">
<path d="M53.912 40.2011C53.9062 40.1465 53.8868 40.0895 53.8491 40.0317C52.5769 38.0865 51.116 36.2628 49.5413 34.5546C49.2267 34.2129 48.8883 33.916 48.5301 33.6445C48.1698 33.2575 47.7914 32.8907 47.3639 32.5706C46.9054 32.2275 46.3881 31.9793 45.892 31.6979C45.6648 31.5445 45.4378 31.3909 45.2148 31.2317C44.3134 30.5886 43.5391 29.7618 42.8039 28.9373C43.7429 28.7036 44.5674 28.0938 45.2719 27.4392C46.3212 26.4638 47.1762 25.259 47.8983 24.0279C49.6492 21.043 49.9095 17.5772 49.9133 14.1857C49.9135 14.0273 49.836 13.9192 49.7297 13.8608C49.7453 13.7805 49.7294 13.6911 49.6655 13.6002C48.6308 12.1277 46.6709 11.9245 45.0373 11.6274C42.7705 11.2151 40.5395 10.2936 38.4995 9.2446C38.3006 9.14234 38.1125 9.21999 38.0045 9.35717C35.4271 10.0152 32.7773 10.431 30.1858 11.0365C28.2707 11.4838 26.3698 12.0087 24.5275 12.6939C24.4962 12.6782 24.4629 12.6665 24.4286 12.6593C23.9499 12.561 23.4899 12.4275 23.0621 12.1898C23.0629 12.131 23.0623 12.0721 23.0603 12.0131C23.0593 11.982 23.0548 11.9511 23.0471 11.9209C23.0494 11.7245 22.9244 11.5264 22.6712 11.5266C22.3316 11.5269 21.9909 11.5464 21.6735 11.6467C21.6525 11.6218 21.6288 11.5993 21.6027 11.5797C20.6813 10.8851 18.9595 9.36398 17.7363 10.1824C17.023 10.6597 16.9686 11.7044 17.4704 12.34C17.6216 12.5316 17.7962 12.6975 17.9858 12.8462C17.6956 13.5219 17.5059 14.3158 17.8575 14.9914L17.8047 15.0176C17.7792 15.0307 17.7556 15.0471 17.7345 15.0665C13.2975 16.6179 8.97274 18.4908 4.92251 20.8862C4.50473 20.6561 4.09931 20.4059 3.7007 20.1417C3.48383 19.9979 3.27533 20.1087 3.18164 20.2872C3.16014 20.2847 3.13873 20.2822 3.11509 20.2831C2.2915 20.3143 1.51004 20.6518 0.682755 20.6723C0.662616 20.6728 0.644325 20.676 0.625936 20.6788C0.389318 20.5002 -0.0300163 20.5932 0.00170139 20.9642C0.710971 29.2632 8.56498 36.134 16.8943 35.1895C16.9281 35.1991 16.9644 35.2052 17.0049 35.2052H18.6027C18.6769 35.2052 18.7387 35.1869 18.791 35.1578C22.465 35.0991 26.1414 34.7764 29.7388 34.0125C33.5595 33.2012 37.1112 31.4512 40.6724 29.9044C41.2531 30.846 41.761 31.8299 42.1501 32.8838C42.1343 32.9304 42.1274 32.9795 42.1298 33.0286C42.2389 35.3744 42.3681 37.6376 43.6225 39.6952C44.7231 41.5002 46.1063 43.1889 47.5949 44.6872C47.725 44.8182 47.8814 44.8262 48.01 44.7668C48.0287 44.7612 48.0476 44.7566 48.0666 44.7481C50.2265 43.7918 51.746 41.8717 53.8069 40.7591C54.0473 40.6287 54.0396 40.371 53.912 40.2011ZM47.3453 23.4269C46.6987 24.5844 45.9167 25.6761 44.9902 26.6259C44.2251 27.41 43.2148 28.2379 42.065 28.2608C42.0412 28.2617 42.0175 28.2645 41.9942 28.2692C41.643 27.8654 41.305 27.4499 40.9758 27.0276C42.41 26.7345 43.6775 25.8195 44.8167 24.9468C45.7566 24.2268 46.7727 23.5486 47.684 22.7691C47.5783 22.992 47.4653 23.2113 47.3453 23.4269ZM48.3391 21.0785C48.2902 21.1014 48.2466 21.1343 48.2113 21.1751C47.1674 22.3493 45.8044 23.1946 44.5752 24.1571C43.3731 25.0987 42.0221 26.1115 40.4698 26.3287C40.4621 26.3298 40.4559 26.3324 40.4485 26.3339C40.376 26.2362 40.3026 26.1391 40.231 26.0409C39.8924 25.5755 39.5625 25.1039 39.2414 24.6262C39.9457 24.1688 40.8329 24.0067 41.599 23.6899C42.5871 23.281 43.4967 22.7132 44.3816 22.1185C45.92 21.0844 47.4109 19.9813 48.8497 18.8127C48.7319 19.5807 48.5672 20.3383 48.3391 21.0785ZM48.9857 17.7309C48.9429 17.7465 48.9002 17.7686 48.8597 17.8021C47.2055 19.1778 45.4852 20.4514 43.6942 21.6432C42.8049 22.2349 41.8726 22.782 40.8631 23.1413C40.1593 23.3917 39.4478 23.5966 38.8182 23.9889C38.5991 23.6551 38.3826 23.3195 38.1688 22.9822C38.1922 22.9748 38.2157 22.9663 38.2397 22.9538C40.4517 21.7993 42.5167 20.3224 44.5631 18.9006C46.2005 17.763 47.7704 16.5375 49.1273 15.0803C49.1131 15.9654 49.074 16.8525 48.9857 17.7309ZM37.2816 21.5541C37.2365 21.4799 37.1911 21.406 37.146 21.3318C37.3351 21.2156 37.5145 21.0788 37.6643 20.916C37.6698 21.0339 37.6648 21.152 37.6492 21.269C37.5449 21.3855 37.4204 21.4821 37.2816 21.5541ZM37.5722 21.5987C37.5431 21.686 37.5066 21.7707 37.4632 21.8518C37.436 21.8077 37.4093 21.7633 37.3823 21.7191C37.4486 21.6839 37.5121 21.6437 37.5722 21.5987ZM37.1849 19.5908C37.2305 19.6528 37.274 19.7162 37.3138 19.7826C37.1381 19.9513 36.904 20.0537 36.6622 20.0997C36.6726 20.0666 36.6797 20.0306 36.6812 19.9911C36.6847 19.9095 36.6942 19.8301 36.7062 19.7514C36.8748 19.7297 37.0374 19.6752 37.1849 19.5908ZM36.7464 19.5498C36.7737 19.4376 36.8072 19.3273 36.8476 19.2187C36.9244 19.2868 36.9964 19.3602 37.063 19.4382C36.9638 19.4914 36.857 19.529 36.7464 19.5498ZM37.4098 19.9583C37.4364 20.012 37.4606 20.0669 37.4838 20.1225C37.4803 20.1275 37.4759 20.1305 37.473 20.1365C37.3266 20.4321 37.0239 20.5386 36.7463 20.6763C36.673 20.5556 36.5988 20.4352 36.5256 20.3145C36.8477 20.2804 37.1686 20.169 37.4098 19.9583ZM37.5673 20.3562C37.596 20.4511 37.6168 20.5475 37.6333 20.6443C37.4784 20.8574 37.2709 21.0268 37.0448 21.1657C36.979 21.0578 36.913 20.9499 36.8473 20.8419C37.1131 20.7075 37.3915 20.5974 37.5673 20.3562ZM36.8777 18.2928C36.702 18.1986 36.4402 18.2367 36.3451 18.4324C36.1884 18.7557 36.0601 19.0795 35.9822 19.4192C35.9725 19.4035 35.9632 19.3877 35.9536 19.3721C35.7518 19.0404 35.5531 18.7073 35.3539 18.3745C36.4688 18.2142 37.5381 17.8633 38.6321 17.5926C38.668 17.752 38.7053 17.9112 38.7431 18.0705C38.5707 18.1002 38.4046 18.1577 38.2538 18.2531C38.1481 18.32 38.2456 18.4884 38.3521 18.4211C38.4877 18.3354 38.6344 18.2853 38.7879 18.2601C38.8132 18.3656 38.8399 18.4707 38.8658 18.5761C38.6713 18.6008 38.4846 18.6676 38.3187 18.7721C38.2131 18.839 38.3106 19.0076 38.4169 18.9401C38.5667 18.8449 38.7363 18.7854 38.9127 18.7661C38.9368 18.8634 38.9622 18.9606 38.9866 19.0579C38.8787 19.0828 38.7726 19.1162 38.6664 19.1515C38.5479 19.1908 38.5987 19.3788 38.7181 19.3391C38.8226 19.3044 38.9274 19.2707 39.0343 19.2464C39.0568 19.3361 39.0799 19.4258 39.1024 19.5155L38.7728 19.6802C38.6606 19.7364 38.759 19.9043 38.871 19.8482L39.1512 19.7082C39.1695 19.7803 39.1872 19.8524 39.2059 19.9245C38.9282 20.0724 38.6498 20.2188 38.3705 20.3637C38.1793 19.4984 37.6271 18.6946 36.8777 18.2928ZM34.1918 20.5254C34.1982 20.5705 34.2043 20.6163 34.2114 20.6608C33.8439 20.6194 33.4545 20.7468 33.1263 20.9425C33.137 20.8063 33.1691 20.6733 33.2292 20.5497C33.5434 20.4302 33.9006 20.3817 34.1918 20.5254ZM33.4418 20.2842C33.629 20.1402 33.878 20.0897 34.1253 20.0809C34.1382 20.1563 34.1485 20.2303 34.1592 20.3043C33.9315 20.2281 33.6831 20.2315 33.4418 20.2842ZM34.9943 22.6364C34.9559 22.6486 34.9176 22.6603 34.8793 22.6724C34.8096 22.5173 34.8003 22.3493 34.8201 22.1809C34.8523 22.344 34.9049 22.5014 34.9943 22.6364ZM34.9833 21.984C35.0947 22.1684 35.2088 22.3512 35.3256 22.5322C35.313 22.5396 35.3002 22.5459 35.2875 22.553C35.2643 22.5559 35.2408 22.5595 35.216 22.567C35.2073 22.5695 35.1986 22.5725 35.1899 22.5751C35.0605 22.4128 35.0102 22.1954 34.9833 21.984ZM35.758 23.1794C36.0749 23.6396 36.4049 24.0917 36.7415 24.5397C36.7379 24.5427 36.7341 24.5447 36.7306 24.5479C36.4402 24.8096 35.9856 24.9065 35.6213 25.0154C35.131 25.1619 34.6329 25.2812 34.1487 25.4484C32.8639 25.8925 31.5515 26.2714 30.2423 26.6368C27.5198 27.3965 24.7509 27.9719 21.9397 28.2768C17.0714 28.8051 11.8285 28.3141 7.27273 26.4585C7.18604 26.4233 7.1086 26.4208 7.04293 26.4411C6.96718 26.29 6.89287 26.1381 6.82003 25.9856C6.62774 25.5833 6.45055 25.174 6.2888 24.7584C8.36242 25.4853 10.4651 26.197 12.6505 26.4686C15.2743 26.7946 18.0229 26.5236 20.6445 26.2813C23.2327 26.0419 25.8354 25.7479 28.4013 25.3297C29.6223 25.1308 30.827 24.8424 32.0058 24.4668C32.9353 24.1709 33.8484 23.8258 34.7754 23.5218C35.102 23.4925 35.4355 23.3837 35.758 23.1794ZM10.6286 31.0867C10.1951 30.7718 9.78903 30.4235 9.427 30.0307C8.69993 29.2419 8.0862 28.342 7.55362 27.4014C12.1706 29.1661 17.3941 29.5549 22.2705 29.0192C25.0988 28.7085 27.8829 28.1037 30.6212 27.3395C31.9491 26.9689 33.2626 26.5537 34.5729 26.1262C35.4217 25.8493 36.4976 25.7437 37.2099 25.157C37.7187 25.8206 38.2362 26.4789 38.7415 27.144C36.7971 28.3272 34.5449 28.9975 32.3782 29.6395C30.0526 30.3296 27.6849 30.869 25.2898 31.2544C20.4457 32.0324 15.4444 32.0804 10.6286 31.0867ZM11.4107 32.4925C11.3171 32.6365 11.2274 32.7829 11.1416 32.9317C11.0561 32.9013 10.9707 32.8708 10.886 32.8387C10.978 32.6762 11.0856 32.5233 11.1955 32.3716C11.2667 32.413 11.339 32.4522 11.4107 32.4925ZM10.7376 32.0978C10.6283 32.2862 10.5105 32.4696 10.3597 32.6223C10.2643 32.5802 10.1687 32.5391 10.0746 32.4942C10.203 32.3016 10.3403 32.1151 10.486 31.9352C10.5691 31.9905 10.6533 32.0443 10.7376 32.0978ZM9.79127 31.4281C9.84926 31.4747 9.9087 31.5197 9.96776 31.5652C9.80789 31.7723 9.65638 31.9858 9.51359 32.2051C9.44063 32.1643 9.36823 32.1225 9.29644 32.0797C9.47497 31.873 9.62986 31.6482 9.79127 31.4281ZM9.12831 31.9763C9.06313 31.9353 8.99794 31.8942 8.93353 31.8512C9.09144 31.6045 9.29235 31.3904 9.47478 31.1607C9.52994 31.2098 9.58705 31.2565 9.64348 31.3043C9.47682 31.5325 9.3157 31.7648 9.12831 31.9763ZM5.86694 25.7522C5.91238 25.8582 5.95859 25.9636 6.00549 26.0685C5.5878 26.2935 5.2176 26.6119 4.84633 26.9141C4.77555 26.7887 4.70592 26.6626 4.63744 26.536C5.02 26.2349 5.43457 25.9769 5.86694 25.7522ZM4.54599 26.3615C4.49316 26.2613 4.43974 26.1613 4.38827 26.0601C4.83514 25.842 5.25817 25.5792 5.69794 25.3472C5.72849 25.4226 5.76031 25.4974 5.79163 25.5723C5.35401 25.7988 4.93467 26.0592 4.54599 26.3615ZM6.08546 26.2419C6.13965 26.3605 6.19735 26.4778 6.25397 26.5955C5.85624 26.8308 5.49236 27.1175 5.11982 27.3916C5.05974 27.2891 5.00016 27.1863 4.94109 27.0832C5.30711 26.7822 5.67245 26.4625 6.08546 26.2419ZM6.33803 26.7718C6.38678 26.8705 6.43815 26.9681 6.48864 27.0658C6.14569 27.353 5.75486 27.5841 5.40382 27.8643C5.34155 27.7628 5.27993 27.6609 5.21897 27.5586C5.58673 27.2883 5.94614 27.0052 6.33803 26.7718ZM6.57913 27.2425C6.60987 27.3007 6.64227 27.358 6.6737 27.4157C6.32052 27.6764 5.95995 27.9318 5.62614 28.2174C5.58625 28.1547 5.54538 28.0928 5.50627 28.0299C5.8502 27.7499 6.23588 27.5214 6.57913 27.2425ZM6.7672 27.5873C6.80709 27.6593 6.84873 27.7304 6.88979 27.8019C6.55305 28.069 6.21194 28.3306 5.87424 28.5965C5.82676 28.5253 5.7785 28.4545 5.7319 28.3829C6.06104 28.0985 6.41733 27.8452 6.7672 27.5873ZM6.98679 27.9717C7.02736 28.0409 7.06929 28.1093 7.11084 28.1779C6.78519 28.4431 6.4471 28.6925 6.12156 28.9579C6.07486 28.8913 6.02767 28.8252 5.98175 28.7579C6.31585 28.4945 6.65336 28.2356 6.98679 27.9717ZM7.21251 28.3446C7.25999 28.4213 7.30863 28.4973 7.35738 28.5734C7.01714 28.8027 6.68596 29.0424 6.38756 29.3258C6.33574 29.2564 6.28443 29.1867 6.23364 29.1166C6.555 28.8531 6.8893 28.6059 7.21251 28.3446ZM7.46352 28.7362C7.53552 28.8456 7.61024 28.9532 7.68467 29.0611C7.36224 29.2909 7.05509 29.5409 6.7418 29.7831C6.66202 29.6838 6.58312 29.5841 6.50577 29.4828C6.79969 29.2007 7.12689 28.9631 7.46352 28.7362ZM7.79491 29.2207C7.83519 29.2776 7.87683 29.3335 7.91789 29.3899C7.79744 29.5124 7.64196 29.6181 7.5219 29.7183C7.35903 29.8541 7.19159 29.9884 7.03621 30.1342C6.97842 30.0672 6.92004 30.001 6.86352 29.9328C7.17233 29.6933 7.47608 29.4471 7.79491 29.2207ZM7.65938 29.8558C7.77516 29.7594 7.91438 29.6605 8.0324 29.5476C8.06353 29.5894 8.09642 29.6293 8.12794 29.6709C7.8561 29.9288 7.57172 30.1734 7.29579 30.4269C7.25133 30.3787 7.20648 30.3308 7.16289 30.2818C7.32138 30.1319 7.49271 29.9948 7.65938 29.8558ZM8.24781 29.8253C8.30278 29.8958 8.35921 29.9652 8.41515 30.0347C8.1293 30.2475 7.86097 30.4945 7.61044 30.7529C7.54963 30.6918 7.48785 30.6318 7.4284 30.5692C7.69985 30.3195 7.97957 30.0785 8.24781 29.8253ZM8.53696 30.1859C8.56012 30.2141 8.58425 30.2412 8.6077 30.2691C8.36329 30.5154 8.1224 30.765 7.88948 31.022C7.84229 30.9779 7.79364 30.9355 7.74714 30.8905C7.9929 30.6365 8.25647 30.3934 8.53696 30.1859ZM8.73379 30.4183C8.7514 30.4386 8.76833 30.4593 8.78603 30.4797C8.54922 30.7177 8.31591 30.9591 8.09321 31.2103C8.07268 31.1919 8.05273 31.1725 8.0322 31.1541C8.25987 30.9028 8.49513 30.6589 8.73379 30.4183ZM8.91874 30.6222C8.94511 30.6509 8.97332 30.6777 9.00028 30.7057C8.79995 30.9574 8.5861 31.1982 8.38801 31.4514C8.33936 31.4127 8.29013 31.3755 8.24207 31.3354C8.46 31.0905 8.68767 30.8548 8.91874 30.6222ZM34.6318 22.7501C34.5291 22.7545 34.4262 22.746 34.3256 22.7249C34.3591 22.447 34.4576 22.1767 34.6555 21.9851C34.603 22.2365 34.5931 22.4974 34.6917 22.7313C34.6717 22.7377 34.6517 22.7437 34.6318 22.7501ZM34.1371 22.669C34.0301 22.6279 33.929 22.5729 33.8364 22.5054C33.8345 22.4916 33.8313 22.478 33.8282 22.4642C34.0027 22.1537 34.2686 21.909 34.5574 21.6963C34.5752 21.6833 34.5864 21.6672 34.5927 21.65C34.6126 21.6752 34.6326 21.7005 34.6547 21.7253C34.6564 21.7271 34.6578 21.728 34.6594 21.7297C34.3465 21.9456 34.1892 22.299 34.1371 22.669ZM34.4593 21.5285C34.1729 21.7395 33.9147 21.9739 33.7254 22.2637C33.6753 22.208 33.6106 22.1675 33.5386 22.1471C33.7252 21.7797 34.033 21.5196 34.3982 21.336C34.4262 21.3953 34.4587 21.4539 34.4952 21.5118C34.4822 21.5147 34.47 21.5204 34.4593 21.5285ZM33.3945 22.0005C33.3601 21.9409 33.3288 21.8797 33.3006 21.817C33.5268 21.4725 33.8595 21.1441 34.2814 21.1259C34.2926 21.1251 34.3035 21.1224 34.3138 21.1179C34.3179 21.1306 34.3212 21.1433 34.3255 21.1558C33.9377 21.3458 33.6009 21.621 33.3945 22.0005ZM33.2152 21.6001C33.1692 21.4606 33.1397 21.3161 33.1273 21.1698C33.4534 20.9513 33.8769 20.7917 34.2486 20.862C34.2536 20.8857 34.2573 20.9097 34.2628 20.933C33.8257 20.9597 33.4709 21.2528 33.2152 21.6001ZM33.134 22.9173C33.2253 23.0058 33.3237 23.0864 33.4283 23.1585C32.9395 23.3295 32.4511 23.502 31.9593 23.6641C30.7846 24.0513 29.5898 24.3381 28.3713 24.5494C25.8215 24.9917 23.2195 25.2594 20.6442 25.503C18.0777 25.7458 15.3895 25.9998 12.8185 25.7112C10.4642 25.447 8.18758 24.6044 5.96248 23.8211C5.89239 23.5928 5.82973 23.3623 5.77461 23.1299C5.82345 23.1001 5.87297 23.0716 5.92191 23.0419C5.92648 23.0448 5.92979 23.0483 5.93456 23.0512C9.84644 25.3777 14.698 25.059 19.0711 24.9529C21.6151 24.8911 24.1626 24.8657 26.6935 24.5713C27.888 24.4322 29.0747 24.227 30.2388 23.923C30.8087 23.774 31.3691 23.5908 31.92 23.3823C32.3143 23.2332 32.7114 22.9818 33.134 22.9173ZM20.3923 21.6442C20.5463 21.7119 20.7011 21.7779 20.8563 21.8431C20.7886 22.1374 20.7732 22.4393 20.7399 22.7391C20.7208 22.7325 20.7019 22.7253 20.6817 22.7219C20.7182 22.4533 20.7289 22.1819 20.7703 21.914C20.7892 21.7912 20.6019 21.7385 20.5827 21.8623C20.5392 22.1441 20.5302 22.4297 20.4887 22.7117C20.4424 22.6919 20.3961 22.6719 20.3493 22.6529C20.3741 22.3198 20.4193 21.9748 20.3923 21.6442ZM20.5666 23.5822C20.9531 23.7529 21.334 23.936 21.7169 24.1144C20.9984 24.1339 20.28 24.148 19.5626 24.1636L19.4629 24.1659C19.834 23.9774 20.2019 23.7828 20.5666 23.5822ZM29.1323 20.8033C29.3257 20.9136 29.5187 21.0249 29.711 21.1371C28.4676 21.8462 27.0351 22.2177 25.8895 23.0931C25.7626 23.031 25.635 22.9703 25.5069 22.9109C26.0915 22.6251 26.6978 22.3817 27.2868 22.1058C27.9307 21.8042 28.6665 21.4635 29.1125 20.8866C29.1332 20.8601 29.1376 20.8305 29.1323 20.8033ZM27.3504 23.7065C27.2438 23.7217 27.1373 23.7369 27.0305 23.7511C26.9989 23.7553 26.9672 23.7588 26.9354 23.7629C26.9336 23.7563 26.9302 23.7499 26.928 23.7434C28.3179 23.1159 29.8824 22.7712 31.1805 21.9588C31.2848 22.0115 31.3899 22.0621 31.4957 22.1118C30.137 22.6995 28.7199 23.1441 27.3504 23.7065ZM31.7327 22.219C31.891 22.2885 32.0516 22.3528 32.2141 22.412C31.7014 22.6319 31.1891 22.8292 30.6554 22.9947C29.8642 23.24 29.0532 23.4229 28.2361 23.5662C29.4042 23.123 30.5898 22.7238 31.7327 22.219ZM26.8123 23.5833C26.7955 23.5697 26.7778 23.5575 26.7591 23.5466C26.6777 23.5007 26.5955 23.4568 26.5134 23.4127C27.8262 22.8009 29.1334 22.1755 30.4803 21.6415C30.5 21.6337 30.5134 21.6208 30.5238 21.6064C30.6743 21.6912 30.8258 21.774 30.9784 21.8544C29.6961 22.6244 28.1707 22.9672 26.8123 23.5833ZM26.2984 23.2993C26.2263 23.262 26.1544 23.2243 26.0819 23.188C27.2335 22.3334 28.6766 21.9751 29.9055 21.2506C30.0458 21.3325 30.1866 21.4141 30.3277 21.4948C28.9607 22.0421 27.6326 22.6785 26.2984 23.2993ZM25.7563 23.8942C25.6597 23.9033 25.563 23.9101 25.4663 23.9183C25.4832 23.8703 25.4981 23.8219 25.5117 23.773C25.5937 23.8128 25.6752 23.8529 25.7563 23.8942ZM28.975 20.7492C28.5376 21.3149 27.8186 21.6375 27.1887 21.938C26.5585 22.2386 25.9055 22.493 25.2813 22.8062C25.1189 22.7331 24.9558 22.6616 24.792 22.5917C26.132 21.9398 27.5281 21.3927 28.8038 20.6185C28.8693 20.6548 28.9338 20.6913 28.9985 20.7279C28.9894 20.7335 28.9815 20.7407 28.975 20.7492ZM25.3338 23.6878C25.3118 23.7722 25.2846 23.8551 25.2523 23.9361C25.1868 23.9413 25.1214 23.9475 25.0559 23.9524C25.1135 23.8454 25.1562 23.7339 25.19 23.6196C25.2381 23.642 25.2858 23.6651 25.3338 23.6878ZM24.8689 23.9661C24.8028 23.9707 24.7365 23.976 24.6703 23.9805C24.6825 23.7919 24.7186 23.608 24.7675 23.4266C24.8494 23.4629 24.9305 23.5011 25.012 23.5383C24.9786 23.657 24.9355 23.7726 24.8735 23.8821C24.8659 23.8946 24.8615 23.9089 24.8607 23.9235C24.8599 23.9382 24.8627 23.9528 24.8689 23.9661ZM24.554 22.4916C24.4109 22.4317 24.2675 22.3726 24.1237 22.3144C25.4962 21.5594 27.0523 21.1986 28.4077 20.4063C28.4743 20.4404 28.5398 20.4755 28.6055 20.5106C27.3125 21.2797 25.9015 21.8262 24.554 22.4916ZM22.0823 22.3362C22.1369 22.3577 22.1918 22.379 22.2466 22.4004C22.1971 22.7429 22.126 23.082 22.0339 23.4156C21.9847 23.393 21.9354 23.3705 21.8862 23.3477C21.9697 23.0141 22.0229 22.6749 22.0823 22.3362ZM21.7064 23.2635C21.6287 23.2271 21.5509 23.1908 21.4733 23.1544C21.5715 22.8395 21.6504 22.5191 21.7397 22.2016C21.7924 22.2225 21.8453 22.2431 21.898 22.2639C21.8393 22.5983 21.7869 22.9336 21.7064 23.2635ZM22.432 22.4731L22.5606 22.5233C22.5052 22.8703 22.4377 23.2139 22.297 23.5355C22.2691 23.523 22.241 23.5106 22.2131 23.498C22.3071 23.1612 22.3802 22.8189 22.432 22.4731ZM22.744 22.5949L22.9144 22.6619C22.8556 23.0155 22.7948 23.3688 22.7219 23.7197C22.639 23.685 22.5562 23.6504 22.4739 23.6143C22.615 23.2891 22.6865 22.9445 22.744 22.5949ZM23.0987 22.7339C23.1591 22.7577 23.2193 22.7818 23.2797 22.8057C23.2163 23.1549 23.1231 23.4963 23.0073 23.835C22.973 23.8213 22.9384 23.8083 22.9042 23.7944C22.978 23.4427 23.0395 23.0886 23.0987 22.7339ZM23.4631 22.8786C23.5088 22.8969 23.5541 22.9158 23.5995 22.9341C23.5285 23.2832 23.4032 23.6185 23.2431 23.9373C23.2253 23.9262 23.2067 23.9164 23.1876 23.9078C23.3042 23.569 23.3978 23.2273 23.4631 22.8786ZM23.7807 23.0077C23.8289 23.0274 23.8766 23.0477 23.9248 23.0675C23.846 23.4065 23.7512 23.7403 23.577 24.0454C23.5184 24.0483 23.4598 24.0516 23.4012 24.0543C23.5707 23.7207 23.7023 23.3719 23.7807 23.0077ZM24.1064 23.1427C24.1851 23.1754 24.2632 23.209 24.3415 23.2423C24.2619 23.5018 24.1733 23.7585 24.092 24.0175C23.9963 24.0231 23.9005 24.0287 23.8046 24.0338C23.9474 23.7519 24.034 23.4498 24.1064 23.1427ZM24.5217 23.3187C24.5437 23.3282 24.5655 23.338 24.5876 23.3476C24.5292 23.5591 24.4873 23.7736 24.475 23.9939C24.4163 23.9977 24.3579 24.0024 24.2993 24.0059C24.3726 23.7765 24.4504 23.5487 24.5217 23.3187ZM23.893 22.2215C23.7196 22.1522 23.5459 22.0836 23.3721 22.0155C24.9632 21.4814 26.5521 20.9257 28.0886 20.2494C28.1255 20.2666 28.1617 20.2856 28.1985 20.3035C26.8256 21.0763 25.2602 21.4359 23.893 22.2215ZM23.0899 21.9051L22.7492 21.7724C23.796 21.2848 24.9054 20.8653 26.0112 20.5605C26.4409 20.4421 26.8691 20.3165 27.2893 20.1672C27.3846 20.1334 27.5025 20.0965 27.6157 20.0485C27.694 20.0782 27.7718 20.1096 27.849 20.1424C26.298 20.8162 24.6933 21.3687 23.0899 21.9051ZM26.8165 20.1214C26.4477 20.2397 26.0738 20.3422 25.7002 20.4439C24.6166 20.7388 23.5218 21.1868 22.5007 21.6752C22.3558 21.6186 22.2111 21.5616 22.0665 21.5042C23.0604 21.1018 24.104 20.7975 25.1134 20.4454C25.6824 20.2469 26.4423 20.1796 26.9783 19.8524C27.1096 19.8826 27.2397 19.9199 27.3689 19.962C27.168 20.032 26.9486 20.0789 26.8165 20.1214ZM25.9516 19.994C25.5739 20.105 25.192 20.2017 24.826 20.3479C23.8367 20.7431 22.7999 20.9998 21.8137 21.4032C21.7284 21.3689 21.6432 21.3344 21.5581 21.2996C22.6128 20.8471 23.7453 20.6095 24.8219 20.2156C25.1696 20.0884 25.5135 19.9503 25.859 19.8173C25.8901 19.8051 25.9308 19.7865 25.9766 19.7646C26.0532 19.7618 26.1296 19.7586 26.2063 19.7587C26.3543 19.7593 26.5022 19.77 26.6487 19.7907C26.4182 19.8781 26.1623 19.9321 25.9516 19.994ZM24.8449 20.0001C23.6802 20.4397 22.4486 20.683 21.3119 21.1974C21.2545 21.1735 21.197 21.1498 21.1398 21.1255C22.5082 20.6494 23.8761 20.026 25.2997 19.8252C25.1482 19.8837 24.997 19.9427 24.8449 20.0001ZM21.2641 22.0112C21.1958 22.3072 21.1524 22.6079 21.1144 22.9098C21.0986 23.034 21.2934 23.0325 21.309 22.9098C21.3439 22.6324 21.3845 22.3568 21.446 22.0848C21.4834 22.0998 21.5209 22.1145 21.5582 22.1295C21.4695 22.443 21.3908 22.7595 21.2951 23.0713C21.181 23.0181 21.0666 22.9655 20.952 22.9135C20.942 22.897 20.9296 22.8824 20.9176 22.8673C20.918 22.8651 20.9194 22.8634 20.9197 22.8611C20.9613 22.5469 20.9706 22.2291 21.0381 21.9193C21.1133 21.9505 21.1889 21.9803 21.2641 22.0112ZM32.5952 20.0859C32.3005 20.542 32.2955 21.1415 32.427 21.6629C31.6151 21.3671 30.8584 20.9159 30.1016 20.4675C30.9497 20.1933 31.7879 19.8592 32.4811 19.2932C32.4896 19.2863 32.4971 19.279 32.5048 19.2718C32.634 19.4303 32.7634 19.5877 32.8917 19.7437C32.7773 19.8433 32.6775 19.9585 32.5952 20.0859ZM31.9306 18.7429C31.1833 19.353 30.1884 19.6333 29.2809 19.9076C29.2511 19.9166 29.2224 19.9289 29.1953 19.9441C28.2646 19.4317 27.3012 19.016 26.2063 18.9805C24.0423 18.9101 21.98 20.1349 19.9406 20.6859C19.874 20.704 19.8178 20.7417 19.7728 20.79C19.5419 20.8459 19.3531 21.0927 19.5134 21.355C19.7698 21.7738 19.5683 22.444 19.5577 22.9098C19.5552 23.021 19.6014 23.1121 19.6736 23.1805C19.1839 23.4392 18.689 23.6881 18.1936 23.9358C18.0653 24 18.0076 24.1009 17.9987 24.2069C16.115 24.2641 14.1666 24.3165 12.2679 24.1359C12.3138 24.1115 12.36 24.0876 12.407 24.064C12.5193 24.008 12.4207 23.8401 12.3087 23.896C12.1819 23.9588 12.058 24.0274 11.9375 24.1016C11.7484 24.0812 11.5596 24.0581 11.3712 24.0323C11.4349 23.9988 11.4995 23.9665 11.5639 23.9343C11.676 23.8781 11.5776 23.7103 11.4656 23.7662C11.327 23.8355 11.1891 23.9061 11.0581 23.9873C10.9132 23.9648 10.7685 23.9407 10.6244 23.9147C10.7176 23.8504 10.8147 23.792 10.9151 23.7396C11.0267 23.6823 10.9283 23.5143 10.8168 23.5715C10.6551 23.6546 10.5034 23.7548 10.3601 23.8662C10.1884 23.8325 10.0173 23.7958 9.84683 23.7564C13.0649 21.488 16.7996 20.1852 20.5197 18.971C22.2499 18.4062 24.0112 17.9985 25.7756 17.5582C27.3545 17.1642 28.9977 16.7424 30.4214 15.9269C30.4368 15.9759 30.4528 16.0227 30.469 16.0665C30.8224 17.0158 31.4029 17.8715 32.0322 18.6806C31.9956 18.6966 31.9614 18.7175 31.9306 18.7429ZM30.2651 15.1361C30.2308 15.1455 30.196 15.1584 30.1609 15.1793C28.7209 16.0376 27.033 16.4424 25.4214 16.8446C23.6506 17.2866 21.89 17.7058 20.1537 18.2726C16.2328 19.5523 12.2829 20.9498 8.95085 23.4492C8.93033 23.4648 8.91119 23.482 8.89364 23.5008C8.80647 23.4742 8.71997 23.4446 8.63328 23.4158C8.74138 23.3271 8.8701 23.2678 9.01098 23.2305C9.13211 23.1984 9.08074 23.0106 8.95931 23.0429C8.7515 23.0979 8.57043 23.1962 8.42624 23.3455C8.31679 23.3068 8.20733 23.2675 8.09885 23.226C8.34646 23.085 8.59904 22.9669 8.88138 22.9062C9.00397 22.8798 8.95202 22.6922 8.82972 22.7185C8.4924 22.791 8.19293 22.9423 7.89833 23.1175C7.8885 23.1234 7.88228 23.1308 7.87566 23.1381C7.80931 23.1112 7.74305 23.0848 7.67708 23.0568C7.89755 22.9508 8.10955 22.8284 8.32088 22.7017C8.42838 22.6373 8.3306 22.4691 8.22261 22.5337C7.96692 22.687 7.71065 22.8352 7.43823 22.9527C7.32322 22.9016 7.20911 22.8485 7.09595 22.7935C7.28324 22.6896 7.47958 22.6022 7.67232 22.5072C7.78479 22.4517 7.68623 22.2839 7.57405 22.3391C7.34337 22.453 7.10763 22.5556 6.88862 22.6893C6.8214 22.6548 6.75455 22.6196 6.6881 22.5837C11.4665 19.7839 16.6108 17.694 21.8621 15.952C24.6501 15.0271 27.4701 14.2007 30.2962 13.4009C31.6556 13.0161 33.0063 12.7162 34.4004 12.4844C35.6039 12.2842 36.815 12.1154 38.0079 11.8566C38.0031 11.9544 37.9995 12.0521 37.9967 12.1498C37.7893 12.1707 37.5872 12.2383 37.4109 12.3504C37.3054 12.4173 37.4029 12.5859 37.5092 12.5184C37.6556 12.4255 37.821 12.3665 37.9932 12.3459C37.9925 12.3882 37.9912 12.4306 37.9911 12.4729C37.7901 12.555 37.581 12.612 37.3695 12.665C37.2478 12.6955 37.2994 12.8832 37.4211 12.8527C37.6149 12.8042 37.8055 12.751 37.9909 12.6811C37.9917 12.7983 37.9931 12.9156 37.9964 13.0326C37.867 13.0845 37.7292 13.1127 37.5898 13.1156C37.4644 13.1179 37.4642 13.3125 37.5898 13.3102C37.7306 13.3073 37.8702 13.2826 38.0035 13.2371C38.007 13.3261 38.0101 13.415 38.0149 13.5038C36.3124 13.7511 34.6927 14.3449 33.1178 15.024C32.8988 14.7549 32.6681 14.4958 32.4194 14.2558C32.0926 13.9403 31.6108 13.5343 31.1189 13.6C30.3646 13.7007 30.2058 14.4376 30.2651 15.1361ZM19.2723 13.7482C19.2744 13.757 19.278 13.7659 19.2807 13.7748C19.0294 13.9292 18.7522 13.9897 18.4366 14.0241C18.4491 13.9023 18.475 13.779 18.5086 13.6592C18.7651 13.7143 19.0175 13.7697 19.2723 13.7482ZM18.5676 13.4735C18.5916 13.4051 18.617 13.3388 18.6427 13.2761C18.8166 13.3743 18.9945 13.4662 19.1723 13.5565C18.9707 13.5601 18.7706 13.5175 18.5676 13.4735ZM19.373 13.9454C19.3823 13.9591 19.3922 13.9713 19.4018 13.9843C19.1628 14.249 18.8938 14.4712 18.5346 14.5702C18.5245 14.573 18.5173 14.5781 18.5096 14.5829C18.4581 14.4714 18.4338 14.348 18.4296 14.2196C18.7802 14.1819 19.0917 14.1142 19.373 13.9454ZM19.5255 14.136C19.5521 14.1644 19.5797 14.1909 19.6078 14.216C19.4778 14.533 19.2798 14.8281 18.9987 15.0171C18.8667 14.9631 18.7454 14.886 18.6438 14.7803C18.6337 14.7699 18.6251 14.7586 18.6159 14.7478C18.9867 14.6379 19.273 14.4111 19.5255 14.136ZM19.7672 14.3365C19.8057 14.3606 19.8452 14.381 19.8852 14.3989C19.9075 14.6557 19.8127 14.8911 19.6909 15.1146C19.5361 15.1249 19.378 15.1172 19.2267 15.0858C19.464 14.8875 19.6421 14.6231 19.7672 14.3365ZM19.9233 15.085C20.0184 14.8858 20.0814 14.6803 20.0801 14.46C20.0846 14.4608 20.0892 14.4608 20.0939 14.4616C20.1085 14.6586 20.112 14.8551 20.082 15.048C20.0472 15.0567 20.0134 15.0671 19.9779 15.0747C19.9599 15.0786 19.9416 15.0817 19.9233 15.085ZM20.2889 14.4693C20.3389 14.4644 20.3882 14.4548 20.4362 14.4405C20.5213 14.58 20.5441 14.7431 20.518 14.9034C20.4421 14.9355 20.3648 14.9645 20.2865 14.9902C20.3049 14.818 20.3015 14.6433 20.2889 14.4693ZM20.6147 14.3657C20.6965 14.32 20.7772 14.2589 20.8557 14.1816C20.9856 14.2774 21.0713 14.408 21.1015 14.5708C20.9814 14.6599 20.8544 14.7393 20.7217 14.8083C20.7263 14.6539 20.6893 14.501 20.6147 14.3657ZM38.0731 14.274C38.0873 14.4215 38.1054 14.5684 38.123 14.7155C37.8996 14.7194 37.6805 14.7823 37.4754 14.88C37.3623 14.934 37.4611 15.1017 37.5737 15.0481C37.7519 14.9631 37.9478 14.9064 38.1447 14.9072C38.1552 14.9893 38.1675 15.0712 38.1791 15.153C37.9613 15.1331 37.7392 15.177 37.5405 15.2692C37.4268 15.3219 37.5257 15.4898 37.6388 15.4372C37.8162 15.3552 38.0135 15.326 38.2071 15.3534C38.2247 15.4724 38.2432 15.5912 38.2625 15.71H37.6546C37.529 15.71 37.529 15.9046 37.6546 15.9046H38.2955C38.3095 15.9861 38.3247 16.0674 38.3391 16.1488C38.1911 16.173 38.0445 16.2347 37.9297 16.3071C37.8239 16.3739 37.9214 16.5423 38.028 16.4752C38.112 16.422 38.245 16.3574 38.3722 16.3339C38.4029 16.5 38.435 16.6659 38.4688 16.8315C37.2881 17.123 36.1317 17.5319 34.9157 17.6476C34.563 17.0698 34.2002 16.4982 33.8084 15.9434C33.7404 15.8473 33.6717 15.7517 33.6023 15.6565C35.0318 15.0436 36.5289 14.4938 38.0731 14.274ZM39.8006 19.102C39.7852 19.0402 39.7695 18.9786 39.754 18.9169C39.9333 18.9662 40.1113 19.0204 40.2877 19.0794C40.4071 19.1192 40.4579 18.9313 40.3394 18.8917C40.1276 18.8212 39.9155 18.7547 39.6992 18.6995C39.6754 18.604 39.6505 18.5086 39.6271 18.4131C39.8229 18.4658 40.0154 18.5266 40.1996 18.6155C40.312 18.6698 40.4108 18.502 40.2978 18.4475C40.066 18.3356 39.8232 18.2628 39.5752 18.1989C39.5416 18.0597 39.5067 17.9207 39.4742 17.7814C39.7339 17.8865 39.9955 17.9868 40.2568 18.0874C40.6711 18.2471 41.1209 18.3922 41.5102 18.6214C41.1252 18.8557 40.7342 19.0805 40.341 19.3014C40.3368 19.2565 40.3067 19.2138 40.2487 19.2125C40.0906 19.2091 39.9474 19.1535 39.8006 19.102ZM40.1641 19.4009C40.0798 19.4478 39.9961 19.4962 39.9115 19.5428C39.8929 19.4706 39.8752 19.3984 39.8569 19.3261C39.9576 19.3599 40.0582 19.3887 40.1641 19.4009ZM39.2679 16.8499C39.2509 16.7688 39.2355 16.6874 39.2191 16.6062C39.4257 16.6957 39.6266 16.796 39.8105 16.929C39.9123 17.0028 40.0093 16.8338 39.9087 16.761C39.6827 16.5974 39.4301 16.4821 39.1732 16.3764C39.1491 16.2508 39.1258 16.1251 39.1033 15.9992C39.3468 16.0717 39.5825 16.1681 39.8105 16.2805C39.9226 16.3356 40.0213 16.1678 39.9087 16.1124C39.6386 15.9794 39.3577 15.8639 39.0665 15.7854C39.0504 15.6916 39.0362 15.5974 39.0212 15.5035C39.3106 15.6025 39.6078 15.6766 39.8988 15.7714C40.0184 15.8104 40.0693 15.6226 39.9505 15.5838C39.6307 15.4794 39.3026 15.4006 38.9864 15.2854C38.972 15.1896 38.9581 15.0936 38.9448 14.9977C39.2464 15.0651 39.5315 15.1874 39.8339 15.2525C39.9562 15.2788 40.0083 15.0914 39.8856 15.0649C39.577 14.9983 39.2862 14.872 38.9776 14.8054C38.9583 14.8013 38.9383 14.8034 38.9202 14.8113C38.9142 14.7651 38.9078 14.7191 38.9021 14.6728C40.8769 14.9211 42.8248 15.6344 44.6702 16.3654C44.1231 16.8412 43.5399 17.2773 42.9513 17.6867C42.7087 17.8552 42.4632 18.0196 42.2151 18.1799C42.1912 18.1489 42.1631 18.1214 42.1317 18.0981C41.3133 17.4906 40.21 17.2576 39.2679 16.8499ZM38.8231 13.8847C38.8166 13.8014 38.8122 13.7179 38.8066 13.6344H39.3406C39.4661 13.6344 39.4661 13.4398 39.3406 13.4398H38.7938C38.7871 13.3146 38.7818 13.1894 38.7778 13.064C39.0078 13.0901 39.2249 13.1577 39.4211 13.2969C39.5239 13.3696 39.6209 13.2008 39.5194 13.1288C39.2951 12.9699 39.0401 12.8952 38.7738 12.8685C38.7721 12.7806 38.7726 12.6924 38.7723 12.6042C39.0272 12.6258 39.2672 12.693 39.5093 12.7877C39.6262 12.8336 39.6765 12.6453 39.5609 12.6001C39.3024 12.4988 39.0441 12.4301 38.7715 12.4091C38.7728 12.2642 38.7761 12.1191 38.7819 11.9737C41.463 12.3581 43.986 13.4865 46.5753 14.2435C46.2025 14.8104 45.7608 15.326 45.2775 15.8028C45.2406 15.7692 45.1981 15.7424 45.1518 15.7238C43.1272 14.9169 41.0005 14.1414 38.8231 13.8847ZM22.9631 13.0118C23.0847 13.0678 23.2086 13.1185 23.3345 13.1639C23.1778 13.2295 23.0213 13.2962 22.8658 13.3645C22.9037 13.249 22.936 13.1312 22.9631 13.0118ZM22.4783 14.3921C25.0491 13.1689 27.7976 12.393 30.5622 11.7472C33.1581 11.1408 35.8142 10.7323 38.3923 10.0618C40.2765 11.0115 42.3098 11.8444 44.3701 12.288C45.8555 12.6078 48.0263 12.617 48.9932 13.9929C49.0031 14.0068 49.0132 14.0194 49.0236 14.0314C47.5734 15.7066 45.8468 17.0638 44.0308 18.3255C42.1451 19.6355 40.2405 20.9884 38.2172 22.0844C38.353 21.7905 38.4247 21.4736 38.4397 21.1508C38.5055 21.1516 38.5705 21.1359 38.6288 21.1053C40.3358 20.2229 42.0208 19.2921 43.5934 18.1839C45.0713 17.1425 46.49 15.9158 47.4274 14.3498C47.5329 14.1735 47.4821 14.0051 47.3687 13.8954C47.3532 13.7586 47.2697 13.6317 47.0975 13.5834C44.3306 12.8104 41.6662 11.6096 38.8097 11.1999C38.743 10.9414 38.4004 10.8912 38.1954 11.0479C38.1427 11.0394 38.0888 11.0414 38.0368 11.0539C35.4525 11.6502 32.818 11.8803 30.2584 12.6026C27.4312 13.4002 24.6126 14.2289 21.8219 15.1464C21.715 15.1814 21.6085 15.2177 21.5018 15.2532C21.8181 15.0264 22.0942 14.7477 22.3228 14.4323C22.3767 14.4292 22.4296 14.4155 22.4783 14.3921ZM21.7354 12.464C21.9079 12.3749 22.0894 12.3358 22.2781 12.3187C22.2735 12.3947 22.2661 12.4706 22.2561 12.5462C22.0826 12.4997 21.8982 12.4903 21.7204 12.511C21.7254 12.4954 21.7306 12.4796 21.7354 12.464ZM21.6538 12.7169C21.8416 12.6814 22.0405 12.6876 22.2246 12.741C22.2064 12.8375 22.1838 12.9331 22.1569 13.0275C21.9724 12.963 21.7868 12.9119 21.5954 12.8848C21.6159 12.8291 21.635 12.7729 21.6538 12.7169ZM21.5239 13.071C21.7205 13.0941 21.9095 13.1462 22.0975 13.212C22.0588 13.3208 22.0139 13.4273 21.9631 13.531C21.8053 13.4113 21.6195 13.334 21.4234 13.3063C21.4591 13.2289 21.4922 13.1502 21.5239 13.071ZM21.3316 13.4945C21.5282 13.5086 21.7157 13.5828 21.8687 13.707C21.8217 13.7894 21.7707 13.8694 21.7157 13.9467C21.5827 13.8151 21.4059 13.7263 21.2211 13.6943C21.2599 13.6294 21.2964 13.5624 21.3316 13.4945ZM21.5944 14.1043C21.4951 14.2242 21.386 14.3356 21.2683 14.4374C21.2177 14.2756 21.1202 14.1384 20.9844 14.0346C21.0266 13.9827 21.0665 13.9287 21.105 13.8735C21.288 13.8815 21.4685 13.9699 21.5944 14.1043ZM17.8998 11.431C17.8825 11.1763 18.0495 10.8469 18.2983 10.767C18.8019 10.6054 19.4802 11.0621 19.8829 11.3071C20.2823 11.5504 20.6553 11.832 21.0278 12.114C20.9076 12.5252 20.7544 12.9263 20.5442 13.3003C20.5086 13.3649 20.47 13.4279 20.4284 13.4888C20.4136 13.3902 20.3566 13.2969 20.2405 13.2335C19.6235 12.8966 18.9577 12.6216 18.4036 12.1814C18.1685 11.9944 17.9212 11.7469 17.8998 11.431ZM5.55161 21.4203C9.49696 19.1126 13.6948 17.2977 18.0071 15.7934C18.061 15.7753 18.1104 15.7459 18.1521 15.7073C18.1673 15.7016 18.1826 15.6967 18.1974 15.6892C18.2526 15.6615 18.3082 15.6345 18.3642 15.6084L18.3664 15.6073C18.3706 15.6057 18.3758 15.6039 18.3824 15.6013C18.3928 15.5973 18.4039 15.5948 18.4145 15.5911C18.7717 15.8116 19.2126 15.899 19.6364 15.889C14.8461 17.5695 10.166 19.5866 5.80633 22.1995C5.74396 22.237 5.68208 22.275 5.62011 22.3128C5.58334 22.059 5.55912 21.8037 5.54752 21.5476C5.54675 21.531 5.54315 21.5165 5.54091 21.501C5.54704 21.4745 5.55122 21.4474 5.55161 21.4203ZM5.62516 25.1661C5.17976 25.3993 4.75196 25.6659 4.30042 25.8872C4.22554 25.7372 4.15253 25.5863 4.08141 25.4344C4.53081 25.1854 5.00852 24.9911 5.48098 24.7885C5.52747 24.915 5.57553 25.0408 5.62516 25.1661ZM5.33027 24.3604C5.35771 24.4427 5.38767 24.5241 5.41657 24.6059C4.93964 24.8109 4.45657 25.0063 4.00163 25.2566C3.94841 25.1398 3.89461 25.0235 3.84401 24.9055C4.30168 24.65 4.79749 24.4781 5.28697 24.2924C5.29894 24.3161 5.31295 24.3391 5.33027 24.3604ZM5.24339 24.0917C5.24339 24.0949 5.24397 24.0981 5.24397 24.1014C4.74378 24.2914 4.2363 24.4663 3.76744 24.7251C3.7294 24.6338 3.69185 24.5424 3.65556 24.4505C4.13901 24.1887 4.63044 23.9374 5.13588 23.7198C5.16961 23.8444 5.20545 23.9683 5.24339 24.0917ZM5.08567 23.5314C4.57284 23.7511 4.07411 24.0034 3.58356 24.2687C3.53244 24.1341 3.48324 23.9989 3.43597 23.8629C3.97575 23.6797 4.48839 23.4295 4.99733 23.1731C5.02448 23.293 5.05493 23.4122 5.08567 23.5314ZM4.95365 22.9778C4.43867 23.2377 3.92088 23.4936 3.37418 23.6786C3.33322 23.5549 3.29246 23.4313 3.25519 23.3068C3.58687 23.162 3.91786 23.0154 4.24866 22.8687C4.39255 22.8049 4.70243 22.7335 4.88525 22.6127C4.90578 22.7347 4.92874 22.8564 4.95365 22.9778ZM4.8475 22.367C4.81208 22.3903 4.78221 22.4191 4.74894 22.4518C4.74631 22.4543 4.74573 22.4572 4.74339 22.4599C4.6353 22.5066 4.46484 22.5619 4.43371 22.5755C4.24496 22.6582 4.05679 22.7421 3.86843 22.8257C3.64651 22.9243 3.4238 23.0214 3.2011 23.1187C3.16395 22.9879 3.12902 22.8565 3.09631 22.7245C3.60331 22.3439 4.19495 22.1538 4.80342 22.0065C4.81529 22.1271 4.83067 22.2471 4.8475 22.367ZM4.19826 21.3668C4.17287 21.3743 4.14806 21.383 4.12286 21.3908C3.98201 21.2752 3.83765 21.1639 3.69 21.0571C3.85753 21.1634 4.02697 21.2666 4.19826 21.3668ZM3.28574 21.0167C3.49887 21.1548 3.70482 21.3036 3.90278 21.4626C3.82806 21.4886 3.75382 21.5152 3.68046 21.5439C3.50197 21.373 3.31454 21.2118 3.11898 21.0608C3.17715 21.0587 3.23412 21.0436 3.28574 21.0167ZM2.8236 21.0845C3.05691 21.249 3.27582 21.4308 3.48451 21.6256C3.38965 21.667 3.29567 21.7105 3.20324 21.758C2.9781 21.5452 2.75686 21.328 2.51936 21.1301C2.62031 21.1119 2.72176 21.0967 2.8236 21.0845ZM2.27088 21.1783C2.53765 21.385 2.77914 21.6222 3.02373 21.8552C2.97194 21.8848 2.92075 21.9154 2.8702 21.947C2.58523 21.7118 2.32303 21.4497 2.03105 21.2305C2.11102 21.2127 2.1908 21.1952 2.27088 21.1783ZM1.78071 21.2865C2.10489 21.5024 2.38286 21.7886 2.68126 22.0418C2.62085 22.0401 2.56073 22.0507 2.50458 22.073C2.11404 21.8938 1.78528 21.6478 1.50197 21.3463C1.59508 21.3276 1.68799 21.3072 1.78071 21.2865ZM0.881623 21.8178C1.23334 22.2106 1.64518 22.5378 2.14021 22.7593C2.19449 22.784 2.25347 22.7967 2.3131 22.7965C2.34365 22.9278 2.37732 23.0582 2.41244 23.1884C1.9788 22.9693 1.51374 22.8151 1.04313 22.6925C0.979907 22.4028 0.926043 22.111 0.881623 21.8178ZM1.09226 22.9073C1.57474 23.0378 2.04866 23.2042 2.48502 23.4475C2.53162 23.6072 2.58202 23.7657 2.63466 23.9237C2.15374 23.7529 1.66464 23.6085 1.21155 23.3758C1.16912 23.2203 1.12936 23.0641 1.09226 22.9073ZM1.28286 23.6287C1.74491 23.8426 2.2375 23.9823 2.71775 24.16C2.7411 24.2261 2.76629 24.2917 2.79062 24.3576C2.3204 24.205 1.83812 24.0907 1.37257 23.9234C1.34164 23.8254 1.31173 23.7272 1.28286 23.6287ZM1.44768 24.1547C1.91994 24.3143 2.40641 24.4288 2.87779 24.5914C2.93163 24.7299 2.98725 24.8678 3.04465 25.0049C2.57842 24.8631 2.11881 24.7032 1.63 24.6673C1.56593 24.4976 1.50514 24.3267 1.44768 24.1547ZM1.71056 24.8697C2.20326 24.9213 2.66813 25.0977 3.14321 25.2367C3.22064 25.4152 3.30072 25.5925 3.38343 25.7686C2.8812 25.6063 2.38315 25.4315 1.87898 25.2755C1.82083 25.1411 1.76469 25.0058 1.71056 24.8697ZM1.98367 25.5115C2.49105 25.673 2.9927 25.8513 3.50086 26.0112C3.53773 26.0874 3.57685 26.1621 3.6145 26.2379C3.14301 26.12 2.66131 26.047 2.18623 25.9423C2.11647 25.7998 2.04894 25.6561 1.98367 25.5115ZM2.29919 26.1643C2.77729 26.2629 3.26006 26.3386 3.73028 26.4688C3.82792 26.6604 3.92761 26.8509 4.02936 27.0403C3.53336 26.8861 3.03765 26.7326 2.53406 26.6056C2.45333 26.4598 2.37503 26.3127 2.29919 26.1643ZM2.66813 26.8409C3.16928 26.9743 3.66373 27.131 4.15954 27.2845C4.16002 27.2847 4.16041 27.2845 4.1609 27.2847C4.16216 27.2867 4.16323 27.289 4.1645 27.2911C4.21217 27.3774 4.26072 27.4634 4.30966 27.5495C3.84178 27.4233 3.36465 27.334 2.89336 27.2193C2.81648 27.0942 2.74139 26.9681 2.66813 26.8409ZM3.04232 27.4542C3.51224 27.562 3.98597 27.6533 4.4483 27.7904C4.53963 27.9469 4.63268 28.1024 4.72744 28.2568C4.27908 28.1735 3.833 28.0784 3.38965 27.9716C3.2705 27.8015 3.1547 27.629 3.04232 27.4542ZM3.56001 28.2122C3.9928 28.3126 4.42818 28.4015 4.86569 28.4787C4.95102 28.6141 5.03794 28.7484 5.12644 28.8816C4.72267 28.8053 4.31997 28.7251 3.91173 28.6764C3.79159 28.5239 3.67433 28.3692 3.56001 28.2122ZM4.08501 28.8947C4.48537 28.9513 4.88145 29.0336 5.27909 29.107C5.34486 29.2033 5.41209 29.2988 5.47961 29.3939C5.12783 29.337 4.77288 29.3017 4.41678 29.2882C4.30411 29.1588 4.1935 29.0276 4.08501 28.8947ZM4.59599 29.4919C4.94713 29.5127 5.29622 29.5548 5.64229 29.6186C5.68714 29.6798 5.73316 29.74 5.77889 29.8007C5.42951 29.7455 5.08207 29.678 4.73084 29.6358C4.68619 29.5875 4.63987 29.5409 4.59599 29.4919ZM4.93915 29.8581C5.27588 29.9072 5.61008 29.9726 5.94701 30.0204C6.00179 30.0908 6.05647 30.1611 6.11231 30.2305C5.75778 30.187 5.41229 30.0928 5.06777 29.9952C5.02389 29.9504 4.98254 29.9034 4.93915 29.8581ZM5.34778 30.2735C5.65562 30.3543 5.96628 30.42 6.28472 30.4417C6.34066 30.5088 6.39826 30.5744 6.45547 30.6405C6.21126 30.6341 5.96744 30.6231 5.72372 30.6263C5.59639 30.5109 5.47106 30.3933 5.34778 30.2735ZM5.94507 30.8215C6.17312 30.825 6.40118 30.8358 6.62962 30.8386C6.69617 30.9125 6.76253 30.9866 6.83044 31.0592C6.60073 31.0308 6.37082 31.0047 6.13975 30.9923C6.07398 30.9365 6.00996 30.8784 5.94507 30.8215ZM6.39729 31.206C6.61337 31.2257 6.82869 31.2534 7.04409 31.2801C7.15537 31.3934 7.26871 31.5047 7.38404 31.6138C7.22508 31.6118 7.06616 31.6078 6.9073 31.602C6.73454 31.4735 6.5645 31.3415 6.39729 31.206ZM7.18536 31.8055C7.32313 31.8084 7.4608 31.8103 7.59857 31.8111C7.73054 31.9275 7.86614 32.0398 8.00516 32.1477C7.88811 32.1392 7.77107 32.1321 7.65383 32.1257C7.49581 32.0217 7.33963 31.9149 7.18536 31.8055ZM8.44522 32.6136C8.29132 32.5253 8.13897 32.4344 7.98823 32.3408C8.09068 32.3482 8.19313 32.3555 8.29558 32.364C8.42083 32.4526 8.54843 32.5379 8.67823 32.6197C8.6005 32.6183 8.52286 32.6171 8.44522 32.6136ZM8.53852 31.5716C8.73087 31.3236 8.93966 31.0893 9.13649 30.8453C9.20031 30.9083 9.26515 30.9702 9.33098 31.0311C9.14485 31.2694 8.93694 31.4882 8.77309 31.7418C8.69388 31.6865 8.61567 31.6297 8.53852 31.5716ZM9.52508 33.1777C9.28389 33.0638 9.04542 32.9442 8.81046 32.8172C8.87418 32.8177 8.93791 32.8169 9.00173 32.8162C9.21841 32.9408 9.43982 33.0571 9.66547 33.1647C9.61877 33.1696 9.57207 33.1742 9.52508 33.1777ZM10.1074 31.7015C10.1523 31.7536 10.217 31.7937 10.3047 31.8131C10.3112 31.8176 10.3181 31.8218 10.3246 31.8264C10.1742 32.0142 10.0308 32.2068 9.8982 32.4083C9.8266 32.3726 9.75551 32.3359 9.68493 32.2982C9.81801 32.0939 9.95893 31.8949 10.1074 31.7015ZM10.4249 33.5659C10.2383 33.4927 10.0531 33.4156 9.86959 33.3348C9.91104 33.3288 9.95249 33.3219 9.99384 33.3151C10.1835 33.3979 10.3753 33.4756 10.569 33.5481C10.521 33.5534 10.4729 33.5593 10.4249 33.5659ZM10.5447 32.7031C10.682 32.5502 10.7942 32.3768 10.9001 32.1985C10.9422 32.2243 10.9854 32.2479 11.0277 32.2733C10.912 32.4328 10.7985 32.5939 10.7035 32.7661C10.6506 32.7451 10.5972 32.725 10.5447 32.7031ZM11.4257 33.9147C11.227 33.854 11.0297 33.7888 10.834 33.7193C10.8992 33.7155 10.9646 33.713 11.0299 33.7117C11.2035 33.7698 11.379 33.8233 11.5552 33.8752C11.5122 33.8891 11.4691 33.9023 11.4257 33.9147ZM11.6317 33.0946C11.5303 33.063 11.4292 33.0302 11.3286 32.9962C11.4085 32.8576 11.4922 32.7212 11.5796 32.5872C11.6799 32.6421 11.7808 32.6958 11.8819 32.7489C11.798 32.8553 11.7178 32.9645 11.6415 33.0763C11.6377 33.0821 11.6344 33.0882 11.6317 33.0946ZM12.2402 34.1388C12.0782 34.0997 11.917 34.0576 11.7565 34.0126C11.7981 33.9981 11.8396 33.9828 11.8811 33.9676C12.0642 34.0176 12.2484 34.0644 12.4338 34.1091C12.3698 34.1222 12.3052 34.1321 12.2402 34.1388ZM12.4241 33.3177C12.2234 33.2666 12.0236 33.2118 11.8249 33.1532C11.8986 33.046 11.9762 32.9414 12.0574 32.8398C12.222 32.9244 12.3874 33.0067 12.5528 33.0872C12.5082 33.1631 12.4653 33.2399 12.4241 33.3177ZM12.701 34.2424C12.7469 34.2295 12.7926 34.2156 12.8382 34.2011C13.2579 34.2945 13.6812 34.3781 14.1067 34.4548C13.6346 34.4098 13.1653 34.3389 12.701 34.2424ZM12.6176 33.3664C12.6529 33.3002 12.6889 33.2346 12.7267 33.17C12.808 33.2087 12.8894 33.2487 12.9707 33.2864C12.9902 33.2955 13.0098 33.3042 13.0295 33.313C13.0046 33.3475 12.9805 33.3826 12.955 33.4166C12.9493 33.4242 12.9448 33.4327 12.9415 33.4416C12.8335 33.4172 12.7252 33.3929 12.6176 33.3664ZM13.1423 33.4886C13.165 33.4577 13.187 33.4262 13.2093 33.3951C13.3612 33.4637 13.5131 33.5312 13.666 33.5972C13.491 33.5632 13.3164 33.5269 13.1423 33.4886ZM29.5317 33.2615C25.8316 34.0772 22.0131 34.3558 18.2278 34.3864C18.184 34.3705 18.1378 34.3624 18.0913 34.3625H18.0691C16.5195 33.881 14.9848 33.3464 13.5047 32.679C13.1661 32.5268 12.8307 32.3678 12.4987 32.2019C16.6894 32.8117 20.9522 32.6879 25.1448 32.0594C27.6606 31.6823 30.1448 31.1056 32.5849 30.3902C34.8403 29.7287 37.1967 29.015 39.2105 27.7693C39.5691 28.254 39.9184 28.7442 40.2499 29.2446C36.75 30.7653 33.2786 32.4356 29.5317 33.2615ZM47.957 43.9421C47.9121 43.896 47.8689 43.848 47.8244 43.8017C48.0552 43.6124 48.3062 43.4475 48.5501 43.272C48.651 43.1994 48.5539 43.0305 48.4518 43.104C48.1962 43.2881 47.9324 43.4608 47.6906 43.6598C47.5995 43.5634 47.5074 43.4682 47.4177 43.3705C47.6278 43.1688 47.8935 43.0368 48.1601 42.9176C48.2745 42.8664 48.1755 42.6988 48.0618 42.7494C47.7842 42.8737 47.5069 43.0143 47.2873 43.225C47.1735 43.0992 47.0594 42.9739 46.9479 42.8461C46.957 42.8422 46.9661 42.8385 46.9744 42.8313C47.2609 42.5862 47.5836 42.3918 47.9119 42.2086C48.0216 42.1474 47.9232 41.9794 47.8135 42.0405C47.4706 42.2322 47.1362 42.4376 46.8368 42.6937C46.832 42.6979 46.8303 42.7027 46.8266 42.7072C46.7207 42.5846 46.6158 42.4612 46.5119 42.337C46.5124 42.3362 46.5132 42.3358 46.5139 42.335C46.7388 42.0483 47.0525 41.8607 47.3803 41.7122C47.4945 41.6606 47.3954 41.4928 47.282 41.5442C46.9459 41.6963 46.6199 41.894 46.3865 42.1853C46.3212 42.106 46.2548 42.0275 46.1901 41.9476C46.4391 41.7121 46.7205 41.5135 47.0258 41.3578C47.1373 41.3005 47.039 41.1326 46.9275 41.1896C46.6139 41.35 46.3244 41.5538 46.0678 41.7951C46.0053 41.7168 45.9415 41.6398 45.88 41.5611C46.0864 41.375 46.3069 41.2058 46.5294 41.0387C46.6286 40.9644 46.5316 40.7953 46.4311 40.8707C46.2021 41.0426 45.9742 41.216 45.7607 41.4067C45.6915 41.3165 45.6222 41.2263 45.554 41.1353C45.7935 40.8657 46.0928 40.6524 46.3363 40.3855C46.4207 40.2931 46.2835 40.155 46.1988 40.2479C45.9608 40.5088 45.677 40.7212 45.4379 40.9787C45.3551 40.8668 45.2725 40.7544 45.1915 40.6412C45.4924 40.3551 45.8258 40.1118 46.2104 39.9399C46.3249 39.8889 46.2257 39.7212 46.1122 39.7719C45.7241 39.9452 45.3844 40.1914 45.0785 40.4795C45.003 40.3722 44.9268 40.2652 44.853 40.1572C45.1596 39.8861 45.4557 39.5998 45.8205 39.4081C45.9316 39.3496 45.8332 39.1818 45.7221 39.24C45.3543 39.4335 45.0532 39.72 44.7442 39.994C44.6928 39.9175 44.6424 39.8403 44.5913 39.7635C44.7854 39.5953 44.9702 39.4167 45.1666 39.251C45.2627 39.17 45.1243 39.0331 45.029 39.1134C44.8424 39.2705 44.6665 39.4396 44.4833 39.6002C44.4744 39.5866 44.4651 39.5736 44.4565 39.5599C44.4045 39.4788 44.3537 39.397 44.3042 39.3143C44.6419 38.9596 45.0184 38.6494 45.4307 38.38C45.5353 38.3118 45.4379 38.1431 45.3325 38.212C44.921 38.4808 44.5419 38.7887 44.2016 39.1402C44.1246 39.0057 44.0511 38.8692 43.9811 38.7308C44.2151 38.5308 44.4511 38.333 44.6705 38.1166C44.7599 38.0285 44.6223 37.891 44.5329 37.9791C44.3289 38.1803 44.1104 38.3657 43.8925 38.5515C43.7964 38.3502 43.708 38.1453 43.6275 37.9373C43.9739 37.6558 44.3164 37.3727 44.7217 37.1749C44.8343 37.12 44.7358 36.9521 44.6233 37.0069C44.2294 37.1992 43.8932 37.471 43.5569 37.745C43.5115 37.6197 43.4689 37.4933 43.4292 37.3661C43.7621 37.0237 44.1168 36.7059 44.5089 36.4305C44.6106 36.359 44.5135 36.19 44.4106 36.2624C44.0346 36.5268 43.6898 36.827 43.3666 37.1515C43.3199 36.9879 43.2778 36.823 43.2404 36.6571C43.5545 36.3238 43.8871 36.007 44.2964 35.7923C44.4076 35.7338 44.3091 35.5661 44.198 35.6242C43.8121 35.8267 43.4909 36.1169 43.1905 36.4281C43.1613 36.2781 43.1357 36.1273 43.1138 35.9761C43.3607 35.7171 43.6313 35.4518 43.9541 35.3413C44.0721 35.301 44.0214 35.113 43.9025 35.1536C43.5882 35.2613 43.3238 35.4914 43.0813 35.7345C43.066 35.6132 43.0521 35.4917 43.0398 35.37C43.2627 35.1088 43.5151 34.8202 43.848 34.7388C43.9699 34.709 43.9182 34.5215 43.7963 34.5512C43.4812 34.6282 43.2336 34.8618 43.0148 35.1054C43.004 34.9766 42.9945 34.8477 42.9861 34.7186C43.2425 34.4772 43.5381 34.2808 43.8358 34.0908C43.9412 34.0236 43.8437 33.855 43.7375 33.9227C43.4732 34.0913 43.2092 34.2657 42.9716 34.4701C42.9646 34.3431 42.9583 34.2162 42.9527 34.0892C43.2135 33.8276 43.4821 33.5742 43.8004 33.3817C43.9077 33.3169 43.8098 33.1486 43.7021 33.2136C43.4204 33.384 43.1756 33.5997 42.9414 33.8275C42.9357 33.6911 42.9305 33.5546 42.9248 33.4186C42.9998 33.3499 43.0776 33.2844 43.158 33.2222C43.247 33.1539 43.3488 33.0697 43.4581 33.037C43.5779 33.0013 43.5269 32.8134 43.4064 32.8494C43.278 32.8879 43.1654 32.9749 43.0598 33.0542C43.0438 33.0663 43.0288 33.0795 43.0129 33.0918C43.0186 33.0411 43.0131 32.9852 42.9921 32.9246C41.3538 28.2056 37.3714 24.9146 35.0721 20.5727C35.033 20.4987 34.9809 20.4499 34.9239 20.4188C34.8884 20.139 34.8818 19.8475 34.8196 19.5955C34.7758 19.4189 34.6151 19.3224 34.4444 19.3096C34.151 19.2878 33.8598 19.3077 33.5894 19.3803C33.5784 19.3614 33.5659 19.3433 33.552 19.3263C32.9133 18.5462 32.2854 17.7597 31.7561 16.8998C31.3697 16.2722 30.7401 15.2355 31.1093 14.476C31.1826 14.3255 31.1717 14.3596 31.2594 14.3812C31.4576 14.4303 31.6591 14.6134 31.8167 14.7561C32.3472 15.2378 32.7801 15.8307 33.1918 16.4133C33.9825 17.5322 34.6509 18.7262 35.3621 19.8953C36.7362 22.154 38.094 24.4254 39.654 26.5626C40.4191 27.611 41.2373 28.6214 42.1242 29.5694C42.8622 30.3583 43.7188 31.0062 44.4868 31.7544C44.4896 31.7586 44.4907 31.7631 44.4944 31.7671C44.6464 31.933 44.8198 32.0712 45.0026 32.1973C46.1183 33.3194 47.7805 33.811 48.8775 34.9815C50.4186 36.6257 51.8366 38.3969 53.0796 40.2775C51.2727 41.355 49.8525 43.0073 47.957 43.9421Z" fill="#100C08"/>
</g>
<defs>
<clipPath id="clip0_1022_576">
<rect width="54" height="54" fill="white"/>
</clipPath>
</defs>
</svg>
