<svg width="54" height="54" viewBox="0 0 54 54" fill="none" xmlns="http://www.w3.org/2000/svg">
<path d="M49.1554 11.4791C49.1473 11.4218 49.1145 11.3809 49.09 11.3318C49.1063 11.2582 49.1145 11.1927 49.1145 11.1191C49.1145 9.94908 47.4045 9.07363 44.8436 8.43544C44.8109 7.9609 44.68 7.50272 44.4263 7.09363C44.3514 6.98611 44.2459 6.90347 44.1236 6.85635L48.8527 4.31999C49.1391 4.16454 49.2536 3.80454 49.0982 3.50999C49.0226 3.37075 48.8952 3.26691 48.7436 3.22096C48.5919 3.17501 48.4283 3.19067 48.2882 3.26454L41.8654 6.71726C41.7509 6.72544 41.6445 6.74999 41.5463 6.81544C41.4727 6.86454 41.4073 6.92999 41.3418 6.99545L40.2291 7.59272C38.6991 7.39635 37.0791 7.2409 35.4673 7.11817L42.9945 2.03726C43.2645 1.84908 43.3382 1.4809 43.1582 1.2109C42.9782 0.9409 42.6018 0.867263 42.3318 1.04726L33.52 7.00363C31.7036 6.90545 29.9527 6.84817 28.39 6.83181C28.3736 6.50454 28.2918 6.17726 28.1445 5.88272C28.0712 5.74342 27.9458 5.63866 27.7957 5.59118C27.6456 5.5437 27.4828 5.55731 27.3427 5.62908C27.0482 5.78454 26.9418 6.14454 27.0891 6.4309C27.1545 6.55363 27.1791 6.68454 27.1954 6.81544H27.0318C26.5654 6.81544 26.0663 6.81544 25.5509 6.82363C25.5018 6.60272 25.4854 6.38181 25.5591 6.16908C25.609 6.01935 25.5974 5.85593 25.5268 5.71477C25.4562 5.57361 25.3324 5.46626 25.1827 5.41635C25.033 5.36645 24.8696 5.37806 24.7284 5.44864C24.5872 5.51922 24.4799 5.64299 24.43 5.79272C24.3154 6.13635 24.2991 6.49635 24.34 6.83999C20.3554 6.95454 15.4791 7.26544 11.6009 7.93635C11.56 7.6009 11.4618 7.27363 11.2736 6.99545C11.2308 6.9297 11.1754 6.87306 11.1107 6.82881C11.0459 6.78455 10.973 6.75354 10.8962 6.73757C10.8194 6.7216 10.7402 6.72098 10.6631 6.73575C10.5861 6.75052 10.5127 6.78039 10.4473 6.82363C10.3827 6.86652 10.3272 6.92174 10.2841 6.98611C10.2409 7.05048 10.2108 7.12275 10.1956 7.19875C10.1804 7.27476 10.1804 7.35302 10.1955 7.42905C10.2106 7.50508 10.2405 7.57738 10.2836 7.64181C10.3818 7.78908 10.4309 7.96908 10.4473 8.15726C9.99725 8.24726 9.5718 8.34544 9.16271 8.45181C9.11362 8.27999 9.09725 8.09999 9.15453 7.92817C9.26089 7.61726 9.09725 7.27363 8.78634 7.16726C8.47544 7.0609 8.13998 7.22454 8.02544 7.53544C7.88635 7.94454 7.89453 8.37817 8.00907 8.77908C6.13544 9.37635 4.94089 10.1454 4.94089 11.1191C4.94089 11.1927 4.95725 11.2582 4.96544 11.3318C4.67907 12.0845 4.72816 12.8291 5.15362 13.4836C5.1618 13.5 5.17816 13.5164 5.19453 13.5327C5.11271 23.2445 8.28725 30.5591 14.6445 35.2636C16.6982 36.7854 19.4145 37.9391 22.3518 38.5691C20.9036 40.5 19.4718 42.4309 18.0318 44.37L17.23 45.45C16.2973 46.7018 15.3727 47.9618 14.4318 49.2136C14.3745 49.2873 14.2845 49.3936 14.1863 49.5164C13.45 50.3836 12.8118 51.2264 12.9591 51.9954C13.0245 52.3309 13.2373 52.6009 13.5563 52.7727C13.7936 52.8954 14.0636 52.9445 14.3336 52.9445C14.7509 52.9445 15.1682 52.8218 15.4709 52.6827C16.2645 52.3064 16.8209 51.5945 17.2627 51.03C18.8663 48.9764 20.4536 46.9882 22.0409 44.9918C23.2927 43.4209 24.5527 41.8418 25.8127 40.23C25.8373 41.9318 25.87 43.8218 25.9109 45.7282C25.96 48.1009 26.0009 50.4654 26.0254 52.4454C26.0254 52.7727 26.2954 53.0345 26.6227 53.0345H26.6309C26.9582 53.0345 27.2282 52.7645 27.22 52.4373C27.2036 50.4573 27.1545 48.0845 27.1054 45.7036C27.0727 43.9609 27.04 42.2182 27.0154 40.6227C28.2018 42.3409 29.5682 44.1164 31.2209 46.0882C31.3273 46.2109 31.5236 46.4809 31.7936 46.8409C34.4527 50.3673 36.3509 52.5764 37.5863 52.6664C37.8973 52.6827 38.1836 52.5845 38.3963 52.3718C38.6009 52.1673 39.0018 51.5782 38.3309 50.5309C37.7991 49.7045 37.2673 48.8782 36.7436 48.0518C34.7882 44.9836 32.7673 41.8336 30.5582 38.8554C32.8082 38.5036 34.9518 37.7673 36.7927 36.5645C44.0254 31.8354 48.5582 20.9291 48.6645 13.4427C48.7054 13.3936 48.7463 13.3445 48.7791 13.2873C49.1718 12.7309 49.2863 12.1173 49.1554 11.4791ZM44.7782 14.4245C44.7945 14.2282 44.7863 14.0318 44.77 13.8273C45.9318 13.5409 46.93 13.2054 47.6745 12.8127C47.11 13.4918 45.9727 14.0236 44.7782 14.4245ZM42.7082 19.1945C42.79 19.1373 42.9209 19.0964 43.1745 19.1945C43.9191 19.4809 44.2627 21.3709 43.8291 22.7373C43.6736 23.2445 43.3627 23.8173 42.8309 23.6782C42.1845 23.5145 41.9554 22.2627 42.0209 21.0927C42.0782 20.3645 42.3236 19.4482 42.7082 19.1945ZM42.3073 15.0873C42.2254 14.9645 42.1518 14.8254 42.1027 14.6618C42.0797 14.5644 42.0606 14.4662 42.0454 14.3673C42.5773 14.2773 43.0927 14.1873 43.5836 14.0891C43.5918 14.3018 43.5836 14.5145 43.5263 14.7273C43.5182 14.7518 43.5018 14.7764 43.4936 14.8091C43.0763 14.9154 42.6754 15.0054 42.3073 15.0873ZM26.1727 20.6673C26.2218 20.6264 26.2954 20.5854 26.4182 20.5854C26.4673 20.5854 26.5245 20.5936 26.5982 20.61C27.1136 20.7327 27.6127 22.1073 27.4573 23.6127C27.3754 24.3982 27.0891 25.2082 26.6227 25.2245C26.32 25.2245 25.9763 24.9873 25.8291 24.6436C25.7227 24.39 25.5754 23.6127 25.6 22.6964C25.6409 21.4936 25.9191 20.8636 26.1727 20.6673ZM9.80089 18.8673C9.83362 18.8427 9.89907 18.7854 10.0873 18.8345C10.5291 18.9409 11.1018 20.34 10.9791 21.8782C10.9136 22.6391 10.6763 23.1873 10.39 23.2118C10.1445 23.2282 10.03 23.1464 9.94816 23.0727C9.61271 22.77 9.43271 22.0091 9.39998 20.8145C9.36725 19.6364 9.59634 19.0309 9.80089 18.8673ZM9.09725 14.58V14.5718C9.02362 14.3182 9.02362 14.04 9.03998 13.7536C9.60453 13.9009 10.2182 14.04 10.8645 14.1627C10.8318 14.3345 10.7745 14.5064 10.7009 14.6618C10.6518 14.7682 10.5782 14.8827 10.4963 14.9891C10.0054 14.8582 9.53089 14.7273 9.09725 14.58ZM6.33998 13.0827C6.29951 12.977 6.23176 12.8838 6.14362 12.8127C6.10271 12.7473 6.06998 12.6736 6.04544 12.6082C6.52816 12.9027 7.1418 13.1727 7.87816 13.4182C7.85362 13.6391 7.83725 13.86 7.84544 14.0891C7.18271 13.7864 6.66725 13.4509 6.33998 13.0827ZM11.7891 15.1609C11.9036 14.9073 11.9854 14.6454 12.0427 14.3673C15.7818 14.9809 20.3554 15.2754 24.1518 15.3654C24.1845 15.7745 24.2663 16.2 24.4218 16.5927C20.6663 16.4782 15.6018 16.0773 11.7236 15.2591C11.74 15.2345 11.7645 15.2018 11.7891 15.1609ZM26.6554 16.6418H26.5409C26.4427 16.5764 26.3363 16.5354 26.2136 16.5354C26.0909 16.5354 25.9927 16.5764 25.8945 16.6418H25.8045C25.69 16.5191 25.5918 16.3718 25.5345 16.2245C25.4282 15.9709 25.3791 15.6927 25.3463 15.4064C25.9354 15.4145 26.4918 15.4227 27.0236 15.4227H27.22C27.1954 15.9382 27.0973 16.3718 26.9091 16.65C26.8354 16.6418 26.7454 16.6418 26.6554 16.6418ZM28.4227 15.4064C32.0963 15.3573 36.85 15.12 40.8673 14.5473C40.8918 14.6945 40.9163 14.8418 40.9573 14.9891C40.99 15.1118 41.0391 15.2345 41.0882 15.3491L41.0554 15.3573C37.2673 16.1509 33.1518 16.56 28.2263 16.6336C28.3491 16.2409 28.4063 15.8236 28.4227 15.4064ZM43.42 7.72363C43.5018 7.85454 43.5591 8.00181 43.6 8.14908C43.15 8.05908 42.6836 7.96908 42.2009 7.88726L43.3382 7.27363C43.3136 7.42908 43.3382 7.58454 43.42 7.72363ZM30.1409 10.0064C30.2554 10.17 30.4354 10.26 30.6154 10.2682C30.55 10.62 30.3045 10.9718 29.92 11.1927C29.6091 11.3727 29.2654 11.4382 28.9463 11.3809C28.66 11.3236 28.4309 11.1764 28.3082 10.9554C28.1773 10.7345 28.1609 10.4645 28.2591 10.1864C28.3654 9.87544 28.5945 9.61363 28.9054 9.43363C29.1509 9.29454 29.4127 9.22908 29.65 9.22908C29.83 9.22908 30.0018 9.26999 30.1491 9.34363C30.0182 9.52363 30.0018 9.79363 30.1409 10.0064ZM31.1636 8.59908C30.8118 8.27999 30.3618 8.09181 29.8791 8.0509C30.5663 8.06726 31.2454 8.08363 31.8918 8.10817L31.1636 8.59908ZM8.6718 9.80999C8.81089 9.92453 8.95816 10.0309 9.1218 10.1045C9.20362 10.1373 9.28544 10.1618 9.36725 10.1618C9.59634 10.1618 9.80907 10.0309 9.90725 9.80999C9.95634 9.70363 9.95634 9.58908 9.94816 9.48272C10.0627 9.45817 10.1691 9.43363 10.2836 9.4009C10.3327 9.4909 10.3982 9.57272 10.4882 9.62999C10.5863 9.68726 10.6927 9.71999 10.7991 9.71999C10.9954 9.71999 11.1918 9.62181 11.3063 9.43363C11.3554 9.35181 11.38 9.26181 11.4209 9.17181C14.5627 8.5909 19.0545 8.11635 24.7982 8.01817C24.9782 8.27181 25.2073 8.49272 25.4773 8.65635C25.5754 8.71363 25.6818 8.73817 25.78 8.73817C25.9845 8.73817 26.1809 8.63181 26.2873 8.45181C26.3691 8.31272 26.3936 8.14908 26.3527 8.00999H26.77C26.7291 8.20635 26.7863 8.41908 26.9418 8.55817C27.0563 8.66454 27.1954 8.71363 27.3427 8.71363C27.5063 8.71363 27.67 8.64817 27.7845 8.51726C27.9236 8.36999 28.03 8.19817 28.12 8.01817C28.5945 8.01817 29.0691 8.02635 29.5273 8.03454C29.11 8.0509 28.6845 8.15726 28.2918 8.38635C27.7354 8.70544 27.3182 9.20454 27.1136 9.77726C26.9009 10.3827 26.95 11.0127 27.2527 11.5364C27.5554 12.06 28.0709 12.42 28.7009 12.5345C29.3181 12.6429 29.9537 12.5268 30.4927 12.2073C31.4745 11.6427 31.9491 10.5709 31.7363 9.62181L33.8473 8.19817C35.5 8.29635 37.0054 8.42726 38.38 8.57453L35.7127 10.0064C35.0582 9.48272 34.0845 9.38454 33.2254 9.82635C32.6936 10.1045 32.2927 10.5464 32.0882 11.07C31.8673 11.6264 31.8918 12.2073 32.1536 12.7145C32.4154 13.2218 32.8818 13.5736 33.4627 13.7127C33.6345 13.7536 33.8145 13.7782 33.9945 13.7782C34.3791 13.7782 34.7718 13.68 35.14 13.4918C35.6718 13.2136 36.0727 12.7718 36.2773 12.2482C36.4409 11.8391 36.4654 11.4136 36.3673 11.0127L40.4254 8.83635C40.6218 8.8609 40.8182 8.89363 41.0063 8.91817C41.0963 9.10635 41.2109 9.28635 41.3663 9.42544C41.4809 9.53181 41.62 9.5809 41.7673 9.5809C41.8985 9.58228 42.0263 9.53944 42.1302 9.45929C42.2341 9.37914 42.308 9.26635 42.34 9.13908C42.7573 9.21272 43.1418 9.28635 43.51 9.36817C43.4527 9.63817 43.5836 9.92454 43.8536 10.0391C43.9273 10.0718 44.0091 10.08 44.0827 10.08C44.32 10.08 44.5409 9.9409 44.6309 9.71181L44.6554 9.62999C46.7909 10.1618 47.9118 10.7182 47.9118 11.1273C47.9118 11.5445 46.7254 12.1254 44.4754 12.6654C44.4682 12.6342 44.4572 12.604 44.4427 12.5754C44.3856 12.4284 44.2728 12.3099 44.1288 12.2456C43.9848 12.1812 43.8212 12.1763 43.6736 12.2318C43.3954 12.3382 43.2482 12.6327 43.3136 12.9191C42.9045 13.0009 42.4709 13.0827 42.0045 13.1645V13.0909C42.0209 12.7636 41.7673 12.4773 41.44 12.4609C41.2818 12.4531 41.1269 12.508 41.0089 12.6137C40.891 12.7194 40.8195 12.8673 40.81 13.0254C40.8018 13.1318 40.8018 13.2464 40.7936 13.3609C37.6354 13.8273 33.4627 14.1709 28.3491 14.2282C28.3245 13.95 28.2836 13.7045 28.2509 13.5C28.2376 13.4231 28.2093 13.3495 28.1676 13.2836C28.1258 13.2177 28.0715 13.1606 28.0076 13.1158C27.9437 13.0709 27.8716 13.0391 27.7954 13.0222C27.7192 13.0053 27.6405 13.0036 27.5636 13.0173C27.4865 13.0301 27.4127 13.0581 27.3466 13.0998C27.2804 13.1414 27.2232 13.1958 27.1783 13.2598C27.1333 13.3237 27.1016 13.396 27.0849 13.4724C27.0682 13.5487 27.0668 13.6276 27.0809 13.7045C27.1136 13.8845 27.1382 14.0645 27.1545 14.2445H26.9991C26.4182 14.2445 25.8618 14.2364 25.2973 14.2282V14.1627C25.3054 13.8354 25.0518 13.5573 24.7245 13.5491C24.3809 13.5327 24.1191 13.7945 24.1109 14.1218V14.2118C19.0463 14.0973 14.9882 13.6882 12.0182 13.1809C11.9609 12.8045 11.8709 12.4445 11.6991 12.1009C11.6227 11.9684 11.4984 11.8703 11.3519 11.8267C11.2053 11.7831 11.0476 11.7974 10.9112 11.8666C10.7749 11.9358 10.6703 12.0547 10.6189 12.1988C10.5676 12.3428 10.5735 12.5011 10.6354 12.6409C10.6845 12.7391 10.7091 12.8454 10.75 12.9436C10.1773 12.8291 9.63725 12.7145 9.17089 12.5918C9.15912 12.4671 9.10736 12.3495 9.02331 12.2566C8.93927 12.1637 8.82745 12.1005 8.70453 12.0764C8.59671 12.0541 8.48478 12.063 8.38188 12.1022C8.27898 12.1413 8.18939 12.209 8.12362 12.2973C6.84725 11.8964 6.17634 11.5036 6.12725 11.1845C6.12725 11.1764 6.11907 11.1682 6.11907 11.16C6.11907 11.1518 6.11089 11.1518 6.11089 11.1436C6.12725 10.7591 7.01089 10.2845 8.6718 9.80999ZM35.1973 11.8145C35.0909 12.0764 34.8863 12.2973 34.6163 12.4364C34.3463 12.5754 34.0436 12.6245 33.7736 12.5591C33.6632 12.5352 33.559 12.4886 33.4675 12.4225C33.3759 12.3563 33.2991 12.2719 33.2418 12.1745C33.1925 12.0729 33.1656 11.9619 33.1627 11.849C33.1599 11.7361 33.1813 11.6239 33.2254 11.52C33.3318 11.2582 33.5363 11.0373 33.8063 10.8982C34.0027 10.7918 34.2073 10.7509 34.4036 10.7509C34.7391 10.7509 35.0418 10.8982 35.1809 11.1682C35.2791 11.3482 35.2873 11.5854 35.1973 11.8145ZM21.1245 44.2473C19.5373 46.2436 17.95 48.2318 16.3382 50.2936C15.9536 50.7845 15.5118 51.3491 14.9718 51.6027C14.6854 51.7418 14.2763 51.7909 14.1373 51.7664C14.1209 51.5618 14.44 51.0627 15.1027 50.2773C15.2254 50.13 15.3236 50.0073 15.3973 49.9173C16.33 48.6654 17.2627 47.4136 18.1954 46.1536L18.9973 45.0736C20.5436 42.9873 22.0982 40.8927 23.6609 38.8145C24.1927 38.8964 24.7327 38.9618 25.2727 39.0109C23.8736 40.7864 22.4991 42.5209 21.1245 44.2473ZM35.7536 48.69C36.2854 49.5245 36.8091 50.3509 37.3491 51.1773C37.4063 51.2754 37.4554 51.3491 37.48 51.4145C36.9154 51.1527 35.6391 49.95 32.7591 46.1209C32.4727 45.7364 32.2518 45.45 32.1454 45.3191C30.2391 43.0527 28.7254 41.0564 27.4245 39.1009C28.03 39.1009 28.6273 39.0682 29.2245 39.0109C31.5563 42.12 33.6918 45.4582 35.7536 48.69ZM36.1545 35.5745C30.0836 39.5509 20.4945 38.1273 15.3482 34.3145C9.55544 30.0191 6.55271 23.3918 6.38907 14.6291C6.90453 14.9564 7.52635 15.2509 8.22998 15.5127C8.49998 15.9382 8.90089 16.2818 9.36725 16.4454V17.7545C9.24453 17.8118 9.12998 17.8773 9.04816 17.9427C8.30362 18.5482 8.18089 19.8491 8.21362 20.8391C8.24634 21.9191 8.37725 23.2445 9.15453 23.9482C9.4818 24.2427 9.88271 24.3982 10.3409 24.3982C10.39 24.3982 10.4309 24.3982 10.48 24.39C11.4209 24.3245 12.0591 23.4245 12.1736 21.9682C12.2882 20.5118 11.8545 18.2454 10.57 17.7382V16.4127C10.6518 16.38 10.7336 16.3309 10.8073 16.2818C15.8145 17.4764 22.5727 17.7545 25.3709 17.82C25.4527 17.8773 25.5427 17.9264 25.6327 17.9754V19.6282C25.5754 19.6609 25.5182 19.6854 25.4609 19.7264C24.6509 20.3482 24.4545 21.6654 24.4218 22.6718C24.3973 23.6209 24.5282 24.6027 24.7409 25.1182C25.0682 25.8954 25.8291 26.4273 26.6063 26.4273H26.6718C27.7436 26.3864 28.48 25.38 28.6436 23.7436C28.8318 21.8945 28.2182 19.7918 26.8845 19.4645C26.86 19.4564 26.8436 19.4564 26.8191 19.4564V18.1145C26.8436 18.1064 26.8763 18.1145 26.9009 18.1064C27.1054 18.0409 27.2773 17.9509 27.4327 17.8445C32.8 17.8118 37.2345 17.3945 41.3091 16.5354L41.6036 16.4782L41.9554 16.4045C42.0945 16.4945 42.25 16.56 42.4054 16.6009L42.3645 18.0736C42.25 18.1145 42.1436 18.1718 42.0618 18.2209C41.0473 18.8754 40.8754 20.5527 40.8427 21.0518C40.8018 21.8373 40.7936 24.4145 42.5445 24.8564C42.7 24.8973 42.8554 24.9136 43.0027 24.9136C43.87 24.9136 44.5982 24.2591 44.9582 23.1136C45.49 21.4364 45.22 18.72 43.5918 18.0982C43.5754 18.09 43.5591 18.09 43.5427 18.09L43.5836 16.4454C43.8454 16.2982 44.0827 16.0936 44.2709 15.84C45.4654 15.5045 46.57 15.0873 47.4373 14.5473C46.9545 21.6327 42.7163 31.2791 36.1545 35.5745Z" fill="#100C08"/>
<path d="M31.1399 33.0545C29.8063 33.4554 28.489 33.6682 27.2863 33.7664C26.0835 33.8236 24.9872 33.7991 24.079 33.6682C22.2626 33.4391 21.1744 33.0464 21.1335 33.1445C21.1172 33.1773 21.379 33.3 21.8699 33.4882C22.1154 33.5864 22.4181 33.6927 22.7781 33.7827C23.1381 33.8727 23.5472 34.0036 24.0135 34.0609C24.9381 34.2491 26.059 34.3145 27.3108 34.2818C28.5544 34.2082 29.9208 34.0036 31.3035 33.5945C34.0772 32.76 36.2863 31.2709 37.669 30.0109C38.3563 29.3727 38.8881 28.8245 39.199 28.4073C39.5263 27.9982 39.6899 27.7609 39.6572 27.7364C39.5754 27.6709 38.8308 28.5464 37.4072 29.7082C35.9917 30.8618 33.8235 32.2527 31.1399 33.0545Z" fill="#100C08"/>
</svg>
