<svg width="54" height="54" viewBox="0 0 54 54" fill="none" xmlns="http://www.w3.org/2000/svg">
<path d="M50.1877 15.803L50.6641 15.4059C50.823 15.2471 50.9024 15.0089 50.9024 14.7706C50.7435 13.8971 48.3612 12.8648 47.6465 12.6265C46.6141 12.2295 45.5818 11.9912 44.47 11.8324C45.423 11.3559 45.9788 11.1177 47.0906 10.3236C47.4877 10.0854 47.4083 9.45006 47.0112 9.29123C46.9318 9.21182 46.6935 9.13241 46.4553 8.97359C47.5671 7.94123 48.5994 6.75006 49.3935 5.40006C49.6318 5.08241 49.3935 4.60594 48.9965 4.52653C47.17 4.12947 45.1847 4.68535 43.8347 5.87653L43.6759 5.63829C43.5965 5.47947 43.3583 5.32065 43.12 5.32065C42.4847 5.32065 41.0553 7.46476 41.0553 7.46476C40.5788 8.25888 39.9435 9.84712 39.9435 11.2765C38.5141 10.0854 37.0847 9.053 35.3377 8.81476C35.1788 8.81476 31.923 8.33829 31.5259 8.81476C31.2083 9.13241 31.4465 9.52947 31.5259 9.92653C29.1435 10.0059 26.8406 11.1177 25.3318 13.0236C24.9347 13.5001 25.2524 14.2148 25.8083 14.2942C26.1259 14.3736 26.6024 14.453 26.9994 14.5324C29.62 15.0883 31.0494 14.6912 32.0024 14.7706L31.8435 14.9295C31.5259 15.2471 31.6053 15.9618 32.32 15.9618C33.5906 15.9618 34.7818 15.803 36.0524 15.5648C35.973 15.6442 35.8141 15.7236 35.7347 15.8824C35.7347 15.8824 33.8288 18.2648 33.9877 18.9001C34.0671 19.1383 34.2259 19.2971 34.3847 19.2971L34.8612 19.4559C34.2259 20.8059 33.9877 22.3148 34.3053 23.8236H31.5259C31.1288 23.7442 30.4141 23.6648 29.9377 23.8236C29.3024 23.5059 28.6671 23.903 28.3494 23.9824C27.5553 24.1412 26.3641 23.6648 25.2524 23.903C24.2994 23.903 22.9494 24.2206 22.1553 24.0618C21.6788 23.9824 21.5994 23.8236 20.8847 24.0618C20.6465 24.1412 20.6465 24.1412 20.17 24.0618C19.4553 23.903 18.7406 23.9824 18.0259 23.9824C17.1524 24.0618 16.3583 24.0618 15.5641 23.9824C15.1671 23.903 14.8494 23.9824 14.5318 24.2206C14.4524 24.2206 14.4524 24.1412 14.373 24.1412C13.42 23.5854 11.673 23.9824 10.72 23.9824C10.0053 24.0618 9.13178 24.3001 8.49649 24.1412C7.86119 24.0618 7.70237 23.6648 6.27296 24.0618C5.79649 24.2206 5.71708 24.2206 4.92296 24.0618C4.12884 23.903 4.44649 23.903 1.90531 23.903H1.11119C0.793546 23.903 0.475899 24.1412 0.555311 24.5383C0.555311 24.8559 0.793546 25.0942 1.1906 25.0942H3.97002C4.76413 25.0942 5.39943 25.4912 6.27296 25.253C6.43178 25.253 6.51119 25.1736 6.67002 25.1736C7.70237 24.8559 7.54355 25.0942 8.33766 25.253C8.89355 25.3324 9.52884 25.253 10.0847 25.1736C10.8788 25.0942 10.5612 25.0942 11.5141 25.0148C12.2288 24.9354 13.3406 24.8559 13.8171 25.0942C14.373 25.4118 14.77 25.4912 15.2465 25.0942H15.4053C16.7553 25.253 18.1053 25.0942 19.4553 25.0942C19.8524 25.0942 20.4083 25.4118 21.0435 25.253C21.2024 25.253 21.52 25.0942 21.5994 25.0942C21.5994 25.0942 21.9171 25.1736 21.9965 25.1736C23.1083 25.4118 24.3788 25.0942 25.4112 25.0942H25.57C26.4435 24.8559 27.6347 25.4118 28.7465 25.1736C28.9847 25.0942 29.3024 24.9354 29.4612 24.9354H29.5406C29.7788 25.3324 30.2553 25.3324 30.573 25.0148C30.8906 25.0148 31.6053 25.0942 31.6053 25.0942H34.7024C34.8612 25.4118 35.1788 25.7295 35.4965 25.8089C36.1318 25.8883 36.4494 25.4912 36.7671 25.0942C37.1641 25.0942 37.4024 25.0148 37.6406 25.1736C38.5141 25.6501 38.3553 25.0942 41.373 25.0942C41.8494 29.7001 42.0083 35.1001 41.8494 39.3089C41.4524 39.5471 40.9759 39.7059 40.5788 39.8648C37.8788 40.8177 34.9406 39.5471 33.4318 38.753C32.6377 38.2765 31.923 37.8001 30.97 37.6412C30.0171 37.4824 28.7465 37.8001 28.1906 38.8324C27.9524 39.3089 27.9524 39.7854 27.873 40.103C27.4759 41.2148 25.7288 41.453 24.6965 41.453C16.12 41.5324 13.1024 38.5942 8.5759 38.753C7.46414 38.753 7.06708 39.3089 6.90825 39.7059C6.59061 40.7383 7.62296 41.3736 7.78178 41.7706C7.86119 41.9295 7.70237 42.1677 7.46413 42.4059C7.14649 42.6442 6.51119 42.8824 5.95531 42.9618C4.5259 43.1206 2.85825 42.0089 1.11119 42.6442C0.793546 42.803 0.555311 43.2001 0.872958 43.5177C1.03178 43.9942 3.25531 44.0736 3.81119 44.153C4.92296 44.153 6.19355 44.3118 7.30531 43.9148C9.21119 43.2795 9.76708 41.5324 8.97296 40.4206C8.89355 40.2618 8.97296 40.0236 9.13178 40.0236C9.68766 40.0236 10.5612 40.103 11.5141 40.2618C13.8965 40.8177 17.9465 42.6442 24.6171 42.6442C25.8877 42.6442 26.8406 42.4059 27.5553 42.0089C28.0318 42.0089 28.4288 41.6118 28.6671 41.1354C28.9053 40.6589 29.0641 40.103 29.5406 39.7059C31.1288 38.4354 32.9553 41.0559 37.1641 41.6912C38.673 41.9295 40.2612 41.6912 41.5318 41.0559C41.373 43.5177 41.0553 45.3442 40.6583 46.3765V46.5354C40.1024 46.4559 39.5465 46.2177 39.1494 45.9001C38.9112 45.7412 38.5141 45.7412 38.2759 45.9795C38.0377 46.2177 38.1171 46.6148 38.3553 46.853C39.7053 47.8854 41.6112 48.1236 43.1994 47.4089C43.5965 47.2501 44.073 47.3295 44.5494 47.5677C45.3435 48.1236 46.4553 48.2824 47.4083 47.9648L47.8847 47.7265C48.7583 47.3295 48.6788 47.4883 49.2347 47.7265C50.6641 48.2824 51.2994 46.6148 50.3465 46.1383C50.0288 45.9795 49.5524 46.1383 49.473 46.5354C48.8377 46.2177 48.4406 46.1383 47.4083 46.6148C47.4877 44.9471 47.4083 42.4854 47.3288 40.2618C48.9171 40.8177 50.6641 41.2148 52.0935 40.2618C52.3318 40.103 52.4112 39.7059 52.2524 39.4677C52.0936 39.2295 51.6965 39.1501 51.4583 39.3089C50.2671 40.103 48.52 39.4677 47.3288 38.9912C47.0906 34.1471 46.5347 29.0648 45.82 25.0942C46.2965 25.1736 46.8524 25.253 47.3288 25.1736C47.4877 25.0942 47.8053 25.0148 47.8847 25.0148C48.0435 25.0148 48.4406 25.3324 48.9171 25.1736C49.1553 25.0942 49.3141 25.0148 49.3935 24.9354C49.473 24.8559 49.87 25.1736 50.3465 25.1736C50.823 25.1736 51.22 25.0148 51.5377 25.0148C51.8553 25.0148 52.173 24.7765 52.173 24.3795C52.173 23.9824 51.9347 23.7442 51.5377 23.7442C51.1406 23.7442 50.6641 23.903 50.3465 23.903C50.2671 23.903 50.1877 23.8236 50.0288 23.8236C49.2347 23.5059 48.9965 23.6648 48.52 23.9824C48.4406 23.9824 48.2024 23.8236 48.0435 23.8236C47.5671 23.7442 47.2494 23.903 46.9318 23.9824C46.6935 24.0618 45.9788 23.903 45.5024 23.8236C45.1847 22.1559 44.7877 20.7265 44.3906 19.4559C44.8671 19.7736 45.423 20.0118 45.8994 20.1706C46.0583 20.2501 46.2965 20.1706 46.3759 20.0912C46.6141 19.9324 46.6141 19.6148 46.6141 19.4559C46.8524 19.6148 47.0906 19.853 47.3288 20.0118C48.9171 21.203 48.3612 20.6471 51.6171 22.3942C52.3318 22.7912 53.1259 22.2354 53.0465 21.4412C53.2053 19.2971 52.0141 17.153 50.1877 15.803ZM43.8347 20.8854C43.2788 21.0442 42.6435 21.0442 42.0877 20.9648C41.9288 19.853 41.6906 18.9795 41.5318 18.2648C41.6906 17.9471 41.8494 17.6295 42.0083 16.7559C42.2465 17.153 42.4847 17.4706 42.723 17.8677C42.8024 18.2648 43.12 18.3442 43.8347 20.8854ZM43.12 35.7354C43.12 33.6706 43.0406 31.4471 42.9612 29.303C43.7553 29.3824 44.6288 29.2236 45.423 28.9854C45.7406 31.1295 45.9788 33.353 46.1377 35.6559C46.1377 35.6559 46.0583 35.6559 46.0583 35.7354C45.1847 36.2912 43.9935 36.1324 43.12 35.7354ZM45.2641 27.7942C44.3112 28.1118 43.4377 28.1912 42.8818 28.1118C42.723 26.2059 42.5641 24.1412 42.3259 22.2354C42.8818 22.3148 43.5171 22.2354 44.1524 22.0765C44.6288 23.903 44.9465 25.8883 45.2641 27.7942ZM42.0877 8.10006C42.1671 7.94123 42.6435 7.30594 43.0406 6.90888L43.1994 7.22653C43.4377 7.54418 43.9141 7.62359 44.1524 7.30594C44.9465 6.353 46.2965 5.7177 47.8053 5.7177C47.0112 6.82947 46.0583 7.86182 44.9465 8.73535C44.6288 9.053 44.7083 9.52947 45.1053 9.7677C45.1847 9.84712 45.3435 9.92653 45.5024 10.0059C44.8671 10.403 41.8494 11.9912 41.0553 11.9118C40.9759 10.8001 41.4524 9.13241 42.0877 8.10006ZM33.273 14.3736C32.8759 13.4206 30.97 13.8177 30.0171 13.7383C28.1906 13.6589 27.4759 13.5001 26.6024 13.3412C28.0318 11.9118 30.0965 11.1177 32.0818 11.1971C33.0347 11.2765 32.5583 10.0059 32.5583 9.84712C35.7347 9.92653 36.37 10.3236 37.6406 11.1971C38.673 11.9118 39.3877 12.4677 39.7847 12.8648C37.7994 13.9765 35.4965 14.6912 33.1935 14.8501C33.3524 14.6912 33.3524 14.5324 33.273 14.3736ZM36.2906 19.4559C36.37 19.2971 36.4494 19.1383 36.37 18.9001C36.2112 18.503 35.8141 18.503 35.4171 18.3442C35.8141 17.7089 36.4494 16.8354 36.5288 16.6765C37.6406 15.5648 39.3877 14.3736 40.6583 14.2942C40.9759 14.5324 40.9759 16.5971 40.5788 17.3912C40.1024 18.2648 39.7847 18.8206 39.4671 19.853C39.2288 19.5354 38.673 19.6148 38.4347 20.0118C37.72 21.6001 36.8465 23.1089 35.7347 24.4589C35.1788 22.7912 35.3377 20.8854 36.2906 19.4559ZM38.1965 24.1412C37.8788 23.9824 37.72 23.9824 37.6406 23.9824C38.1965 23.1883 38.673 22.3148 39.1494 21.4412L39.2288 21.5206C39.5465 21.9177 40.1024 21.7589 40.2612 21.2824C40.42 20.7265 40.5788 20.3295 40.7377 20.0118C40.9759 21.0442 41.1347 22.3942 41.2935 23.903C38.5935 23.903 38.5141 24.3001 38.1965 24.1412ZM43.0406 46.3765C42.723 46.5354 42.4053 46.6148 42.0877 46.6148C42.9612 44.153 43.12 39.6265 43.12 37.0059C44.1524 37.3236 45.2641 37.403 46.2171 36.9265C46.4553 40.1824 46.6141 44.6295 46.4553 47.0118C46.1377 47.0118 45.7406 46.853 45.5024 46.6942C44.7877 46.1383 43.8347 45.9795 43.0406 46.3765ZM47.6465 18.5824C46.6935 17.9471 46.0583 18.2648 45.8994 18.9795C43.7553 18.0265 42.2465 15.4059 41.9288 13.103H44.2318C46.2965 13.3412 48.3612 14.2148 49.473 14.9295L48.8377 15.4854C48.52 15.7236 48.5994 16.2001 48.9171 16.4383C50.5847 17.4706 51.8553 19.2971 52.173 21.2824C47.5671 18.8206 50.0288 20.1706 47.6465 18.5824Z" fill="#100C08"/>
<path d="M13.4194 29.3029L11.5929 29.1441C10.7988 29.0647 10.2429 29.3823 9.68706 29.3823C9.52824 29.3029 9.13118 28.9058 8.5753 28.9058C8.33706 28.9058 8.09883 28.9853 7.94 29.1441C6.51059 28.0323 5.71648 29.4617 5.24 29.3029C5.16059 28.9853 4.92236 28.8264 4.68412 28.8264C4.36648 28.8264 4.04883 29.0647 4.04883 29.3823C4.04883 30.097 4.76353 30.5735 5.47824 30.4941C6.19295 30.4147 6.82824 29.7794 6.98706 29.9382C7.2253 30.0176 7.62236 30.6529 8.5753 30.1764L8.65471 30.097C8.81353 30.097 9.13118 30.4941 9.60765 30.5735C10.0047 30.5735 10.1635 30.5735 10.5606 30.4147C11.5135 30.1764 11.3547 30.3353 13.2606 30.4941C13.5782 30.4941 13.8959 30.2558 13.8959 29.9382C13.9753 29.6206 13.7371 29.3823 13.4194 29.3029ZM36.5282 28.0323C35.8929 28.35 36.1312 28.5882 35.4959 28.1117C34.3841 27.397 33.7488 27.5558 32.7959 28.5088C32.5576 28.747 32.3194 28.9853 32.1606 28.9853C31.7635 28.9058 30.9694 27 29.3018 28.4294C28.9841 28.6676 28.8253 28.747 28.6665 28.8264C28.5871 28.1117 27.6341 28.0323 27.4753 28.747C27.3165 29.5411 28.0312 30.1764 28.8253 30.0176C29.3018 29.9382 29.6194 29.7 30.0165 29.3823C30.3341 29.1441 30.4135 29.1441 30.4929 29.1441C30.8106 29.2235 31.2077 30.1764 32.1606 30.1764C33.1929 30.1764 33.8282 28.9058 34.2253 28.9058C34.3047 28.9058 34.2253 28.8264 34.7812 29.1441C35.1782 29.3823 35.6547 29.7 36.29 29.5411C36.6871 29.3823 36.8459 29.2235 37.0047 29.1441C37.3224 28.9853 37.4018 28.6676 37.2429 28.35C37.1635 28.0323 36.8459 27.8735 36.5282 28.0323ZM35.7341 34.147C34.94 33.8294 34.3841 34.3853 34.0665 34.4647C33.7488 33.9088 32.8753 34.147 32.9547 34.8617C33.0341 35.3382 33.5106 35.7353 34.0665 35.7353C34.7018 35.7353 35.0194 35.3382 35.2577 35.2588C35.4959 35.497 35.8929 35.5764 36.1312 35.3382C36.2106 35.2588 36.29 35.2588 36.3694 35.3382C36.4488 35.4176 36.6077 35.497 36.7665 35.497C37.1635 35.497 37.1635 35.1794 37.4018 35.2588C37.4812 35.2588 37.5606 35.2588 37.64 35.3382C37.8782 35.6558 38.3547 35.5764 38.5135 35.2588C38.7518 35.497 39.0694 35.5764 39.3871 35.3382C40.0224 34.7823 39.0694 33.75 38.1165 34.2264C37.7194 34.0676 37.2429 33.9882 36.8459 34.2264C36.4488 34.0676 36.0518 34.0676 35.7341 34.147ZM49.79 28.8264C49.3929 28.9853 49.0753 28.9058 49.0753 28.8264C48.9165 28.5088 48.5194 28.4294 48.2812 28.6676C47.5665 29.1441 48.2812 30.4941 50.1076 30.0176C50.5841 29.8588 50.8224 29.8588 50.9812 29.9382C51.2194 30.1764 51.6165 30.1764 51.8547 29.9382C52.0929 29.7 52.0929 29.3029 51.8547 29.0647C51.14 28.4294 50.1871 28.6676 49.79 28.8264ZM13.8959 35.6558C14.2929 36.1323 15.0076 36.1323 14.9282 36.1323C15.4047 36.1323 15.7224 35.9735 16.1194 35.7353C16.5959 35.5764 16.5959 35.6558 16.7547 35.8147C17.7871 36.847 18.5018 35.8941 18.8194 35.8147C19.2165 35.6558 19.8518 36.2911 20.7253 36.2911C21.9165 36.2911 22.3929 35.1794 21.6782 34.7823C21.3606 34.6235 21.0429 34.7823 20.8841 35.0205C20.7253 35.1794 20.1694 34.8617 20.09 34.8617C18.9782 34.3853 18.5812 34.4647 17.9459 34.8617C17.8665 34.9411 17.7077 35.0205 17.7871 35.0205L17.6282 34.8617C16.4371 33.6705 15.2459 35.0205 14.8488 34.7823C14.8488 34.4647 14.6106 34.2264 14.3724 34.2264C13.6577 34.2264 13.34 35.1 13.8959 35.6558ZM9.52824 47.7264L9.13118 47.8853C8.81353 47.9647 8.65471 48.3617 8.73412 48.6C8.81353 48.9176 9.13118 49.0764 9.44883 48.997L9.84589 48.8382C10.1635 48.7588 10.3224 48.3617 10.2429 48.1235C10.2429 47.8058 9.84589 47.5676 9.52824 47.7264ZM12.1488 44.7882C12.4665 44.7882 12.7047 44.55 12.7047 44.1529C12.7047 43.7558 12.4665 43.5176 12.1488 43.5176H11.99C11.6724 43.5176 11.3547 43.7558 11.3547 44.1529C11.3547 44.55 11.5929 44.7882 11.99 44.7882H12.1488ZM24.2988 47.7264C24.6165 47.5676 24.6959 47.25 24.5371 46.9323L24.3782 46.6941C24.2194 46.3764 23.9018 46.297 23.5841 46.4558C23.2665 46.6147 23.1871 46.9323 23.3459 47.25L23.5047 47.4882C23.6635 47.8058 23.9812 47.8853 24.2988 47.7264ZM29.2224 50.8235C29.54 50.8235 29.8576 50.5853 29.8576 50.1882C29.8576 49.7911 29.6194 49.5529 29.2224 49.5529H29.0635C28.7459 49.5529 28.4282 49.7911 28.4282 50.1882C28.4282 50.5853 28.6665 50.8235 29.0635 50.8235H29.2224ZM40.34 51.1411C40.6576 51.3 40.9753 51.1411 41.1341 50.9029C41.2929 50.5853 41.1341 50.2676 40.8959 50.1088L40.6576 49.95C40.34 49.7911 40.0224 49.95 39.8635 50.1882C39.7047 50.5058 39.8635 50.8235 40.1018 50.9823L40.34 51.1411ZM50.6635 44.0735C51.2194 44.0735 51.4576 43.4382 51.0606 43.0411L50.9812 42.9617L50.5047 43.3588L50.1076 43.8353C50.1871 43.9147 50.3459 44.0735 50.6635 44.0735ZM22.1547 19.2176C22.4724 19.2176 22.7106 18.9 22.7106 18.5823C22.7106 18.2647 22.3929 18.0264 22.0753 18.0264C21.3606 18.1058 20.8047 18.6617 20.6459 19.297L19.5341 18.7411C19.2165 18.5823 18.8988 18.7411 18.74 18.9794C18.5812 19.297 18.74 19.6147 18.9782 19.7735L20.8841 20.7264C21.1224 20.8058 21.3606 20.8058 21.5194 20.647C21.6782 20.4882 21.7576 20.25 21.6782 20.0117C21.5194 19.6941 21.7576 19.297 22.1547 19.2176ZM30.1753 3.6529L29.54 3.25584C29.3018 3.09702 28.9047 3.17643 28.7459 3.41467C28.5871 3.6529 28.6665 4.04996 28.9047 4.20879L30.2547 5.08231C30.4135 5.24114 30.6518 5.24114 30.89 5.08231C31.0488 5.0029 31.2076 4.76467 31.2076 4.52643C31.2076 4.20878 31.4459 3.89114 31.7635 3.89114C32.0812 3.81173 32.3194 3.49408 32.24 3.17643C32.1606 2.85878 31.9224 2.62055 31.5253 2.69996C30.89 2.85879 30.4135 3.17643 30.1753 3.6529ZM10.64 18.1853C13.34 18.7411 16.5959 16.5176 16.5959 13.2617C16.5959 10.6411 14.4518 8.49702 11.8312 8.49702C8.49589 8.49702 6.35177 11.8323 6.98706 14.5323C7.30471 16.2794 8.81353 17.7882 10.64 18.1853ZM15.4047 13.2617C15.4047 15.247 13.8165 16.8353 11.8312 16.8353C9.84589 16.8353 8.25765 15.247 8.25765 13.2617C8.25765 11.2764 9.84589 9.6882 11.8312 9.6882C13.8165 9.6882 15.4047 11.2764 15.4047 13.2617Z" fill="#100C08"/>
</svg>
