<svg width="54" height="54" viewBox="0 0 54 54" fill="none" xmlns="http://www.w3.org/2000/svg">
<path d="M10.1641 14.3536C10.8064 14.3532 11.4342 14.1624 11.9681 13.8053C12.5019 13.4482 12.918 12.9408 13.1636 12.3473C13.4092 11.7539 13.4733 11.1009 13.3479 10.4709C13.2225 9.84101 12.9132 9.26238 12.459 8.80821C12.0048 8.35403 11.4262 8.04469 10.7963 7.91928C10.1663 7.79387 9.51335 7.85803 8.91987 8.10363C8.32638 8.34924 7.81902 8.76527 7.46192 9.29915C7.10481 9.83303 6.914 10.4608 6.91358 11.1031C6.91447 11.9649 7.25723 12.7912 7.86663 13.4006C8.47603 14.01 9.3023 14.3527 10.1641 14.3536ZM10.1641 9.32953C10.5145 9.32994 10.8568 9.43422 11.148 9.62917C11.4391 9.82412 11.6658 10.101 11.7996 10.4248C11.9334 10.7486 11.9682 11.1048 11.8996 11.4484C11.831 11.7919 11.6621 12.1075 11.4142 12.3551C11.1663 12.6026 10.8506 12.7712 10.5069 12.8394C10.1633 12.9076 9.80711 12.8724 9.48346 12.7382C9.15982 12.604 8.88321 12.3769 8.68861 12.0856C8.49401 11.7942 8.39014 11.4518 8.39014 11.1014C8.39115 10.6314 8.57844 10.181 8.91097 9.84886C9.24349 9.51673 9.69414 9.32997 10.1641 9.32953ZM10.1641 6.85565C10.3599 6.85554 10.5476 6.77772 10.686 6.63929C10.8245 6.50086 10.9023 6.31314 10.9024 6.11737V5.31201C10.9024 5.11621 10.8246 4.92842 10.6862 4.78997C10.5477 4.65151 10.3599 4.57373 10.1641 4.57373C9.96832 4.57373 9.78054 4.65151 9.64208 4.78997C9.50363 4.92842 9.42584 5.11621 9.42584 5.31201V6.11737C9.42584 6.31318 9.50363 6.50096 9.64208 6.63942C9.78054 6.77787 9.96832 6.85565 10.1641 6.85565ZM13.6897 8.31576C13.7867 8.31595 13.8827 8.29697 13.9722 8.2599C14.0618 8.22283 14.1432 8.1684 14.2116 8.09976L14.7811 7.53023C14.8497 7.46167 14.9041 7.38028 14.9412 7.2907C14.9783 7.20113 14.9974 7.10512 14.9974 7.00816C14.9974 6.9112 14.9783 6.81519 14.9412 6.72562C14.9041 6.63604 14.8497 6.55465 14.7811 6.48609C14.7126 6.41753 14.6312 6.36315 14.5416 6.32604C14.452 6.28894 14.356 6.26984 14.2591 6.26984C14.1621 6.26984 14.0661 6.28894 13.9765 6.32604C13.8869 6.36315 13.8055 6.41753 13.737 6.48609L13.1675 7.05562C13.0643 7.1589 12.994 7.29045 12.9655 7.43365C12.9371 7.57686 12.9518 7.72528 13.0077 7.86015C13.0636 7.99503 13.1582 8.1103 13.2796 8.1914C13.401 8.27249 13.5437 8.31577 13.6897 8.31576ZM14.4116 11.1031C14.4116 11.2989 14.4893 11.4867 14.6278 11.6251C14.7663 11.7636 14.954 11.8414 15.1498 11.8414H15.9552C16.151 11.8414 16.3388 11.7636 16.4772 11.6251C16.6157 11.4867 16.6935 11.2989 16.6935 11.1031C16.6935 10.9073 16.6157 10.7195 16.4772 10.581C16.3388 10.4426 16.151 10.3648 15.9552 10.3648H15.1498C14.9541 10.3649 14.7664 10.4427 14.6279 10.5812C14.4895 10.7196 14.4117 10.9073 14.4116 11.1031ZM13.1675 14.1064C13.0291 14.2449 12.9514 14.4327 12.9514 14.6285C12.9514 14.8243 13.0291 15.012 13.1675 15.1506L13.737 15.7201C13.8051 15.7906 13.8865 15.8469 13.9766 15.8856C14.0667 15.9243 14.1635 15.9447 14.2616 15.9456C14.3596 15.9464 14.4568 15.9278 14.5475 15.8907C14.6383 15.8536 14.7207 15.7988 14.7901 15.7295C14.8594 15.6601 14.9142 15.5777 14.9514 15.487C14.9885 15.3963 15.0072 15.2991 15.0064 15.201C15.0055 15.103 14.9852 15.0061 14.9465 14.916C14.9079 14.826 14.8516 14.7445 14.7811 14.6764L14.2116 14.1068C14.1431 14.0382 14.0617 13.9838 13.9721 13.9467C13.8826 13.9095 13.7866 13.8904 13.6896 13.8904C13.5927 13.8903 13.4966 13.9094 13.407 13.9465C13.3175 13.9835 13.236 14.0379 13.1675 14.1064ZM9.42584 16.0888V16.8942C9.42584 17.09 9.50363 17.2778 9.64208 17.4162C9.78054 17.5547 9.96832 17.6324 10.1641 17.6324C10.3599 17.6324 10.5477 17.5547 10.6862 17.4162C10.8246 17.2778 10.9024 17.09 10.9024 16.8942V16.0888C10.9024 15.893 10.8246 15.7052 10.6862 15.5668C10.5477 15.4283 10.3599 15.3505 10.1641 15.3505C9.96832 15.3505 9.78054 15.4283 9.64208 15.5668C9.50363 15.7052 9.42584 15.893 9.42584 16.0888ZM6.11792 14.1068L5.54839 14.6764C5.47789 14.7445 5.42166 14.826 5.38299 14.916C5.34432 15.0061 5.32397 15.103 5.32314 15.201C5.3223 15.2991 5.341 15.3963 5.37814 15.487C5.41528 15.5777 5.47012 15.6601 5.53945 15.7295C5.60879 15.7988 5.69123 15.8536 5.78197 15.8907C5.87271 15.9278 5.96993 15.9464 6.06796 15.9456C6.16598 15.9447 6.26286 15.9243 6.35292 15.8856C6.44299 15.8469 6.52444 15.7906 6.59253 15.7201L7.16206 15.1506C7.23256 15.0824 7.28879 15.001 7.32746 14.9109C7.36614 14.8208 7.38648 14.7239 7.38732 14.6259C7.38815 14.5279 7.36945 14.4307 7.33231 14.3399C7.29517 14.2492 7.24033 14.1668 7.171 14.0975C7.10167 14.0282 7.01923 13.9734 6.92849 13.9363C6.83775 13.8992 6.74053 13.8805 6.6425 13.8814C6.54447 13.8822 6.4476 13.9026 6.35753 13.9413C6.26747 13.9801 6.18601 14.0363 6.11792 14.1068ZM5.91669 11.1031C5.91658 10.9073 5.83876 10.7196 5.70033 10.5812C5.5619 10.4427 5.37418 10.3649 5.17841 10.3648H4.37305C4.17724 10.3648 3.98946 10.4426 3.851 10.581C3.71255 10.7195 3.63477 10.9073 3.63477 11.1031C3.63477 11.2989 3.71255 11.4867 3.851 11.6251C3.98946 11.7636 4.17724 11.8414 4.37305 11.8414H5.17841C5.37421 11.8414 5.562 11.7636 5.70045 11.6251C5.8389 11.4867 5.91669 11.2989 5.91669 11.1031ZM6.11792 8.10018C6.25638 8.23865 6.44418 8.31643 6.63999 8.31643C6.83581 8.31643 7.0236 8.23865 7.16206 8.10018C7.30052 7.96172 7.37831 7.77393 7.37831 7.57811C7.37831 7.3823 7.30052 7.1945 7.16206 7.05604L6.59253 6.48651C6.45407 6.34805 6.26628 6.27026 6.07046 6.27026C5.87465 6.27026 5.68685 6.34805 5.54839 6.48651C5.40993 6.62497 5.33214 6.81277 5.33214 7.00858C5.33214 7.10554 5.35124 7.20155 5.38834 7.29112C5.42545 7.3807 5.47983 7.46209 5.54839 7.53065L6.11792 8.10018ZM38.1804 16.5191C38.272 16.5579 38.3704 16.5778 38.4698 16.5778H44.6828C44.8018 16.5775 44.919 16.5486 45.0245 16.4934C46.4255 15.7614 47.2183 14.5903 47.2001 13.28C47.1882 12.6798 47.0115 12.0945 46.6892 11.5881C46.367 11.0817 45.9116 10.6736 45.373 10.4087C44.9211 10.1909 44.4237 10.0845 43.9223 10.0984C43.4209 10.1124 42.9302 10.2462 42.4911 10.4888C40.5636 8.24109 38.6778 8.47734 37.9197 8.70136C37.1553 8.9512 36.4846 9.42685 35.9959 10.0656C35.5073 10.7043 35.2237 11.4761 35.1826 12.2793C35.0767 14.0908 36.1976 15.6754 38.1804 16.5191ZM38.3386 10.118C39.4418 9.7919 40.6454 10.426 41.7288 11.9038C41.7867 11.983 41.8598 12.0498 41.9438 12.1003C42.0278 12.1509 42.121 12.1842 42.218 12.1983C42.3151 12.2124 42.4139 12.207 42.5088 12.1825C42.6038 12.1579 42.6928 12.1147 42.7708 12.0553C43.0317 11.8197 43.3549 11.6644 43.7018 11.6079C44.0487 11.5514 44.4045 11.5962 44.7267 11.7367C45.0186 11.8831 45.2655 12.1059 45.441 12.3813C45.6165 12.6568 45.7142 12.9746 45.7235 13.3011C45.7332 14.0018 45.2983 14.6363 44.4938 15.1012H38.6238C37.3046 14.4971 36.5891 13.5057 36.6549 12.3649C36.6799 11.8655 36.8533 11.385 37.153 10.9847C37.4526 10.5845 37.8648 10.2827 38.3369 10.118H38.3386ZM49.6284 27.5849H47.2123C47.0964 27.5849 46.9821 27.6122 46.8787 27.6646C46.7752 27.717 46.6856 27.793 46.6171 27.8865L40.1653 36.6746H36.4668L33.2892 25.6253C33.662 25.364 33.944 24.9928 34.0956 24.5635C34.2473 24.1342 34.2611 23.6683 34.1351 23.2307C34.0092 22.7932 33.7497 22.406 33.393 22.123C33.0363 21.8401 32.6002 21.6756 32.1455 21.6525L30.8951 17.3042C30.8683 17.2111 30.8235 17.1241 30.7631 17.0483C30.7027 16.9724 30.628 16.9093 30.5432 16.8623C30.4584 16.8154 30.3652 16.7856 30.2689 16.7746C30.1726 16.7637 30.0751 16.7719 29.9819 16.7986C29.8888 16.8254 29.8018 16.8702 29.726 16.9306C29.6501 16.991 29.5869 17.0657 29.54 17.1505C29.493 17.2353 29.4632 17.3285 29.4523 17.4248C29.4414 17.5211 29.4495 17.6186 29.4763 17.7118L30.6057 21.6424H28.9916L25.9676 18.6525C25.8069 18.4963 25.6355 18.3515 25.4546 18.2193C26.2389 17.7669 26.859 17.0769 27.2253 16.249C27.5916 15.421 27.6852 14.498 27.4924 13.6134C27.2997 12.7287 26.8306 11.9283 26.153 11.3278C25.4755 10.7273 24.6245 10.3578 23.7231 10.2728C22.8217 10.1877 21.9166 10.3915 21.1387 10.8547C20.3608 11.3179 19.7503 12.0165 19.3955 12.8494C19.0406 13.6824 18.9599 14.6066 19.1649 15.4885C19.3699 16.3703 19.8501 17.1642 20.5359 17.7552C20.1885 17.9213 19.8627 18.1291 19.5656 18.3741C19.462 17.9792 19.2788 17.6096 19.0273 17.2881C18.7757 16.9666 18.461 16.6999 18.1026 16.5044C17.7442 16.3089 17.3496 16.1887 16.9431 16.1513C16.5365 16.1138 16.1266 16.1599 15.7385 16.2866C15.3504 16.4133 14.9923 16.618 14.6862 16.8882C14.3801 17.1583 14.1325 17.4882 13.9585 17.8575C13.7846 18.2269 13.6879 18.6279 13.6746 19.0359C13.6612 19.444 13.7314 19.8504 13.8808 20.2304C13.7227 20.2478 13.5747 20.3167 13.4595 20.4263C13.3443 20.536 13.2682 20.6804 13.243 20.8374L12.0617 27.8781C11.9232 28.6823 12.1044 29.5087 12.5667 30.1812C13.0289 30.8536 13.7356 31.3188 14.536 31.4775C14.7429 31.5202 14.9538 31.5412 15.165 31.54C15.6066 31.5385 16.0428 31.4434 16.445 31.2611L16.415 35.3955L14.2913 39.5691C14.0613 40.0141 13.949 40.5105 13.965 41.0112C13.981 41.5118 14.1249 42.0001 14.3829 42.4294H13.2708C13.1222 42.4293 12.9771 42.4742 12.8544 42.5581L4.76244 48.0787C4.60425 48.1905 4.49632 48.36 4.46192 48.5506C4.42753 48.7412 4.46942 48.9377 4.57857 49.0977C4.68771 49.2577 4.85537 49.3685 5.0454 49.406C5.23542 49.4435 5.43258 49.4049 5.59437 49.2984L13.5007 43.9039H26.4253C26.6097 43.904 26.7874 43.835 26.9235 43.7107L33.0019 38.1512H40.5391C40.6551 38.1512 40.7694 38.1239 40.8728 38.0715C40.9762 38.0191 41.0658 37.9431 41.1344 37.8495L47.5882 29.0615H49.6305C49.8263 29.0615 50.0141 28.9837 50.1526 28.8452C50.291 28.7068 50.3688 28.519 50.3688 28.3232C50.3688 28.1274 50.291 27.9396 50.1526 27.8011C50.0141 27.6627 49.8263 27.5849 49.6305 27.5849H49.6284ZM23.3207 11.7376C23.8726 11.7376 24.4121 11.9012 24.8709 12.2078C25.3298 12.5144 25.6874 12.9502 25.8986 13.4601C26.1098 13.9699 26.165 14.531 26.0574 15.0722C25.9497 15.6135 25.684 16.1107 25.2937 16.5009C24.9035 16.8911 24.4063 17.1569 23.8651 17.2645C23.3238 17.3722 22.7628 17.3169 22.2529 17.1058C21.7431 16.8946 21.3073 16.5369 21.0007 16.0781C20.6941 15.6192 20.5304 15.0797 20.5304 14.5279C20.5312 13.7881 20.8254 13.0788 21.3486 12.5557C21.8717 12.0326 22.5809 11.7384 23.3207 11.7376ZM22.5791 18.7614H22.6326C23.4926 18.7581 24.3186 19.0963 24.9293 19.7017L28.1693 22.905C28.3073 23.042 28.4938 23.1189 28.6882 23.1189H32.0248C32.1981 23.1183 32.3658 23.1804 32.4968 23.2937C32.6278 23.4071 32.7134 23.5641 32.7377 23.7356C32.762 23.9072 32.7233 24.0817 32.6289 24.227C32.5344 24.3723 32.3906 24.4784 32.224 24.5259C31.9502 24.5976 32.5695 24.5259 25.3672 24.5575L23.2001 22.6C23.0546 22.4688 22.863 22.4007 22.6673 22.4107C22.4717 22.4208 22.288 22.5082 22.1568 22.6536C22.0255 22.7991 21.9574 22.9907 21.9675 23.1863C21.9775 23.382 22.0649 23.5657 22.2103 23.6969L24.3007 25.5806L24.2202 26.1805C22.0112 26.9972 19.4994 26.9399 18.2856 26.8441C18.5705 24.9195 18.9616 23.0121 19.4572 21.1306C19.6465 20.4485 20.0544 19.8473 20.6184 19.4193C21.1823 18.9913 21.8711 18.7602 22.5791 18.7614ZM30.9065 38.0664C30.7817 38.1806 30.6349 38.2682 30.475 38.3236C30.3152 38.379 30.1457 38.4012 29.977 38.3887C29.8082 38.3762 29.6439 38.3293 29.4939 38.251C29.344 38.1726 29.2116 38.0645 29.105 37.9331L26.567 34.8087C25.3242 33.2789 22.7588 32.1483 21.0742 31.9935C20.1672 31.8247 19.1336 32.096 18.3455 31.1211C18.1736 30.9097 18.0461 30.6658 17.9706 30.4039C17.8951 30.1421 17.8733 29.8677 17.9064 29.5972C17.9593 29.1602 18.0141 28.7313 18.0709 28.3105C18.6055 28.3565 19.1417 28.3794 19.6782 28.3793C21.1385 28.3905 22.5931 28.1977 23.9999 27.8064L23.8143 29.1838C23.7932 29.3403 23.8227 29.4994 23.8986 29.6378C23.9746 29.7762 24.0929 29.8866 24.2362 29.9529L26.1903 30.8515C26.9825 31.2162 27.6688 31.7766 28.1845 32.4799L31.0685 36.4164C31.25 36.6629 31.3338 36.9678 31.3039 37.2725C31.274 37.5771 31.1324 37.8599 30.9065 38.0664ZM16.6699 17.6076C16.9708 17.6079 17.265 17.6974 17.515 17.8649C17.7651 18.0324 17.96 18.2702 18.0749 18.5484C18.1899 18.8265 18.2198 19.1325 18.1608 19.4277C18.1019 19.7228 17.9568 19.9939 17.7439 20.2066C17.5309 20.4193 17.2597 20.5641 16.9645 20.6227C16.6693 20.6813 16.3633 20.651 16.0853 20.5358C15.8073 20.4205 15.5696 20.2254 15.4025 19.9752C15.2353 19.7249 15.146 19.4307 15.146 19.1297C15.1465 18.7258 15.3072 18.3387 15.593 18.0533C15.8787 17.7679 16.266 17.6076 16.6699 17.6076ZM15.1671 30.063C15.0561 30.0642 14.9452 30.0536 14.8364 30.0314C14.4113 29.9478 14.0357 29.7014 13.7897 29.3448C13.5438 28.9881 13.4471 28.5494 13.5201 28.1224L14.579 21.8111L17.6351 22.338C17.2866 23.8534 16.9782 25.5375 16.7129 27.3757L16.7104 27.3854V27.398C16.6129 28.0719 16.5235 28.747 16.442 29.423C16.4399 29.439 16.442 29.4547 16.4387 29.4703C16.283 29.6561 16.0885 29.8055 15.8688 29.9079C15.6491 30.0104 15.4096 30.0633 15.1671 30.063ZM16.7547 42.4138C16.5158 42.382 16.2881 42.2933 16.0905 42.1553C15.893 42.0173 15.7314 41.8339 15.6193 41.6206C15.5072 41.4073 15.4479 41.1702 15.4463 40.9293C15.4447 40.6883 15.5009 40.4505 15.6101 40.2357L17.8127 35.9072C17.8646 35.8053 17.8921 35.6926 17.8929 35.5782L17.9135 32.7166C19.0083 33.4882 19.9947 33.3182 20.8755 33.4578V36.5514L18.2975 41.6042C18.1568 41.8832 17.9324 42.1111 17.6558 42.2563C17.3792 42.4014 17.0641 42.4565 16.7547 42.4138ZM26.1388 42.4273H19.5217C19.7221 42.0852 19.3437 42.783 22.2711 37.064C22.3245 36.9595 22.3521 36.8438 22.3517 36.7265V33.8063C23.6371 34.3197 24.5555 34.6741 25.4208 35.7397L27.9588 38.8642C28.2664 39.2404 28.669 39.5276 29.1249 39.6961L26.1388 42.4273ZM32.7349 36.6746C32.6658 36.2664 32.5039 35.8796 32.2615 35.544L29.3776 31.6075C28.7132 30.7016 27.8292 29.9797 26.8088 29.5099L25.3508 28.8396L25.7305 26.032H31.8696L34.932 36.6746H32.7349Z" fill="white"/>
</svg>
