<svg width="54" height="54" viewBox="0 0 54 54" fill="none" xmlns="http://www.w3.org/2000/svg">
<g clip-path="url(#clip0_1022_618)">
<path d="M44.4816 37.77H43.2959C43.1786 37.2589 42.9199 36.791 42.5493 36.42C42.1786 36.0489 41.7111 35.7896 41.2001 35.6717V32.684C41.2001 32.5194 41.1347 32.3616 41.0184 32.2452C40.902 32.1289 40.7441 32.0635 40.5796 32.0635C40.415 32.0635 40.2571 32.1289 40.1408 32.2452C40.0244 32.3616 39.959 32.5194 39.959 32.684V35.6734C39.3431 35.8145 38.7931 36.1601 38.3987 36.6539C38.0043 37.1476 37.7887 37.7603 37.7871 38.3922C37.7889 39.1323 38.0841 39.8415 38.6081 40.3643C39.132 40.887 39.8419 41.1805 40.582 41.1805C41.9059 41.1805 43.0129 40.2505 43.2959 39.0111H44.4824C44.647 39.0111 44.8048 38.9457 44.9212 38.8293C45.0375 38.713 45.1029 38.5551 45.1029 38.3906C45.1029 38.226 45.0375 38.0681 44.9212 37.9518C44.8048 37.8354 44.6461 37.77 44.4816 37.77Z" fill="#100C08"/>
<path d="M1.54147 13.2597C8.34761 51.6466 6.62001 41.7791 7.35473 45.9202C8.1813 50.6 9.54898 53.9981 14.2875 53.9981C15.167 53.9981 13.6793 54.2115 36.5609 50.1647C45.7615 53.8409 53.9593 45.5653 52.9574 36.6592C52.2276 31.8984 48.4737 27.2873 43.4192 26.0421C38.5814 -1.48531 40.6226 10.6559 39.6628 4.30396C39.3335 2.15936 36.45 -0.614064 32.6167 0.120661C30.0352 0.592276 38.8991 -1.03024 6.82189 4.61341L6.82106 4.60762C5.26887 4.83432 3.14495 5.14542 1.90966 6.74974C0.390561 8.71315 1.14432 11.0356 1.54147 13.2597ZM51.7916 37.82C51.5847 37.7323 51.588 37.7869 49.647 37.7704C49.4824 37.7704 49.3245 37.8358 49.2082 37.9521C49.0918 38.0685 49.0264 38.2263 49.0264 38.3909C49.0264 38.5555 49.0918 38.7133 49.2082 38.8297C49.3245 38.9461 49.4824 39.0115 49.647 39.0115C51.6062 38.9949 51.5524 39.0487 51.7667 38.9676C51.5872 41.4755 50.6283 43.98 48.9271 45.998C48.8444 45.6687 48.7368 45.7225 47.4295 44.3639C47.3727 44.3029 47.3042 44.254 47.2281 44.2201C47.152 44.1862 47.0698 44.1679 46.9865 44.1665C46.9032 44.165 46.8204 44.1803 46.7431 44.2115C46.6659 44.2428 46.5957 44.2892 46.5368 44.3481C46.4778 44.4071 46.4314 44.4772 46.4002 44.5545C46.369 44.6318 46.3536 44.7146 46.3551 44.7979C46.3566 44.8812 46.3748 44.9634 46.4087 45.0395C46.4426 45.1156 46.4915 45.1841 46.5525 45.2409C47.8805 46.5077 47.8581 46.6831 48.2305 46.7468C46.3895 48.5894 43.9661 49.7626 41.1844 49.8048C41.2109 49.5732 41.1927 48.879 41.1984 47.8331C41.1984 47.6686 41.1331 47.5107 41.0167 47.3944C40.9003 47.278 40.7425 47.2126 40.5779 47.2126C40.4133 47.2126 40.2555 47.278 40.1391 47.3944C40.0227 47.5107 39.9574 47.6686 39.9574 47.8331L39.9598 49.7502C37.6622 49.5037 35.2801 48.4926 33.2273 46.6086C33.3804 46.4762 34.2219 45.624 34.6066 45.2409C34.6676 45.1841 34.7165 45.1156 34.7504 45.0395C34.7843 44.9634 34.8025 44.8812 34.804 44.7979C34.8055 44.7146 34.7901 44.6318 34.7589 44.5545C34.7277 44.4772 34.6813 44.4071 34.6224 44.3481C34.5634 44.2892 34.4932 44.2428 34.416 44.2115C34.3387 44.1803 34.2559 44.165 34.1726 44.1665C34.0893 44.1679 34.0071 44.1862 33.931 44.2201C33.8549 44.254 33.7864 44.3029 33.7296 44.3639C33.3655 44.7296 32.5034 45.5826 32.3644 45.7374C30.4862 43.6234 29.5396 41.3075 29.3891 38.9668C29.6009 39.0487 29.5612 38.9941 31.5121 39.0115C31.6767 39.0115 31.8346 38.9461 31.9509 38.8297C32.0673 38.7133 32.1327 38.5555 32.1327 38.3909C32.1327 38.2263 32.0673 38.0685 31.9509 37.9521C31.8346 37.8358 31.6767 37.7704 31.5121 37.7704C29.6083 37.7869 29.5868 37.7332 29.3791 37.8175C29.5099 35.5315 30.439 33.1229 32.3313 30.9924C32.3503 31.0189 32.3611 31.0495 32.3842 31.0726L33.7287 32.418C33.8504 32.5396 34.0092 32.6 34.1673 32.6C34.715 32.6 34.9996 31.9339 34.6058 31.5409L33.2621 30.1956C33.2364 30.1699 33.2042 30.1584 33.1752 30.1377C35.1196 28.3298 37.4843 27.1864 40.0806 27.0101V28.3728C40.0806 28.5374 40.146 28.6953 40.2624 28.8116C40.3788 28.928 40.5366 28.9934 40.7012 28.9934C40.8658 28.9934 41.0236 28.928 41.14 28.8116C41.2563 28.6953 41.3217 28.5374 41.3217 28.3728V26.982C43.9363 27.1309 46.277 28.3422 48.0906 30.0665C47.8871 30.1542 47.9541 30.1617 46.5517 31.5409C46.4907 31.5977 46.4418 31.6663 46.4079 31.7424C46.374 31.8185 46.3557 31.9007 46.3543 31.984C46.3528 32.0673 46.3681 32.1501 46.3993 32.2273C46.4305 32.3046 46.477 32.3748 46.5359 32.4337C46.5949 32.4927 46.665 32.5391 46.7423 32.5703C46.8196 32.6015 46.9023 32.6169 46.9857 32.6154C47.069 32.6139 47.1512 32.5957 47.2273 32.5618C47.3034 32.5278 47.3719 32.4789 47.4287 32.418C48.8229 30.999 48.7856 31.1123 48.8874 30.9022C50.5852 32.8466 51.7287 35.2956 51.7916 37.82ZM32.8459 1.34024C35.8998 0.747826 38.2074 3.0033 38.4358 4.4893C39.3567 10.6211 37.4603 -0.699286 42.116 25.8021C34.8259 24.9168 28.0007 31.5037 28.1182 38.5399C28.1827 42.1084 29.9782 45.4817 32.7648 47.8687L32.7656 47.8696C33.3618 48.3788 34.0001 48.8366 34.6736 49.2381C15.9936 52.5435 16.9062 52.4492 15.9629 52.4566C11.9319 52.4831 10.9431 49.4077 10.2291 45.4097C10.2043 45.2699 9.2445 39.982 4.41583 12.7508C4.06584 10.7618 3.36918 8.73631 4.54159 7.2197C5.06285 6.55613 5.82985 6.13002 7.0155 5.83712C7.09824 5.82471 32.7623 1.35513 32.8459 1.34024Z" fill="#100C08"/>
<path d="M16.0265 11.2576C16.2275 10.9682 16.369 10.6419 16.4429 10.2975C16.5167 9.95305 16.5215 9.59739 16.4568 9.25112C16.0282 6.90463 12.9619 6.25596 11.6124 8.20861C11.4113 8.49801 11.2695 8.82443 11.1954 9.16897C11.1213 9.51352 11.1162 9.86935 11.1805 10.2159C11.6099 12.5632 14.6704 13.221 16.0265 11.2584V11.2576ZM9.6341 20.3837C9.71739 20.8373 9.97733 21.2392 10.3568 21.5013C10.7363 21.7633 11.2042 21.864 11.6579 21.7812L20.1064 20.2356C20.3312 20.1948 20.5458 20.11 20.7378 19.9861C20.9298 19.8622 21.0955 19.7017 21.2254 19.5137C21.3552 19.3258 21.4468 19.114 21.4947 18.8906C21.5426 18.6672 21.546 18.4365 21.5047 18.2118L21.3343 17.2851C21.2607 16.8823 21.1084 16.4979 20.8862 16.154C20.664 15.81 20.3763 15.5132 20.0394 15.2805C19.7024 15.0478 19.323 14.8837 18.9226 14.7976C18.5223 14.7116 18.1089 14.7052 17.7062 14.7789L11.9707 15.8289C11.5674 15.9013 11.1826 16.053 10.8384 16.2753C10.4943 16.4976 10.1977 16.786 9.96589 17.1238C8.98377 18.5469 9.60514 19.8674 9.6341 20.3837ZM27.8856 9.92959L33.051 9.00042C33.2131 8.97124 33.3569 8.87887 33.4508 8.74364C33.5448 8.60842 33.5812 8.4414 33.552 8.27935C33.5228 8.11729 33.4304 7.97347 33.2952 7.87952C33.16 7.78556 32.993 7.74918 32.8309 7.77836L27.6655 8.70752C27.5034 8.73671 27.3596 8.82908 27.2657 8.9643C27.1717 9.09953 27.1353 9.26654 27.1645 9.4286C27.1937 9.59065 27.2861 9.73448 27.4213 9.82843C27.5565 9.92238 27.7235 9.95877 27.8856 9.92959ZM27.4371 16.7605L35.8319 15.2497C35.9907 15.2174 36.1306 15.1242 36.2216 14.9901C36.3126 14.856 36.3476 14.6915 36.3189 14.532C36.2903 14.3724 36.2003 14.2304 36.0683 14.1363C35.9364 14.0422 35.7728 14.0035 35.6126 14.0285L27.217 15.5385C27.055 15.5677 26.9112 15.66 26.8172 15.7953C26.7233 15.9305 26.6869 16.0975 26.7161 16.2596C26.7452 16.4216 26.8376 16.5654 26.9728 16.6594C27.1081 16.7533 27.2751 16.7897 27.4371 16.7605ZM12.7459 31.6205C12.7715 31.7637 12.8466 31.8934 12.9581 31.9868C13.0695 32.0803 13.2103 32.1316 13.3557 32.1319C13.4658 32.1319 12.8278 32.2328 23.8446 30.2553C23.9259 30.2421 24.0038 30.2128 24.0737 30.1692C24.1436 30.1256 24.2041 30.0685 24.2517 30.0012C24.2992 29.934 24.333 29.8579 24.3508 29.7775C24.3687 29.697 24.3704 29.6138 24.3558 29.5328C24.3412 29.4517 24.3106 29.3743 24.2657 29.3052C24.2209 29.2361 24.1627 29.1765 24.0947 29.1301C24.0266 29.0837 23.95 29.0513 23.8692 29.0348C23.7885 29.0183 23.7053 29.0181 23.6245 29.0341L13.2465 30.8999C13.0846 30.9291 12.9409 31.0214 12.847 31.1566C12.7531 31.2917 12.7168 31.4586 12.7459 31.6205ZM14.1029 39.1672C14.1286 39.3102 14.2038 39.4397 14.3152 39.533C14.4267 39.6263 14.5673 39.6775 14.7126 39.6777C14.8227 39.6777 14.1848 39.7786 25.2023 37.8012C25.2837 37.788 25.3615 37.7587 25.4314 37.715C25.5013 37.6714 25.5618 37.6143 25.6094 37.547C25.657 37.4798 25.6907 37.4037 25.7086 37.3233C25.7265 37.2429 25.7281 37.1597 25.7135 37.0786C25.6989 36.9975 25.6683 36.9201 25.6235 36.851C25.5786 36.7819 25.5205 36.7224 25.4524 36.676C25.3844 36.6295 25.3077 36.5971 25.227 36.5807C25.1463 36.5642 25.0631 36.5639 24.9823 36.5799L14.6034 38.4465C14.4417 38.4757 14.2981 38.568 14.2043 38.7029C14.1104 38.8379 14.0739 39.0045 14.1029 39.1664V39.1672ZM15.4598 46.713C15.4856 46.8562 15.5609 46.9857 15.6725 47.0791C15.7841 47.1724 15.9249 47.2235 16.0704 47.2235C16.1804 47.2235 15.5425 47.3245 26.5593 45.347C26.6406 45.3338 26.7185 45.3045 26.7884 45.2609C26.8583 45.2172 26.9188 45.1601 26.9663 45.0929C27.0139 45.0256 27.0476 44.9495 27.0655 44.8691C27.0834 44.7887 27.0851 44.7055 27.0705 44.6244C27.0558 44.5433 27.0252 44.466 26.9804 44.3968C26.9356 44.3277 26.8774 44.2682 26.8094 44.2218C26.7413 44.1754 26.6647 44.143 26.5839 44.1265C26.5032 44.11 26.42 44.1098 26.3392 44.1258L15.9612 45.9924C15.7993 46.0214 15.6555 46.1135 15.5615 46.2485C15.4675 46.3835 15.4309 46.5511 15.4598 46.713Z" fill="#100C08"/>
</g>
<defs>
<clipPath id="clip0_1022_618">
<rect width="54" height="54" fill="white"/>
</clipPath>
</defs>
</svg>
