<svg width="54" height="54" viewBox="0 0 54 54" fill="none" xmlns="http://www.w3.org/2000/svg">
<g clip-path="url(#clip0_1022_486)">
<path d="M0.794187 28.0322C1.03242 28.191 1.42948 28.1116 1.5883 27.8734C4.12948 23.9822 6.59125 19.9322 8.81478 15.8822C9.52948 18.741 10.3236 21.5998 11.356 24.3793L9.45007 24.2998C9.13242 24.2998 8.81478 24.5381 8.81478 24.8557C8.65595 28.3498 8.73536 30.891 9.21183 34.6234C9.29125 34.941 9.60889 35.1793 9.84713 35.0998C10.1648 35.0204 10.403 34.7822 10.3236 34.4646C9.84713 30.9704 9.76772 28.6675 9.84713 25.491L12.0707 25.6498C12.4677 25.6498 12.7854 25.2528 12.6265 24.8557C11.4354 21.6793 10.4824 18.5028 9.6883 15.2469C16.8354 20.4087 23.3471 26.2057 29.5412 31.4469C29.7795 31.6851 30.1765 31.6057 30.4148 31.3675C30.653 31.1293 30.5736 30.7322 30.3354 30.494L28.906 29.3028C28.8265 28.3498 29.0648 26.841 28.5089 26.0469C27.8736 25.1734 26.8412 24.8557 26.603 24.141C26.3648 23.3469 27.3177 22.0763 26.6824 20.8851C26.2854 19.9322 25.253 19.694 24.7765 19.2175C23.8236 18.2646 24.4589 16.3587 24.4589 15.8028C24.6177 15.8028 24.7765 15.8822 24.9354 15.9616C28.3501 17.3116 29.8589 18.6616 33.0354 20.8057C33.2736 20.9646 33.6707 20.8851 33.8295 20.6469C33.9883 20.4087 33.9089 20.0116 33.6707 19.8528C31.0501 18.1057 29.4618 16.7557 26.8412 15.5646L33.4324 8.33808L32.4795 14.1351C32.3207 15.3263 32.6383 16.1204 33.353 16.4381C34.0677 16.6763 34.703 16.1998 35.1001 16.1998C35.1795 16.2793 35.4177 16.041 35.9736 17.0734L42.5648 28.2704C42.7236 28.5881 43.1207 28.6675 43.3589 28.5087C43.6765 28.3498 43.756 27.9528 43.5971 27.7146L37.006 16.5175C36.7677 16.1204 36.1324 15.0881 35.1001 15.0881C34.9412 15.0881 34.9412 15.0087 34.2265 15.2469C34.306 15.0881 34.0677 15.0881 33.9883 15.0881C33.9089 15.0881 33.8295 14.691 33.9089 14.1351C34.1471 12.7851 34.9412 8.02044 34.9412 7.7822C35.1001 7.94103 34.1471 6.82926 48.7589 23.5851C48.9971 23.8234 49.3148 23.8234 49.6324 23.6646C49.8707 23.4263 49.8707 23.1087 49.7118 22.791L45.106 17.5498L47.6471 14.5322C47.6471 15.8822 48.0442 16.5175 48.7589 17.1528C48.8383 17.2322 49.2354 17.5498 49.2354 17.7881C49.156 18.1851 49.4736 18.5028 49.7912 18.5028C50.1089 18.5028 50.3471 18.2646 50.3471 18.0263C50.4265 17.5498 50.2677 17.0734 49.7912 16.5969C49.156 15.9616 48.5207 15.9616 48.8383 13.8969L51.856 16.994C52.0942 17.2322 52.4913 17.2322 52.7295 16.994C52.9677 16.7557 52.9677 16.3587 52.7295 16.1204L48.8383 12.2293C48.7589 12.1498 48.5207 12.0704 48.3618 12.0704C48.203 12.0704 48.0442 12.1498 47.9648 12.3087L44.3118 16.6763L35.9736 7.22632C34.9412 6.03514 33.9883 6.03514 33.0354 7.14691L25.9677 14.8498C24.6177 14.294 23.9824 14.2146 23.0295 15.3263L18.6618 20.3293C15.7236 17.9469 12.706 15.5646 9.60889 13.341C9.29125 13.1028 8.89419 13.2616 8.73536 13.5793C6.2736 18.1851 3.49419 22.791 0.635364 27.1587C0.47654 27.4763 0.555952 27.794 0.794187 28.0322ZM23.2677 16.8351C22.8707 20.4087 25.3324 20.2498 25.8089 21.2028C26.1265 21.9175 25.253 23.1087 25.6501 24.2998C26.0471 25.491 27.2383 25.8087 27.7148 26.5234C27.8736 26.6822 27.8736 27.5557 27.8736 28.0322C24.5383 25.1734 21.9971 23.0293 19.6148 21.044L23.2677 16.8351Z" fill="#100C08"/>
<path d="M17.7889 12.3087C19.8536 11.7528 21.1242 9.60865 20.6477 7.54395C20.0918 5.47924 18.0271 4.20865 15.883 4.68512C13.8183 5.241 12.5477 7.30571 13.0242 9.44983C13.5801 11.5939 15.7242 12.8645 17.7889 12.3087ZM16.2006 5.8763C17.6301 5.47924 19.1389 6.35277 19.5359 7.86159C19.933 9.291 19.0595 10.7998 17.5506 11.1969C16.1212 11.5939 14.6124 10.641 14.2153 9.21159C13.8183 7.70277 14.6918 6.19395 16.2006 5.8763ZM33.0359 0.873357C32.6389 1.11159 32.3212 1.42924 32.083 1.8263C31.7653 1.66747 31.4477 1.58806 31.1301 1.58806C30.8124 1.58806 30.5742 1.8263 30.4948 2.14395C30.4948 2.46159 30.733 2.77924 31.0506 2.77924C31.3683 2.77924 31.6859 2.93806 31.8448 3.1763C32.0036 3.41453 32.2418 3.49395 32.4801 3.41453C32.7183 3.33512 32.8771 3.09689 32.8771 2.85865C32.8771 2.46159 33.1153 2.14395 33.433 1.90571C33.7506 1.74689 33.8301 1.42924 33.6712 1.11159C33.5124 0.793945 33.3536 0.714534 33.0359 0.873357ZM6.27417 10.1645C6.59182 10.0851 6.75064 9.76748 6.67123 9.44983C6.59182 9.13218 6.27417 8.97336 5.95653 9.05277C5.48006 9.13218 5.083 9.52924 4.92417 10.0057L4.60653 9.84689C4.28888 9.68806 3.97123 9.84689 3.81241 10.1645C3.65358 10.4822 3.81241 10.7998 4.13006 10.9587L5.40064 11.5145C5.63888 11.5939 5.95653 11.5145 6.11535 11.3557C6.27417 11.1175 6.27417 10.7998 6.11535 10.641C6.03594 10.4822 6.11535 10.2439 6.27417 10.1645ZM45.1065 8.25865C44.7095 8.41747 44.3918 8.73512 44.1536 9.05277C43.9153 9.05277 43.5977 9.13218 43.5183 9.44983C43.3595 9.76748 43.5183 10.0851 43.8359 10.2439L44.3124 10.4028C44.4712 10.4822 44.7095 10.4822 44.8683 10.3234C45.0271 10.2439 45.1065 10.0057 45.1065 9.84689C45.1065 9.68806 45.2653 9.44983 45.4242 9.37042C45.7418 9.29101 45.9006 8.89395 45.8212 8.5763C45.7418 8.33806 45.4242 8.17924 45.1065 8.25865ZM53.1271 48.2028C52.7301 47.8851 51.6183 46.2969 50.9036 45.4234C51.0624 45.5028 51.3006 45.6616 51.5389 45.8204C51.7771 45.9792 52.0154 45.9792 52.2536 45.8204C52.4918 45.6616 52.5712 45.3439 52.4124 45.1057C51.8565 43.6763 51.0624 42.4057 50.1889 41.1351C50.6653 41.2145 51.0624 40.7381 50.9036 40.341C50.1095 38.4351 49.0771 37.2439 48.3624 36.3704C47.4095 35.1792 47.5683 35.3381 47.4889 35.2587C47.2506 35.0204 46.8536 35.0998 46.6153 35.3381C45.3448 37.0057 44.233 38.5145 42.883 40.4998C42.5653 40.9763 43.0418 41.6116 43.5977 41.3734L44.7095 40.9763C44.3918 41.4528 43.0418 43.1998 42.2477 44.5498C42.0889 44.7881 41.9301 45.1057 41.533 45.741C41.2153 46.2175 41.6918 46.8528 42.2477 46.6145C42.5653 46.5351 42.9624 46.3763 43.3595 46.2175C40.8977 49.3145 40.6595 49.5528 40.8183 49.9498C40.8977 50.1087 41.0565 50.2675 41.2153 50.3469C42.4065 50.7439 45.0271 51.2204 47.0124 51.141L47.2506 52.7292C47.3301 53.0469 47.5683 53.2057 47.8065 53.2057C48.2036 53.2057 48.4418 52.8881 48.3624 52.491L48.1242 50.9822C49.2359 50.8234 50.2683 50.5851 51.3006 50.1881C52.2536 49.791 53.0477 49.3145 53.1271 49.2351C53.6036 48.9175 53.5242 48.3616 53.1271 48.2028ZM45.0271 46.0587C45.1065 45.8998 45.3448 45.5822 45.5036 45.5028C45.8212 45.3439 45.9801 45.0263 45.8212 44.7087C45.6624 44.391 45.3448 44.2322 45.0271 44.391C44.5506 44.6292 43.5183 44.8675 43.4389 44.9469C44.7889 42.6439 47.0918 40.4204 46.1389 39.5469C45.8212 39.2292 45.3448 39.3881 45.0271 39.5469C45.7418 38.5145 46.4565 37.5616 47.1712 36.6087C48.3624 38.1175 48.5212 38.1969 49.0771 39.2292H48.6801C48.1242 38.991 47.5683 39.7057 48.0448 40.1822C48.4418 40.7381 49.4742 41.8498 50.6653 44.0734C50.0301 43.9145 50.0301 43.9939 49.7918 43.9939C49.2359 43.7557 48.7595 44.5498 49.1565 44.9469C49.2359 45.0263 49.4742 45.4234 49.8712 45.8998C50.9036 47.3292 51.5389 48.1234 51.9359 48.6792C48.7595 50.2675 45.8212 50.1881 42.4859 49.4734C42.7242 48.9969 44.8683 46.2969 45.0271 46.0587ZM10.0065 49.7116C9.76829 50.0292 9.92711 50.5057 10.3242 50.5851C11.0389 50.8234 12.8653 51.141 14.2153 51.2204L14.3742 52.5704C14.3742 52.8881 14.6918 53.1263 14.9301 53.1263C15.2477 53.1263 15.5653 52.8087 15.4859 52.491L15.3271 51.2204C16.9948 51.0616 18.5036 50.5851 19.8536 49.791C20.2506 49.5528 20.2506 48.9175 19.7742 48.7587C19.5359 48.5204 18.9006 47.7263 18.4242 47.0116C18.9006 47.2498 19.4565 46.7734 19.2183 46.2175C18.7418 45.1851 18.1859 44.1528 17.5506 43.1998C17.6301 43.1998 17.7095 43.1204 17.7889 43.1204C18.0271 42.9616 18.1065 42.6439 17.9477 42.4057C17.3124 40.8175 16.5183 39.9439 15.883 39.2292C15.1683 38.3557 15.2477 38.3557 15.1683 38.3557C14.9301 38.1175 14.533 38.1969 14.3742 38.4351L14.2948 38.5145C13.2624 39.8645 12.3095 41.2145 11.3565 42.5645C11.0389 43.041 11.5153 43.6763 12.0712 43.4381L12.5477 43.2792C10.6418 45.8998 11.1977 45.2645 10.2448 46.7734C9.92711 47.2498 10.4036 47.8851 10.9595 47.6469C11.1183 47.5675 11.2771 47.5675 11.4359 47.4881C10.9595 48.441 10.483 49.0763 10.0065 49.7116ZM13.2624 47.4881C13.3418 47.4087 13.7389 46.8528 13.7389 46.8528C14.0565 46.6939 14.2154 46.3763 14.0565 46.0587C13.8977 45.741 13.5801 45.5822 13.2624 45.741C13.0242 45.8204 12.7065 45.9792 12.3095 46.0587C13.7389 43.8351 14.1359 43.5969 14.3742 42.8028C14.6124 42.0087 14.1359 41.6116 13.5801 41.691L15.0095 39.7851C15.0889 39.8645 15.0889 39.9439 15.1683 40.0234C15.4859 40.4204 15.883 40.8969 15.9624 40.9763C16.1212 41.2145 16.2006 41.3734 16.3595 41.5322H16.2801C16.0418 41.4528 15.883 41.5322 15.7242 41.6116C15.4859 41.8498 15.4859 42.1675 15.6448 42.4851C16.4389 43.3587 17.0742 44.3116 17.6301 45.3439C17.3918 45.2645 17.3124 45.3439 17.1536 45.3439C16.5977 45.1851 16.1212 45.8998 16.5183 46.2969C16.5977 46.3763 16.8359 46.6939 17.0742 47.0116C17.8683 48.0439 18.3448 48.6792 18.6624 49.0763C16.2006 50.2675 14.0565 50.1881 11.5153 49.6322C11.5948 49.5528 13.0242 47.7263 13.2624 47.4881ZM5.083 42.8822C5.24182 42.5645 5.083 42.2469 4.84476 42.0881C4.52711 41.9292 4.20947 42.0881 4.05064 42.3263C4.05064 42.4057 3.97123 42.4057 3.89182 42.4851C3.57417 42.4851 3.33594 42.8028 3.33594 43.1204C3.33594 43.4381 3.65358 43.6763 3.89182 43.6763C4.4477 43.5969 4.92417 43.2792 5.083 42.8822ZM5.95653 48.9969L6.27417 48.9175C6.59182 48.8381 6.75064 48.441 6.67123 48.1234C6.59182 47.8057 6.19476 47.6469 5.87711 47.7263L5.55947 47.8057C5.24182 47.8851 5.083 48.2822 5.16241 48.5998C5.32123 48.9175 5.63888 49.1557 5.95653 48.9969ZM30.8124 44.9469L30.4948 45.0263C30.1771 45.1057 30.0183 45.5028 30.1771 45.8204C30.2565 46.0587 30.4948 46.2175 30.733 46.2175H30.9712L31.2889 46.1381C31.6065 46.0587 31.7653 45.6616 31.6859 45.3439C31.4477 44.9469 31.1301 44.7881 30.8124 44.9469ZM24.3006 40.2616L24.2212 40.341C23.983 40.5792 23.983 40.8969 24.2212 41.1351C24.3006 41.2145 24.4595 41.2939 24.6183 41.2939C24.7771 41.2939 24.9359 41.2145 25.0948 41.1351L25.1742 41.0557C25.4124 40.8175 25.4124 40.4204 25.1742 40.1822C24.9359 40.0234 24.5389 40.0234 24.3006 40.2616ZM36.7683 39.1498C36.5301 38.9116 36.133 38.991 35.8948 39.2292L35.4977 39.7057C35.2595 39.9439 35.3389 40.341 35.5771 40.5792C35.6565 40.6587 35.8153 40.7381 35.9742 40.7381C36.133 40.7381 36.2918 40.6587 36.4506 40.4998L36.8477 40.0234C37.0859 39.7057 37.0065 39.3881 36.7683 39.1498ZM36.133 52.0939C36.4506 52.0939 36.7683 51.8557 36.7683 51.4587C36.7683 51.0616 36.5301 50.8234 36.133 50.8234H35.8153C35.4977 50.8234 35.1801 51.0616 35.1801 51.4587C35.1801 51.8557 35.4183 52.0939 35.8153 52.0939H36.133ZM22.9506 49.9498L22.4742 50.0292C22.1565 50.1087 21.9183 50.4263 21.9977 50.7439C22.0771 51.0616 22.3948 51.2998 22.7124 51.2204L23.1889 51.141C23.5065 51.0616 23.7448 50.7439 23.6653 50.4263C23.5859 50.1087 23.2683 49.8704 22.9506 49.9498ZM38.6742 45.3439C38.6742 45.6616 38.9124 45.9792 39.3095 45.9792C40.1036 45.9792 40.1036 44.7881 39.3095 44.7881C38.9124 44.7087 38.6742 45.0263 38.6742 45.3439Z" fill="#100C08"/>
<path d="M46.6944 32.3204C48.7591 32.0028 52.3326 31.9234 52.5709 29.0645C52.5709 28.6675 52.6503 28.2704 52.3326 28.0322C52.2532 27.8734 52.0944 27.7939 51.8562 27.7939C51.5385 27.7939 51.3003 28.0322 51.2209 28.3498C51.2209 29.4616 49.9503 30.2557 48.6797 30.4939C47.2503 30.7322 45.662 30.6528 44.2326 31.4469C42.0885 32.5587 41.2944 35.1792 39.3885 36.1322C36.8473 37.4028 33.5915 35.3381 30.5738 35.5763C27.9532 35.8145 25.5709 37.8792 23.1885 37.9587C20.3297 38.0381 17.6297 35.5763 14.3738 35.5763C12.7856 35.5763 11.2767 36.2116 9.76793 36.3704C6.75028 36.7675 3.4944 35.1792 1.98557 32.5587C1.82675 32.241 1.42969 32.1616 1.19145 32.3204C1.11204 32.3204 1.11204 32.3998 1.11204 32.3998V32.4792C0.953219 32.6381 0.953219 32.9557 1.03263 33.1145C1.19145 33.5116 1.35028 33.8292 1.58851 34.1469C2.54145 36.291 5.40028 38.3557 8.2591 38.0381C11.6738 37.7204 14.7709 36.3704 18.265 38.0381C19.8532 38.8322 21.4415 39.4675 23.2679 39.7057C25.3326 39.8645 27.1591 38.4351 28.7473 37.4822C30.7326 36.3704 32.5591 37.3234 34.6238 37.7998C36.8473 38.3557 39.1503 38.1969 41.0562 36.8469C43.1209 35.4175 44.0738 32.7175 46.6944 32.3204Z" fill="#100C08"/>
</g>
<defs>
<clipPath id="clip0_1022_486">
<rect width="54" height="54" fill="white"/>
</clipPath>
</defs>
</svg>
