<svg width="36" height="25" viewBox="0 0 36 25" fill="none" xmlns="http://www.w3.org/2000/svg">
<rect width="35.7143" height="25" fill="#00579F"/>
<path d="M15.283 16.7547H13.2637L14.5267 8.78223H16.546L15.283 16.7547Z" fill="white"/>
<path d="M22.6025 8.97614C22.2042 8.81483 21.5724 8.63672 20.7913 8.63672C18.7971 8.63672 17.3928 9.72228 17.3842 11.2743C17.3676 12.4194 18.3896 13.0554 19.154 13.4372C19.9352 13.8273 20.2008 14.082 20.2008 14.4298C20.1929 14.9639 19.5695 15.2101 18.9881 15.2101C18.1819 15.2101 17.7499 15.0831 17.0934 14.786L16.8275 14.6586L16.5449 16.4482C17.0185 16.6685 17.8911 16.864 18.7971 16.8726C20.9159 16.8726 22.2954 15.8038 22.3117 14.1499C22.3198 13.2423 21.7801 12.5469 20.6167 11.9786C19.9104 11.6138 19.4778 11.3679 19.4778 10.9946C19.4861 10.6553 19.8437 10.3078 20.641 10.3078C21.2975 10.2908 21.7798 10.4518 22.1452 10.613L22.3278 10.6977L22.6025 8.97614Z" fill="white"/>
<path d="M25.2844 13.9304C25.4508 13.4723 26.0907 11.6997 26.0907 11.6997C26.0823 11.7167 26.2566 11.2332 26.3564 10.9364L26.4975 11.6234C26.4975 11.6234 26.8799 13.5318 26.9629 13.9304C26.6473 13.9304 25.6833 13.9304 25.2844 13.9304ZM27.7771 8.78223H26.2151C25.7334 8.78223 25.3675 8.92629 25.1597 9.44371L22.1602 16.7546H24.279C24.279 16.7546 24.6279 15.7706 24.7028 15.5587C24.9353 15.5587 26.9965 15.5587 27.2955 15.5587C27.3535 15.8386 27.5365 16.7546 27.5365 16.7546H29.4062L27.7771 8.78223V8.78223Z" fill="white"/>
<path d="M11.5735 8.78223L9.59591 14.2187L9.3798 13.1161C9.01418 11.8439 7.86751 10.4616 6.58789 9.77434L8.39932 16.7463H10.5347L13.7088 8.78223H11.5735V8.78223Z" fill="white"/>
<path d="M7.76267 8.78223H4.51371L4.48047 8.94331C7.01486 9.60491 8.69335 11.1997 9.38296 13.1165L8.67667 9.45239C8.56039 8.9432 8.20305 8.79902 7.76267 8.78223Z" fill="#FAA61A"/>
</svg>
