<svg width="36" height="25" viewBox="0 0 36 25" fill="none" xmlns="http://www.w3.org/2000/svg">
<rect x="0.144531" width="35.7143" height="25" fill="#7F54B3"/>
<path d="M9.60347 6.23633H26.3913C27.4537 6.23633 28.3138 7.11426 28.3138 8.19887V14.7406C28.3138 15.8251 27.4538 16.7031 26.3913 16.7031H20.371L21.1974 18.7689L17.5632 16.7031H9.612C8.54961 16.7031 7.68951 15.8252 7.68951 14.7406V8.19887C7.68108 7.1229 8.54115 6.23633 9.60355 6.23633H9.60347Z" fill="white"/>
<path d="M8.86299 8.02704C8.98036 7.86443 9.15643 7.77884 9.39117 7.76173C9.81875 7.72749 10.0619 7.9329 10.1206 8.37794C10.3805 10.1667 10.6655 11.6815 10.9674 12.9226L12.8034 9.35366C12.9711 9.02843 13.1807 8.85726 13.4322 8.84015C13.8011 8.81447 14.0275 9.05411 14.1197 9.55907C14.3293 10.6974 14.5976 11.6645 14.9162 12.4861C15.1341 10.3122 15.503 8.74602 16.0229 7.77886C16.1486 7.53922 16.3331 7.4194 16.5762 7.40228C16.769 7.38516 16.9451 7.44507 17.1044 7.57345C17.2637 7.70183 17.3475 7.86444 17.3643 8.06128C17.3727 8.21534 17.3475 8.34371 17.2804 8.47209C16.9535 9.08831 16.6852 10.1239 16.4672 11.5617C16.2576 12.9568 16.1822 14.0437 16.2325 14.8225C16.2492 15.0365 16.2157 15.2247 16.1319 15.3874C16.0313 15.5756 15.8803 15.6783 15.6875 15.6955C15.4695 15.7126 15.2432 15.6099 15.0252 15.3788C14.2455 14.5657 13.6251 13.3505 13.1724 11.7328C12.6275 12.8283 12.2251 13.65 11.9652 14.1977C11.4705 15.1648 11.0513 15.6612 10.6992 15.6869C10.4728 15.704 10.28 15.5071 10.1123 15.0963C9.68473 13.9751 9.22361 11.8099 8.72895 8.60045C8.69541 8.37792 8.74572 8.18108 8.86309 8.02702L8.86299 8.02704ZM26.8802 9.37071C26.5784 8.83152 26.1341 8.50626 25.5389 8.37788C25.3796 8.34365 25.2287 8.32653 25.0861 8.32653C24.2813 8.32653 23.6274 8.75446 23.1159 9.61033C22.68 10.3378 22.462 11.1423 22.462 12.0238C22.462 12.6828 22.5961 13.2476 22.8644 13.7184C23.1662 14.2576 23.6106 14.5828 24.2058 14.7112C24.3651 14.7455 24.516 14.7626 24.6585 14.7626C25.4717 14.7626 26.1257 14.3347 26.6287 13.4788C27.0647 12.7427 27.2827 11.9382 27.2827 11.0568C27.291 10.3892 27.1485 9.83291 26.8802 9.37071V9.37071ZM25.8239 11.7414C25.7065 12.3063 25.4969 12.7256 25.1867 13.0081C24.9436 13.2306 24.7172 13.3248 24.5076 13.282C24.3064 13.2392 24.1387 13.0595 24.013 12.7257C23.9124 12.4604 23.8621 12.1951 23.8621 11.9469C23.8621 11.7329 23.8788 11.5189 23.9208 11.3221C23.9962 10.9712 24.1387 10.6288 24.3651 10.3036C24.6418 9.88424 24.9352 9.71307 25.237 9.77298C25.4383 9.81577 25.6059 9.9955 25.7317 10.3293C25.8323 10.5946 25.8826 10.8599 25.8826 11.1081C25.8826 11.3306 25.8658 11.5446 25.8239 11.7414L25.8239 11.7414ZM21.6319 9.37071C21.3301 8.83152 20.8774 8.50626 20.2905 8.37788C20.1312 8.34365 19.9803 8.32653 19.8378 8.32653C19.033 8.32653 18.379 8.75446 17.8676 9.61033C17.4317 10.3378 17.2137 11.1423 17.2137 12.0238C17.2137 12.6828 17.3478 13.2476 17.6161 13.7184C17.9179 14.2576 18.3623 14.5828 18.9575 14.7112C19.1168 14.7455 19.2677 14.7626 19.4102 14.7626C20.2234 14.7626 20.8774 14.3347 21.3804 13.4788C21.8164 12.7427 22.0343 11.9382 22.0343 11.0568C22.0343 10.3892 21.9002 9.83291 21.6319 9.37071V9.37071ZM20.5672 11.7414C20.4498 12.3063 20.2402 12.7256 19.93 13.0081C19.6869 13.2306 19.4605 13.3248 19.2509 13.282C19.0497 13.2392 18.882 13.0595 18.7563 12.7257C18.6557 12.4604 18.6054 12.1951 18.6054 11.9469C18.6054 11.7329 18.6221 11.5189 18.6641 11.3221C18.7395 10.9712 18.882 10.6288 19.1084 10.3036C19.3851 9.88424 19.6785 9.71307 19.9803 9.77298C20.1816 9.81577 20.3492 9.9955 20.475 10.3293C20.5756 10.5946 20.6259 10.8599 20.6259 11.1081C20.6343 11.3306 20.6091 11.5446 20.5672 11.7414L20.5672 11.7414Z" fill="#7F54B3"/>
</svg>
