<svg width="100" height="23" viewBox="0 0 100 23" fill="none" xmlns="http://www.w3.org/2000/svg">
<g clip-path="url(#clip0_2782_198)">
<path d="M98.7793 10.824C99.1627 10.824 99.4987 10.824 99.978 10.824C99.1627 10.4419 98.396 10.7603 97.6767 10.6966C97.2933 10.5056 96.9573 10.2509 96.382 10.3783C96.0467 10.3146 95.7113 10.3146 95.3753 10.3783C95.2793 10.2509 95.184 10.1873 95.088 10.0599C95.04 9.99627 94.896 9.9326 94.848 9.86893C94.6087 9.7416 94.3687 9.67793 94.1293 9.55053C94.2727 9.48687 94.3687 9.4232 94.5127 9.35953C94.8 9.35953 95.088 9.29587 95.3273 9.10487C95.5673 8.97753 95.8547 8.8502 95.8067 8.6592V8.59553V8.53187C96.1907 8.53187 96.622 8.53187 96.718 8.21347C96.67 8.08613 96.622 8.02247 96.574 7.89513C96.8613 7.89513 97.1493 8.02247 97.3413 7.7678C97.5327 7.51313 97.7727 7.32207 98.012 7.13107C98.252 7.00373 98.4913 6.94007 98.7793 6.81273C98.7793 6.49438 98.9713 6.2397 99.3547 6.04869C99.546 6.04869 99.834 6.11236 99.978 5.98502C100.074 5.73034 99.834 5.73034 99.738 5.73034C99.4507 5.66667 99.1147 5.66667 98.8273 5.60299C98.8273 5.47565 98.8273 5.34831 98.8273 5.28465C98.8753 5.22097 98.9713 5.15731 99.0187 5.02996C99.0187 4.96629 99.0187 4.96629 99.0187 4.90262C99.2107 4.83895 99.4027 5.02996 99.642 4.96629C99.546 4.83895 99.4027 4.77528 99.2107 4.71161C99.1147 4.58427 98.9233 4.45693 98.6833 4.39326C98.7793 4.13858 98.156 4.07491 98.3 3.82023C98.5873 3.88389 98.6353 4.07491 99.0187 4.07491C98.9233 3.88389 98.7313 3.82023 98.4913 3.69289C98.348 3.56554 98.3 3.4382 98.012 3.4382C98.06 3.50187 98.108 3.62921 98.108 3.69289C97.8687 3.69289 97.6287 3.69289 97.3893 3.69289C97.1973 3.62921 97.0053 3.56554 96.814 3.4382C96.814 3.37453 96.766 3.37453 96.718 3.31086C96.862 3.24719 97.0533 3.24719 97.1973 3.18352C97.6287 3.11985 97.1973 2.92884 97.3413 2.86517C97.6767 2.86517 97.8687 2.67416 98.108 2.54681C98.444 2.48315 98.8753 2.61049 99.2587 2.35581C98.7793 2.35581 98.396 2.41947 98.06 2.41947C98.012 2.35581 98.012 2.29213 97.964 2.22847C98.156 2.10113 98.5393 2.10113 98.5873 1.91011C98.5393 1.91011 98.4913 1.91011 98.444 1.91011C97.964 1.7191 97.4367 1.84644 96.9093 1.84644C96.334 1.84644 95.8067 1.84644 95.232 1.84644C94.848 1.78277 94.4647 1.78277 94.1293 1.7191C94.0813 1.7191 94.0333 1.7191 93.9853 1.7191C93.7933 1.59176 93.0747 1.7191 93.41 1.27341C92.5947 0.827713 91.588 0.764047 90.5813 0.700373C90.342 0.700373 90.102 0.700373 89.91 0.700373C88.9993 0.636704 88.1847 0.318352 87.2733 0.509363C86.842 0.509363 86.4587 0.254681 85.9793 0.382023C85.6913 0.382023 85.404 0.318352 85.212 0.445693C85.164 0.445693 85.116 0.445693 85.0207 0.445693C84.6847 0.254681 84.3013 0.318352 83.918 0.318352C83.822 0.318352 83.678 0.318352 83.582 0.318352C82.8153 0.127341 81.952 0.254681 81.1373 0.127341C80.754 0.0636704 80.418 0.0636704 80.0347 0.127341C79.6033 0.127341 79.172 0.127341 78.74 0.127341C78.692 0.127341 78.6447 0.127341 78.5487 0.127341C78.1167 0.127341 77.7333 0.191011 77.302 0.191011C76.0553 0.191011 74.8093 0.127341 73.5627 0.127341C73.5147 0.127341 73.4187 0.127341 73.3707 0.127341C72.9873 0.127341 72.604 0.127341 72.2207 0.127341C72.1727 0.191011 72.2207 0.191011 72.268 0.254681H72.2207C72.2207 0.191011 72.2207 0.191011 72.2207 0.127341C72.1247 0.127341 72.0767 0.127341 71.9807 0.127341C71.6927 0 71.4053 0 71.118 0C69.5833 0 68.0013 0 66.4675 0C66.3716 0.0636704 66.3716 0.0636704 66.4675 0.127341C68.0013 0.127341 69.5833 0.127341 71.118 0.127341C68.9607 0.0636704 66.7553 0.0636704 64.5978 0.127341C64.5499 0.191011 64.5978 0.191011 64.6457 0.191011H64.5978C64.5978 0.254681 64.5978 0.254681 64.5978 0.318352C64.6458 0.254681 64.6458 0.254681 64.5978 0.191011V0.127341C64.4061 0.127341 64.2143 0.127341 64.0225 0.127341C63.2075 0.127341 62.3446 0.0636704 61.5297 0.191011C61.4817 0.191011 61.4817 0.191011 61.4817 0.191011C61.4337 0.191011 61.3858 0.191011 61.3379 0.191011C60.9543 0.127341 60.6188 0.127341 60.2353 0.191011C58.2697 0.191011 56.3041 0.127341 54.3386 0.318352C53.7633 0.318352 53.1401 0.318352 52.5648 0.318352C52.421 0.318352 52.3251 0.318352 52.1813 0.318352C52.3731 0.254681 52.5648 0.191011 52.7566 0.191011C52.4689 0.127341 52.1813 0.0636704 51.9895 0.254681C51.606 0.254681 51.2704 0.254681 50.8869 0.254681C50.6472 0.254681 50.4554 0.254681 50.3116 0.382023C49.4487 0.382023 48.5857 0.254681 47.7708 0.445693C47.7229 0.445693 47.7228 0.445693 47.6749 0.445693C45.8531 0.445693 43.9835 0.445693 42.1617 0.509363C42.0179 0.509363 41.9221 0.509363 41.7783 0.509363C40.1003 0.509363 38.4224 0.509363 36.7445 0.509363C35.6419 0.509363 34.5872 0.573034 33.5805 0.573034C33.4366 0.573034 33.3407 0.573034 33.1969 0.573034C32.6217 0.573034 32.0943 0.573034 31.519 0.573034C30.8479 0.573034 30.1287 0.573034 29.4576 0.573034C29.1699 0.573034 28.8343 0.573034 28.5467 0.573034C28.1632 0.573034 27.7797 0.573034 27.4441 0.573034C27.3003 0.573034 27.2044 0.573034 27.0605 0.573034C26.5332 0.573034 26.0059 0.573034 25.4306 0.573034C24.8073 0.445693 24.1841 0.445693 23.513 0.445693C23.0336 0.445693 22.5541 0.445693 22.0747 0.382023C21.6433 0.318352 21.1639 0.318352 20.7325 0.382023C20.5407 0.382023 20.3969 0.382023 20.2051 0.382023C19.3421 0.191011 18.4793 0.254681 17.5684 0.191011C17.089 0 16.5137 0.127341 15.9384 0.0636704C15.6507 0 15.4111 -0.0636704 15.3631 0.191011C15.0275 0.445693 15.0755 0.827713 14.6919 1.0824C14.2605 1.33708 14.2605 1.65543 14.5481 1.91011C14.5481 1.97378 14.5961 1.97378 14.644 1.97378C14.7879 2.22847 14.9796 2.35581 15.1713 2.54681C14.5481 2.54681 14.1646 2.8015 13.7811 2.99251C13.6373 3.05618 13.4935 3.11985 13.4455 3.24719C13.3017 3.24719 13.1579 3.31086 13.1099 3.37453C12.8223 3.4382 12.3429 3.24719 12.1991 3.56554H12.1511C11.8635 3.56554 11.5758 3.56554 11.2882 3.56554C11.0005 3.4382 10.7609 3.4382 10.3294 3.4382C10.665 3.62921 10.9526 3.69289 11.2882 3.69289C11.3841 3.75655 11.4799 3.75655 11.5758 3.82023C11.5279 4.13858 11.4799 4.39326 11.432 4.71161C11.4799 4.71161 11.5279 4.77528 11.5758 4.77528H11.5279C11.432 4.77528 11.3841 4.77528 11.2882 4.77528C11.0964 4.77528 10.9047 4.77528 10.7609 4.77528C10.5211 4.83895 10.2815 4.83895 9.9938 4.90262C9.22673 5.02996 8.3638 5.09363 7.7406 5.47565C7.21327 5.53933 6.87767 5.85768 6.35034 5.98502C6.73387 6.11236 6.9256 5.92135 7.21327 5.92135C7.2612 5.98502 7.35707 5.98502 7.405 6.04869C7.2612 6.17603 7.1174 6.2397 7.02153 6.36704C6.44622 6.43071 6.20651 6.6854 5.87093 6.94007C5.67917 7.00373 5.48741 7.13107 5.53535 7.2584C5.67917 7.70413 4.76831 7.83147 4.72037 8.27713C4.96007 8.1498 5.15183 8.08613 5.34359 8.02247C5.34359 8.08613 5.34359 8.08613 5.34359 8.1498C5.19977 8.27713 5.10389 8.40447 4.96007 8.46813C5.15183 8.6592 5.05595 8.8502 4.76831 9.0412C4.57655 9.10487 4.38479 9.2322 4.24097 9.29587C4.09714 9.29587 3.95332 9.29587 3.85744 9.4232C3.04245 9.67793 3.04245 9.7416 3.95332 10.0599C3.95332 10.1236 4.00126 10.1873 4.00126 10.2509C3.28216 10.2509 2.65893 10.4419 2.03571 10.6329C1.70013 10.7603 1.84395 10.824 2.13159 10.824C1.98777 11.1423 1.50837 11.1423 1.17278 11.2697C0.98102 11.397 0.78926 11.4607 0.549559 11.588C0.88514 11.588 1.17278 11.588 1.46043 11.6517C1.60425 11.779 1.55631 11.8427 1.26867 11.8427C0.88514 11.8427 0.549559 11.8427 0.0701554 11.8427C0.88514 12.2247 1.65219 11.9064 2.37129 11.9701C2.75481 12.1611 3.09039 12.4157 3.66568 12.2884C4.00126 12.3521 4.33685 12.3521 4.67243 12.2884C4.67243 12.4157 4.81625 12.5431 4.86419 12.6704C4.91213 12.7341 5.05595 12.7977 5.15183 12.8614C5.39153 12.9887 5.63123 13.0525 5.87093 13.1798C5.72711 13.2435 5.63123 13.3071 5.48741 13.4345C5.19977 13.4345 4.91213 13.4981 4.67243 13.6891C4.43273 13.8165 4.14508 13.9438 4.19302 14.1348V14.1985V14.2622C3.8095 14.2622 3.37804 14.2622 3.28216 14.5805C3.3301 14.6442 3.37804 14.7715 3.42598 14.8352C3.13833 14.8352 2.85069 14.7079 2.65893 14.9625C2.46717 15.2172 2.22747 15.4083 1.98777 15.5993C1.74807 15.7903 1.46043 15.8539 1.22073 15.9813C1.22073 16.2996 1.02896 16.5543 0.645439 16.7453C0.453678 16.7453 0.166036 16.6817 0.0222154 16.809C-0.0736653 16.9363 0.166036 16.9363 0.261917 16.9363C0.549559 17 0.88514 17 1.17278 17.0637C1.17278 17.191 1.17278 17.3183 1.17278 17.382C1.17278 17.5093 1.12484 17.5731 1.02896 17.6367C1.02896 17.7004 1.02896 17.7004 1.02896 17.7641C0.8372 17.8277 0.645439 17.6367 0.405738 17.7641C0.501619 17.8914 0.69338 17.9551 0.8372 18.0187C0.98102 18.1461 1.17278 18.2734 1.41249 18.3371C1.31661 18.5917 1.93983 18.6554 1.79601 18.9101C1.50837 18.8465 1.46043 18.6554 1.0769 18.6554C1.17278 18.8465 1.36455 18.9101 1.60425 19.0375C1.74807 19.1011 1.79601 19.2285 2.08365 19.2285C2.03571 19.1648 2.03571 19.1011 1.98777 18.9738C2.22747 18.9738 2.46717 18.9738 2.70687 18.9738C2.89863 19.1011 3.09039 19.1648 3.28216 19.2285C3.28216 19.2921 3.3301 19.2921 3.37804 19.3558C3.23422 19.4195 3.04245 19.4195 2.89863 19.4831C2.46717 19.5468 2.89863 19.7378 2.75481 19.8015C2.41923 19.8015 2.22747 19.9925 1.98777 20.1199C1.60425 20.1835 1.22072 20.0562 0.78926 20.2472C1.26867 20.2472 1.65219 20.1835 1.98777 20.1835C2.03571 20.3109 2.03571 20.3745 2.08365 20.4382C2.17953 20.5019 2.22747 20.5019 2.32335 20.5655C2.32335 20.4382 2.27541 20.3745 2.08365 20.4382C1.93983 20.5655 1.50837 20.5655 1.46043 20.7565C1.50837 20.7565 1.55631 20.7565 1.60425 20.7565C2.08365 20.9475 2.61099 20.8202 3.13833 20.8202C3.71362 20.8202 4.24097 20.8202 4.81625 20.8202C5.15183 20.9475 5.53535 20.9475 5.91887 21.0113C5.96681 21.0113 6.01475 21.0113 6.06269 21.0113C6.25446 21.2023 6.97353 21.0749 6.63798 21.4569C7.45293 21.9026 8.45973 21.9663 9.46647 22.0299C9.70613 22.0299 9.94587 22.0299 10.1376 22.0299C11.0485 22.0937 11.8635 22.412 12.7743 22.221C13.2058 22.221 13.5893 22.4757 14.0687 22.3483C14.3564 22.3483 14.644 22.412 14.8358 22.2847C14.8837 22.2847 14.9317 22.2847 15.0275 22.2847C15.3631 22.4757 15.7467 22.4757 16.1301 22.412C16.2261 22.412 16.3699 22.412 16.4657 22.412C17.2328 22.603 18.0957 22.4757 18.9107 22.603C19.2942 22.6667 19.6298 22.6667 20.0133 22.603C20.4448 22.603 20.8763 22.603 21.3077 22.603C21.3557 22.603 21.4515 22.603 21.4995 22.603C21.9309 22.603 22.3145 22.5393 22.7459 22.5393C23.9924 22.5393 25.2388 22.603 26.4853 22.603C26.5332 22.603 26.6291 22.603 26.677 22.603C27.0605 22.603 27.4441 22.603 27.8276 22.603C27.8755 22.5393 27.8276 22.5393 27.7797 22.4757H27.8276C27.8276 22.5393 27.8276 22.5393 27.8276 22.603C27.9235 22.603 27.9714 22.603 28.0673 22.603C28.307 22.6667 28.5947 22.6667 28.9302 22.6667C30.4643 22.6667 32.0463 22.6667 33.5805 22.6667C33.6763 22.603 33.6763 22.603 33.5805 22.5393C32.0463 22.5393 30.4643 22.5393 28.9302 22.5393C31.0875 22.603 33.2928 22.603 35.4501 22.5393C35.4981 22.4757 35.4501 22.4757 35.4022 22.4757H35.4501C35.4501 22.412 35.4501 22.412 35.4501 22.3483C35.4022 22.412 35.4022 22.412 35.4501 22.4757V22.5393C35.6419 22.5393 35.8337 22.5393 36.0254 22.5393C36.8404 22.5393 37.7033 22.603 38.5183 22.4757H38.5662C38.6142 22.4757 38.6621 22.4757 38.7101 22.4757C39.0936 22.5393 39.4291 22.5393 39.8127 22.4757C41.7783 22.4757 43.7438 22.5393 45.7093 22.3483C46.2846 22.3483 46.9079 22.3483 47.4831 22.3483C47.6269 22.3483 47.7228 22.3483 47.8667 22.3483C47.6749 22.412 47.4831 22.4757 47.2914 22.5393C47.579 22.603 47.8667 22.6667 48.0584 22.4757C48.4419 22.4757 48.7775 22.4757 49.1611 22.4757C49.209 22.412 49.209 22.412 49.1611 22.3483C49.1611 22.412 49.1611 22.412 49.1611 22.4757C49.4007 22.4757 49.5925 22.4757 49.7363 22.3483C50.5993 22.2847 51.5101 22.4757 52.3731 22.2847C54.1948 22.2847 56.0645 22.2847 57.8862 22.221C58.03 22.221 58.1259 22.221 58.2697 22.221C59.9476 22.221 61.6255 22.221 63.3035 22.221C64.3581 22.1573 65.3649 22.1573 66.4195 22.0937C66.5634 22.0937 66.6593 22.0937 66.8033 22.0937C67.3787 22.0937 67.906 22.0937 68.4807 22.0937C69.152 22.0937 69.8713 22.0937 70.5427 22.0937C70.83 22.0937 71.1653 22.0937 71.4533 22.0937C71.8367 22.0937 72.1727 22.0937 72.556 22.0937C72.7 22.0937 72.7953 22.0937 72.9393 22.0937C73.4667 22.0937 73.994 22.0937 74.5693 22.0937C74.5693 22.0937 74.5693 22.0937 74.6173 22.0937C75.2407 22.221 75.864 22.221 76.4873 22.1573C76.9667 22.1573 77.446 22.1573 77.9253 22.221C78.3567 22.3483 78.836 22.2847 79.2673 22.2847C79.4593 22.2847 79.6033 22.2847 79.7947 22.2847C80.658 22.4757 81.5207 22.3483 82.384 22.412C82.9113 22.603 83.486 22.4757 84.0133 22.5393C84.3013 22.6667 84.5413 22.7303 84.6367 22.412C84.9727 22.1573 84.9247 21.7753 85.308 21.5206C85.6913 21.2659 85.6913 21.0113 85.452 20.6929C85.452 20.6292 85.404 20.6292 85.356 20.6292C85.164 20.4382 84.9727 20.2472 84.8287 20.0562C85.452 20.1199 85.7873 19.8652 86.1707 19.6105C86.3627 19.5468 86.4587 19.4831 86.5067 19.3558C86.6507 19.3558 86.794 19.2921 86.842 19.2285C87.13 19.1648 87.6093 19.3558 87.7533 19.0375H87.8007C88.0887 19.0375 88.376 19.0375 88.664 19.0375C88.9513 19.1648 89.1913 19.1648 89.6227 19.1648C89.2873 18.9738 88.9993 18.9101 88.664 18.9101C88.568 18.8465 88.424 18.8465 88.328 18.7828C88.376 18.4644 88.424 18.2097 88.472 17.8914C88.424 17.8277 88.376 17.8277 88.328 17.8277H88.376C88.472 17.8277 88.52 17.8277 88.616 17.8277C88.808 17.8277 88.9993 17.8277 89.1433 17.8277C89.3827 17.7641 89.6227 17.7641 89.91 17.7004C90.6773 17.5731 91.54 17.5093 92.1633 17.1273C92.6907 17.0637 93.0267 16.7453 93.554 16.618C93.17 16.4907 92.9787 16.6817 92.6907 16.6817C92.6427 16.618 92.5473 16.618 92.4993 16.5543C92.6427 16.4269 92.7867 16.3633 92.8827 16.2359C93.41 16.1723 93.6973 15.9176 94.0333 15.6629C94.2247 15.5993 94.3687 15.4719 94.3687 15.3446C94.2727 14.8989 95.136 14.7715 95.184 14.3259C94.944 14.4532 94.752 14.5169 94.5607 14.5805C94.5607 14.5169 94.5607 14.5169 94.5607 14.4532C94.7047 14.3259 94.8 14.2622 94.944 14.1348C94.752 13.9438 94.848 13.7528 95.136 13.5618C95.3273 13.4981 95.5193 13.3708 95.6633 13.3071C95.8067 13.3071 95.9507 13.3071 96.0467 13.1798C96.862 12.8614 96.862 12.8614 95.9027 12.4794C95.9027 12.4157 95.8547 12.3521 95.8547 12.2884C96.574 12.2884 97.1973 12.0974 97.8207 11.9064C98.156 11.779 98.012 11.7153 97.7247 11.7153C97.8687 11.397 98.348 11.397 98.6833 11.2697C98.8753 11.1423 99.1147 11.0787 99.3547 10.9513C99.0187 10.9513 98.7313 10.9513 98.444 10.8877C98.444 10.8877 98.4913 10.824 98.7793 10.824ZM2.37129 20.6929C2.32335 20.6929 2.32335 20.6929 2.27541 20.6929C2.27541 20.6929 2.32335 20.6929 2.37129 20.6929ZM36.9363 0.764047H36.8883C36.9363 0.764047 36.9363 0.764047 36.9363 0.764047ZM15.6028 3.62921C15.6507 3.69289 15.6028 3.69289 15.6028 3.62921ZM37.2239 12.5431C37.1759 12.5431 37.1759 12.5431 37.2239 12.5431ZM79.2193 19.7378C79.2673 19.7378 79.3153 19.7378 79.3633 19.8015C79.3153 19.8015 79.2673 19.8015 79.2193 19.7378ZM28.3549 2.03745C28.4029 2.03745 28.4508 2.03745 28.4987 2.03745H28.4508C28.4029 2.03745 28.3549 2.03745 28.3549 2.03745ZM29.3617 1.91011C29.4576 1.91011 29.3137 1.84644 29.3617 1.91011ZM21.7392 1.97378C21.6913 1.97378 21.6433 1.97378 21.6433 1.97378C21.6913 1.97378 21.7392 1.97378 21.7392 1.97378ZM6.82973 10.5056C6.7818 10.5056 6.7818 10.5056 6.73387 10.5056C6.73387 10.5056 6.73387 10.5056 6.7818 10.5056C6.7818 10.5056 6.7818 10.5056 6.82973 10.5056ZM71.6453 20.6929C71.5973 20.6929 71.5493 20.6929 71.5013 20.6929H71.5493C71.5973 20.6929 71.6453 20.6292 71.6453 20.6929ZM70.638 20.7565C70.686 20.8839 70.5427 20.7565 70.638 20.7565ZM78.2607 20.6929C78.3087 20.6929 78.3087 20.6929 78.3567 20.6929C78.3087 20.6929 78.3087 20.7565 78.2607 20.6929ZM93.218 12.1611C93.266 12.1611 93.266 12.1611 93.314 12.1611C93.314 12.1611 93.314 12.1611 93.266 12.1611C93.218 12.1611 93.218 12.1611 93.218 12.1611ZM94.3687 5.60299C94.3207 5.60299 94.3207 5.60299 94.3687 5.60299ZM5.72711 10.3146C5.72711 10.2509 5.72711 10.2509 5.72711 10.3146ZM5.63123 17.0637C5.67917 17.1273 5.67917 17.0637 5.63123 17.0637C5.67917 17.1273 5.67917 17.1273 5.63123 17.0637C5.67917 17.1273 5.63123 17.1273 5.63123 17.0637ZM92.0673 13.4981C92.1153 13.4981 92.1153 13.4981 92.0673 13.4981C92.1153 13.5618 92.1153 13.5618 92.0673 13.4981C92.1153 13.5618 92.0673 13.5618 92.0673 13.4981ZM24.28 1.46442C24.3279 1.40075 24.3279 1.40075 24.3759 1.40075C24.3279 1.46442 24.28 1.46442 24.28 1.46442ZM75.768 21.2023C75.72 21.2659 75.72 21.2659 75.672 21.2659C75.672 21.2023 75.72 21.2023 75.768 21.2023ZM92.1633 8.8502H92.1153C92.1153 8.78653 92.1153 8.78653 92.1633 8.8502ZM83.3427 1.0824C83.2467 1.01873 83.1507 1.0824 83.1027 1.0824C83.1507 1.0824 83.2467 1.0824 83.3427 1.0824ZM19.8216 1.40075C19.8216 1.46442 19.7736 1.46442 19.8216 1.40075C19.7736 1.46442 19.7736 1.40075 19.8216 1.40075ZM7.83647 13.8801H7.8844C7.9324 13.8801 7.8844 13.8801 7.83647 13.8801C7.8844 13.8801 7.8844 13.8801 7.83647 13.8801ZM16.6575 21.5843C16.7534 21.6479 16.8493 21.5843 16.8972 21.5843C16.8493 21.5843 16.8013 21.5843 16.6575 21.5843ZM20.6365 21.9663C20.5886 21.9026 20.5407 21.9026 20.4448 21.9026C20.5407 21.9026 20.5886 21.9663 20.6365 21.9663ZM92.4033 9.86893H92.4513C92.4513 9.86893 92.4513 9.86893 92.4033 9.86893ZM70.5427 0.700373C70.5427 0.636704 70.5427 0.636704 70.5427 0.700373C70.5907 0.700373 70.638 0.700373 70.638 0.700373C70.5907 0.700373 70.5427 0.700373 70.5427 0.700373ZM14.9317 4.45693C14.8837 4.45693 14.7879 4.45693 14.7399 4.45693C14.8358 4.45693 14.8837 4.45693 14.9317 4.45693ZM29.5055 22.0299C29.4576 22.0299 29.4576 22.0299 29.5055 22.0299ZM55.3933 0.573034C55.4412 0.573034 55.4412 0.573034 55.3933 0.573034ZM6.25445 9.35953C6.25445 9.4232 6.25445 9.4232 6.25445 9.35953ZM63.9746 21.7116C63.9746 21.6479 63.9746 21.6479 63.9746 21.7116H64.0225C64.0225 21.7116 64.0225 21.6479 63.9746 21.7116ZM76.4393 22.0937C76.4873 22.0937 76.4873 22.0937 76.4393 22.0937C76.4873 22.1573 76.4393 22.1573 76.4393 22.0937ZM97.6287 10.7603V10.824C97.6287 10.824 97.6287 10.824 97.6287 10.7603V10.824C97.5807 10.7603 97.5807 10.7603 97.6287 10.7603C97.5807 10.7603 97.5807 10.7603 97.6287 10.7603ZM96.526 2.03745C96.478 1.97378 96.478 1.97378 96.526 2.03745ZM48.0584 0.700373C48.0584 0.636704 48.0584 0.636704 48.0584 0.573034C48.0105 0.573034 48.0105 0.636704 48.0584 0.700373ZM44.8464 0.573034C44.8943 0.573034 44.8943 0.573034 44.8464 0.573034ZM35.7377 0.700373H35.6898H35.6419C35.6419 0.700373 35.6898 0.700373 35.7377 0.700373ZM35.1625 0.700373C35.2104 0.636704 35.2104 0.636704 35.2583 0.636704C35.2104 0.700373 35.1625 0.700373 35.1625 0.700373ZM19.6298 0.382023C19.5819 0.382023 19.5819 0.382023 19.5819 0.382023C19.6298 0.382023 19.6298 0.382023 19.6298 0.382023ZM2.41923 11.9701V11.9064C2.41923 11.9064 2.41923 11.9064 2.41923 11.9701V11.9064C2.41923 11.9064 2.46717 11.9064 2.41923 11.9701ZM3.47392 20.6929C3.52186 20.6929 3.52186 20.6929 3.47392 20.6929ZM51.9895 22.1573C52.0375 22.0936 51.9895 22.0937 51.9895 22.0299C51.9895 22.0299 51.9895 22.0936 51.9895 22.1573ZM55.1536 22.0937C55.1536 22.1573 55.1536 22.1573 55.1536 22.0937ZM64.4061 22.0299C64.3581 22.0299 64.3581 22.0299 64.3102 22.0299H64.3581H64.4061C64.5499 22.0299 64.6458 22.0299 64.7896 22.0299C64.7896 22.0299 64.8375 22.0299 64.8855 21.9663C64.8855 21.9663 64.8375 21.9663 64.8375 22.0299H64.7896C64.6458 21.9663 64.5499 21.9663 64.4061 22.0299ZM80.37 22.2847C80.418 22.2847 80.418 22.2847 80.418 22.2847H80.37Z" fill="#FBB03B"/>
</g>
<defs>
<clipPath id="clip0_2782_198">
<rect width="100" height="22.6667" fill="white"/>
</clipPath>
</defs>
</svg>
