<svg width="536" height="109" viewBox="0 0 536 109" fill="none" xmlns="http://www.w3.org/2000/svg">
<path fill-rule="evenodd" clip-rule="evenodd" d="M6.55088 28.7311C5.94852 29.3243 5.21781 30.0439 4.37375 30.3632C3.94977 30.5247 3.42871 30.6109 2.88987 30.7001C1.76234 30.8866 0.556919 31.0861 0 32.0157V108.341H536V0.000161648L536 0H0V0.000161648H536L536 5.84363L534.334 6.56423C534.334 6.56423 532.851 7.93816 531.645 9.04307C530.439 10.1384 528.736 14.5484 528.736 14.5484L527.31 16.7006L523.797 18.5742L522.208 19.9481L520.285 19.7079L518.036 21.274C518.036 21.274 516.007 20.7744 513.758 22.648C511.718 24.3473 509.678 24.1891 509.109 24.145C509.051 24.1405 509.008 24.1372 508.982 24.1372C508.704 24.1372 505.795 25.1268 505.795 25.1268C505.795 25.1268 502.177 28.3263 501.737 28.6529C501.297 28.9892 496.578 29.3735 496.578 29.3735C496.578 29.3735 493.947 27.8843 492.08 27.8266C490.628 27.7818 489.507 28.272 489.003 28.4918C488.86 28.5546 488.767 28.5953 488.731 28.5953C488.695 28.5953 488.619 28.55 488.503 28.4811C488.096 28.2376 487.194 27.6993 485.821 27.8266C484.06 27.99 483.897 29.2583 483.897 29.2583C483.897 29.2583 482.251 29.4216 481.208 29.8059C480.165 30.1902 479.505 31.0741 479.284 33.3897C479.095 35.3828 477.402 35.0054 476.757 34.8616C476.653 34.8384 476.576 34.8213 476.538 34.8213C476.371 34.8213 476.109 34.6628 475.878 34.5233C475.724 34.4298 475.583 34.3448 475.494 34.3216C475.379 34.2914 474.689 34.2638 473.995 34.236C473.367 34.2109 472.737 34.1857 472.528 34.1583C472.087 34.1007 469.886 33.332 468.297 32.4481C466.699 31.5737 466.536 31.2951 466.536 31.2951C466.536 31.2951 464.507 32.5634 464.125 32.8901C463.742 33.2263 462.144 34.6579 461.981 34.8213C461.908 34.8944 461.559 34.8693 461.067 34.8339C460.461 34.7903 459.639 34.7311 458.851 34.8213C457.769 34.9452 457.729 35.0359 457.701 35.0977C457.692 35.1173 457.685 35.134 457.645 35.1479C457.483 35.2056 454.19 32.8901 454.19 32.8901C454.19 32.8901 450.956 30.0269 450.735 29.9692C450.515 29.9116 444.754 29.3639 444.754 29.3639C444.754 29.3639 440.906 24.1276 440.581 25.7225C440.256 27.327 438.332 26.8274 438.332 26.8274C437.892 25.8858 436.628 26.1068 436.628 26.1068C436.628 26.1068 430.589 25.5015 429.441 26.0492C428.798 26.3557 427.825 26.9572 427.065 27.4275C426.467 27.7974 426 28.0861 425.929 28.0861C425.766 28.0861 424.503 27.6921 423.9 27.4808C423.297 27.2694 423.297 28.2014 423.297 28.2014C423.297 28.2014 421.976 28.528 421.373 27.9804C420.77 27.4327 418.846 26.8274 418.846 26.8274C418.846 26.8274 416.865 26.0011 416.702 25.9435C416.643 25.926 416.306 25.7099 415.889 25.4421C415.159 24.9743 414.184 24.3486 414.013 24.3486C413.863 24.3486 413.24 24.6096 412.695 24.8382C412.271 25.0164 411.893 25.1748 411.822 25.1748C411.659 25.1748 409.295 23.8009 409.295 23.8009C409.295 23.8009 408.749 22.8593 407.649 22.7537C406.558 22.6384 406.06 23.138 406.06 23.138L404.299 22.8593C404.299 22.8593 401.993 23.1956 401.667 23.3013C401.342 23.4166 400.519 24.7905 400.519 24.7905L398.758 26.2798L391.455 26.5584C391.455 26.5584 387.177 26.6161 385.033 24.8482C383.024 23.1912 382.949 23.332 382.766 23.6727C382.753 23.6955 382.741 23.7192 382.727 23.7433C382.507 24.1276 380.861 24.3486 380.698 24.3486C380.671 24.3486 380.547 24.3159 380.352 24.2645C379.28 23.9825 376.062 23.1361 375.042 24.0219C373.826 25.0692 368.945 24.0219 368.945 24.0219C368.945 24.0219 366.754 21.9274 365.931 22.8113C365.108 23.6856 362.753 24.2909 362.093 24.1852C361.432 24.0796 360.667 23.5799 360.667 23.5799C360.667 23.5799 359.069 23.9643 358.906 23.9643C358.897 23.9643 358.883 23.9644 358.866 23.9646C358.561 23.9677 357.07 23.983 356.762 23.4646C356.427 22.917 353.575 21.6487 353.575 21.6487L350.388 23.5799C350.388 23.5799 346.158 23.6376 345.612 23.6376C345.057 23.6376 342.263 24.0219 341.382 24.3005L341.245 24.3438C340.243 24.6609 337.682 25.4708 337.372 25.6264C337.047 25.7898 335.066 26.0684 334.683 26.0107C334.3 25.9531 333.142 26.0588 332.816 26.1164C332.644 26.1469 332.424 26.2527 332.23 26.3456C332.058 26.4283 331.907 26.5008 331.831 26.5008C331.668 26.5008 330.185 26.2798 330.185 26.2798L328.701 25.5592C328.701 25.5592 326.337 25.0692 325.189 25.2325C324.031 25.4054 321.676 26.5584 320.959 27.6057C320.25 28.6529 319.044 29.143 317.944 29.2006C316.853 29.2486 314.498 28.211 314.106 27.2694C313.714 26.3278 312.565 26.0011 312.565 26.0011C312.565 26.0011 310.268 23.4743 308.947 22.9746C307.968 22.6016 307.72 22.8446 307.383 23.1757C307.268 23.288 307.143 23.4104 306.976 23.5223C306.316 23.9643 302.861 23.5223 302.583 23.4166C302.502 23.3856 302.459 23.3068 302.395 23.1886C302.24 22.9034 301.962 22.3889 300.717 21.764C299.483 21.1445 298.954 21.2282 298.161 21.3536C297.823 21.4071 297.436 21.4682 296.927 21.4854C295.617 21.5223 294.601 20.6845 293.828 20.0463C293.595 19.8545 293.385 19.6807 293.194 19.5542C292.371 18.9969 290.285 19.4965 290.285 19.4965C290.285 19.4965 289.51 19.4485 288.581 18.7279C287.643 18.0169 286.055 18.3436 286.055 18.3436C286.055 18.3436 282.38 17.6806 282.217 17.0177C282.054 16.3547 281.289 15.4228 281.289 15.4228C281.289 15.4228 279.757 13.1649 279.039 12.281C278.745 11.9186 278.452 11.6498 278.19 11.4092C277.813 11.063 277.5 10.7749 277.336 10.3498C277.068 9.62915 276.408 9.85014 276.408 9.85014C276.408 9.85014 275.039 8.97581 273.938 8.4762C272.838 7.98619 270.809 7.26559 270.809 7.26559C270.809 7.26559 268.502 4.50813 266.914 4.28714C265.325 4.06616 265.43 4.84439 265.43 4.84439C265.43 4.84439 263.679 4.89245 263.401 4.9501C263.124 4.99814 261.64 5.49775 260.712 5.88207C259.774 6.26639 259.449 6.59303 258.568 7.91893C257.788 9.09422 255.458 8.75212 254.825 8.65924C254.744 8.64734 254.691 8.63953 254.673 8.63953C254.591 8.63953 254.252 8.416 253.824 8.13396C253.351 7.82256 252.771 7.43986 252.309 7.20794C251.473 6.78846 250.887 7.01814 249.987 7.37118C249.939 7.39011 249.89 7.40939 249.84 7.42894C248.854 7.81326 246.71 7.20794 246.71 7.20794C246.71 7.20794 244.241 5.83401 243.523 6.88127C242.805 7.92854 241.217 8.14952 239.35 8.31285C237.883 8.44887 237.232 7.62213 236.485 6.67394C236.283 6.41652 236.073 6.15015 235.838 5.89166C234.737 4.68105 231.665 4.90203 231.665 4.90203C231.665 4.90203 229.741 4.23911 229.139 4.29676C228.536 4.3544 228.373 5.18068 228.373 5.18068C228.373 5.18068 226.612 5.34403 225.684 5.40167C224.755 5.45932 224.315 6.22794 224.315 6.22794H221.626C221.019 6.22794 220.959 6.26414 220.389 6.60906C220.24 6.69941 220.055 6.81093 219.817 6.94854C218.668 7.61149 216.582 6.56423 216.582 6.56423C216.582 6.56423 215.319 7.28483 214.496 7.28483C213.672 7.28483 211.366 7.44814 211.366 7.44814C211.366 7.44814 209.988 5.79559 209.883 6.67952C209.777 7.56345 207.193 8.1111 207.193 8.1111C207.193 8.1111 205.872 7.94777 204.887 7.72679C203.891 7.5058 203.566 8.27445 203.566 8.27445C203.566 8.27445 200.829 7.56346 199.948 7.34247C199.077 7.12149 196.331 7.34247 196.331 7.34247C196.331 7.34247 193.804 6.90049 193.584 6.79481C193.561 6.78372 193.53 6.76831 193.494 6.74966C193.18 6.59046 192.403 6.19558 191.718 6.24718C191.036 6.28994 190.264 6.86553 189.522 7.41839C189.43 7.48665 189.339 7.55456 189.248 7.62108C188.661 8.05306 187.962 8.00548 187.348 7.96377C187.102 7.94704 186.87 7.93124 186.664 7.94775C186.255 7.98063 185.811 7.76345 185.312 7.51906C184.936 7.335 184.528 7.13551 184.08 7.0158C183.037 6.73717 180.903 6.95815 180.022 7.45776C179.573 7.71058 179.164 7.77413 178.709 7.84503C178.281 7.91155 177.811 7.98455 177.228 8.22638L177.171 8.2494C175.994 8.72728 175.131 9.0778 174.481 10.6476C173.821 12.2522 171.026 11.7525 171.026 11.7525C171.026 11.7525 172.337 11.2049 171.409 10.7053C170.481 10.2057 167.073 8.22638 167.073 8.22638C167.073 8.22638 166.47 8.28403 165.59 8.94698C164.709 9.60993 160.211 9.93661 160.211 9.93661C160.211 9.93661 159.493 9.00463 158.345 9.38895C157.507 9.67406 156.704 9.80821 155.823 9.95528C155.487 10.0114 155.14 10.0694 154.775 10.1384C154.175 10.252 154.006 10.6534 153.809 11.1199C153.573 11.6794 153.298 12.3325 152.191 12.6941C150.769 13.1588 150.395 12.7832 149.96 12.3448C149.774 12.1579 149.576 11.9596 149.282 11.8102C148.286 11.3202 147.023 11.0992 146.095 11.2625C145.667 11.3378 145.19 11.1313 144.602 10.8765C143.914 10.5786 143.073 10.2146 141.979 10.1576C140.602 10.0859 139.124 10.1868 137.801 10.277C137.175 10.3197 136.584 10.3601 136.055 10.3786C134.409 10.4266 130.677 10.7629 129.796 11.1472C128.916 11.5315 127.49 12.9631 127.49 12.9631L126.284 13.5108C126.284 13.5108 124.303 13.5588 123.154 13.4531C122.59 13.3965 122.303 13.5669 121.975 13.7618C121.634 13.9639 121.249 14.1924 120.465 14.2218C119.95 14.2378 119.312 14.1443 118.668 14.0497C117.384 13.8614 116.071 13.6687 115.632 14.3275L115.602 14.3723C114.951 15.3485 114.274 16.3644 111.842 16.3644C110.301 16.3644 109.149 15.6856 107.983 14.9986C107.273 14.58 106.557 14.1583 105.745 13.8855C105.232 13.7122 104.718 13.5044 104.217 13.3018C102.634 12.6618 101.177 12.0727 100.261 12.7806C99.9734 13.0036 99.6678 13.2788 99.3464 13.5684C98.3108 14.5013 97.111 15.5821 95.811 15.5381C94.911 15.5076 94.5319 15.4477 94.3265 15.6089C94.1431 15.753 94.0982 16.0734 93.9447 16.7487C93.6921 17.86 91.9111 18.7108 90.1017 19.5752C89.5802 19.8243 89.0563 20.0745 88.566 20.3324C86.7883 21.2636 86.3027 21.261 85.3448 21.2559C85.1166 21.2547 84.8616 21.2533 84.556 21.2644C82.9672 21.322 81.6465 22.3117 81.6465 22.3117C81.6465 22.3117 79.1773 21.9754 78.3542 22.696C77.8542 23.1279 77.273 23.1379 76.4259 23.1524C75.8787 23.1618 75.2205 23.1731 74.4016 23.3013C73.0283 23.5227 71.7503 23.0946 70.6605 22.7296C70.0947 22.5401 69.5796 22.3675 69.1282 22.3117C68.3633 22.2164 67.8199 22.6639 67.1617 23.2059C66.6916 23.593 66.1629 24.0283 65.4531 24.3486C64.563 24.7502 64.0936 24.58 63.6762 24.4287C63.2947 24.2904 62.9568 24.1678 62.381 24.5119C61.1751 25.2229 59.194 25.8859 58.0455 24.6753C57.4091 24.0044 56.2142 23.6374 55.2476 23.3406C54.4699 23.1017 53.84 22.9082 53.7674 22.6384C53.6047 22.0331 52.5041 21.2548 51.9586 20.9281C51.4131 20.6015 47.8433 19.1122 47.0776 19.1122C46.3024 19.1122 45.3741 18.7856 44.4936 18.1803C43.6622 17.6087 42.3017 17.7225 41.5483 17.7855C41.5038 17.7892 41.4614 17.7927 41.4214 17.7959C41.0273 17.8276 40.7514 17.6767 40.4735 17.5247C40.2452 17.3999 40.0156 17.2743 39.7179 17.2483C39.4335 17.2235 39.0675 17.4748 38.5809 17.8089C37.9375 18.2507 37.0832 18.8374 35.9279 19.1218C34.9327 19.3669 34.1746 18.7104 33.4335 18.0685C32.6637 17.4019 31.9122 16.751 30.9321 17.1426C29.0084 17.9112 27.1421 21.3893 26.5966 22.4174C26.327 22.9255 25.4516 23.0558 24.5428 23.1909C23.6131 23.3293 22.6483 23.4728 22.2611 24.0315C21.4955 25.1268 19.0263 24.8002 19.0263 24.8002C19.0263 24.8002 17.8204 23.5319 17.16 23.3686C16.9798 23.324 16.726 23.1849 16.4368 23.0263C15.6666 22.6041 14.6445 22.0438 14.0879 22.7633C13.3127 23.7529 12.1642 24.8002 11.3411 25.1845C10.8253 25.4253 10.6779 25.9492 10.5313 26.4699C10.444 26.7801 10.357 27.0892 10.1927 27.3366C9.94929 27.7031 9.35496 27.7143 8.75081 27.7257C8.26207 27.735 7.7669 27.7443 7.4459 27.942C7.19029 28.1015 6.89105 28.3961 6.55088 28.7311Z" fill="#BF6E37"/>
</svg>
