<svg width="181" height="65" viewBox="0 0 181 65" fill="none" xmlns="http://www.w3.org/2000/svg">
<path d="M89.2706 0.732532C89.9404 0.288526 90.8109 0.288525 91.4807 0.732532L100.187 6.50419C100.71 6.85047 101.364 6.93186 101.956 6.72408L115.418 1.99308C116.34 1.66929 117.36 2.05831 117.832 2.9133L120.657 8.02908C121.073 8.78293 121.925 9.18575 122.771 9.02899L138.082 6.19445C139.549 5.92284 140.787 7.29534 140.365 8.72653L139.747 10.8214C139.354 12.1548 140.408 13.4726 141.795 13.3828L154.917 12.5332C156.848 12.4082 157.813 14.8249 156.327 16.0646L156.177 16.1904C154.773 17.3614 155.546 19.6459 157.372 19.7242L165.691 20.0809C167.8 20.1713 168.319 23.0611 166.373 23.88V23.88C164.539 24.6518 164.865 27.3444 166.83 27.6565L170.269 28.2026C172.443 28.5477 172.546 31.6389 170.4 32.1278L168.814 32.4891C166.822 32.943 166.713 35.7406 168.664 36.3485L169.07 36.4752C171.152 37.1238 170.841 40.1615 168.671 40.375L162.933 40.9397C161.03 41.1271 160.486 43.6458 162.143 44.602V44.602C163.896 45.6139 163.162 48.2953 161.138 48.2736L150.181 48.1565C148.536 48.1389 147.574 50.0048 148.543 51.3344L149.135 52.1463C150.165 53.5597 149.013 55.5212 147.277 55.3097L132.572 53.5181C131.479 53.3849 130.484 54.1609 130.346 55.2538L129.872 59.0223C129.722 60.2191 128.554 61.0113 127.386 60.7087L112.525 56.8571C111.84 56.6797 111.113 56.8769 110.612 57.3757L104.844 63.1179C104.245 63.7139 103.336 63.8695 102.573 63.5064L91.235 58.1112C90.6913 57.8525 90.06 57.8525 89.5163 58.1112L78.1779 63.5064C77.415 63.8695 76.5063 63.7139 75.9075 63.1179L70.1395 57.3757C69.6385 56.8769 68.9112 56.6797 68.2267 56.8571L53.3653 60.7087C52.1976 61.0113 51.0297 60.2191 50.8792 59.0223L50.4051 55.2538C50.2676 54.1609 49.2723 53.3849 48.1788 53.5181L33.4743 55.3097C31.7382 55.5212 30.586 53.5597 31.6162 52.1463L32.208 51.3344C33.1771 50.0048 32.2156 48.1389 30.5704 48.1565L19.6132 48.2736C17.5889 48.2953 16.8553 45.6139 18.6086 44.602V44.602C20.2653 43.6458 19.7214 41.1271 17.8178 40.9397L12.0803 40.375C9.91062 40.1615 9.59975 37.1238 11.6812 36.4752L12.0877 36.3485C14.0387 35.7406 13.9295 32.943 11.937 32.4891L10.3515 32.1278C8.2055 31.6389 8.30838 28.5477 10.4822 28.2026L13.9212 27.6565C15.8867 27.3444 16.2124 24.6518 14.3781 23.88V23.88C12.432 23.0611 12.9511 20.1713 15.0605 20.0809L23.379 19.7242C25.205 19.6459 25.978 17.3614 24.5747 16.1904L24.4239 16.0646C22.9382 14.8249 23.9036 12.4082 25.8345 12.5332L38.9564 13.3828C40.3435 13.4726 41.397 12.1548 41.004 10.8214L40.3864 8.72653C39.9646 7.29534 41.2018 5.92284 42.6689 6.19446L57.9798 9.02899C58.8265 9.18575 59.6785 8.78293 60.0947 8.02908L62.9192 2.9133C63.3912 2.05831 64.4117 1.66929 65.3332 1.99308L78.7957 6.72408C79.387 6.93186 80.0415 6.85047 80.5639 6.50419L89.2706 0.732532Z" fill="#63AB45"/>
</svg>
