<svg width="239" height="42" viewBox="0 0 239 42" fill="none" xmlns="http://www.w3.org/2000/svg">
<path d="M235.158 20.1011C236.068 20.1011 236.863 20.1011 238 20.1011C236.068 19.427 234.249 19.9888 232.544 19.8764C231.634 19.5393 230.839 19.0899 229.475 19.3146C228.679 19.2022 227.883 19.2022 227.088 19.3146C226.86 19.0899 226.633 18.9775 226.406 18.7528C226.292 18.6404 225.951 18.5281 225.837 18.4157C225.269 18.191 224.701 18.0787 224.132 17.8539C224.473 17.7416 224.701 17.6292 225.042 17.5169C225.724 17.5169 226.406 17.4045 226.974 17.0674C227.542 16.8427 228.224 16.618 228.111 16.2809V16.1685V16.0562C229.02 16.0562 230.043 16.0562 230.27 15.4944C230.157 15.2697 230.043 15.1573 229.929 14.9326C230.611 14.9326 231.293 15.1573 231.748 14.7079C232.203 14.2584 232.771 13.9213 233.34 13.5843C233.908 13.3596 234.476 13.2472 235.158 13.0225C235.158 12.4607 235.613 12.0112 236.522 11.6742C236.977 11.6742 237.659 11.7865 238 11.5618C238.227 11.1124 237.659 11.1124 237.432 11.1124C236.75 11 235.954 11 235.272 10.8876C235.272 10.6629 235.272 10.4382 235.272 10.3258C235.386 10.2135 235.613 10.1011 235.727 9.8764C235.727 9.76405 235.727 9.76404 235.727 9.65169C236.181 9.53933 236.636 9.8764 237.204 9.76404C236.977 9.53933 236.636 9.42697 236.181 9.31461C235.954 9.08989 235.499 8.86517 234.931 8.75281C235.158 8.30337 233.681 8.19101 234.022 7.74157C234.704 7.85393 234.817 8.19101 235.727 8.19101C235.499 7.85393 235.045 7.74157 234.476 7.51685C234.135 7.29213 234.022 7.06742 233.34 7.06742C233.453 7.17978 233.567 7.40449 233.567 7.51685C232.998 7.51685 232.43 7.51685 231.862 7.51685C231.407 7.40449 230.952 7.29214 230.498 7.06742C230.498 6.95506 230.384 6.95506 230.27 6.8427C230.611 6.73034 231.066 6.73034 231.407 6.61798C232.43 6.50562 231.407 6.16854 231.748 6.05618C232.544 6.05618 232.998 5.7191 233.567 5.49438C234.363 5.38202 235.386 5.60674 236.295 5.1573C235.158 5.1573 234.249 5.26966 233.453 5.26966C233.34 5.1573 233.34 5.04494 233.226 4.93258C233.681 4.70787 234.59 4.70787 234.704 4.37079C234.59 4.37079 234.476 4.37079 234.363 4.37079C233.226 4.03371 231.975 4.25843 230.725 4.25843C229.361 4.25843 228.111 4.25843 226.747 4.25843C225.837 4.14607 224.928 4.14607 224.132 4.03371C224.019 4.03371 223.905 4.03371 223.791 4.03371C223.337 3.80899 221.632 4.03371 222.427 3.24719C220.495 2.46067 218.108 2.34831 215.721 2.23596C215.152 2.23596 214.584 2.23596 214.129 2.23596C211.97 2.1236 210.037 1.5618 207.878 1.89888C206.855 1.89888 205.945 1.44944 204.809 1.67416C204.127 1.67416 203.445 1.5618 202.99 1.78652C202.876 1.78652 202.763 1.78652 202.535 1.78652C201.74 1.44944 200.83 1.5618 199.921 1.5618C199.693 1.5618 199.352 1.5618 199.125 1.5618C197.306 1.22472 195.26 1.44944 193.328 1.22472C192.419 1.11236 191.623 1.11236 190.714 1.22472C189.691 1.22472 188.668 1.22472 187.645 1.22472C187.531 1.22472 187.417 1.22472 187.19 1.22472C186.167 1.22472 185.258 1.33708 184.234 1.33708C181.279 1.33708 178.324 1.22472 175.368 1.22472C175.255 1.22472 175.027 1.22472 174.914 1.22472C174.004 1.22472 173.095 1.22472 172.186 1.22472C172.072 1.33708 172.186 1.33708 172.299 1.44944H172.186C172.186 1.33708 172.186 1.33708 172.186 1.22472C171.958 1.22472 171.845 1.22472 171.617 1.22472C170.935 1 170.253 1 169.571 1C165.934 1 162.183 1 158.545 1C158.318 1.11236 158.318 1.11236 158.545 1.22472C162.183 1.22472 165.934 1.22472 169.571 1.22472C164.456 1.11236 159.227 1.11236 154.112 1.22472C153.999 1.33708 154.112 1.33708 154.226 1.33708H154.112C154.112 1.44944 154.112 1.44944 154.112 1.5618C154.226 1.44944 154.226 1.44944 154.112 1.33708V1.22472C153.657 1.22472 153.203 1.22472 152.748 1.22472C150.816 1.22472 148.77 1.11236 146.837 1.33708C146.724 1.33708 146.724 1.33708 146.724 1.33708C146.61 1.33708 146.496 1.33708 146.383 1.33708C145.473 1.22472 144.678 1.22472 143.768 1.33708C139.108 1.33708 134.447 1.22472 129.787 1.5618C128.423 1.5618 126.945 1.5618 125.581 1.5618C125.24 1.5618 125.013 1.5618 124.672 1.5618C125.127 1.44944 125.581 1.33708 126.036 1.33708C125.354 1.22472 124.672 1.11236 124.217 1.44944C123.308 1.44944 122.512 1.44944 121.603 1.44944C121.034 1.44944 120.58 1.44944 120.239 1.67416C118.193 1.67416 116.147 1.44944 114.214 1.78652C114.101 1.78652 114.101 1.78652 113.987 1.78652C109.668 1.78652 105.234 1.78652 100.915 1.89888C100.574 1.89888 100.347 1.89888 100.006 1.89888C96.0273 1.89888 92.0489 1.89888 88.0704 1.89888C85.456 1.89888 82.9553 2.01124 80.5683 2.01124C80.2273 2.01124 79.9999 2.01124 79.6589 2.01124C78.2949 2.01124 77.0445 2.01124 75.6805 2.01124C74.0891 2.01124 72.3841 2.01124 70.7927 2.01124C70.1107 2.01124 69.315 2.01124 68.633 2.01124C67.7237 2.01124 66.8143 2.01124 66.0186 2.01124C65.6776 2.01124 65.4503 2.01124 65.1093 2.01124C63.8589 2.01124 62.6086 2.01124 61.2445 2.01124C59.7668 1.78652 58.2891 1.78652 56.6978 1.78652C55.5611 1.78652 54.4244 1.78652 53.2877 1.67416C52.2647 1.5618 51.128 1.5618 50.105 1.67416C49.6503 1.67416 49.3093 1.67416 48.8546 1.67416C46.8086 1.33708 44.7625 1.44944 42.6028 1.33708C41.4661 1 40.1021 1.22472 38.7381 1.11236C38.0561 1 37.4877 0.88764 37.374 1.33708C36.5784 1.78652 36.692 2.46067 35.7827 2.91011C34.7597 3.35955 34.7597 3.92135 35.4417 4.37079C35.4417 4.48315 35.5553 4.48315 35.669 4.48315C36.01 4.93258 36.4647 5.1573 36.9194 5.49438C35.4417 5.49438 34.5323 5.94382 33.623 6.2809C33.282 6.39326 32.9409 6.50562 32.8273 6.73034C32.4863 6.73034 32.1453 6.8427 32.0316 6.95506C31.3496 7.06742 30.2129 6.73034 29.8719 7.29213H29.7582C29.0762 7.29213 28.3942 7.29213 27.7122 7.29213C27.0302 7.06742 26.4618 7.06742 25.4388 7.06742C26.2345 7.40449 26.9165 7.51685 27.7122 7.51685C27.9395 7.62921 28.1668 7.62921 28.3942 7.74157C28.2805 8.30337 28.1668 8.75281 28.0532 9.31461C28.1668 9.31461 28.2805 9.42697 28.3942 9.42697H28.2805C28.0532 9.42697 27.9395 9.42697 27.7122 9.42697C27.2575 9.42697 26.8028 9.42697 26.4618 9.42697C25.8935 9.53933 25.3251 9.53933 24.6431 9.65169C22.8244 9.8764 20.7784 9.98876 19.3007 10.6629C18.0503 10.7753 17.2546 11.3371 16.0043 11.5618C16.9136 11.7865 17.3683 11.4494 18.0503 11.4494C18.164 11.5618 18.3913 11.5618 18.505 11.6742C18.164 11.8989 17.823 12.0112 17.5956 12.236C16.2316 12.3483 15.6632 12.7978 14.8676 13.2472C14.4129 13.3596 13.9582 13.5843 14.0719 13.809C14.4129 14.5955 12.2532 14.8202 12.1395 15.6067C12.7079 15.382 13.1625 15.2697 13.6172 15.1573C13.6172 15.2697 13.6172 15.2697 13.6172 15.382C13.2762 15.6067 13.0489 15.8315 12.7079 15.9438C13.1625 16.2809 12.9352 16.618 12.2532 16.9551C11.7985 17.0674 11.3438 17.2921 11.0028 17.4045C10.6618 17.4045 10.3208 17.4045 10.0935 17.6292C8.16109 18.0787 8.16109 18.191 10.3208 18.7528C10.3208 18.8652 10.4345 18.9775 10.4345 19.0899C8.72944 19.0899 7.25174 19.427 5.77404 19.764C4.97836 19.9888 5.31936 20.1011 6.00138 20.1011C5.66037 20.6629 4.52368 20.6629 3.728 20.8876C3.27332 21.1124 2.81864 21.2247 2.2503 21.4494C3.04598 21.4494 3.728 21.4494 4.41001 21.5618C4.75102 21.7865 4.63735 21.8989 3.95533 21.8989C3.04598 21.8989 2.2503 21.8989 1.11361 21.8989C3.04598 22.573 4.86469 22.0112 6.56972 22.1236C7.47908 22.4607 8.27476 22.9101 9.63879 22.6854C10.4345 22.7978 11.2302 22.7978 12.0258 22.6854C12.0258 22.9101 12.3668 23.1348 12.4805 23.3596C12.5942 23.4719 12.9352 23.5843 13.1625 23.6966C13.7309 23.9213 14.2992 24.0337 14.8676 24.2584C14.5266 24.3708 14.2992 24.4831 13.9582 24.7079C13.2762 24.7079 12.5942 24.8202 12.0258 25.1573C11.4575 25.382 10.7755 25.6067 10.8891 25.9438V26.0562V26.1685C9.9798 26.1685 8.95677 26.1685 8.72944 26.7303C8.8431 26.8427 8.95677 27.0674 9.07044 27.1798C8.38843 27.1798 7.70641 26.9551 7.25174 27.4045C6.79706 27.8539 6.22872 28.191 5.66037 28.5281C5.09203 28.8652 4.41001 28.9775 3.84167 29.2022C3.84167 29.764 3.38699 30.2135 2.47764 30.5506C2.02296 30.5506 1.34095 30.4382 0.999939 30.6629C0.772601 30.8876 1.34095 30.8876 1.56828 30.8876C2.2503 31 3.04598 31 3.728 31.1124C3.728 31.3371 3.728 31.5618 3.728 31.6742C3.728 31.8989 3.61433 32.0112 3.38699 32.1236C3.38699 32.236 3.38699 32.236 3.38699 32.3483C2.93231 32.4607 2.47764 32.1236 1.90929 32.3483C2.13663 32.573 2.59131 32.6854 2.93231 32.7978C3.27332 33.0225 3.728 33.2472 4.29634 33.3596C4.069 33.809 5.5467 33.9213 5.20569 34.3708C4.52368 34.2584 4.41001 33.9213 3.50066 33.9213C3.728 34.2584 4.18267 34.3708 4.75102 34.5955C5.09203 34.7079 5.20569 34.9326 5.88771 34.9326C5.77404 34.8202 5.77404 34.7079 5.66037 34.4831C6.22872 34.4831 6.79706 34.4831 7.36541 34.4831C7.82008 34.7079 8.27476 34.8202 8.72944 34.9326C8.72944 35.0449 8.8431 35.0449 8.95677 35.1573C8.61577 35.2697 8.16109 35.2697 7.82008 35.382C6.79706 35.4944 7.82008 35.8315 7.47908 35.9438C6.68339 35.9438 6.22872 36.2809 5.66037 36.5056C4.75102 36.618 3.84167 36.3933 2.81864 36.7303C3.95533 36.7303 4.86469 36.618 5.66037 36.618C5.77404 36.8427 5.77404 36.9551 5.88771 37.0674C6.11505 37.1798 6.22872 37.1798 6.45605 37.2921C6.45605 37.0674 6.34239 36.9551 5.88771 37.0674C5.5467 37.2921 4.52368 37.2921 4.41001 37.6292C4.52368 37.6292 4.63735 37.6292 4.75102 37.6292C5.88771 37.9663 7.13807 37.7416 8.38843 37.7416C9.75246 37.7416 11.0028 37.7416 12.3668 37.7416C13.1625 37.9663 14.0719 37.9663 14.9812 38.0787C15.0949 38.0787 15.2086 38.0787 15.3222 38.0787C15.7769 38.4157 17.482 38.191 16.6863 38.8652C18.6186 39.6517 21.0057 39.764 23.3927 39.8764C23.9611 39.8764 24.5294 39.8764 24.9841 39.8764C27.1438 39.9888 29.0762 40.5506 31.2359 40.2135C32.2589 40.2135 33.1683 40.6629 34.305 40.4382C34.987 40.4382 35.669 40.5506 36.1237 40.3258C36.2373 40.3258 36.351 40.3258 36.5784 40.3258C37.374 40.6629 38.2834 40.6629 39.1927 40.5506C39.4201 40.5506 39.7611 40.5506 39.9884 40.5506C41.8071 40.8876 43.8532 40.6629 45.7855 40.8876C46.6949 41 47.4906 41 48.3999 40.8876C49.423 40.8876 50.446 40.8876 51.469 40.8876C51.5827 40.8876 51.81 40.8876 51.9237 40.8876C52.9467 40.8876 53.856 40.7753 54.8791 40.7753C57.8345 40.7753 60.7899 40.8876 63.7453 40.8876C63.8589 40.8876 64.0863 40.8876 64.1999 40.8876C65.1093 40.8876 66.0186 40.8876 66.928 40.8876C67.0417 40.7753 66.928 40.7753 66.8143 40.6629H66.928C66.928 40.7753 66.928 40.7753 66.928 40.8876C67.1553 40.8876 67.269 40.8876 67.4963 40.8876C68.0647 41 68.7467 41 69.5424 41C73.1798 41 76.9309 41 80.5683 41C80.7956 40.8876 80.7956 40.8876 80.5683 40.7753C76.9309 40.7753 73.1798 40.7753 69.5424 40.7753C74.6575 40.8876 79.8863 40.8876 85.0014 40.7753C85.115 40.6629 85.0014 40.6629 84.8877 40.6629H85.0014C85.0014 40.5506 85.0014 40.5506 85.0014 40.4382C84.8877 40.5506 84.8877 40.5506 85.0014 40.6629V40.7753C85.456 40.7753 85.9107 40.7753 86.3654 40.7753C88.2978 40.7753 90.3438 40.8876 92.2762 40.6629H92.3899C92.5035 40.6629 92.6172 40.6629 92.7309 40.6629C93.6402 40.7753 94.4359 40.7753 95.3453 40.6629C100.006 40.6629 104.666 40.7753 109.327 40.4382C110.691 40.4382 112.168 40.4382 113.532 40.4382C113.873 40.4382 114.101 40.4382 114.442 40.4382C113.987 40.5506 113.532 40.6629 113.078 40.7753C113.76 40.8876 114.442 41 114.896 40.6629C115.806 40.6629 116.601 40.6629 117.511 40.6629C117.624 40.5506 117.624 40.5506 117.511 40.4382C117.511 40.5506 117.511 40.5506 117.511 40.6629C118.079 40.6629 118.534 40.6629 118.875 40.4382C120.921 40.3258 123.081 40.6629 125.127 40.3258C129.446 40.3258 133.879 40.3258 138.198 40.2135C138.54 40.2135 138.767 40.2135 139.108 40.2135C143.086 40.2135 147.065 40.2135 151.043 40.2135C153.544 40.1011 155.931 40.1011 158.432 39.9888C158.773 39.9888 159 39.9888 159.341 39.9888C160.705 39.9888 161.955 39.9888 163.319 39.9888C164.911 39.9888 166.616 39.9888 168.207 39.9888C168.889 39.9888 169.685 39.9888 170.367 39.9888C171.276 39.9888 172.072 39.9888 172.981 39.9888C173.322 39.9888 173.55 39.9888 173.891 39.9888C175.141 39.9888 176.391 39.9888 177.755 39.9888C177.755 39.9888 177.755 39.9888 177.869 39.9888C179.347 40.2135 180.824 40.2135 182.302 40.1011C183.439 40.1011 184.575 40.1011 185.712 40.2135C186.735 40.4382 187.872 40.3258 188.895 40.3258C189.35 40.3258 189.691 40.3258 190.145 40.3258C192.191 40.6629 194.237 40.4382 196.283 40.5506C197.534 40.8876 198.898 40.6629 200.148 40.7753C200.83 41 201.398 41.1124 201.626 40.5506C202.422 40.1011 202.308 39.427 203.217 38.9775C204.127 38.5281 204.127 38.0787 203.558 37.5169C203.558 37.4045 203.445 37.4045 203.331 37.4045C202.876 37.0674 202.422 36.7303 202.081 36.3933C203.558 36.5056 204.354 36.0562 205.263 35.6067C205.718 35.4944 205.945 35.382 206.059 35.1573C206.4 35.1573 206.741 35.0449 206.855 34.9326C207.537 34.8202 208.673 35.1573 209.014 34.5955H209.128C209.81 34.5955 210.492 34.5955 211.174 34.5955C211.856 34.8202 212.424 34.8202 213.447 34.8202C212.652 34.4831 211.97 34.3708 211.174 34.3708C210.947 34.2584 210.606 34.2584 210.378 34.1461C210.492 33.5843 210.606 33.1348 210.719 32.573C210.606 32.4607 210.492 32.4607 210.378 32.4607H210.492C210.719 32.4607 210.833 32.4607 211.06 32.4607C211.515 32.4607 211.97 32.4607 212.311 32.4607C212.879 32.3483 213.447 32.3483 214.129 32.236C215.948 32.0112 217.994 31.8989 219.472 31.2247C220.722 31.1124 221.518 30.5506 222.768 30.3258C221.859 30.1011 221.404 30.4382 220.722 30.4382C220.609 30.3258 220.381 30.3258 220.268 30.2135C220.609 29.9888 220.95 29.8764 221.177 29.6517C222.427 29.5393 223.109 29.0899 223.905 28.6404C224.36 28.5281 224.701 28.3034 224.701 28.0787C224.473 27.2921 226.519 27.0674 226.633 26.2809C226.065 26.5056 225.61 26.618 225.155 26.7303C225.155 26.618 225.155 26.618 225.155 26.5056C225.496 26.2809 225.724 26.1685 226.065 25.9438C225.61 25.6067 225.837 25.2697 226.519 24.9326C226.974 24.8202 227.429 24.5955 227.77 24.4831C228.111 24.4831 228.452 24.4831 228.679 24.2584C230.611 23.6966 230.611 23.6966 228.338 23.0225C228.338 22.9101 228.224 22.7978 228.224 22.6854C229.929 22.6854 231.407 22.3483 232.885 22.0112C233.681 21.7865 233.34 21.6742 232.657 21.6742C232.998 21.1124 234.135 21.1124 234.931 20.8876C235.386 20.6629 235.954 20.5506 236.522 20.3258C235.727 20.3258 235.045 20.3258 234.363 20.2135C234.363 20.2135 234.476 20.1011 235.158 20.1011ZM6.56972 37.5169C6.45605 37.5169 6.45605 37.5169 6.34239 37.5169C6.34239 37.5169 6.45605 37.5169 6.56972 37.5169ZM88.5251 2.34831H88.4114C88.5251 2.34831 88.5251 2.34831 88.5251 2.34831ZM37.9424 7.40449C37.9424 7.51685 38.0561 7.51685 37.9424 7.40449V7.40449ZM89.2071 23.1348C89.0935 23.1348 89.0935 23.1348 89.2071 23.1348V23.1348ZM188.781 35.8315C188.895 35.8315 189.009 35.8315 189.122 35.9438C189.009 35.9438 188.895 35.9438 188.781 35.8315ZM68.1784 4.59551C68.292 4.59551 68.4057 4.59551 68.5194 4.59551H68.4057C68.292 4.59551 68.1784 4.59551 68.1784 4.59551ZM70.5654 4.37079C70.4517 4.25843 70.7927 4.37079 70.5654 4.37079V4.37079ZM52.492 4.48315C52.3784 4.48315 52.2647 4.48315 52.2647 4.48315C52.3784 4.48315 52.492 4.48315 52.492 4.48315ZM17.1409 19.5393C17.0273 19.5393 17.0273 19.5393 16.9136 19.5393C16.9136 19.5393 16.9136 19.5393 17.0273 19.5393C17.0273 19.5393 17.0273 19.5393 17.1409 19.5393ZM170.822 37.5169C170.708 37.5169 170.594 37.5169 170.481 37.5169H170.594C170.708 37.5169 170.822 37.4045 170.822 37.5169ZM168.434 37.6292C168.207 37.6292 168.548 37.8539 168.434 37.6292V37.6292ZM186.508 37.5169C186.622 37.5169 186.622 37.5169 186.735 37.5169C186.622 37.5169 186.622 37.6292 186.508 37.5169ZM221.973 22.4607C222.086 22.4607 222.086 22.4607 222.2 22.4607C222.2 22.4607 222.2 22.4607 222.086 22.4607C221.973 22.4607 221.973 22.4607 221.973 22.4607ZM224.701 10.8876C224.587 10.8876 224.587 10.8876 224.701 10.8876V10.8876ZM14.5266 19.2022C14.5266 19.0899 14.5266 19.0899 14.5266 19.2022V19.2022ZM14.2992 31.1124C14.4129 31.1124 14.4129 31.2247 14.2992 31.1124C14.4129 31.2247 14.4129 31.2247 14.2992 31.1124C14.4129 31.2247 14.2992 31.2247 14.2992 31.1124ZM219.245 24.8202C219.358 24.8202 219.358 24.8202 219.245 24.8202C219.358 24.9326 219.358 24.9326 219.245 24.8202C219.358 24.9326 219.245 24.9326 219.245 24.8202ZM58.5165 3.58427C58.6302 3.47191 58.6302 3.47191 58.7438 3.47191C58.6302 3.58427 58.5165 3.58427 58.5165 3.58427ZM180.597 38.4157C180.483 38.5281 180.483 38.5281 180.37 38.5281C180.37 38.4157 180.483 38.4157 180.597 38.4157ZM219.472 16.618H219.358C219.358 16.5056 219.358 16.5056 219.472 16.618ZM198.557 2.91011C198.329 2.79775 198.102 2.91011 197.988 2.91011C198.102 2.91011 198.329 2.91011 198.557 2.91011ZM47.9453 3.47191C47.8316 3.58427 47.9453 3.58427 47.9453 3.47191C47.8316 3.47191 47.8316 3.58427 47.9453 3.47191ZM19.528 25.4944H19.6417C19.7553 25.4944 19.6417 25.4944 19.528 25.4944C19.6417 25.4944 19.6417 25.4944 19.528 25.4944ZM40.4431 39.0899C40.6704 39.2022 40.8978 39.0899 41.0114 39.0899C40.8978 39.0899 40.7841 39.0899 40.4431 39.0899ZM49.8776 39.764C49.764 39.6517 49.6503 39.6517 49.423 39.6517C49.6503 39.6517 49.764 39.764 49.8776 39.764ZM220.04 18.4157H220.154C220.154 18.4157 220.154 18.4157 220.04 18.4157ZM168.207 2.23596C168.207 2.1236 168.207 2.1236 168.207 2.23596C168.321 2.23596 168.434 2.23596 168.434 2.23596C168.321 2.23596 168.207 2.23596 168.207 2.23596ZM36.351 8.86517C36.2373 8.86517 36.01 8.86517 35.8963 8.86517C36.1237 8.86517 36.2373 8.86517 36.351 8.86517ZM70.9064 39.8764C70.7927 39.8764 70.7927 39.8764 70.9064 39.8764V39.8764ZM132.288 2.01124C132.401 2.01124 132.401 2.01124 132.288 2.01124V2.01124ZM15.7769 17.5169C15.7769 17.6292 15.7769 17.6292 15.7769 17.5169V17.5169ZM152.634 39.3146C152.634 39.2022 152.634 39.2022 152.634 39.3146H152.748C152.748 39.3146 152.748 39.2022 152.634 39.3146ZM182.188 39.9888C182.302 39.9888 182.302 39.9888 182.188 39.9888C182.188 40.1011 182.302 40.1011 182.188 39.9888ZM232.43 19.9888V20.1011C232.43 20.1011 232.43 20.1011 232.43 19.9888V20.1011C232.316 19.9888 232.316 19.9888 232.43 19.9888C232.316 19.9888 232.316 19.9888 232.43 19.9888ZM229.816 4.59551C229.702 4.48315 229.702 4.48315 229.816 4.59551V4.59551ZM114.896 2.23596C114.896 2.1236 114.896 2.1236 114.896 2.01124C114.783 2.01124 114.783 2.1236 114.896 2.23596ZM107.281 2.01124C107.394 2.01124 107.394 2.01124 107.281 2.01124V2.01124ZM85.6834 2.23596H85.5697H85.456C85.456 2.23596 85.5697 2.23596 85.6834 2.23596ZM84.3194 2.23596C84.433 2.1236 84.433 2.1236 84.5467 2.1236C84.433 2.23596 84.3194 2.23596 84.3194 2.23596ZM47.4906 1.67416C47.3769 1.67416 47.3769 1.67416 47.3769 1.67416C47.4906 1.67416 47.4906 1.67416 47.4906 1.67416ZM6.68339 22.1236V22.0112C6.68339 22.0112 6.68339 22.0112 6.68339 22.1236V22.0112C6.68339 22.0112 6.79706 22.0112 6.68339 22.1236ZM9.18411 37.5169C9.29778 37.5169 9.29778 37.5169 9.18411 37.5169V37.5169ZM124.217 40.1011C124.331 39.9888 124.217 39.9888 124.217 39.8764C124.217 39.8764 124.217 39.9888 124.217 40.1011ZM131.719 39.9888C131.719 40.1011 131.719 40.1011 131.719 39.9888V39.9888ZM153.657 39.8764C153.544 39.8764 153.544 39.8764 153.43 39.8764H153.544H153.657C153.999 39.8764 154.226 39.8764 154.567 39.8764C154.567 39.8764 154.681 39.8764 154.794 39.764C154.794 39.764 154.681 39.764 154.681 39.8764H154.567C154.226 39.764 153.999 39.764 153.657 39.8764ZM191.509 40.3258C191.623 40.3258 191.623 40.3258 191.623 40.3258H191.509Z" fill="#FBB03B"/>
<path d="M229.134 26.5056C227.997 26.7303 226.974 27.0674 226.52 27.5169C227.315 27.2921 228.225 26.9551 229.134 26.5056Z" fill="#FBB03B"/>
<path d="M232.886 17.5169C232.886 17.5169 233.113 17.4045 233.113 17.2922C233.227 17.1798 232.999 17.0674 232.658 17.0674C232.431 17.0674 232.204 17.1798 232.09 17.2922C232.09 17.4045 232.317 17.5169 232.886 17.5169Z" fill="#FBB03B"/>
<path d="M92.0488 41C92.9582 41 93.5265 41.1124 94.4359 40.8876C93.6402 40.8876 92.9582 40.7753 92.0488 41Z" fill="#FBB03B"/>
<path d="M80.4551 41C81.3644 41 82.2738 41 83.0695 41C83.9788 41 84.7745 41 85.6839 41C85.6839 40.8876 85.6839 40.8876 85.6839 40.7753C84.7745 40.7753 83.9788 40.7753 83.0695 40.7753C82.1601 40.7753 81.2508 40.7753 80.4551 40.7753V41Z" fill="#FBB03B"/>
<path d="M235.499 4.03369C234.93 4.03369 234.817 4.14605 234.703 4.37077C235.044 4.37077 235.612 4.48313 235.84 4.25841C235.84 4.14605 235.612 4.03369 235.499 4.03369Z" fill="#FBB03B"/>
<path d="M9.98047 15.4944C11.1172 15.2697 12.1402 14.9326 12.5949 14.4832C11.6855 14.8202 10.8898 15.1573 9.98047 15.4944Z" fill="#FBB03B"/>
<path d="M6.11499 24.4832C6.11499 24.4832 5.88766 24.5955 5.88766 24.7079C5.77399 24.9326 6.00133 25.045 6.22866 24.9326C6.456 24.9326 6.68334 24.8202 6.79701 24.7079C6.91068 24.5955 6.68334 24.5955 6.11499 24.4832Z" fill="#FBB03B"/>
<path d="M155.818 1.22472C156.727 1.22472 157.636 1.22472 158.432 1.22472V1.11236V1C157.523 1 156.613 1 155.818 1C154.908 1 154.112 1 153.203 1C153.203 1.11236 153.203 1.11236 153.203 1.22472C154.112 1.22472 155.022 1.22472 155.818 1.22472Z" fill="#FBB03B"/>
<path d="M146.952 1.00001C146.042 1.00001 145.474 0.887654 144.564 1.11237C145.474 1.11237 146.042 1.22473 146.952 1.00001Z" fill="#FBB03B"/>
<path d="M3.61343 37.9663C4.18177 37.9663 4.29544 37.8539 4.40911 37.6292C4.06811 37.6292 3.49976 37.5169 3.27242 37.7416C3.15875 37.8539 3.38609 37.9663 3.61343 37.9663Z" fill="#FBB03B"/>
</svg>
