<svg width="234" height="66" viewBox="0 0 234 66" fill="none" xmlns="http://www.w3.org/2000/svg">
<path d="M116.071 0.486728C116.653 0.181912 117.347 0.181912 117.929 0.486727L130.075 6.85362C130.525 7.08975 131.049 7.14538 131.539 7.00921L150.122 1.84528C150.939 1.61809 151.811 1.93156 152.297 2.62732L156.397 8.49884C156.83 9.11967 157.577 9.44248 158.326 9.3328L179.564 6.22371C181.069 6.00345 182.259 7.47637 181.728 8.90121L180.931 11.0378C180.429 12.3856 181.471 13.8073 182.908 13.7337L201.145 12.8001C203.179 12.6959 204.014 15.3678 202.314 16.4898V16.4898C200.687 17.5631 201.37 20.1116 203.318 20.1776L214.856 20.5689C217.069 20.6439 217.517 23.7372 215.416 24.4362V24.4362C213.41 25.1034 213.698 28.0258 215.795 28.2891L220.682 28.9027C222.954 29.188 223.041 32.4493 220.787 32.8554L218.41 33.2838C216.286 33.6665 216.19 36.6776 218.286 37.194L219.005 37.3712C221.211 37.9147 220.947 41.1308 218.682 41.3071L210.608 41.9355C208.589 42.0926 208.103 44.8349 209.946 45.6759V45.6759C211.872 46.5549 211.232 49.44 209.115 49.4222L193.881 49.2934C192.13 49.2786 191.207 51.3615 192.394 52.6489L193.033 53.3425C194.277 54.6922 193.198 56.8648 191.371 56.6888L170.939 54.7204C169.887 54.619 168.938 55.3534 168.772 56.3969L168.093 60.6672C167.914 61.7924 166.832 62.541 165.716 62.3122L145.154 58.0981C144.577 57.98 143.977 58.1218 143.515 58.4859L135.324 64.9339C134.774 65.3669 134.038 65.4808 133.383 65.2343L117.704 59.335C117.25 59.1642 116.75 59.1642 116.296 59.335L100.617 65.2343C99.9623 65.4808 99.226 65.3669 98.676 64.9339L90.4851 58.4859C90.0226 58.1218 89.4231 57.98 88.8465 58.0981L68.2838 62.3122C67.1676 62.541 66.0861 61.7924 65.9071 60.6672L65.2277 56.3969C65.0617 55.3534 64.1126 54.619 63.0608 54.7204L42.6293 56.6888C40.8021 56.8648 39.7228 54.6922 40.967 53.3425L41.6064 52.6489C42.7931 51.3615 41.8697 49.2786 40.1189 49.2934L24.8852 49.4222C22.7681 49.44 22.1281 46.5549 24.0541 45.6759V45.6759C25.8968 44.8349 25.4113 42.0926 23.3919 41.9355L15.3183 41.3071C13.0534 41.1308 12.7892 37.9147 14.9949 37.3712L15.7141 37.194C17.8098 36.6776 17.7144 33.6665 15.5902 33.2838L13.2126 32.8554C10.9587 32.4493 11.0457 29.188 13.3181 28.9027L18.2047 28.2891C20.3018 28.0258 20.5896 25.1034 18.5841 24.4362V24.4362C16.4834 23.7372 16.9308 20.6439 19.1435 20.5689L30.6824 20.1776C32.6302 20.1116 33.3131 17.5631 31.6864 16.4898V16.4898C29.986 15.3678 30.8208 12.6959 32.8553 12.8001L51.0924 13.7337C52.529 13.8073 53.5711 12.3856 53.0686 11.0378L52.2722 8.90121C51.741 7.47637 52.9313 6.00345 54.4359 6.22371L75.6738 9.3328C76.423 9.44248 77.1699 9.11967 77.6033 8.49884L81.7029 2.62732C82.1887 1.93156 83.0606 1.61809 83.8782 1.84528L102.461 7.00921C102.951 7.14538 103.475 7.08975 103.925 6.85362L116.071 0.486728Z" fill="#63AB45"/>
</svg>
