<svg width="1920" height="736" viewBox="0 0 1920 736" fill="none" xmlns="http://www.w3.org/2000/svg">
<mask id="mask0_2128_2" style="mask-type:alpha" maskUnits="userSpaceOnUse" x="0" y="0" width="1920" height="736">
<rect width="1920" height="736" fill="#D9D9D9"/>
</mask>
<g mask="url(#mask0_2128_2)">
<g opacity="0.03">
<path d="M1633.68 337.614L1643.37 341.948L1654.51 337.975L1656.65 333.337L1655.21 330.087L1646.26 335.476L1625.79 332.948L1619.35 384.64L1625.79 382.835L1626.51 362.391L1632.26 366.696L1638.74 381.751L1642.93 379.446L1643.01 379.613L1642.96 379.446L1634.76 356.28L1643.01 349.475L1629.04 351.614L1625.07 345.892L1626.18 338.698L1633.68 337.614Z" fill="url(#paint0_linear_2128_2)"/>
<path d="M1662.73 293.117L1651.98 254.757L1627.23 235.369L1629.73 219.592L1623.62 207.398L1618.96 209.176L1617.18 224.981L1614.32 227.481L1616.46 237.175L1621.12 240.397L1620.07 245.758L1624.73 252.258L1627.23 252.952L1628.32 245.036L1646.62 259.757L1641.57 261.924L1634.04 257.98L1634.4 269.09L1637.98 270.146L1639.07 275.201L1644.09 276.257L1648.76 273.757L1644.45 264.785L1648.76 261.924L1653.76 277.368L1648.87 281.284L1646.23 280.951L1636.93 285.589L1635.82 294.95L1643.01 288.812L1645.9 288.478L1647.68 290.256L1648.37 296.395L1656.65 304.255L1658.79 294.2L1662.73 293.117Z" fill="url(#paint1_linear_2128_2)"/>
<path d="M1598.93 370.058L1599.6 369.53L1598.93 370.058Z" fill="url(#paint2_linear_2128_2)"/>
<path d="M1468.63 225.675L1474.19 221.342L1486.22 266.035L1483.69 266.923L1484.77 288.089L1489.27 286.645L1500.91 307.449L1499.69 310.838L1525.69 338.142L1490.55 265.451L1494.33 248.258L1497.19 246.258L1499.52 249.48L1499.19 254.702L1505.63 253.424L1519.1 270.09L1522.33 269.007L1526.46 271.895L1525.74 282.117L1552.13 259.507L1549.8 237.98L1527.19 211.787L1524.99 199.787L1539.55 188.288L1546.19 189.371L1547.44 197.26L1549.8 198.51L1559.49 187.205L1564.49 189.01L1587.27 177.705L1609.68 124.068L1601.43 126.763L1600.35 117.624L1602.13 113.875L1579.38 92.1532L1591.04 77.0706L1594.99 77.4316L1581.02 72.4319L1571.88 76.3761L1571.32 72.2374L1560.91 67.9321L1561.1 64.1544L1577.04 50.8772L1580.66 53.9327L1578.49 58.9325L1579.77 66.321L1595.54 58.7658L1601.65 60.7379L1602.74 71.5152L1615.46 78.1538L1621.21 90.0144L1619.6 94.8476L1623.54 98.6252L1633.76 94.6809L1633.4 74.9318L1613.82 60.7935L1622.07 52.7383L1621.35 45.7386L1628.88 35.3224L1634.6 39.2944L1643.21 33.9058L1648.24 -6.09249L1630.65 -36.4245L1613.4 -41.9798L1610.18 -36.6189L1602.13 -48.9795L1599.6 -44.5075L1590.27 -47.2018L1602.65 -75.0061L1646.07 -76.9505L1647.35 -73.534L1666.15 -75.5339L1659.87 -89.1722L1671.9 -93.2831L1682.12 -83.6169L1688.71 -91.0332L1685.04 -95.4497L1689.68 -97.0885L1694.87 -87.5889L1687.51 -59.7846L1726.65 -20.1196L1728.79 -20.6474L1729.87 -29.0915L1726.65 -32.2858L1732.2 -34.4801L1726.82 -41.2854L1728.59 -45.0352L1732.73 -43.7853L1724.29 -55.4514L1727.54 -54.2015L1712.46 -68.0065L1708.84 -67.4787L1706.87 -71.3952L1707.96 -74.4506L1704.21 -79.6448L1712.57 -82.5336L1716.37 -81.4781L1718.34 -78.5893L1722.12 -82.1725L1737.32 -79.4782L1737.54 -84.5335L1746.37 -94.5886L1763.95 -96.1719L1742.98 -107.31L1743.15 -110.366L1746.76 -114.116L1744.79 -117.171L1784.95 -108.227L1784.42 -117.365L1656.68 -145.003L1666.57 -136.753L1610.04 -141.42L1605.04 -146.836L1497.05 -158.114L1505.08 -152.003L1473.52 -155.058L1473.72 -147.697L1422.94 -165.808L1417.58 -160.614L1402.33 -161.141L1399.61 -164.002L1379.53 -163.836L1371.8 -169.419L1366.08 -168.141L1361.78 -163.475L1349.58 -162.586L1367.36 -173.002L1363.42 -178.585L1252.5 -170.308L1257.92 -165.836L1234.2 -164.058L1250.2 -154.197L1225.25 -157.78L1222.92 -154.725L1226 -151.308L1226.17 -148.614L1209.67 -161.725L1225.25 -135.726L1229.2 -138.42L1228.7 -136.281L1227.78 -135.92L1226.89 -122.449L1221.87 -121.365L1217.2 -122.976L1222.59 -127.087L1223.31 -132.67L1206.98 -151.308L1206.09 -159.752L1194.4 -164.058L1190.48 -162.28L1187.98 -155.642L1188.7 -152.947L1183.67 -149.531L1199.62 -131.42L1152.42 -146.309L1148.65 -144.336L1157.62 -133.92L1099.95 -123.837L1096.01 -126.671L1100.48 -130.254L1095.45 -135.087L1083.48 -135.059L1088.65 -125.032L1092.04 -123.448L1091.48 -120.393L1072.48 -115.365L1074.98 -111.977L1071.93 -110.171L1061.9 -113.588L1057.04 -112.143L1058.82 -109.088L1064.93 -107.644L1050.07 -110.338L1042.18 -121.643L1076.09 -123.254L1077.71 -126.865L1076.62 -129.92L1021.9 -141.753L1025.51 -146.253L946.211 -133.142L953.739 -132.42L930.962 -102.283L914.268 -101.394L907.102 -94.5609L907.435 -71.5896L912.463 -68.2009L935.24 -75.1728L941.323 -62.8122L940.601 -54.2015L932.351 -52.0349L934.684 -55.6181L931.99 -61.2012L932.545 -65.1455L924.129 -62.8122L922.879 -44.3131L924.323 -41.9798L921.629 -38.5633L900.991 -33.7302L899.38 -25.2861L873.02 -8.09239L864.048 -12.3978L865.826 -2.70375L851.466 -5.03697L847.882 -0.53718L862.243 7.71246L867.27 18.8231L860.993 33.5447L831.578 31.7392L830.3 30.3226H827.078L824.383 33.3502L820.439 33.5447L819.384 74.0707L832.133 78.4038L834.827 84.1258L836.438 85.2091L836.966 86.6535L815.606 108.347L811.106 128.624L797.662 141.373L790.496 142.984L777.747 160.039V166.122L763.747 187.094L767.33 200.926L764.83 203.426L763.219 233.23L758.914 236.619L759.081 238.786L762.858 241.813L765.025 259.063L819.189 311.977L850.049 306.616L855.049 308.949L891.131 297.283L897.964 299.95L905.491 312.866L922.018 311.616L929.351 318.449L923.074 349.503L951.072 402.584L948.211 406.528L979.599 569.799L976.932 576.799L981.932 588.298L987.654 591.52L1032.35 583.271L1066.26 547.189L1069.48 528.551L1085.46 516.163L1085.09 483.497L1120.81 454.832L1115.95 373.169L1188.45 257.618L1146.12 268.007L1138.95 260.479L1140.04 255.091L1074.01 143.484L1081.37 142.762L1133.76 226.203L1127.45 220.453L1126.2 224.259L1142.01 252.063L1152.06 250.091L1153.84 246.119L1211.98 220.453L1213.59 214.37L1219.31 214.009L1220.92 209.898L1226.48 206.482L1227.17 197.51L1231.31 198.76L1232.59 195.704L1231.14 193.76L1237.42 184.621L1237.59 181.372L1214.45 161.622L1214.09 154.456L1189.7 170.955L1186.28 169.539L1185.76 160.734L1181.45 155.178L1178.2 161.456L1162.06 132.374L1175.15 128.624L1199.7 153.206L1208.84 152.651L1213.87 148.873L1218.87 151.373L1219.59 157.317L1277 163.039L1298.53 179.76L1300.86 179.566L1295.14 182.094L1307.14 194.843L1314.5 190.343L1314.86 185.149L1317.22 185.316L1349.17 282.923L1355.08 285.423L1360.8 277.367L1364.94 276.645L1368.89 279.145L1374.8 299.783L1380.19 294.95L1382.53 286.673L1368.53 272.534L1369.28 275.034L1368.53 275.951L1364.42 274.34L1368.75 230.564L1413.77 186.788L1414.14 189.482L1431.19 183.233L1431.52 181.066L1445 202.26L1448.94 201.704L1447.69 207.648L1455.58 215.703L1455.02 228.62L1462.38 231.147L1468.63 225.675ZM942.628 -45.9519L943.906 -50.8128L955.905 -47.3962L957.516 -48.8406L955.017 -50.285L963.266 -55.1181L966.322 -62.1178L964.683 -64.2844L967.21 -70.7286L974.738 -75.0617L976.349 -103.227L1003.24 -116.671L1003.96 -114.171L985.849 -100.533L988.71 -81.867L991.737 -79.7282L1023.68 -83.3113L1025.85 -81.7003L1019.76 -76.3116L998.237 -74.7006L997.515 -72.1174L1002.38 -68.8953L1002.74 -62.2567L995.57 -64.5899L986.932 -54.5626L988.737 -48.8128L953.044 -40.2021L950.517 -41.2854L948.545 -45.0352L936.712 -40.5632V-40.9243H936.684L942.628 -45.9519ZM1085.34 91.931L1078.07 111.041L1046.04 120.18L1004.6 107.541L1004.04 105.93L994.098 109.402L984.96 126.624L965.599 119.902L960.489 113.986L940.545 107.264L933.018 78.4594L926.046 75.5151L845.549 92.2088L839.911 87.6257L841.244 84.4313L866.798 73.9318L868.937 68.2932L872.715 66.6543L871.381 62.0712L879.159 49.9606L890.186 44.572L891.797 35.1557L899.88 32.7392L909.046 35.7112L922.768 26.295L928.962 27.6283L965.016 62.8767L957.489 71.7652L943.767 71.2375L957.239 79.5982L961.266 76.9039L962.6 72.0708L970.683 66.4321L970.405 64.5433L972.849 62.6267L969.044 56.1826L973.932 54.0438L979.016 57.0159L979.849 53.766L963.961 45.433L963.433 42.7387L943.517 21.7396L948.628 15.0177L986.015 52.405L984.96 56.4326L1002.18 79.8482L1008.26 80.4871L1010.01 74.4595L1015.38 70.432L1007.29 59.9602L1008.38 54.8215L1014.04 57.5158L1019.65 52.405L1034.49 79.3204L1046.87 84.1536L1053.6 80.6537L1070.82 84.7091L1078.07 81.2093L1085.34 91.931ZM1112.23 44.572L1106.32 50.4884L1072.43 42.1276L1050.37 49.6551L1031.26 40.7666H1034.24L1033.71 33.5169L1036.37 31.8781L1038.26 24.0729L1041.51 22.7396L1042.32 18.712L1049.32 10.879L1061.43 14.6566L1057.12 18.6842L1067.62 25.9339L1069.23 23.2396L1079.46 19.9897L1071.93 16.4899L1075.96 10.2957L1091.84 6.54585L1081.87 18.6842L1082.4 21.9063L1112.23 44.572ZM1173.84 80.8759L1157.7 66.6266L1161.2 62.8489L1162.01 56.6826L1163.62 56.4048L1143.7 34.3502L1145.31 29.2393L1140.48 28.156L1139.4 23.8507L1162.26 7.71246L1170.04 11.2123L1169.76 20.9063L1164.4 19.823L1177.03 47.794L1185.15 48.0718L1177.59 51.8217L1176.78 55.3215L1184.06 62.349L1188.37 78.7371L1173.84 80.8759Z" fill="url(#paint3_linear_2128_2)"/>
<path d="M1783.64 379.613L1781.89 373.141L1736.67 352.337L1717.62 364.169L1704.01 346.587L1688.92 348.781L1702.56 360.586L1705.45 371.364L1732.37 378.53L1741.34 400.085L1764.64 407.584L1770 401.501L1786.17 403.668L1793.72 412.64L1809.86 417.306L1791.2 391.474L1797.64 389.668L1783.64 379.613Z" fill="url(#paint4_linear_2128_2)"/>
<path d="M1617.54 305.339L1601.4 294.923L1565.88 332.227L1555.82 330.088L1556.52 333.338L1554.04 339.421L1562.99 367.059L1598.93 370.058L1615.38 337.254L1608.93 326.144L1617.54 305.339Z" fill="url(#paint5_linear_2128_2)"/>
<path d="M1795.87 500.885L1771.84 444.193L1765.37 444.915L1760.34 419.805L1758.56 419.083L1742.04 468.248L1728.4 462.859L1717.62 440.971L1719.06 436.693L1724.81 431.999V429.138L1712.59 429.499L1695.01 419.805L1697.01 428.249L1687.12 430.194L1677.43 444.554L1678.51 447.054L1668.09 449.582L1664.51 443.138L1653.76 443.499L1652.32 450.998L1646.93 449.582L1642.26 457.47L1637.65 459.276L1635.1 464.637L1633.68 458.915L1628.29 463.942L1626.49 472.164L1573.77 501.246L1572.68 498.385L1568.71 502.69V511.662L1564.77 517.023L1566.93 525.273L1560.82 528.523L1558.68 583.77L1555.46 584.131L1564.4 593.492L1662.37 569.771L1676.73 582.354L1676.01 589.159L1680.32 591.326L1695.73 577.687L1687.84 588.437L1688.18 591.687L1692.54 588.076L1694.32 589.52L1682.82 601.381L1695.73 600.658L1693.59 605.658L1711.18 619.324L1722.68 614.63L1726.95 622.907L1740.23 612.491L1750.65 611.408L1806.98 522.801L1795.87 500.885Z" fill="url(#paint6_linear_2128_2)"/>
<path d="M1716.2 634.741L1710.45 630.436V629.353L1703.65 652.324L1710.81 653.407L1730.2 632.575L1716.2 634.741Z" fill="url(#paint7_linear_2128_2)"/>
<path d="M1910.7 613.935L1903.5 605.657L1905.31 593.075L1898.84 589.158L1892.75 619.324L1883.42 622.907L1887.72 631.156L1881.61 636.545L1869.78 632.934L1809.87 670.988L1819.2 676.015L1876.98 637.989L1881.98 639.378L1901.36 628.99L1903.5 622.518L1907.47 622.907L1920 608.907L1910.7 613.935Z" fill="url(#paint8_linear_2128_2)"/>
<path d="M1613.6 186.205L1615.74 161.095L1612.16 162.511L1608.21 178.288L1613.6 186.205Z" fill="url(#paint9_linear_2128_2)"/>
<path d="M1567.29 401.835L1655.2 402.918L1642.29 412.973L1641.93 417.612L1665.98 400.752L1579.12 396.474L1583.1 391.113L1562.29 386.78L1560.13 391.446L1533.93 385.363L1529.63 390.363L1567.29 401.835Z" fill="url(#paint10_linear_2128_2)"/>
<path d="M1555.49 200.566H1555.46L1551.52 199.844L1547.93 201.26L1546.13 200.566L1542.19 205.955L1544.32 212.038H1549.35L1553.32 209.177L1555.49 200.566Z" fill="url(#paint11_linear_2128_2)"/>
<path d="M1534.29 378.891L1536.43 360.947L1532.13 361.669L1519.24 347.309L1522.43 343.003L1467.91 303.172L1528.88 385.363L1534.29 378.891Z" fill="url(#paint12_linear_2128_2)"/>
<path d="M1175.84 430.917L1144.59 458.915L1137.45 521.357L1151.42 525.662L1160.36 518.496L1176.53 456.054L1181.56 453.527L1178.31 429.5L1175.84 430.917Z" fill="url(#paint13_linear_2128_2)"/>
<path d="M409.538 196.87L374.595 179.677L346.318 185.315L347.402 190.704L360.04 181.01L405.26 200.398L409.538 196.87Z" fill="url(#paint14_linear_2128_2)"/>
<path d="M644.444 381.752L613.195 361.308L589.53 360.197L585.586 362.364V353.781L567.642 346.226L561.531 351.614V344.781L552.226 339.059L553.309 331.504L548.976 327.921L545.032 313.227L499.811 293.089L496.589 285.59L484.757 279.84L484.423 275.923L473.368 267.646L462.869 267.09L461.258 270.312L428.148 255.535L418.204 267.368L418.732 276.007L414.149 271.118L417.398 266.563V260.118L421.426 257.424L419.815 253.924L397.205 263.591L392.372 274.923L356.568 279.479L343.124 265.229L348.235 234.814L340.152 228.87H315.125L331.263 190.149L309.736 192.566L305.181 206.037L282.293 212.204L276.655 207.899L276.405 208.982L265.877 185.038L275.044 148.429L303.848 129.596L314.875 131.207L317.542 133.902L324.291 132.791L331.013 126.069L347.957 125.541L353.068 131.207L360.595 128.263L367.067 135.235L365.178 144.124L372.456 161.373L375.956 162.706L377.567 124.485L424.12 83.5984L423.565 73.3488L427.898 72.5711L432.176 63.4048L436.481 63.9326L444.842 53.433L467.452 46.9888L470.146 44.0445L466.924 41.3502L473.646 31.3784L507.839 19.2678L497.312 25.9898L499.478 31.1007L527.727 21.4344L530.699 16.8513L538.226 15.4902L536.615 12.2681L537.171 7.96277L526.366 16.5735L515.894 16.0735L511.061 8.7683L519.922 -6.00884L512.672 -8.17543L486.284 3.6574L500.006 -7.34212L505.672 -8.17543L512.144 -14.0918L567.559 -23.7858L568.67 -22.4248L544.948 2.85187L565.42 3.37964L566.753 7.15725L571.336 3.93516L573.753 10.1016L581.836 3.93516L579.419 -3.06453L581.586 -9.53647L572.142 -9.25871L571.058 -22.9803L577.53 -31.0911L573.225 -44.7849L558.142 -55.8122L561.114 -62.8119L557.087 -84.0888L534.477 -69.2561L528.532 -74.3948L529.088 -81.1167L534.199 -85.9776L525.838 -88.6441L525.31 -90.8107L517.255 -97.8104L514.811 -95.3661L497.062 -97.0049L478.618 -70.0894L483.868 -65.784L479.812 -56.1178L456.952 -46.146L452.647 -28.369L441.897 -21.1193L437.12 -32.6744L442.675 -31.6188L443.508 -35.3965L439.203 -35.1187L445.119 -48.007L431.12 -49.0903L427.926 -52.8679L420.898 -53.9512L420.343 -56.9233L409.565 -62.5619L403.121 -61.7564L404.455 -72.7837L398.01 -73.8392L474.424 -118.532L475.507 -117.976L459.369 -105.088L465.035 -104.282L464.202 -101.032L476.59 -107.227L483.618 -103.199L490.34 -103.477L490.062 -108.588L477.118 -118.532L476.063 -121.226L480.618 -120.671L484.423 -117.448L504.589 -128.226L504.061 -131.726L510.255 -137.642L506.2 -141.92L539.56 -136.281L536.893 -133.864L525.838 -132.503L523.144 -127.142L531.227 -126.059L537.421 -132.503L544.143 -133.059L545.226 -126.615L530.949 -119.615L530.699 -114.754L512.394 -115.032L506.728 -110.449L511.311 -106.421L529.866 -105.866L533.671 -98.5881L554.67 -96.1716L548.976 -102.921L563.253 -96.1716L565.392 -102.116L570.253 -105.06L562.725 -115.032L562.975 -119.059L579.391 -112.338L581.836 -116.365L595.28 -121.754L581.558 -132.003L577.78 -130.92L574.308 -134.948L579.697 -143.281L575.364 -147.586L568.642 -148.947L567.003 -152.447L536.338 -163.474L533.643 -162.669L530.171 -165.363L508.894 -156.197L509.172 -165.363L485.201 -151.641L485.479 -145.169L498.117 -143.031L474.451 -125.809L473.368 -130.115L478.757 -133.337L470.674 -138.975L469.341 -154.058L497.867 -166.696L475.507 -165.891L449.425 -145.419L448.869 -139.253L438.675 -141.142L427.926 -136.836V-130.92L381.067 -132.781L380.539 -129.031L349.04 -129.309L358.734 -133.614L321.597 -140.059L320.542 -144.086L311.903 -140.586L309.486 -146.253L187.325 -150.03L187.853 -151.447L188.103 -151.614L117.356 -133.892L120.023 -122.059L109.523 -120.976L112.217 -124.726L84.7463 -117.198L85.3018 -114.254L83.413 -110.754L99.3012 -109.143L101.19 -103.755L58.1086 -91.0885L52.7477 -78.4501L62.1639 -80.0612L56.7753 -72.7837L70.7747 -71.9782L0 -42.1184L111.106 -80.5889L110.606 -75.2003L172.215 -77.6446L177.603 -69.5616L175.992 -45.8682L185.686 -46.9515L184.325 -18.1472L176.798 -19.7583L176.52 -12.7863L186.242 -3.09231L150.16 54.2385L153.66 95.1534L167.937 107.514L174.381 139.54L169.02 143.318L175.187 151.901L177.631 152.206L182.492 157.845L180.575 165.373L191.353 180.705L195.936 176.15L177.076 128.235L178.964 117.208L186.77 118.819L200.241 151.901L198.63 159.178L218.268 182.594L217.99 192.01L215.018 196.593L216.629 203.065L233.073 215.148L235.74 214.62L267.238 230.509L277.738 227.287L345.846 285.423L348.263 283.812L360.068 291.617L364.651 288.895L363.345 283.812L367.623 279.506H371.4L375.428 282.729L375.15 286.478L380.011 294.284L380.261 316.088L370.039 327.143L369.789 333.587L363.595 336.004L358.207 358.614L363.595 363.447L355.234 373.697L430.592 475.054L448.869 649.796L453.536 649.463L450.675 641.574L454.258 641.935L457.119 659.49L454.258 656.962L449.953 661.657L453.536 664.879L451.036 676.35L456.063 677.072L459.647 679.933L456.063 686.044L496.951 729.82L521.005 735.903L531.393 728.376L502.339 708.988L499.811 701.821L503.756 698.96L508.783 682.1L497.312 672.767L498.006 664.49L502.339 662.018L504.117 649.435L508.061 644.768L500.2 643.713L496.589 637.991V633.658L508.45 634.352L511.672 629.713L512.033 619.658L531.755 616.797L532.838 597.409L526.366 586.993L522.783 587.715L526.033 584.493L543.948 591.687L560.475 558.994H565.836L573.725 538.912L571.947 527.051L611.807 501.941L644.444 381.752Z" fill="url(#paint15_linear_2128_2)"/>
<path d="M409.04 214.899L442.649 207.371L435.372 201.705L416.817 202.261L416.012 210.066H407.123L406.873 210.871L409.04 214.899Z" fill="url(#paint16_linear_2128_2)"/>
</g>
</g>
<defs>
<linearGradient id="paint0_linear_2128_2" x1="1638" y1="330.087" x2="1638" y2="384.64" gradientUnits="userSpaceOnUse">
<stop stop-color="#100C08"/>
<stop offset="1" stop-color="#100C08" stop-opacity="0"/>
</linearGradient>
<linearGradient id="paint1_linear_2128_2" x1="1638.52" y1="207.398" x2="1638.52" y2="304.255" gradientUnits="userSpaceOnUse">
<stop stop-color="#100C08"/>
<stop offset="1" stop-color="#100C08" stop-opacity="0"/>
</linearGradient>
<linearGradient id="paint2_linear_2128_2" x1="1599.26" y1="369.53" x2="1599.26" y2="370.058" gradientUnits="userSpaceOnUse">
<stop stop-color="#100C08"/>
<stop offset="1" stop-color="#100C08" stop-opacity="0"/>
</linearGradient>
<linearGradient id="paint3_linear_2128_2" x1="1271.93" y1="-178.585" x2="1271.93" y2="591.52" gradientUnits="userSpaceOnUse">
<stop stop-color="#100C08"/>
<stop offset="1" stop-color="#100C08" stop-opacity="0"/>
</linearGradient>
<linearGradient id="paint4_linear_2128_2" x1="1749.39" y1="346.587" x2="1749.39" y2="417.306" gradientUnits="userSpaceOnUse">
<stop stop-color="#100C08"/>
<stop offset="1" stop-color="#100C08" stop-opacity="0"/>
</linearGradient>
<linearGradient id="paint5_linear_2128_2" x1="1585.79" y1="294.923" x2="1585.79" y2="370.058" gradientUnits="userSpaceOnUse">
<stop stop-color="#100C08"/>
<stop offset="1" stop-color="#100C08" stop-opacity="0"/>
</linearGradient>
<linearGradient id="paint6_linear_2128_2" x1="1681.22" y1="419.083" x2="1681.22" y2="622.907" gradientUnits="userSpaceOnUse">
<stop stop-color="#100C08"/>
<stop offset="1" stop-color="#100C08" stop-opacity="0"/>
</linearGradient>
<linearGradient id="paint7_linear_2128_2" x1="1716.92" y1="629.353" x2="1716.92" y2="653.407" gradientUnits="userSpaceOnUse">
<stop stop-color="#100C08"/>
<stop offset="1" stop-color="#100C08" stop-opacity="0"/>
</linearGradient>
<linearGradient id="paint8_linear_2128_2" x1="1864.93" y1="589.158" x2="1864.93" y2="676.015" gradientUnits="userSpaceOnUse">
<stop stop-color="#100C08"/>
<stop offset="1" stop-color="#100C08" stop-opacity="0"/>
</linearGradient>
<linearGradient id="paint9_linear_2128_2" x1="1611.97" y1="161.095" x2="1611.97" y2="186.205" gradientUnits="userSpaceOnUse">
<stop stop-color="#100C08"/>
<stop offset="1" stop-color="#100C08" stop-opacity="0"/>
</linearGradient>
<linearGradient id="paint10_linear_2128_2" x1="1597.8" y1="385.363" x2="1597.8" y2="417.612" gradientUnits="userSpaceOnUse">
<stop stop-color="#100C08"/>
<stop offset="1" stop-color="#100C08" stop-opacity="0"/>
</linearGradient>
<linearGradient id="paint11_linear_2128_2" x1="1548.84" y1="199.844" x2="1548.84" y2="212.038" gradientUnits="userSpaceOnUse">
<stop stop-color="#100C08"/>
<stop offset="1" stop-color="#100C08" stop-opacity="0"/>
</linearGradient>
<linearGradient id="paint12_linear_2128_2" x1="1502.17" y1="303.172" x2="1502.17" y2="385.363" gradientUnits="userSpaceOnUse">
<stop stop-color="#100C08"/>
<stop offset="1" stop-color="#100C08" stop-opacity="0"/>
</linearGradient>
<linearGradient id="paint13_linear_2128_2" x1="1159.5" y1="429.5" x2="1159.5" y2="525.662" gradientUnits="userSpaceOnUse">
<stop stop-color="#100C08"/>
<stop offset="1" stop-color="#100C08" stop-opacity="0"/>
</linearGradient>
<linearGradient id="paint14_linear_2128_2" x1="377.928" y1="179.677" x2="377.928" y2="200.398" gradientUnits="userSpaceOnUse">
<stop stop-color="#100C08"/>
<stop offset="1" stop-color="#100C08" stop-opacity="0"/>
</linearGradient>
<linearGradient id="paint15_linear_2128_2" x1="322.222" y1="-166.696" x2="322.222" y2="735.903" gradientUnits="userSpaceOnUse">
<stop stop-color="#100C08"/>
<stop offset="1" stop-color="#100C08" stop-opacity="0"/>
</linearGradient>
<linearGradient id="paint16_linear_2128_2" x1="424.761" y1="201.705" x2="424.761" y2="214.899" gradientUnits="userSpaceOnUse">
<stop stop-color="#100C08"/>
<stop offset="1" stop-color="#100C08" stop-opacity="0"/>
</linearGradient>
</defs>
</svg>
