<svg width="1920" height="800" viewBox="0 0 1920 800" fill="none" xmlns="http://www.w3.org/2000/svg">
<mask id="mask0_2160_8" style="mask-type:alpha" maskUnits="userSpaceOnUse" x="0" y="0" width="1920" height="800">
<rect width="1920" height="800" fill="#D9D9D9"/>
</mask>
<g mask="url(#mask0_2160_8)">
<g opacity="0.03">
<path d="M1633.68 401.614L1643.37 405.948L1654.51 401.975L1656.65 397.337L1655.21 394.087L1646.26 399.476L1625.79 396.948L1619.35 448.64L1625.79 446.835L1626.51 426.391L1632.26 430.696L1638.74 445.751L1642.93 443.446L1643.01 443.613L1642.96 443.446L1634.76 420.28L1643.01 413.475L1629.04 415.614L1625.07 409.892L1626.18 402.698L1633.68 401.614Z" fill="url(#paint0_linear_2160_8)"/>
<path d="M1662.73 357.116L1651.98 318.757L1627.23 299.369L1629.73 283.592L1623.62 271.398L1618.96 273.176L1617.18 288.981L1614.32 291.48L1616.46 301.174L1621.12 304.396L1620.07 309.757L1624.73 316.257L1627.23 316.951L1628.32 309.035L1646.62 323.757L1641.57 325.923L1634.04 321.979L1634.4 333.09L1637.98 334.145L1639.07 339.201L1644.09 340.256L1648.76 337.756L1644.45 328.784L1648.76 325.923L1653.76 341.367L1648.87 345.284L1646.23 344.95L1636.93 349.589L1635.82 358.95L1643.01 352.811L1645.9 352.478L1647.68 354.255L1648.37 360.394L1656.65 368.255L1658.79 358.2L1662.73 357.116Z" fill="url(#paint1_linear_2160_8)"/>
<path d="M1598.93 434.058L1599.6 433.53L1598.93 434.058Z" fill="url(#paint2_linear_2160_8)"/>
<path d="M1468.63 289.675L1474.19 285.342L1486.22 330.034L1483.69 330.923L1484.77 352.089L1489.27 350.645L1500.91 371.449L1499.69 374.838L1525.69 402.142L1490.55 329.451L1494.33 312.257L1497.19 310.257L1499.52 313.48L1499.19 318.702L1505.63 317.424L1519.1 334.09L1522.33 333.007L1526.46 335.895L1525.74 346.117L1552.13 323.507L1549.8 301.98L1527.19 275.787L1524.99 263.787L1539.55 252.288L1546.19 253.371L1547.44 261.26L1549.8 262.51L1559.49 251.205L1564.49 253.01L1587.27 241.705L1609.68 188.068L1601.43 190.763L1600.35 181.624L1602.13 177.874L1579.38 156.153L1591.04 141.07L1594.99 141.432L1581.02 136.432L1571.88 140.376L1571.32 136.237L1560.91 131.932L1561.1 128.154L1577.04 114.877L1580.66 117.933L1578.49 122.932L1579.77 130.321L1595.54 122.766L1601.65 124.738L1602.74 135.515L1615.46 142.154L1621.21 154.014L1619.6 158.847L1623.54 162.625L1633.76 158.681L1633.4 138.932L1613.82 124.793L1622.07 116.738L1621.35 109.738L1628.88 99.3223L1634.6 103.294L1643.21 97.9056L1648.24 57.9074L1630.65 27.5754L1613.4 22.0201L1610.18 27.381L1602.13 15.0204L1599.6 19.4924L1590.27 16.7981L1602.65 -11.0063L1646.07 -12.9506L1647.35 -9.53411L1666.15 -11.534L1659.87 -25.1723L1671.9 -29.2832L1682.12 -19.617L1688.71 -27.0334L1685.04 -31.4498L1689.68 -33.0886L1694.87 -23.5891L1687.51 4.21528L1726.65 43.8802L1728.79 43.3525L1729.87 34.9084L1726.65 31.7141L1732.2 29.5197L1726.82 22.7145L1728.59 18.9646L1732.73 20.2146L1724.29 8.54844L1727.54 9.79837L1712.46 -4.00658L1708.84 -3.47882L1706.87 -7.39532L1707.96 -10.4507L1704.21 -15.645L1712.57 -18.5337L1716.37 -17.4782L1718.34 -14.5894L1722.12 -18.1726L1737.32 -15.4783L1737.54 -20.5336L1746.37 -30.5888L1763.95 -32.172L1742.98 -43.3104L1743.15 -46.3658L1746.76 -50.1157L1744.79 -53.1711L1784.95 -44.227L1784.42 -53.3655L1656.68 -81.0032L1666.57 -72.7536L1610.04 -77.42L1605.04 -82.8365L1497.05 -94.1138L1505.08 -88.0029L1473.52 -91.0583L1473.72 -83.6975L1422.94 -101.808L1417.58 -96.6136L1402.33 -97.1414L1399.61 -100.002L1379.53 -99.8357L1371.8 -105.419L1366.08 -104.141L1361.78 -99.4746L1349.58 -98.5858L1367.36 -109.002L1363.42 -114.585L1252.5 -106.308L1257.92 -101.836L1234.2 -100.058L1250.2 -90.1973L1225.25 -93.7804L1222.92 -90.725L1226 -87.3085L1226.17 -84.6142L1209.67 -97.7247L1225.25 -71.7258L1229.2 -74.4202L1228.7 -72.2814L1227.78 -71.9203L1226.89 -58.4486L1221.87 -57.3654L1217.2 -58.9764L1222.59 -63.0873L1223.31 -68.6704L1206.98 -87.3085L1206.09 -95.7526L1194.4 -100.058L1190.48 -98.2802L1187.98 -91.6416L1188.7 -88.9473L1183.67 -85.5308L1199.62 -67.4205L1152.42 -82.3087L1148.65 -80.3366L1157.62 -69.9204L1099.95 -59.8375L1096.01 -62.6707L1100.48 -66.2539L1095.45 -71.087L1083.48 -71.0592L1088.65 -61.0319L1092.04 -59.4486L1091.48 -56.3932L1072.48 -51.3656L1074.98 -47.9769L1071.93 -46.1714L1061.9 -49.5879L1057.04 -48.1435L1058.82 -45.0881L1064.93 -43.6437L1050.07 -46.3381L1042.18 -57.6431L1076.09 -59.2542L1077.71 -62.8651L1076.62 -65.9205L1021.9 -77.7534L1025.51 -82.2532L946.211 -69.1426L953.739 -68.4204L930.962 -38.2829L914.268 -37.394L907.102 -30.561L907.435 -7.58976L912.463 -4.20102L935.24 -11.1729L941.323 1.18764L940.601 9.79837L932.351 11.9649L934.684 8.38176L931.99 2.79869L932.545 -1.1456L924.129 1.18764L922.879 19.6868L924.323 22.0201L921.629 25.4366L900.991 30.2697L899.38 38.7138L873.02 55.9075L864.048 51.6021L865.826 61.2961L851.466 58.9629L847.882 63.4627L862.243 71.7123L867.27 82.823L860.993 97.5446L831.578 95.7391L830.3 94.3225H827.078L824.383 97.3501L820.439 97.5446L819.384 138.071L832.133 142.404L834.827 148.126L836.438 149.209L836.966 150.653L815.606 172.347L811.106 192.624L797.662 205.373L790.496 206.984L777.747 224.039V230.122L763.747 251.093L767.33 264.926L764.83 267.426L763.219 297.23L758.914 300.619L759.081 302.786L762.858 305.813L765.025 323.062L819.189 375.977L850.049 370.616L855.049 372.949L891.131 361.283L897.964 363.95L905.491 376.866L922.018 375.616L929.351 382.449L923.074 413.503L951.072 466.584L948.211 470.528L979.599 633.799L976.932 640.799L981.932 652.298L987.654 655.52L1032.35 647.271L1066.26 611.189L1069.48 592.551L1085.46 580.162L1085.09 547.497L1120.81 518.832L1115.95 437.169L1188.45 321.618L1146.12 332.007L1138.95 324.479L1140.04 319.09L1074.01 207.484L1081.37 206.762L1133.76 290.203L1127.45 284.453L1126.2 288.258L1142.01 316.063L1152.06 314.091L1153.84 310.119L1211.98 284.453L1213.59 278.37L1219.31 278.009L1220.92 273.898L1226.48 270.481L1227.17 261.51L1231.31 262.76L1232.59 259.704L1231.14 257.76L1237.42 248.621L1237.59 245.371L1214.45 225.622L1214.09 218.456L1189.7 234.955L1186.28 233.539L1185.76 224.733L1181.45 219.178L1178.2 225.456L1162.06 196.374L1175.15 192.624L1199.7 217.206L1208.84 216.65L1213.87 212.873L1218.87 215.373L1219.59 221.317L1277 227.039L1298.53 243.76L1300.86 243.566L1295.14 246.094L1307.14 258.843L1314.5 254.343L1314.86 249.149L1317.22 249.316L1349.17 346.923L1355.08 349.422L1360.8 341.367L1364.94 340.645L1368.89 343.145L1374.8 363.783L1380.19 358.95L1382.53 350.672L1368.53 336.534L1369.28 339.034L1368.53 339.951L1364.42 338.34L1368.75 294.564L1413.77 250.788L1414.14 253.482L1431.19 247.232L1431.52 245.066L1445 266.259L1448.94 265.704L1447.69 271.648L1455.58 279.703L1455.02 292.619L1462.38 295.147L1468.63 289.675ZM942.628 18.048L943.906 13.1871L955.905 16.6037L957.516 15.1593L955.017 13.7149L963.266 8.88174L966.322 1.88206L964.683 -0.284508L967.21 -6.72868L974.738 -11.0618L976.349 -39.2273L1003.24 -52.6711L1003.96 -50.1712L985.849 -36.5329L988.71 -17.8671L991.737 -15.7283L1023.68 -19.3115L1025.85 -17.7004L1019.76 -12.3118L998.237 -10.7007L997.515 -8.1175L1002.38 -4.89543L1002.74 1.74316L995.57 -0.590057L986.932 9.43729L988.737 15.187L953.044 23.7978L950.517 22.7145L948.545 18.9646L936.712 23.4367V23.0756H936.684L942.628 18.048ZM1085.34 155.931L1078.07 175.041L1046.04 184.18L1004.6 171.541L1004.04 169.93L994.098 173.402L984.96 190.624L965.599 183.902L960.489 177.985L940.545 171.264L933.018 142.459L926.046 139.515L845.549 156.209L839.911 151.626L841.244 148.431L866.798 137.932L868.937 132.293L872.715 130.654L871.381 126.071L879.159 113.96L890.186 108.572L891.797 99.1556L899.88 96.739L909.046 99.7111L922.768 90.2949L928.962 91.6282L965.016 126.877L957.489 135.765L943.767 135.237L957.239 143.598L961.266 140.904L962.6 136.071L970.683 130.432L970.405 128.543L972.849 126.627L969.044 120.182L973.932 118.044L979.016 121.016L979.849 117.766L963.961 109.433L963.433 106.739L943.517 85.7395L948.628 79.0176L986.015 116.405L984.96 120.432L1002.18 143.848L1008.26 144.487L1010.01 138.459L1015.38 134.432L1007.29 123.96L1008.38 118.821L1014.04 121.516L1019.65 116.405L1034.49 143.32L1046.87 148.153L1053.6 144.654L1070.82 148.709L1078.07 145.209L1085.34 155.931ZM1112.23 108.572L1106.32 114.488L1072.43 106.128L1050.37 113.655L1031.26 104.766H1034.24L1033.71 97.5168L1036.37 95.878L1038.26 88.0727L1041.51 86.7395L1042.32 82.7119L1049.32 74.8789L1061.43 78.6565L1057.12 82.6841L1067.62 89.9338L1069.23 87.2395L1079.46 83.9896L1071.93 80.4897L1075.96 74.2956L1091.84 70.5457L1081.87 82.6841L1082.4 85.9062L1112.23 108.572ZM1173.84 144.876L1157.7 130.626L1161.2 126.849L1162.01 120.682L1163.62 120.405L1143.7 98.3501L1145.31 93.2392L1140.48 92.1559L1139.4 87.8505L1162.26 71.7123L1170.04 75.2122L1169.76 84.9062L1164.4 83.8229L1177.03 111.794L1185.15 112.072L1177.59 115.822L1176.78 119.321L1184.06 126.349L1188.37 142.737L1173.84 144.876Z" fill="url(#paint3_linear_2160_8)"/>
<path d="M1783.64 443.614L1781.89 437.142L1736.67 416.337L1717.62 428.17L1704.01 410.587L1688.92 412.782L1702.56 424.587L1705.45 435.364L1732.37 442.53L1741.34 464.085L1764.64 471.585L1770 465.502L1786.17 467.668L1793.72 476.64L1809.86 481.307L1791.2 455.474L1797.64 453.669L1783.64 443.614Z" fill="url(#paint4_linear_2160_8)"/>
<path d="M1617.54 369.339L1601.4 358.923L1565.88 396.227L1555.82 394.088L1556.52 397.338L1554.04 403.421L1562.99 431.059L1598.93 434.058L1615.38 401.254L1608.93 390.144L1617.54 369.339Z" fill="url(#paint5_linear_2160_8)"/>
<path d="M1795.87 564.885L1771.84 508.193L1765.37 508.915L1760.34 483.805L1758.56 483.083L1742.04 532.248L1728.4 526.859L1717.62 504.971L1719.06 500.694L1724.81 495.999V493.138L1712.59 493.499L1695.01 483.805L1697.01 492.25L1687.12 494.194L1677.43 508.554L1678.51 511.054L1668.09 513.582L1664.51 507.138L1653.76 507.499L1652.32 514.999L1646.93 513.582L1642.26 521.47L1637.65 523.276L1635.1 528.637L1633.68 522.915L1628.29 527.942L1626.49 536.164L1573.77 565.246L1572.68 562.385L1568.71 566.691V575.663L1564.77 581.023L1566.93 589.273L1560.82 592.523L1558.68 647.771L1555.46 648.132L1564.41 657.492L1662.37 633.771L1676.73 646.354L1676.01 653.159L1680.32 655.326L1695.73 641.687L1687.84 652.437L1688.18 655.687L1692.54 652.076L1694.32 653.52L1682.82 665.381L1695.73 664.659L1693.59 669.658L1711.18 683.325L1722.68 678.63L1726.95 686.908L1740.23 676.492L1750.65 675.408L1806.98 586.801L1795.87 564.885Z" fill="url(#paint6_linear_2160_8)"/>
<path d="M1716.2 698.741L1710.45 694.436V693.353L1703.65 716.324L1710.81 717.407L1730.2 696.575L1716.2 698.741Z" fill="url(#paint7_linear_2160_8)"/>
<path d="M1910.7 677.935L1903.5 669.658L1905.31 657.075L1898.84 653.159L1892.75 683.324L1883.42 686.907L1887.72 695.157L1881.61 700.546L1869.78 696.935L1809.87 734.988L1819.2 740.016L1876.98 701.99L1881.98 703.379L1901.36 692.99L1903.5 686.518L1907.47 686.907L1920 672.908L1910.7 677.935Z" fill="url(#paint8_linear_2160_8)"/>
<path d="M1613.6 250.205L1615.74 225.095L1612.16 226.511L1608.21 242.288L1613.6 250.205Z" fill="url(#paint9_linear_2160_8)"/>
<path d="M1567.29 465.835L1655.2 466.918L1642.29 476.973L1641.93 481.612L1665.98 464.751L1579.12 460.474L1583.1 455.113L1562.29 450.78L1560.13 455.446L1533.93 449.363L1529.63 454.363L1567.29 465.835Z" fill="url(#paint10_linear_2160_8)"/>
<path d="M1555.49 264.566H1555.46L1551.52 263.844L1547.94 265.26L1546.13 264.566L1542.19 269.955L1544.32 276.038H1549.35L1553.32 273.177L1555.49 264.566Z" fill="url(#paint11_linear_2160_8)"/>
<path d="M1534.29 442.891L1536.43 424.947L1532.13 425.669L1519.24 411.309L1522.43 407.003L1467.91 367.172L1528.88 449.362L1534.29 442.891Z" fill="url(#paint12_linear_2160_8)"/>
<path d="M1175.84 494.916L1144.59 522.915L1137.45 585.357L1151.42 589.662L1160.36 582.496L1176.53 520.054L1181.56 517.526L1178.31 493.5L1175.84 494.916Z" fill="url(#paint13_linear_2160_8)"/>
<path d="M409.538 260.87L374.595 243.677L346.318 249.315L347.402 254.704L360.04 245.01L405.26 264.398L409.538 260.87Z" fill="url(#paint14_linear_2160_8)"/>
<path d="M820.6 35.076L819.711 38.5203L826.711 41.0202L842.321 36.326L844.488 23.2432L847.904 21.2711L846.793 16.2713L834.266 15.188L830.488 19.8267L832.127 20.1878L830.294 21.9932H828.183L826.35 20.91L823.683 21.2711L822.766 22.8821L823.877 25.4098L822.044 27.1875L826.35 29.5207L826.016 32.0484L823.655 33.1039L820.6 35.076Z" fill="url(#paint15_linear_2160_8)"/>
<path d="M844.99 11.9378H845.017L849.323 14.6321L851.656 14.1043L850.045 16.6042L857.933 20.2152L859.572 22.7151L859.183 28.0759L855.045 28.4648L851.85 32.048H854.517L854.878 34.5479L848.073 37.2422L848.239 39.9365L856.156 40.8254L856.878 42.0753L844.656 50.325L846.962 51.4083L848.406 49.6028L882.155 44.9641L885.377 31.5202L878.238 31.1314L878.377 27.5482L865.655 5.82692L869.044 1.91042L861.35 -0.978341L866.739 -10.1168L866.183 -11.8945L863.683 -10.8668L861.35 -7.4225L854.878 -7.61694L846.267 0.632705L845.906 7.43795L848.073 8.54902L846.101 9.60453L844.99 11.9378Z" fill="url(#paint16_linear_2160_8)"/>
<path d="M644.444 445.752L613.195 425.309L589.53 424.198L585.586 426.364V417.781L567.642 410.226L561.531 415.615V408.782L552.226 403.06L553.309 395.504L548.976 391.921L545.032 377.227L499.811 357.089L496.589 349.59L484.757 343.84L484.423 339.923L473.368 331.646L462.869 331.09L461.258 334.313L428.148 319.535L418.204 331.368L418.732 340.007L414.149 335.118L417.398 330.563V324.119L421.426 321.424L419.815 317.924L397.205 327.591L392.372 338.923L356.568 343.479L343.124 329.229L348.235 298.814L340.152 292.87H315.125L331.263 254.149L309.736 256.566L305.181 270.038L282.293 276.204L276.655 271.899L276.405 272.982L265.877 249.039L275.044 212.429L303.848 193.596L314.875 195.208L317.542 197.902L324.291 196.791L331.013 190.069L347.957 189.541L353.068 195.208L360.595 192.263L367.067 199.235L365.178 208.124L372.456 225.373L375.956 226.706L377.567 188.486L424.12 147.598L423.565 137.349L427.898 136.571L432.176 127.405L436.481 127.933L444.842 117.433L467.452 110.989L470.146 108.045L466.924 105.35L473.646 95.3786L507.839 83.268L497.312 89.9899L499.478 95.1008L527.727 85.4345L530.699 80.8514L538.227 79.4904L536.615 76.2683L537.171 71.9629L526.366 80.5736L515.894 80.0737L511.061 72.7684L519.922 57.9913L512.672 55.8247L486.284 67.6575L500.006 56.658L505.672 55.8247L512.144 49.9083L567.559 40.2143L568.67 41.5753L544.948 66.852L565.42 67.3798L566.753 71.1574L571.336 67.9353L573.753 74.1017L581.836 67.9353L579.419 60.9356L581.586 54.4637L572.142 54.7414L571.058 41.0198L577.53 32.909L573.225 19.2152L558.142 8.18789L561.114 1.18819L557.087 -20.0887L534.477 -5.25597L528.532 -10.3946L529.088 -17.1166L534.199 -21.9775L525.838 -24.644L525.31 -26.8106L517.255 -33.8103L514.811 -31.3659L497.062 -33.0048L478.618 -6.08926L483.868 -1.7839L479.812 7.88234L456.952 17.8541L452.647 35.6311L441.897 42.8808L437.12 31.3258L442.675 32.3813L443.508 28.6037L439.203 28.8814L445.119 15.9931L431.12 14.9098L427.926 11.1322L420.898 10.0489L420.343 7.07683L409.565 1.43818L403.121 2.24371L404.455 -8.7836L398.01 -9.8391L474.424 -54.5316L475.507 -53.9761L459.369 -41.0877L465.035 -40.2822L464.202 -37.0324L476.59 -43.2265L483.618 -39.1989L490.34 -39.4767L490.062 -44.5876L477.118 -54.5316L476.062 -57.2259L480.618 -56.6704L484.423 -53.4483L504.589 -64.2256L504.061 -67.7255L510.255 -73.6419L506.2 -77.9195L539.56 -72.2808L536.893 -69.8643L525.838 -68.5032L523.144 -63.1423L531.227 -62.059L537.421 -68.5032L544.143 -69.0587L545.226 -62.6146L530.949 -55.6149L530.699 -50.754L512.394 -51.0318L506.728 -46.4486L511.311 -42.421L529.866 -41.8655L533.671 -34.588L554.67 -32.1715L548.976 -38.9212L563.253 -32.1715L565.392 -38.1156L570.253 -41.06L562.725 -51.0318L562.975 -55.0594L579.391 -48.3374L581.836 -52.365L595.28 -57.7537L581.558 -68.0032L577.78 -66.9199L574.308 -70.9476L579.697 -79.2805L575.364 -83.5859L568.642 -84.9469L567.003 -88.4468L536.338 -99.4741L533.643 -98.6686L530.171 -101.363L508.894 -92.1966L509.172 -101.363L485.201 -87.6413L485.479 -81.1693L498.117 -79.0305L474.451 -61.8091L473.368 -66.1144L478.757 -69.3365L470.674 -74.9752L469.341 -90.0578L497.867 -102.696L475.507 -101.891L449.425 -81.4193L448.869 -75.2529L438.675 -77.1417L427.926 -72.8364V-66.9199L381.067 -68.781L380.539 -65.0311L349.04 -65.3089L358.734 -69.6143L321.597 -76.0584L320.542 -80.086L311.903 -76.5862L309.486 -82.2526L187.325 -86.0302L187.853 -87.4468L188.103 -87.6135L117.356 -69.892L120.023 -58.0592L109.523 -56.9759L112.217 -60.7258L84.7463 -53.1983L85.3018 -50.254L83.413 -46.7542L99.3012 -45.1431L101.19 -39.7545L58.1086 -27.0884L52.7477 -14.45L62.1639 -16.0611L56.7753 -8.7836L70.7747 -7.97807L0 21.8817L111.106 -16.5888L110.606 -11.2002L172.215 -13.6445L177.603 -5.56152L175.992 18.1319L185.686 17.0486L184.325 45.8529L176.798 44.2419L176.52 51.2138L186.242 60.9078L150.16 118.239L153.66 159.154L167.937 171.514L174.381 203.54L169.02 207.318L175.187 215.901L177.631 216.207L182.492 221.845L180.575 229.373L191.353 244.705L195.936 240.15L177.076 192.235L178.964 181.208L186.77 182.819L200.241 215.901L198.63 223.179L218.268 246.594L217.99 256.01L215.018 260.594L216.629 267.066L233.073 279.148L235.74 278.621L267.238 294.509L277.738 291.287L345.846 349.423L348.263 347.812L360.068 355.617L364.651 352.895L363.345 347.812L367.623 343.507H371.4L375.428 346.729L375.15 350.479L380.011 358.284L380.261 380.088L370.039 391.143L369.789 397.588L363.595 400.004L358.207 422.614L363.595 427.447L355.234 437.697L430.592 539.054L448.869 713.796L453.536 713.463L450.675 705.574L454.258 705.935L457.119 723.49L454.258 720.962L449.953 725.657L453.536 728.879L451.036 740.35L456.063 741.073L459.647 743.934L456.063 750.044L496.951 793.82L521.005 799.903L531.393 792.376L502.339 772.988L499.811 765.822L503.756 762.961L508.783 746.1L497.312 736.767L498.006 728.49L502.339 726.018L504.117 713.435L508.061 708.768L500.2 707.713L496.589 701.991V697.658L508.45 698.352L511.672 693.714L512.033 683.658L531.755 680.797L532.838 661.409L526.366 650.993L522.783 651.715L526.033 648.493L543.948 655.687L560.475 622.994H565.836L573.725 602.912L571.947 591.051L611.807 565.941L644.444 445.752Z" fill="url(#paint17_linear_2160_8)"/>
<path d="M409.04 278.898L442.649 271.371L435.372 265.705L416.817 266.26L416.012 274.065H407.123L406.873 274.871L409.04 278.898Z" fill="url(#paint18_linear_2160_8)"/>
<path d="M1685 393.5C1686.2 375.5 1727.83 257.333 1748.5 200.5L1975.5 189.5L1987 378.5L2031 773.5L1829.5 792L1459.5 739.5C1460.67 670 1463 527.4 1463 513C1463 495 1520.5 491 1552.5 502.5C1584.5 514 1666.5 493 1681.5 483C1696.5 473 1698 461 1690.5 451C1683 441 1683.5 416 1685 393.5Z" fill="white"/>
</g>
</g>
<defs>
<linearGradient id="paint0_linear_2160_8" x1="1638" y1="394.087" x2="1638" y2="448.64" gradientUnits="userSpaceOnUse">
<stop stop-color="#100C08"/>
<stop offset="1" stop-color="#100C08" stop-opacity="0"/>
</linearGradient>
<linearGradient id="paint1_linear_2160_8" x1="1638.52" y1="271.398" x2="1638.52" y2="368.255" gradientUnits="userSpaceOnUse">
<stop stop-color="#100C08"/>
<stop offset="1" stop-color="#100C08" stop-opacity="0"/>
</linearGradient>
<linearGradient id="paint2_linear_2160_8" x1="1599.26" y1="433.53" x2="1599.26" y2="434.058" gradientUnits="userSpaceOnUse">
<stop stop-color="#100C08"/>
<stop offset="1" stop-color="#100C08" stop-opacity="0"/>
</linearGradient>
<linearGradient id="paint3_linear_2160_8" x1="1271.93" y1="-114.585" x2="1271.93" y2="655.52" gradientUnits="userSpaceOnUse">
<stop stop-color="#100C08"/>
<stop offset="1" stop-color="#100C08" stop-opacity="0"/>
</linearGradient>
<linearGradient id="paint4_linear_2160_8" x1="1749.39" y1="410.587" x2="1749.39" y2="481.307" gradientUnits="userSpaceOnUse">
<stop stop-color="#100C08"/>
<stop offset="1" stop-color="#100C08" stop-opacity="0"/>
</linearGradient>
<linearGradient id="paint5_linear_2160_8" x1="1585.79" y1="358.923" x2="1585.79" y2="434.058" gradientUnits="userSpaceOnUse">
<stop stop-color="#100C08"/>
<stop offset="1" stop-color="#100C08" stop-opacity="0"/>
</linearGradient>
<linearGradient id="paint6_linear_2160_8" x1="1681.22" y1="483.083" x2="1681.22" y2="686.908" gradientUnits="userSpaceOnUse">
<stop stop-color="#100C08"/>
<stop offset="1" stop-color="#100C08" stop-opacity="0"/>
</linearGradient>
<linearGradient id="paint7_linear_2160_8" x1="1716.92" y1="693.353" x2="1716.92" y2="717.407" gradientUnits="userSpaceOnUse">
<stop stop-color="#100C08"/>
<stop offset="1" stop-color="#100C08" stop-opacity="0"/>
</linearGradient>
<linearGradient id="paint8_linear_2160_8" x1="1864.93" y1="653.159" x2="1864.93" y2="740.016" gradientUnits="userSpaceOnUse">
<stop stop-color="#100C08"/>
<stop offset="1" stop-color="#100C08" stop-opacity="0"/>
</linearGradient>
<linearGradient id="paint9_linear_2160_8" x1="1611.97" y1="225.095" x2="1611.97" y2="250.205" gradientUnits="userSpaceOnUse">
<stop stop-color="#100C08"/>
<stop offset="1" stop-color="#100C08" stop-opacity="0"/>
</linearGradient>
<linearGradient id="paint10_linear_2160_8" x1="1597.8" y1="449.363" x2="1597.8" y2="481.612" gradientUnits="userSpaceOnUse">
<stop stop-color="#100C08"/>
<stop offset="1" stop-color="#100C08" stop-opacity="0"/>
</linearGradient>
<linearGradient id="paint11_linear_2160_8" x1="1548.84" y1="263.844" x2="1548.84" y2="276.038" gradientUnits="userSpaceOnUse">
<stop stop-color="#100C08"/>
<stop offset="1" stop-color="#100C08" stop-opacity="0"/>
</linearGradient>
<linearGradient id="paint12_linear_2160_8" x1="1502.17" y1="367.172" x2="1502.17" y2="449.362" gradientUnits="userSpaceOnUse">
<stop stop-color="#100C08"/>
<stop offset="1" stop-color="#100C08" stop-opacity="0"/>
</linearGradient>
<linearGradient id="paint13_linear_2160_8" x1="1159.5" y1="493.5" x2="1159.5" y2="589.662" gradientUnits="userSpaceOnUse">
<stop stop-color="#100C08"/>
<stop offset="1" stop-color="#100C08" stop-opacity="0"/>
</linearGradient>
<linearGradient id="paint14_linear_2160_8" x1="377.928" y1="243.677" x2="377.928" y2="264.398" gradientUnits="userSpaceOnUse">
<stop stop-color="#100C08"/>
<stop offset="1" stop-color="#100C08" stop-opacity="0"/>
</linearGradient>
<linearGradient id="paint15_linear_2160_8" x1="833.808" y1="15.188" x2="833.808" y2="41.0202" gradientUnits="userSpaceOnUse">
<stop stop-color="#100C08"/>
<stop offset="1" stop-color="#100C08" stop-opacity="0"/>
</linearGradient>
<linearGradient id="paint16_linear_2160_8" x1="865.016" y1="-11.8945" x2="865.016" y2="51.4083" gradientUnits="userSpaceOnUse">
<stop stop-color="#100C08"/>
<stop offset="1" stop-color="#100C08" stop-opacity="0"/>
</linearGradient>
<linearGradient id="paint17_linear_2160_8" x1="322.222" y1="-102.696" x2="322.222" y2="799.903" gradientUnits="userSpaceOnUse">
<stop stop-color="#100C08"/>
<stop offset="1" stop-color="#100C08" stop-opacity="0"/>
</linearGradient>
<linearGradient id="paint18_linear_2160_8" x1="424.761" y1="265.705" x2="424.761" y2="278.898" gradientUnits="userSpaceOnUse">
<stop stop-color="#100C08"/>
<stop offset="1" stop-color="#100C08" stop-opacity="0"/>
</linearGradient>
</defs>
</svg>
